<?xml version="1.0" encoding="utf-8"?>
<!-- Generator: Adobe Illustrator 18.1.0, SVG Export Plug-In . SVG Version: 6.00 Build 0)  -->
<!DOCTYPE svg PUBLIC "-//W3C//DTD SVG 1.1//EN" "http://www.w3.org/Graphics/SVG/1.1/DTD/svg11.dtd">
<svg version="1.1" id="Layer_1" xmlns="http://www.w3.org/2000/svg" xmlns:xlink="http://www.w3.org/1999/xlink" x="0px" y="0px"
	 width="21.3px" height="6px" viewBox="-1191.2 788.8 21.3 6" enable-background="new -1191.2 788.8 21.3 6" xml:space="preserve">
<path fill="#FFFFFF" d="M-1181.6,790.3c1.1-1.1-0.3-1.9-1-1.2c-1,1-3.6,3.5-3.6,3.5s-2.5-2.5-3.6-3.5c-0.8-0.7-2.1,0.1-1,1.2
	c1.5,1.5,4.6,4.5,4.6,4.5S-1183.1,791.8-1181.6,790.3z"/>
<path fill="#FFFFFF" d="M-1179.6,793.3c-1.1,1.1,0.3,1.9,1,1.2c1-1,3.6-3.5,3.6-3.5s2.5,2.5,3.6,3.5c0.8,0.7,2.1-0.1,1-1.2
	c-1.5-1.5-4.6-4.5-4.6-4.5S-1178.1,791.8-1179.6,793.3z"/>
</svg>
