<?xml version="1.0" encoding="utf-8"?>
<!-- Generator: Adobe Illustrator 18.0.0, SVG Export Plug-In . SVG Version: 6.00 Build 0)  -->
<!DOCTYPE svg PUBLIC "-//W3C//DTD SVG 1.1//EN" "http://www.w3.org/Graphics/SVG/1.1/DTD/svg11.dtd">
<svg version="1.1" id="Layer_1" xmlns="http://www.w3.org/2000/svg" xmlns:xlink="http://www.w3.org/1999/xlink" x="0px" y="0px"
	 width="56.914px" height="70.942px" viewBox="0 0 56.914 70.942" enable-background="new 0 0 56.914 70.942" xml:space="preserve">
<polygon fill="#A02842" points="38.954,0 0,0 0,70.694 56.914,70.694 56.914,16.129 "/>
<path fill="none" stroke="#231F20" stroke-width="4" stroke-miterlimit="10" d="M38.974,8.358"/>
<linearGradient id="SVGID_1_" gradientUnits="userSpaceOnUse" x1="47.9456" y1="29.813" x2="47.9456" y2="11.9309">
	<stop  offset="0" style="stop-color:#FFFFFF"/>
	<stop  offset="1" style="stop-color:#000000"/>
</linearGradient>
<polygon opacity="0.4" fill="url(#SVGID_1_)" points="38.977,16.37 56.914,36.544 56.914,16.129 "/>
<polygon fill="#CC9FA9" points="56.914,16.129 38.954,16.37 38.954,0 "/>
<path fill="#FFFFFF" d="M51.904,42.553c-0.123-0.164-0.204-0.204-0.246-0.246C51.25,41.9,50.8,42.022,50.393,41.9
	c-0.041,0-0.123-0.041-0.123-0.041h-0.123c0-0.326,0.123-0.326,0.123-0.449c-0.123-0.246-0.449-0.286-0.572-0.286h-0.572v-0.041
	v-0.204c0,0,0-0.122,0.163-0.122c0-0.041,0.041-0.041,0.246-0.123v-0.49h-0.246c-0.163-0.163-0.245-0.163-0.245-0.204
	c0-0.204-0.204-0.204-0.204-0.204v-0.04l0.204-0.081c0.082-0.164,0.49,0,0.695-0.164v-0.082v-0.081
	c-0.041-0.123-0.204-0.123-0.204-0.326c-0.204-0.123-0.204-0.327,0-0.369v-0.163c0-0.122,0.204-0.163,0.163-0.367h-0.163
	c-0.246-0.204-0.409-0.204-0.49,0H48.84h-0.286v-0.204v-0.53c0-0.164,0-0.204-0.245-0.204c0,0-0.204-0.082-0.367-0.082
	c-0.369,0.082-0.899,0-1.308,0.082c-0.122,0-0.326,0.04-0.326,0.04c-0.204,0-0.204-0.04-0.204-0.04h-0.082v-0.082
	c-0.083-0.082-0.204-0.123-0.409-0.123c-0.245-0.041-0.572-0.041-0.776-0.286c-0.286-0.367-0.816,0-1.388-0.163v-0.123
	c-0.041,0-0.041-0.082-0.041-0.082v-0.041c0.041-0.163,0.041-0.163,0.041-0.204c0.163,0,0.163,0,0.163-0.082v-0.082h-0.163
	c0-0.123-0.164-0.204-0.369-0.204h-0.122c-0.204,0.041-0.449,0.082-0.653,0.123c-0.246,0-0.45-0.041-0.613-0.123h-0.123
	c0-0.04-0.04-0.04-0.04-0.163c0.04-0.041,0.163-0.163,0.163-0.163l0.204-0.123v-0.123v-0.204c-0.123-0.122-0.204-0.122-0.367-0.122
	h-0.082v0.122h-0.041c-0.041,0.083-0.204,0.204-0.204,0.204h-0.204c-0.612-0.326-0.939,0-1.43,0.123l-0.122-0.123h-0.041
	c-0.244,0-0.367,0.123-0.53,0h-0.083v-0.122c0-0.083-0.163-0.083,0-0.083v-0.367c0-0.082-0.203-0.286-0.326-0.286v-0.04l-0.041,0.04
	c-0.245,0.204-0.572,0.204-0.735,0.204h-0.04l-0.204-0.204c-0.123-0.081-0.123-0.081-0.123-0.163v-0.49
	c0.123-0.081,0.327-0.204,0.327-0.204c0.203-0.081,0.489-0.081,0.612-0.245h0.163v-0.163c-0.163-0.041-0.163-0.041-0.163-0.083
	c-0.081-0.122-0.081-0.122-0.123-0.122c-0.489-0.246-0.939-0.082-1.43,0.081c-0.326,0.082-0.653,0.123-1.021,0.04
	c0,0,0-0.082-0.082-0.122h-0.041c-0.163-0.123-0.245-0.246-0.449-0.123v0.123l-0.204,0.326c0,0.041,0,0.041-0.04,0.041
	c-0.164,0.245-0.367,0.245-0.655,0.449h-0.04c-0.204-0.081-0.572,0-0.858-0.123c-0.041-0.04-0.082-0.04-0.123-0.082
	c-0.163,0-0.163-0.122-0.245-0.245c-0.041-0.041-0.246-0.041-0.286-0.163c-0.163-0.041-0.163-0.041-0.163-0.083V32.75
	c0.163-0.123,0.408-0.123,0.408-0.246l0.041-0.082v-0.122h-0.041c-0.204-0.164-0.53-0.164-0.735-0.164l-0.123-0.163
	c-0.286,0-0.286-0.041-0.286-0.041v-0.572c-0.04-0.163-0.204-0.163-0.204-0.245H31.44h-0.246c0,0.04-0.082,0.082-0.163,0.163v0.081
	c-0.204,0-0.123,0.164,0,0.286c0.041,0.041,0.123,0.081,0.163,0.081v0.164c-0.082,0-0.122,0.04-0.163,0.04h-0.245h-0.327h-0.123
	c0,0-0.04,0-0.04,0.041c-0.081,0-0.204,0.04-0.204,0.163H30.01c-0.123-0.123-0.204-0.123-0.327-0.163h-0.204h-0.122v-0.041h-0.123
	c0.123-0.204,0.123-0.286,0.245-0.286c0.082-0.082,0.164-0.122,0.204-0.163c0.204-0.123,0.409-0.163,0.409-0.286v-0.163
	l-0.041-0.123c-0.123-0.04-0.245-0.04-0.367-0.04c-0.449,0.04-0.776,0.489-1.47,0.326c-0.083,0.123-0.164,0.163-0.204,0.123
	c-0.082,0-0.123-0.041-0.204-0.123c0-0.082-0.246-0.163-0.449-0.163h-0.041c0,0,0,0.081-0.245,0.081v-0.081
	c-0.041,0.04-0.123,0.081-0.164,0.122c-0.122,0.041-0.326,0.041-0.53,0.041l-0.041,0.163c-0.163,0-0.163,0-0.163,0.286h-0.041v0.081
	v0.164h-0.04h-0.163v0.04h-0.082v0.204c0,0,0,0.164-0.041,0.164H25.64c0,0.04-0.041,0-0.082,0c-0.123,0-0.164,0-0.409-0.164
	c-0.041,0-0.041,0-0.041-0.163c0-0.041,0.041-0.041,0.286-0.246v-0.081c-0.204-0.245-0.367-0.286-0.49-0.449
	c0,0-0.04-0.041-0.04-0.082v-0.081v-0.123h0.04h0.49c0,0,0.041-0.081,0.164-0.163v-0.082c0.04-0.041,0.082-0.041,0.082-0.083
	c0.163-0.122,0.286-0.163,0.449-0.203h0.081h0.163v-0.204v-0.041v-0.163c0,0-0.163,0-0.163-0.041c-0.041-0.04-0.041-0.04-0.081-0.04
	c-0.163-0.082-0.286-0.082-0.449-0.082c-0.164,0-0.327,0-0.49-0.164c0,0,0-0.04-0.041-0.04h-0.204h-0.04
	c-0.164,0.163-0.367,0.163-0.613,0.163c-0.286,0-0.612-0.04-0.981,0.163c0,0-0.04,0.041-0.082,0.123
	c-0.04,0.041-0.04,0.041-0.04,0.082v0.246l-0.204,0.082c-0.204-0.082-0.286-0.49-0.53-0.735c0-0.123-0.287-0.123-0.287-0.246h-0.449
	v0.123l-0.245,0.123h-0.041c-0.163,0.245-0.367,0.285-0.572,0.245c-0.123,0-0.245-0.041-0.367-0.041
	c-0.204,0-0.204-0.203-0.204-0.203v-0.083v-0.163c0.204,0,0.204-0.204,0-0.286h-0.286c-0.204,0-0.245,0.082-0.408,0.286
	l-0.369,0.163c0,0,0,0.083-0.082,0.083c-0.082-0.083-0.082-0.083-0.123-0.083c0-0.04-0.122-0.04-0.122-0.04l-0.123-0.123v-0.286
	v-0.204h-0.163h-0.818h-0.04V28.91c-0.164-0.123-0.164-0.123-0.327-0.245V28.42l-0.04-0.163l-0.082-0.041h-0.041l-0.286,0.041
	c-0.327,0-0.49,0.409-0.818,0.53h-0.203c-0.204,0.082-0.49,0-0.736-0.04h-0.326c-0.041,0-0.041,0.04-0.082,0.04
	c-0.204,0-0.204,0-0.369,0.123l-0.04,0.082v0.49c0,0.041-0.041,0.081-0.041,0.081c-0.04,0.082-0.122,0.123-0.122,0.164h-0.164
	c-0.163,0-0.408,0-0.408,0.245c-0.123,0-0.123,0.204-0.204,0.409h-0.204H13.18c-0.408-0.204-0.735-0.204-0.939-0.45
	c-0.286-0.203-0.449,0.041-0.572,0.041l-0.082,0.163h-0.123c0,0.327,0.204,0.532,0.246,0.695l0.082,0.081
	c0.327,0,0.653,0.123,0.981,0.204c0.204,0.082,0.245,0.082,0.408,0.245v0.286c0,0-0.163,0-0.163,0.081c-0.245,0-0.367,0-0.572,0.164
	c-0.53,0.04-0.776-0.695-1.388-0.532c-0.082-0.122-0.246-0.204-0.409-0.245h-0.123c-0.082-0.081-0.326-0.081-0.449,0v0.245v0.286
	c0.123,0.081,0.246,0.081,0.367,0.246v0.04v0.041h-0.122H9.79c-0.245,0.163-0.327,0.163-0.653,0.327v0.203L9.3,32.75v0.122v0.041
	c-0.163,0-0.163,0.041-0.163,0.041H8.81c-0.204-0.041-0.449-0.083-0.776-0.041v0.041v0.122c-0.082,0.041-0.082,0.041-0.082,0.164
	c0,0,0,0.04,0.082,0.04v0.081c0,0,0.164,0,0.49,0.123c0.082,0.081,0.286,0.123,0.286,0.123c0.123,0.163,0.123,0.163,0.123,0.203
	c0,0.246-0.123,0.246-0.123,0.327c0.123,0,0.123,0,0.123,0.081c0.123,0,0.123,0,0.123,0.204h0.082C9.3,34.506,9.3,34.506,9.3,34.587
	c0.163,0,0.163,0,0.163,0.164c0,0-0.163,0-0.163,0.122H8.81c-0.122,0.041-0.245,0.083-0.286,0.204H8.198
	c0,0.123-0.123,0.123-0.123,0.123c-0.041,0.286-0.449,0.123-0.735,0.123c0,0-0.123,0-0.123-0.123
	c-0.204-0.123-0.367-0.123-0.572-0.245l-0.041-0.041c-0.082-0.041-0.245-0.041-0.245,0.041v0.122c-0.163,0-0.163,0.123-0.163,0.123
	H5.95c-0.04,0.123-0.367,0-0.572,0.123c-0.122,0.122-0.122,0.286-0.122,0.408c-0.164,0-0.164,0.123-0.164,0.123
	c-0.163,0.204-0.858,0.163-1.102,0.367c0,0,0,0.041-0.082,0.041v0.082c0.082,0.123,0.286,0.286,0.286,0.286h0.898
	c0.286,0.163,0.49,0,0.818,0.163h0.04c-0.04,0-0.04,0.204-0.04,0.246l-0.532,0.082v0.204v0.122v0.246h1.185v0.163v0.204H6.359
	c-0.163,0-0.409,0-0.449,0.204c-0.123,0-0.327,0.041-0.327,0.041c-0.204,0-0.612,0-0.653,0.122v0.082v0.123l-0.286,0.204h-0.04
	c0,0-0.164,0-0.164,0.123c-0.122,0-0.245-0.123-0.245-0.123c-0.204,0-0.367-0.204-0.409-0.246c-0.163-0.163-0.327-0.163-0.653,0
	c-0.041,0.041-0.041,0.246-0.123,0.369c-0.122,0.203-0.326,0-0.612,0c-0.123,0-0.45,0-0.49,0.326v0.081c0,0,0.04,0,0.04,0.082
	c0.246,0,0.45,0,0.736,0.164h0.122c0,0,0.204,0.081,0.327,0.081c0.041,0,0.041,0,0.245,0.04c0,0.204-0.203,0.204-0.203,0.204
	c-0.083,0.204-0.246,0.204-0.369,0.327v0.204v0.163h0.083c0.122,0,0.245,0,0.489-0.163c0.082-0.041,0.082-0.327,0.286-0.327h0.532
	l0.04,0.327v0.163h0.204c0,0.081,0.164,0.081,0.49,0c0,0,0.041,0,0.163,0.081v0.163h0.164v0.204c0.53-0.204,0.693-0.612,1.102-0.816
	h0.204v0.204c0,0.082,0.04,0.122,0.04,0.163h0.041h0.367v0.081v0.163c0,0.204-0.163,0.204-0.163,0.204H6.604
	c0,0.041-0.04,0.041-0.04,0.041v0.04v0.246h0.04h0.164c0.367-0.246,0.858,0,1.184-0.246h0.082l0.041-0.04h0.245
	c0.204,0,0.204-0.041,0.204-0.041c0.082-0.326,0.082-0.449,0.286-0.612c0.123,0,0.246,0.163,0.286,0.163
	c0.041,0,0.041,0.081,0.041,0.081C9.3,40.878,9.3,41.124,9.3,41.124l-0.163,0.04c-0.041,0.041-0.041,0.041-0.082,0.041v0.204h0.04
	h0.45c0.53,0,0.776,0,0.898-0.286h0.082h0.123h0.123h0.204h0.082c0,0,0,0.04,0.122,0.04v0.041l-0.122,0.204h-0.082
	c0,0-0.041,0-0.041,0.123c0,0.326-0.082,0.367,0,0.489c0,0.041,0,0.041,0.041,0.123h0.203c0.286-0.123,0.49-0.245,0.776-0.245
	c0.695,0.122,1.471-0.041,2.083,0.163c0.164,0,0.164,0.081,0.164,0.081c0,0.041-0.164,0.041-0.164,0.163v0.041
	c-0.408,0.204-0.816,0.04-1.061,0.246c0,0-0.204,0-0.204,0.08v0.041c0.449,0.163,1.102,0,1.265,0.327h0.164v0.163v0.123v0.04h0.122
	h0.041c0,0.082,0,0.082,0.04,0.082l0.164,0.083v0.245v0.082c-0.123,0.082-0.204,0.163-0.246,0.245
	c-0.04,0.083-0.082,0.123-0.122,0.164h-0.327c-0.245,0.204-0.449,0.163-0.858,0.163c-0.367,0.327-0.898,0.163-1.348,0.163h-0.204
	c0,0.164-0.082,0.164-0.122,0.164c-0.164,0.081,0,0.203,0,0.286l0.04,0.082c0.286,0.122,0.572,0.122,0.736,0.163
	c0.122,0.286,0.326,0.286,0.326,0.49h-0.082h-0.123v0.163c-0.572-0.204-1.102,0-1.593,0.082c-0.326,0.041-0.613,0.083-0.899-0.082
	c-0.203-0.163-0.286-0.163-0.286,0L9.3,46.025v0.204c0,0.123,0.163,0.123,0.163,0.123c0.041,0,0.083,0.082,0.286,0.245l0.327,0.164
	c0,0.122,0.123,0.122,0.246,0.286h0.326l0.123-0.164c0.163-0.122,0.286-0.286,0.408-0.326c0-0.123,0.164-0.123,0.204-0.123
	c0.204,0.123,0.286,0.163,0.409,0.327h0.572c0.082-0.164,0.286-0.204,0.409-0.327v-0.082h0.449c0.204,0,0.204,0,0.286,0.082v0.163
	c0.123,0.164,0.123,0.164,0.123,0.286h0.245c0.163,0.164,0.327,0,0.327,0c0.04,0.041,0.082,0.082,0.122,0.082
	c0.123,0.083,0.246,0.123,0.246,0.164v0.081c-0.082,0-0.164,0-0.246,0.04c-0.082,0-0.122,0-0.122,0.083v0.286v0.122h0.122h0.041
	h0.409h0.082c0.123,0.041,0.204,0.083,0.326,0.123c0.164,0.082,0.246,0.204,0.246,0.409c0,0.082,0.123,0.082,0.123,0.082
	c0.082,0,0.122-0.204,0.203-0.204c0.123-0.123,0.164-0.123,0.327,0c0,0.082,0.04,0.123,0.04,0.123c0,0.04,0.041,0.082,0.041,0.082
	v0.123c0.123,0.081,0.123,0.244,0,0.244c0,0,0,0.041-0.041,0.041c-0.122,0.163-0.367,0.163-0.449,0.163l-0.122,0.041h-0.369
	c0,0-0.203-0.041-0.203-0.246h-0.123h-0.082v-0.163v-0.081h-0.45h-0.122v0.081c-0.164,0-0.164,0.122-0.164,0.163
	c0,0,0.164,0.204,0.164,0.246c-0.164,0-0.164,0.163-0.164,0.163v0.122h-0.163c-0.367,0-0.653,0-0.858,0.164
	c-0.04-0.164-0.245-0.164-0.245-0.164V49.13v-0.163c0,0-0.123,0-0.123-0.041v-0.204h-0.123c0-0.041,0-0.041-0.082-0.041h-0.204
	c0,0,0,0.041-0.122,0.041h-0.083c0,0-0.082,0-0.245,0.204c-0.123,0-0.409,0.041-0.735,0.204v-0.163h-0.082v-0.041
	c0-0.204,0.082-0.204,0.082-0.246v-0.203h-0.123v-0.123c-0.082,0-0.204-0.041-0.286-0.041c-0.286,0-0.572,0.081-0.858,0.164v0.081
	v0.122v0.041H9.749H8.933C8.893,48.68,8.851,48.68,8.81,48.64c-0.04-0.041-0.082-0.123-0.204-0.163
	c-0.082-0.123-0.408-0.123-0.572,0v0.081v0.122v0.041l0.041,0.204v0.041v0.163l-0.041,0.122c-0.408,0-0.898,0.369-1.43,0.409h-0.04
	c-0.204-0.123-0.367-0.204-0.613-0.123L5.91,49.66c0,0.041-0.123,0.082-0.123,0.082c0,0.123-0.204,0.246,0,0.367H5.91
	c0.286,0,0.49,0.041,0.693,0.164c0.164,0.082,0.286,0.163,0.409,0.326h0.082c0.246-0.163,0.246-0.367,0.532-0.449H7.83
	c0.203,0.082,0.367,0.286,0.775,0.246H8.77c0.04-0.246-0.164-0.409,0.04-0.655h0.286h0.041L9.3,49.865v0.532h0.163l0.083,0.04V50.6
	h0.203c0,0.246-0.203,0.246-0.203,0.286v0.041c0,0.204,0,0.245,0.203,0.245c0.286,0,0.573-0.122,0.899-0.245
	c0.409-0.204,0.776-0.49,1.144-0.695l0.123-0.082c0.204-0.041,0.449,0.082,0.612,0.082h0.246v0.164v0.04
	c-0.123,0-0.123,0.163-0.123,0.163h-0.123v0.246c0.123,0.04,0.246,0.082,0.246,0.326v0.164h-0.246l-0.082,0.163
	c-0.326-0.163-0.776-0.163-1.102,0.082l-0.164,0.082v0.163h0.164c0.245,0.041,0.367,0.041,0.612,0.164h0.164
	c0.122,0.123,0.245,0.244,0.326,0.367c0.327,0.286,0.981,0.082,1.43-0.123c0.163,0,0.286,0,0.449-0.204c0,0,0-0.04,0.041-0.04
	h-0.041c-0.122,0,0-0.123-0.122-0.123v-0.041v-0.203c0-0.123,0-0.246,0.122-0.286h0.041c0.04-0.164,0.204-0.164,0.409-0.164
	c0,0.082,0.04,0.123,0.082,0.123c0.04,0.041,0.123,0.041,0.123,0.041c0.082,0.04,0.122,0.081,0.203,0.081
	c0.164,0,0.409-0.081,0.49-0.081l0.082-0.164c0-0.04,0.123-0.04,0.123-0.245v-0.041c0-0.04-0.123-0.04-0.123-0.04
	c-0.082,0-0.203,0-0.326-0.246v-0.163v-0.04c0-0.164,0.123-0.164,0.123-0.164h0.082c0.122,0,0.326,0,0.489,0.082
	c0.083,0.041,0.123,0.083,0.164,0.123c0.163,0.409,0.245,0.49,0.326,0.899c0.123,0.163,0.246,0.245,0.369,0.326
	c0.082,0.123,0.163,0.123,0.245,0.163h0.163c0.123,0.041,0.246,0.041,0.367,0.081c0.246,0.083,0.532,0.123,0.818,0.164
	c0.735,0.123,1.511,0.204,2.246,0.204c0.818,0.04,1.594,0.04,2.369,0.122c0.082,0,0.204,0,0.327,0.041
	c0.082,0.204,0.163,0.204,0.367,0.204v0.163c0.081,0.163,0,0.572,0,0.695c-0.082,1.716,0.041,3.431,0.367,5.105
	c0.204,0.818,0.409,1.594,0.653,2.369c0.246,0.655,0.49,1.267,0.736,1.88c0.163,0.286,0.286,0.572,0.449,0.816
	c0.245,0.49,0.53,0.981,0.816,1.43c0.286,0.409,0.572,0.818,0.899,1.185v0.04h-0.163c-0.083,0.163-0.083,0.163-0.286,0.163
	c-0.123,0-0.286,0-0.45,0.041c-0.286,0-0.572,0.082-0.816,0.163c-0.082,0.041-0.163,0.041-0.245,0.082
	c-0.083,0.041-0.123,0.041-0.204,0.083c-0.286,0.122-0.49,0.244-0.736,0.408c-0.204,0.123-0.408,0.204-0.653,0.327
	c-0.04,0-0.082,0.041-0.122,0.041c-0.327,0.163-0.655,0.285-0.941,0.408c-0.163,0.082-0.326,0.123-0.449,0.204
	c-0.326,0.204-0.326,0.244-0.613,0.449c-0.449,0.286-0.735,0.655-1.102,0.858c0,0.083-0.082,0.123-0.204,0.204
	c-0.04,0-0.082,0.041-0.123,0.082c-0.04,0.246-0.245,0.653-0.245,0.981c0,0.049,0.005,0.094,0.017,0.123h21.223
	c-0.041-0.041-0.163-0.123-0.286-0.204s-0.286-0.164-0.367-0.246c-0.613-0.244-1.104-0.653-1.634-1.061
	c-0.326-0.246-0.613-0.49-0.939-0.736c-0.53-0.408-1.104-0.816-1.757-1.061c-0.326-0.083-0.653-0.164-1.021-0.204
	c0-0.041-0.04-0.082-0.082-0.082c-0.572-0.49-1.43-0.776-2.246-0.655l-0.041-0.04c-0.041-0.081-0.163-0.204-0.367-0.327
	c-0.449-0.49-0.981-1.062-1.511-1.593c-0.123-0.163-0.246-0.286-0.409-0.409c-0.245-0.245-0.49-0.49-0.735-0.735h-0.041
	c-0.204-0.246-0.408-0.49-0.572-0.735c-0.653-0.941-1.062-1.88-1.47-2.696l-0.123-0.244v-0.532c0.082-1.756,0.49-3.554-0.081-4.984
	c-0.164-0.367-0.367-0.693-0.653-1.021c-0.164-0.204-0.286-0.367-0.45-0.572c-0.122-0.123-0.204-0.286-0.408-0.449
	c0.122-0.327,0.245-0.695,0.408-1.021c0.123-0.246,0.246-0.532,0.409-0.736c0.286-0.367,0.49-0.979,0.695-1.511
	c0.122-0.326,0.286-0.653,0.49-0.816c0.367-0.409,0.775-0.613,1.184-0.695c0.204-0.04,0.409-0.082,0.613-0.082h0.163v0.123h0.081
	c0,0.122,0.123,0.122,0.123,0.122v0.083c-0.123,0-0.123,0-0.123,0.122c-0.081,0.123-0.163,0.163-0.245,0.163
	c-0.164,0.041-0.409-0.04-0.613-0.04c-0.123,0.04-0.286,0.082-0.449,0.204c-0.041,0-0.041,0.082-0.041,0.082
	c-0.04,0-0.04,0-0.04,0.123v0.244c0,0-0.082,0-0.082,0.204v0.041h-0.204c-0.123,0-0.246,0-0.327,0.163c0,0.122-0.04,0.286,0,0.408
	c0.204,0.123,0.286,0.164,0.327,0.164c0,0.04,0.204,0.04,0.204,0.04v0.204c0.082,0.041,0.163,0.204,0.286,0.041
	c0.122,0,0.122-0.041,0.122-0.041c0-0.082,0-0.204,0.204-0.204c0.041-0.04,0.164-0.082,0.327-0.04h0.04
	c0,0.04,0.123,0.082,0.246,0.204c0.082,0.082,0.163,0.163,0.163,0.245c0,0.163-0.082,0.204-0.163,0.286
	c-0.081,0.041-0.123,0.082-0.204,0.163c0.163,0,0.163,0,0.163,0.246h0.041h0.04h0.123c0.163-0.123,0.367-0.246,0.572-0.327
	c0.163-0.04,0.286-0.082,0.409-0.082h0.122c0.164,0,0.164,0,0.204,0.163c0.286,0,0.409,0.286,0.613,0.327h0.123
	c0.163,0,0.203-0.041,0.285-0.041c0.123-0.04,0.123-0.04,0.123-0.286c0.123-0.163,0.286-0.367,0.409-0.367h0.041l0.122,0.164
	c0,0.04,0.164,0.203,0.164,0.203c0.04,0,0.203,0.246,0.286,0.286v0.286c0,0,0,0.164,0.04,0.164h0.163l0.041-0.164
	c0.04-0.04,0.04-0.572,0.327-0.572c0-0.163,0.082-0.203,0.203-0.367c0.164-0.082,0.409-0.123,0.613-0.082
	c0.041,0,0.163,0,0.286-0.041c0.286-0.04,0.653-0.203,0.816-0.367v-0.286c0.123-0.04,0.204-0.163,0.286-0.286l0.041-0.04
	c0.245,0,0.367,0,0.53,0.122c0.041,0,0.041,0,0.041,0.164c0.367,0,0.653-0.164,0.816-0.286l0.286-0.409h0.041
	c0.123,0,0.409,0,0.572-0.163c0-0.081,0.123-0.081,0.123-0.081v-0.204c0-0.286,0-0.409,0.244-0.449h0.041h0.122
	c0.327,0.122,0.695,0,0.818,0.122c0.123,0,0.123,0.204,0.123,0.327l-0.123,0.082c-0.123,0-0.123,0.123-0.327,0.123h-0.163
	c-0.123,0.081-0.123,0.081-0.123,0.203v0.041l0.613,0.246c0.409,0.122,0.776-0.083,1.021-0.287c0.123-0.082,0.204-0.163,0.286-0.203
	v-0.123c-0.123-0.204-0.123-0.409-0.123-0.53l0.123-0.083h0.613c0.204,0,0.367,0.041,0.612,0.083h0.041
	c0.122,0,0.326-0.083,0.49-0.204v-0.123v-0.367h-0.041c-0.123,0-0.286,0-0.327-0.082l-0.122-0.164v-0.122h-0.041h-0.163
	c-0.204,0-0.204,0.122-0.286,0.122c0,0.164-0.041,0.164-0.041,0.164h-0.122c-0.082,0-0.164-0.041-0.164-0.164v-0.286
	c-0.163,0-0.163-0.04-0.245-0.04h-0.123c-0.082,0.04-0.245,0.204-0.326,0.204h-0.041h-0.204v-0.164v-0.245h-0.163
	c-0.041,0-0.041-0.123-0.041-0.123c-0.612-0.204-0.939,0.123-1.43,0.123c0-0.123-0.122-0.123-0.122-0.123v-0.286h-0.041h-0.163
	c-0.204,0-0.45,0-0.776,0.082v0.083c0,0.081,0,0.122-0.041,0.122v0.123h-0.286l-0.082-0.123c0-0.286,0.082-0.449,0.123-0.449
	c0,0,0.081-0.163,0-0.163l0.081-0.041h0.163c0-0.245,0.041-0.286,0.041-0.286v-0.041h0.163c0.286-0.203,0.532-0.163,0.776-0.122
	c0.204,0.082,0.409,0.163,0.653,0.122c0.204,0,0.327-0.122,0.45-0.203c0.203,0,0.245-0.083,0.245-0.204v-0.081v-0.164h0.245
	c0.204,0,0.204,0.164,0.204,0.246c0,0,0,0.163,0.204,0.286h0.041v0.122c0.203,0.204,0.53,0.164,0.858,0.164
	c0.204,0,0.408,0.04,0.612,0.163h0.041c0.04,0,0.122-0.041,0.122-0.286c0.041-0.041,0.041-0.041,0.204-0.041h0.123h0.041v0.041
	v0.286c0,0.041-0.041,0.204,0,0.204v0.163h0.163c0.245,0.082,0.409-0.163,0.53-0.163c0-0.163,0.041-0.204,0.246-0.204
	c0-0.286,0.163,0,0.163,0c0.163,0.041,0.163,0.204,0.163,0.367c0.123,0.286,0.49,0.409,0.818,0.49h0.082
	c0.123-0.082,0.245-0.245,0.367-0.409c0.327,0,0.653-0.082,0.776-0.244h0.163h0.123c0.082,0,0.204,0,0.245,0.163
	c0.123,0,0.123,0,0.286-0.163c0-0.163-0.163-0.49,0-0.532v-0.203v-0.083h0.246c0.326,0,1.021-0.122,1.225,0.613h0.04h0.204h0.041
	h0.204c0-0.449-0.204-0.735-0.204-0.981h0.204c0.204,0,0.204-0.122,0.449-0.122c0.163-0.041,0.163-0.204,0.367-0.204
	c0.123-0.164,0-0.246,0.041-0.49h0.082c0.245-0.245,0.449,0.082,0.653,0.082c0.123,0.163,0.123,0.163,0.409,0.163
	c0-0.163,0.122-0.163,0.163-0.245c0.082,0,0-0.327-0.041-0.327c0,0-0.122,0-0.122-0.082v-0.04l-0.286-0.123c0,0,0-0.163,0.286-0.163
	v-0.164c0.122,0,0.163-0.04,0.367,0c0.082,0,0.286-0.04,0.286-0.204v-0.08L51.904,42.553z M6.85,36.017l-0.082,0.041H6.604h-0.04
	c-0.204-0.041-0.204-0.204-0.204-0.204V35.65c0,0,0.204,0,0.204-0.04l0.04,0.04h0.041c0.041,0.082,0.123,0.204,0.204,0.204V36.017z
	 M9.3,36.017l-0.163,0.204c-0.041,0.163-0.163,0.082-0.327-0.04c-0.082-0.041-0.204-0.123-0.286-0.123c0,0,0-0.041-0.204-0.041
	v-0.082c0.204,0,0.204-0.082,0.204-0.082c0.082-0.123,0.082,0,0.246-0.123h0.04h0.123c0.123,0.123,0.204,0.123,0.367,0.204V36.017z
	 M11.057,35.324l-0.123,0.122c-0.123-0.04-0.204-0.082-0.286-0.122c-0.204-0.083-0.286-0.246-0.409-0.45v-0.122h0.083l0.122-0.164
	h0.082v-0.082c0.041,0,0.082,0.041,0.123,0.041c0.204,0.04,0.286,0.04,0.286,0.204c0.123,0.122,0.123,0.326,0.123,0.449V35.324z
	 M14.488,50.6h-0.123h-0.041h-0.286v-0.203c0-0.164,0-0.204,0.164-0.246h0.122c0.041,0,0.082,0.041,0.164,0.041
	c0,0.04,0.082,0.04,0.082,0.204L14.488,50.6z M30.459,43.37h0.081h0.49h0.163c0.123-0.163,0.204-0.163,0.246-0.163h0.082h0.04
	c0.164,0,0.204,0.163,0.204,0.163v0.082v0.083c0,0.122-0.04,0.122-0.04,0.122c-0.123,0.082-0.204,0.246-0.286,0.327
	c-0.083,0.082-0.123,0.122-0.246,0.122v-0.082c-0.04-0.04-0.122-0.082-0.163-0.122c-0.123-0.083-0.245-0.164-0.245-0.246
	c-0.123,0-0.164-0.122-0.246-0.122c-0.081,0-0.081,0-0.081-0.083h-0.123L30.459,43.37z M31.521,44.595v0.041
	c-0.041,0.082-0.041,0.123-0.082,0.204c-0.123,0.122-0.246,0.204-0.246,0.408c-0.082,0.041-0.122,0.041-0.163,0.041h-0.041h-0.203
	v-0.041v-0.408c0.082-0.041,0.203-0.081,0.245-0.123c0.123-0.082,0.163-0.123,0.163-0.123h0.204h0.041H31.521z M30.255,44.105h0.041
	h0.326v0.164c-0.082,0.123-0.204,0.245-0.326,0.286c-0.081,0-0.164,0.04-0.246,0.04h-0.04h-0.083v-0.122v-0.041v-0.163
	c0-0.164,0.123-0.164,0.164-0.164H30.255z M29.357,43.044c0,0,0.122,0,0.122-0.041c0.123-0.082,0.204-0.123,0.204-0.163h0.041h0.123
	c0.08,0,0.08,0,0.163,0.04c0,0.327,0.04,0.49,0.04,0.776v0.123h-0.123h-0.203h-0.041c0-0.163-0.204-0.327-0.326-0.409V43.044z
	 M24.903,42.431c0.246,0.164,0.49,0.286,0.49,0.409v0.04c-0.204,0.123-0.409,0.083-0.49,0.041c-0.04,0-0.04-0.041-0.04-0.041h-0.082
	l-0.123-0.163l-0.245-0.041c0-0.08,0-0.122,0.245-0.286c0-0.04,0.123,0,0.204-0.04v0.04L24.903,42.431z M25.517,43.779
	c-0.123,0.082-0.409,0.326-0.572,0.49h-0.041h-0.04h-0.082c-0.123,0-0.123,0-0.123-0.246V43.86c0.04-0.041,0.163-0.082,0.245-0.082
	c0.164-0.041,0.327-0.123,0.49-0.245C25.394,43.656,25.394,43.656,25.517,43.779z M23.883,31.728h0.081h0.286h0.123v0.204h0.204
	c0,0,0.082,0,0.082,0.041c0,0-0.082,0-0.082,0.163h-0.204L24.25,32.26c0,0,0,0.041-0.04,0.041c-0.082,0-0.082,0-0.246-0.164
	c0-0.163-0.081-0.163-0.081-0.204V31.728z M23.597,43.207c0.082,0,0.082,0,0.286-0.163l0.081,0.163c0.082,0,0.204,0.041,0.286,0.123
	c0.082,0.04,0.123,0.122,0.123,0.122v0.204v0.123H24.25h-0.286c-0.081-0.245-0.286-0.327-0.367-0.409V43.207z M22.82,41.082
	c0.082,0,0.246-0.122,0.367-0.204h0.041h0.04h0.123h0.082c0,0,0.041,0,0.041,0.204v0.041c-0.041,0.082-0.246,0.286-0.286,0.286
	h-0.041h-0.245c0-0.204,0-0.204-0.123-0.286V41.082z M20.451,42.022h0.123h0.082c0.04,0,0.082,0,0.163,0.041
	c0.041,0.041,0.082,0.081,0.123,0.123h0.082c0.123,0,0.286,0,0.367,0.163v0.204c-0.204,0.122-0.408,0.122-0.572,0.082
	c-0.04,0-0.123,0-0.163-0.04c-0.082-0.041-0.163-0.041-0.204-0.041c-0.163,0-0.163,0-0.163-0.204h-0.041
	C20.247,42.186,20.288,42.063,20.451,42.022z M19.431,44.105h0.123c0.163-0.245,0.408-0.245,0.693-0.449V43.37v-0.04
	c0.163,0,0.367,0.04,0.572,0.04c0.123,0.041,0.286,0.082,0.409,0.082h0.163v0.083l-0.163,0.122
	c-0.163,0.082-0.286,0.123-0.409,0.204c-0.04,0.041-0.082,0.082-0.123,0.163v0.082l-0.122,0.164l-0.082,0.204v0.122h0.082
	c0.082,0,0.082,0.041,0.122,0.041c0.041-0.041,0.083-0.041,0.123-0.041c0.246,0,0.49,0.041,0.776,0.041
	c0.082-0.041,0.082-0.041,0.245-0.041c0.286,0.041,0.573,0.246,0.573,0.041c0.326-0.041,0.408-0.367,0.735-0.367l0.04,0.04
	c0.082,0,0.123,0.204,0.286,0.286c0.409,0.123,0.613,0.367,0.776,0.653c0.123,0.164,0.246,0.327,0.409,0.532v0.163h-0.082
	c-0.123,0.041-0.204,0.041-0.327,0.082c-0.326,0.041-0.695,0.041-1.062,0c-0.816-0.122-1.634-0.408-2.369-0.612
	c-0.123-0.041-0.245-0.082-0.367-0.123c-0.612-0.163-1.267-0.245-1.879-0.327h-0.041c-0.163-0.122-0.163-0.326-0.163-0.367v-0.122
	c0,0,0.163,0,0.163-0.204h0.041C18.98,44.269,19.185,44.269,19.431,44.105z M18.368,43.002v-0.123h0.123h0.082
	c0.082,0.041,0.163,0.041,0.163,0.123c0,0.041,0.123,0.041,0.123,0.204c0,0.163-0.123,0.163-0.123,0.163v0.082h-0.163
	c-0.082,0-0.123,0-0.204-0.082c0-0.163-0.082-0.163-0.082-0.326C18.287,43.044,18.368,43.044,18.368,43.002z M18.245,43.779v0.082
	c0,0.163,0,0.163-0.245,0.245c-0.082,0-0.164,0.041-0.246,0.041c-0.122,0.082-0.245,0.123-0.367,0.123l-0.122-0.164
	c0,0,0.122-0.082,0.122-0.245c0-0.082,0.163-0.082,0.327-0.204h0.04h0.246v0.123H18.245z M17.388,45.045v0.082
	c0,0.122,0,0.122-0.122,0.122h-0.041c-0.163,0.041-0.245,0-0.409,0l-0.082-0.122v-0.164c0.082-0.122,0.123-0.122,0.246-0.203h0.122
	c0.082,0.04,0.123,0.04,0.123,0.081c0.041,0,0.041,0.04,0.041,0.122C17.388,44.962,17.388,45.045,17.388,45.045z M16.816,42.553
	v-0.204c0-0.041,0.164-0.163,0.164-0.163h0.245h0.041h0.082h0.04v0.409c0,0.08,0.163,0.08,0.204,0.08c0,0,0.123,0,0.123,0.041v0.123
	h0.04c0.123,0,0.123,0.163,0,0.204h-0.04c0,0-0.327,0.163-0.367,0h-0.082v-0.204h-0.041c-0.245-0.123-0.286,0-0.409-0.123h-0.204
	v-0.041C16.611,42.595,16.816,42.595,16.816,42.553z M15.632,42.145v-0.081c0.04-0.163,0.122-0.163,0.245-0.163l0.041-0.041h0.203
	c0.204,0,0.369,0,0.49,0.041v0.122v0.041c0,0.123-0.326,0.081-0.449,0.245c0,0,0,0.041-0.041,0.041c-0.04,0-0.122,0.04-0.203,0.04
	c0,0-0.164,0-0.246-0.04l-0.04-0.041V42.145z M14.979,42.186h-0.083h-0.04c-0.082-0.041-0.082-0.123-0.164-0.123
	c-0.122,0-0.122-0.163-0.122-0.204h0.122v-0.163h0.083c0.04,0,0.082,0.04,0.082,0.04c0.123,0,0.123,0.123,0.123,0.164
	C15.182,42.022,15.182,42.063,14.979,42.186z M14.856,29.687c0,0-0.041-0.041-0.082-0.041v-0.04v-0.123h0.082h0.123h0.203h0.246
	c0,0.123,0.123,0.163,0.123,0.246v0.245v0.163h-0.369C15.019,29.972,14.979,29.768,14.856,29.687z M15.182,43.779v-0.123v-0.122
	v-0.083c0.246-0.082,0.45-0.082,0.572-0.122h0.123c0.041,0,0.041,0.04,0.204,0.04v0.082c0,0.083,0.04,0.327,0,0.327
	c-0.163,0.082-0.327,0.326-0.327,0.326h-0.122H15.55C15.55,43.86,15.428,43.779,15.182,43.779z M16.121,46.597
	c-0.245,0.164-0.367,0.164-0.489,0H15.55c0-0.245,0.082-0.245,0.122-0.367c0-0.204,0.082-0.204,0.082-0.286
	c0.123,0,0.246-0.081,0.367-0.123c0.041-0.04,0.123-0.04,0.164-0.04c0.326-0.123,0.612-0.163,0.939-0.163
	c0.163-0.041,0.367-0.041,0.53-0.041h0.246h0.572c0.653,0,1.348,0.082,2.002,0.367c0.122,0,0.122,0.082,0.122,0.082l-0.122,0.532
	c0,0.04-0.123,0.204-0.286,0.326h-0.041c0,0,0-0.122-0.204-0.122c-0.082-0.164-0.286-0.164-0.489-0.204
	c-0.123-0.204-0.369-0.204-0.573-0.204c-0.122,0-0.122,0-0.245,0.082c0,0,0,0.123-0.163,0.163h-0.041c0,0,0,0.164-0.04,0.164h-0.123
	h-0.082c0,0,0-0.164-0.041-0.164v-0.04c-0.122-0.123-0.122-0.123-0.245-0.123v-0.082v-0.327h-0.246h-0.04v-0.082
	c-0.164,0-0.327,0-0.367,0.082h-0.082v0.204v0.123h-0.041c-0.123,0-0.123,0.082-0.245,0.204h-0.532L16.121,46.597z M17.266,47.823
	v0.122v0.082c0,0,0,0.041-0.041,0.041c-0.163,0.204-0.367,0.286-0.613,0.286v-0.327v-0.082c0,0,0-0.122,0.204-0.122
	c0-0.041,0-0.041,0.041-0.083c0.082,0,0.123,0,0.245,0.041h0.123L17.266,47.823z M16.939,49.702c0,0,0,0.04-0.082,0.04h-0.041
	c-0.204-0.04-0.204-0.326-0.286-0.49c0-0.122,0.082-0.285,0.286-0.326h0.041c0,0,0-0.204,0.082-0.204l0.041,0.204v0.041
	c0.163,0,0.245,0,0.245,0.04c0.041,0,0.041,0.041,0.041,0.123c0,0.04,0,0.082-0.041,0.122C17.183,49.456,16.98,49.579,16.939,49.702
	z M25.108,47.74c0,0.409-0.082,0.818-0.204,1.227c-0.204,0.735-0.489,1.47-0.653,2.246c0,0.082,0,0.163-0.04,0.286h-0.082v0.082
	c-0.327,0-0.655,0.041-0.941,0.041c-0.816,0.04-1.593,0.082-2.369,0.082c-0.735-0.041-1.47-0.082-2.246-0.204h-0.082
	c-0.286,0-0.532-0.082-0.736-0.163c-0.163-0.123-0.286-0.246-0.408-0.45c-0.082-0.04-0.082-0.286-0.082-0.286v-0.163l0.122-0.04
	c0.163-0.164,0.163-0.246,0.327-0.246v-0.163v-0.041v-0.082h0.04c0.246-0.123,0.369,0,0.532,0c0,0,0.04,0,0.04-0.123
	c0-0.204-0.04-0.326-0.203-0.49h-0.123c0,0,0-0.122-0.246-0.122h-0.04v-0.163v-0.246h0.04c0.082,0,0.286,0,0.369-0.041h0.449h0.163
	v0.041c0.123,0,0.245,0.246,0.449,0.246h0.204c0,0,0-0.041,0.041-0.246c0-0.041,0.123-0.041,0.123-0.163
	c0-0.204,0.286-0.204,0.408-0.286v-0.449c0,0,0-0.083-0.122-0.083v-0.122c0.326-0.164,0.693-0.286,0.979-0.49
	c0.204-0.164,0.367-0.327,0.409-0.572c0-0.123,0.163-0.123,0.163-0.204h0.041c0.367,0,0.776,0.204,1.225,0.245
	c0.163,0.041,0.326,0.082,0.53,0.123c0.367,0.082,0.736,0.082,1.062,0.123c0.246,0.04,0.449,0.081,0.653,0.163
	c0.082,0,0.123,0.041,0.204,0.041l0.286,0.082C25.394,47.21,25.108,47.496,25.108,47.74z M25.394,44.759h-0.245v-0.123
	c0-0.041,0.245-0.041,0.245-0.163v-0.041c0.041-0.082,0.164-0.123,0.246-0.123c0.122-0.04,0.204-0.04,0.204-0.04h0.082h0.163
	c0,0,0.04,0.163,0.04,0.204c0,0.04-0.04,0.04-0.04,0.04c-0.163,0.082-0.245,0.123-0.245,0.246c0,0.04-0.083,0.04-0.204,0.04
	C25.558,44.841,25.435,44.799,25.394,44.759z M26.088,45.862c-0.163-0.123-0.245-0.286-0.286-0.572v-0.041
	c0.041,0,0.041-0.122,0.123-0.122h0.163h0.04c0.164,0,0.204,0.163,0.204,0.449v0.204c0,0.163,0,0.163-0.04,0.163H26.17h-0.041
	C26.129,45.903,26.088,45.903,26.088,45.862z M26.905,54.521v0.082c0.653,0.736,0.409,1.757,0,2.533v0.04H26.7v-0.04
	c-0.408-0.818-0.367-1.92-0.367-2.859v-0.123h0.041h0.123C26.66,54.277,26.865,54.398,26.905,54.521z M27.641,47.823
	c-0.204,0.571-0.45,1.061-0.736,1.511c-0.163,0.286-0.367,0.53-0.572,0.775l-0.04,0.041c0,0,0-0.041-0.123-0.041
	c0-0.693,0.409-1.388,0.53-2.083c0.041-0.122,0.123-0.203,0.204-0.245c0.041-0.041,0.083-0.041,0.164-0.041h0.04h0.204h0.041h0.286
	V47.823z M28.09,46.761c-0.041,0.04-0.081,0.082-0.081,0.082l-0.041,0.04h-0.082l-0.123-0.122h-0.122
	c0-0.164-0.286-0.409-0.286-0.532v-0.122v-0.083c0.326-0.082,0.449-0.163,0.653-0.244h0.204h0.081
	C28.213,46.108,28.213,46.556,28.09,46.761z M28.008,44.799c-0.164,0-0.286,0.041-0.367,0.163c-0.083,0.083-0.286,0.083-0.286,0.164
	v0.122h0.203l0.083,0.041h0.122c0.041,0,0.041,0.286,0,0.286c0,0.041-0.122,0.041-0.122,0.041c-0.286,0-0.327,0-0.653-0.041
	c-0.083,0-0.083,0-0.083-0.286v-0.449c0.083-0.246,0.409-0.572,0.653-0.572h0.083c0,0,0.122-0.164,0.122-0.409h0.041v-0.082
	c0.081,0,0.123,0,0.204,0.04c0.04,0.041,0.122,0.083,0.204,0.204h0.122c0.164-0.163,0.286-0.245,0.49-0.245h0.041h0.204v0.858v0.123
	C28.702,44.881,28.294,44.759,28.008,44.799z M30.296,47.005c-0.204,0.041-0.409,0.041-0.613,0.041h-0.612
	c0-0.45,0.082-0.818,0.122-1.267h0.164c0.122,0,0.122-0.163,0.326-0.163h0.041h0.123h0.08v0.163h0.327c0,0.04,0,0.082,0.041,0.123
	c0,0.082,0.082,0.122,0.163,0.122c0.204,0,0.327-0.082,0.53-0.082l0.041,0.082c0.163,0.083,0.163,0.204,0.163,0.204
	s0.123,0.082,0.246,0.164c0.04,0,0.04,0.04,0.082,0.04h0.04l0.164-0.082c0-0.123,0.04-0.244,0.326-0.327l0.123-0.082h0.204v0.082
	c0.082,0.083,0.123,0.204,0.123,0.327v0.082c-0.327,0.204-0.695,0.327-1.062,0.409c-0.123,0.04-0.246,0.081-0.409,0.081
	C30.786,46.964,30.54,47.005,30.296,47.005z M31.561,48.68c0,0.041-0.082,0.041-0.122,0.041h-0.041h-0.367h-0.041h-0.203V48.68
	c0-0.163,0.122-0.326,0.245-0.367c0.041-0.04,0.123-0.04,0.163-0.04h0.123h0.082h0.041c0,0.082,0.04,0.204,0.122,0.204V48.68z
	 M33.441,47.74v0.083h-0.123v0.122c0,0.082,0,0.327-0.123,0.409c0,0,0,0.123-0.163,0.204c0,0-0.082,0.122-0.123,0.122h-0.123
	c0,0-0.082,0-0.082-0.122c-0.04-0.081-0.04-0.204-0.203-0.204v-0.082h-0.123c0,0,0-0.123-0.204-0.123v-0.204v-0.122
	c0,0-0.409,0.122-0.409,0c-0.163,0-0.245-0.041-0.326-0.083c-0.041-0.04-0.083-0.082-0.123-0.122c0-0.123,0.082-0.123,0.082-0.204
	h0.041c0.286-0.204,0.735-0.204,0.939-0.204h0.082h0.041v0.123c0.163,0,0.163,0.081,0.203,0.081c0.082,0,0.204,0,0.246-0.081h0.367
	h0.041C33.441,47.496,33.481,47.619,33.441,47.74z M33.932,42.879c-0.164,0-0.164,0-0.164,0.164h-0.449h-0.123
	c0,0.163-0.163,0.163-0.245,0.286l-0.041-0.123c-0.123-0.327-0.204-0.532-0.204-0.653c0.082,0,0.082-0.164,0.204-0.164
	c0-0.04,0.041-0.04,0.041-0.04c0.123,0.04,0.245,0.04,0.367,0.04h0.327h0.04c0.082,0.206,0.082,0.206,0.246,0.286V42.879z
	 M35.32,41.859v-0.163c0-0.163,0-0.163,0.082-0.286h0.204h0.082l0.204,0.123v0.163c0,0.123-0.163,0.245-0.286,0.286
	c-0.041,0.04-0.082,0.04-0.082,0.04H35.32V41.859z M36.422,42.595v0.08v0.041c0,0.123,0,0.123-0.081,0.163h-0.204
	c-0.203,0-0.367,0.041-0.53,0.083c-0.286,0.04-0.49,0.122-0.735,0.245c-0.164,0-0.286,0-0.367-0.163h-0.164
	c-0.123-0.204,0-0.449,0.246-0.49c0-0.164,0.286-0.164,0.326-0.204l0.123,0.04l0.082,0.164c0.041,0.041,0.041,0.041,0.123,0.122
	h0.082h0.286h0.082h0.163c0.041-0.08,0.041-0.286,0.286-0.286h0.204h0.081V42.595z M36.872,34.956h-0.164h-0.286l-0.081-0.083
	v-0.082v-0.04c0.081-0.082,0.081-0.164,0.204-0.246c0.041,0,0.081-0.04,0.163-0.082h0.041h0.123h0.122c0,0.082,0,0.082,0.083,0.082
	C36.994,34.67,36.994,34.792,36.872,34.956z M38.179,47.047c0.081-0.164,0.204-0.286,0.286-0.286h0.123c0,0,0.203,0.122,0.203,0.286
	c0,0.082-0.203,0.163-0.326,0.367v0.204h-0.041v-0.204c-0.163,0-0.245-0.204-0.245-0.204C38.179,47.128,38.138,47.128,38.179,47.047
	z M39.772,44.473c-0.082,0.122-0.204,0.122-0.204,0.122h-0.163H39.16h-0.123v-0.326c0.123-0.123,0.204-0.164,0.367-0.367
	l0.041-0.041c0,0,0.122,0,0.122-0.082c0,0,0,0.082,0.123,0.082c0.082,0.245,0.082,0.409,0.082,0.572V44.473z M41.692,36.467
	c-0.123,0.163-0.163,0.326-0.163,0.326h-0.123c-0.082-0.04-0.245-0.081-0.367-0.163v-0.163c0.123-0.123,0.163-0.204,0.367-0.204
	c0.041,0,0.041-0.041,0.041-0.041c0.082,0,0.082-0.163,0.082-0.163h0.04l0.123,0.163l0.082,0.041v0.082
	C41.773,36.467,41.692,36.467,41.692,36.467z M42.754,44.595v0.164h-0.123c-0.082-0.082-0.204-0.123-0.326-0.164
	c-0.123-0.04-0.286-0.04-0.409-0.122v-0.041c0-0.163-0.123-0.163-0.123-0.163h0.123v-0.164h0.245h0.164h0.122
	c0.204,0,0.204,0.164,0.327,0.164C42.754,44.473,42.917,44.595,42.754,44.595z M43.407,37.121h-0.123v0.04l-0.163,0.164
	c-0.082,0-0.123-0.041-0.163-0.123c-0.082-0.041-0.123-0.082-0.204-0.082c-0.123-0.123-0.123-0.123-0.286-0.327V36.63h0.082h0.082
	c0.123,0,0.204,0,0.327,0.082c0.122,0.041,0.204,0.163,0.326,0.286h0.123V37.121z M45.981,45.576c-0.082,0-0.244,0.082-0.367,0.123
	c-0.041,0.04-0.123,0.082-0.163,0.082h-0.082c-0.041-0.163-0.164-0.204-0.041-0.532c0.041-0.122,0.123-0.122,0.204-0.122h0.082
	c0.123,0,0.245,0.04,0.245,0.122c0.123,0,0.123,0,0.123,0.041V45.576z"/>
</svg>
