<?xml version="1.0" encoding="utf-8"?>
<!-- Generator: Adobe Illustrator 18.0.0, SVG Export Plug-In . SVG Version: 6.00 Build 0)  -->
<!DOCTYPE svg PUBLIC "-//W3C//DTD SVG 1.1//EN" "http://www.w3.org/Graphics/SVG/1.1/DTD/svg11.dtd">
<svg version="1.1" id="Layer_1" xmlns="http://www.w3.org/2000/svg" xmlns:xlink="http://www.w3.org/1999/xlink" x="0px" y="0px"
	 width="393.009px" height="80.785px" viewBox="0 0 393.009 80.785" enable-background="new 0 0 393.009 80.785"
	 xml:space="preserve">
<rect x="109.643" y="47.813" fill="#FFFFFF" width="282.828" height="2.258"/>
<path fill="#FFFFFF" d="M94.492,27.098c-0.232-0.311-0.386-0.386-0.465-0.465c-0.77-0.77-1.621-0.54-2.391-0.77
	c-0.078,0-0.232-0.078-0.232-0.078h-0.232c0-0.616,0.232-0.616,0.232-0.848c-0.232-0.465-0.848-0.54-1.081-0.54h-1.081v-0.078
	v-0.386c0,0,0-0.23,0.308-0.23c0-0.078,0.078-0.078,0.465-0.232v-0.927H89.55c-0.308-0.308-0.462-0.308-0.462-0.386
	c0-0.386-0.386-0.386-0.386-0.386v-0.076l0.386-0.154c0.154-0.311,0.927,0,1.313-0.311v-0.154v-0.154
	c-0.078-0.232-0.386-0.232-0.386-0.616c-0.386-0.232-0.386-0.619,0-0.697V19.3c0-0.23,0.386-0.308,0.308-0.694h-0.308
	c-0.465-0.386-0.773-0.386-0.927,0h-0.386h-0.54V18.22v-1.003c0-0.311,0-0.386-0.462-0.386c0,0-0.386-0.154-0.694-0.154
	c-0.697,0.154-1.699,0-2.472,0.154c-0.23,0-0.616,0.076-0.616,0.076c-0.386,0-0.386-0.076-0.386-0.076h-0.154v-0.154
	c-0.157-0.154-0.386-0.232-0.773-0.232c-0.462-0.078-1.081-0.078-1.467-0.54c-0.54-0.694-1.543,0-2.624-0.308v-0.232
	c-0.078,0-0.078-0.154-0.078-0.154v-0.078c0.078-0.308,0.078-0.308,0.078-0.386c0.308,0,0.308,0,0.308-0.154v-0.154h-0.308
	c0-0.232-0.311-0.386-0.697-0.386h-0.23c-0.386,0.078-0.848,0.154-1.235,0.232c-0.465,0-0.851-0.078-1.159-0.232h-0.232
	c0-0.076-0.076-0.076-0.076-0.308c0.076-0.078,0.308-0.308,0.308-0.308l0.386-0.232V12.97v-0.386c-0.232-0.23-0.386-0.23-0.694-0.23
	H74.73v0.23h-0.078c-0.078,0.157-0.386,0.386-0.386,0.386h-0.386c-1.157-0.616-1.775,0-2.702,0.232l-0.23-0.232h-0.078
	c-0.462,0-0.694,0.232-1.003,0h-0.157v-0.23c0-0.157-0.308-0.157,0-0.157v-0.694c0-0.154-0.384-0.54-0.616-0.54v-0.076l-0.078,0.076
	c-0.462,0.386-1.081,0.386-1.389,0.386H67.55l-0.386-0.386c-0.232-0.154-0.232-0.154-0.232-0.308v-0.927
	c0.232-0.154,0.619-0.386,0.619-0.386c0.384-0.154,0.924-0.154,1.157-0.462h0.308V8.957c-0.308-0.078-0.308-0.078-0.308-0.157
	c-0.154-0.23-0.154-0.23-0.232-0.23c-0.924-0.465-1.775-0.154-2.702,0.154c-0.616,0.154-1.235,0.232-1.929,0.076
	c0,0,0-0.154-0.154-0.23h-0.078c-0.308-0.232-0.462-0.465-0.848-0.232v0.232l-0.386,0.616c0,0.078,0,0.078-0.076,0.078
	c-0.311,0.462-0.694,0.462-1.237,0.848h-0.076c-0.386-0.154-1.081,0-1.621-0.232c-0.078-0.076-0.154-0.076-0.232-0.154
	c-0.308,0-0.308-0.23-0.462-0.462c-0.078-0.078-0.465-0.078-0.54-0.308c-0.308-0.078-0.308-0.078-0.308-0.157v-0.23
	c0.308-0.232,0.77-0.232,0.77-0.465l0.078-0.154v-0.23h-0.078c-0.386-0.311-1.003-0.311-1.389-0.311l-0.232-0.308
	c-0.54,0-0.54-0.078-0.54-0.078V5.944c-0.076-0.308-0.386-0.308-0.386-0.462h-0.23h-0.465c0,0.076-0.154,0.154-0.308,0.308v0.154
	c-0.386,0-0.232,0.311,0,0.54c0.078,0.078,0.232,0.154,0.308,0.154v0.311c-0.154,0-0.23,0.076-0.308,0.076h-0.462h-0.619H53.73
	c0,0-0.076,0-0.076,0.078c-0.154,0-0.386,0.076-0.386,0.308h-0.154c-0.232-0.232-0.386-0.232-0.619-0.308h-0.386h-0.23V7.025h-0.232
	c0.232-0.386,0.232-0.54,0.462-0.54c0.154-0.154,0.311-0.23,0.386-0.308c0.386-0.232,0.773-0.308,0.773-0.54V5.328l-0.078-0.232
	C52.957,5.02,52.727,5.02,52.495,5.02c-0.848,0.076-1.467,0.924-2.778,0.616c-0.157,0.232-0.311,0.308-0.386,0.232
	c-0.154,0-0.232-0.078-0.386-0.232c0-0.154-0.465-0.308-0.848-0.308h-0.078c0,0,0,0.154-0.462,0.154V5.328
	c-0.078,0.076-0.232,0.154-0.311,0.23c-0.23,0.078-0.616,0.078-1.002,0.078l-0.078,0.308c-0.308,0-0.308,0-0.308,0.54h-0.078v0.154
	v0.311h-0.076h-0.308v0.076H45.24v0.386c0,0,0,0.311-0.078,0.311h-0.308c0,0.076-0.078,0-0.154,0c-0.232,0-0.311,0-0.773-0.311
	c-0.078,0-0.078,0-0.078-0.308c0-0.078,0.078-0.078,0.54-0.465V6.485c-0.386-0.462-0.694-0.54-0.927-0.848
	c0,0-0.076-0.078-0.076-0.154V5.328V5.096h0.076h0.927c0,0,0.078-0.154,0.311-0.308V4.634c0.076-0.078,0.154-0.078,0.154-0.157
	c0.308-0.23,0.54-0.308,0.848-0.384h0.154h0.308V3.707V3.629V3.321c0,0-0.308,0-0.308-0.078c-0.078-0.076-0.078-0.076-0.154-0.076
	c-0.308-0.154-0.54-0.154-0.848-0.154c-0.311,0-0.619,0-0.927-0.311c0,0,0-0.076-0.078-0.076h-0.386h-0.076
	c-0.311,0.308-0.694,0.308-1.159,0.308c-0.54,0-1.157-0.076-1.854,0.308c0,0-0.076,0.078-0.154,0.232
	c-0.076,0.078-0.076,0.078-0.076,0.154v0.465l-0.386,0.154c-0.386-0.154-0.54-0.927-1.003-1.389c0-0.232-0.543-0.232-0.543-0.465
	h-0.848v0.232l-0.462,0.232h-0.078c-0.308,0.462-0.694,0.538-1.081,0.462c-0.232,0-0.462-0.078-0.694-0.078
	c-0.386,0-0.386-0.384-0.386-0.384V2.702V2.394c0.386,0,0.386-0.386,0-0.54h-0.54c-0.386,0-0.462,0.154-0.77,0.54l-0.697,0.308
	c0,0,0,0.157-0.154,0.157c-0.154-0.157-0.154-0.157-0.232-0.157c0-0.076-0.23-0.076-0.23-0.076l-0.232-0.232v-0.54V1.467h-0.308
	h-1.545h-0.076V1.313c-0.311-0.232-0.311-0.232-0.619-0.462V0.386l-0.076-0.308L29.028,0h-0.078l-0.54,0.078
	c-0.619,0-0.927,0.773-1.545,1.003H26.48c-0.386,0.154-0.927,0-1.391-0.076h-0.616c-0.078,0-0.078,0.076-0.154,0.076
	c-0.386,0-0.386,0-0.697,0.232l-0.076,0.154v0.927c0,0.078-0.078,0.154-0.078,0.154c-0.076,0.154-0.23,0.232-0.23,0.311h-0.311
	c-0.308,0-0.77,0-0.77,0.462c-0.232,0-0.232,0.386-0.386,0.773h-0.386h-0.078c-0.77-0.386-1.389-0.386-1.775-0.851
	c-0.54-0.384-0.848,0.078-1.081,0.078l-0.154,0.308h-0.232c0,0.619,0.386,1.005,0.465,1.313l0.154,0.154
	c0.619,0,1.235,0.232,1.854,0.386c0.386,0.154,0.462,0.154,0.77,0.462v0.54c0,0-0.308,0-0.308,0.154c-0.462,0-0.694,0-1.081,0.311
	c-1.003,0.076-1.467-1.313-2.624-1.005c-0.154-0.23-0.465-0.386-0.773-0.462h-0.232c-0.154-0.154-0.616-0.154-0.848,0v0.462v0.54
	c0.232,0.154,0.465,0.154,0.694,0.465v0.076v0.078h-0.23h-1.005c-0.462,0.308-0.619,0.308-1.235,0.619v0.384l0.308,0.465V8.8v0.078
	c-0.308,0-0.308,0.078-0.308,0.078h-0.619c-0.386-0.078-0.848-0.157-1.467-0.078v0.078v0.23c-0.154,0.078-0.154,0.078-0.154,0.311
	c0,0,0,0.076,0.154,0.076v0.154c0,0,0.311,0,0.927,0.232c0.154,0.154,0.54,0.232,0.54,0.232c0.232,0.308,0.232,0.308,0.232,0.384
	c0,0.465-0.232,0.465-0.232,0.619c0.232,0,0.232,0,0.232,0.154c0.232,0,0.232,0,0.232,0.386h0.154
	c0.308,0.154,0.308,0.154,0.308,0.308c0.308,0,0.308,0,0.308,0.311c0,0-0.308,0-0.308,0.23h-0.927
	c-0.23,0.078-0.462,0.157-0.54,0.386h-0.616c0,0.232-0.232,0.232-0.232,0.232c-0.078,0.54-0.848,0.232-1.389,0.232
	c0,0-0.232,0-0.232-0.232C9.649,12.97,9.341,12.97,8.955,12.74l-0.078-0.078c-0.154-0.078-0.462-0.078-0.462,0.078v0.23
	c-0.308,0-0.308,0.232-0.308,0.232H7.641c-0.076,0.232-0.694,0-1.081,0.232c-0.23,0.23-0.23,0.54-0.23,0.77
	c-0.311,0-0.311,0.232-0.311,0.232c-0.308,0.386-1.621,0.308-2.083,0.694c0,0,0,0.078-0.154,0.078v0.154
	c0.154,0.232,0.54,0.54,0.54,0.54H6.02c0.54,0.308,0.927,0,1.545,0.308h0.076c-0.076,0-0.076,0.386-0.076,0.465l-1.005,0.154v0.386
	v0.23v0.465H8.8v0.308v0.386H8.414c-0.308,0-0.773,0-0.848,0.386c-0.232,0-0.619,0.078-0.619,0.078c-0.386,0-1.157,0-1.235,0.23
	v0.154v0.232l-0.54,0.386H5.096c0,0-0.311,0-0.311,0.232c-0.23,0-0.462-0.232-0.462-0.232c-0.386,0-0.694-0.386-0.773-0.465
	c-0.308-0.308-0.619-0.308-1.235,0c-0.078,0.078-0.078,0.465-0.232,0.697c-0.23,0.384-0.616,0-1.157,0c-0.232,0-0.851,0-0.927,0.616
	v0.154c0,0,0.076,0,0.076,0.154c0.465,0,0.851,0,1.391,0.311h0.23c0,0,0.386,0.154,0.619,0.154c0.078,0,0.078,0,0.462,0.076
	c0,0.386-0.384,0.386-0.384,0.386c-0.157,0.386-0.465,0.386-0.697,0.619v0.386v0.308h0.157c0.23,0,0.462,0,0.924-0.308
	c0.154-0.078,0.154-0.619,0.54-0.619h1.005l0.076,0.619v0.308h0.386c0,0.154,0.311,0.154,0.927,0c0,0,0.078,0,0.308,0.154v0.308
	h0.311v0.386c1.003-0.386,1.311-1.157,2.083-1.543H8.8v0.386c0,0.154,0.076,0.23,0.076,0.308h0.078h0.694v0.154v0.308
	c0,0.386-0.308,0.386-0.308,0.386H8.876c0,0.078-0.076,0.078-0.076,0.078v0.076v0.465h0.076h0.311c0.694-0.465,1.621,0,2.237-0.465
	h0.154l0.078-0.076h0.462c0.386,0,0.386-0.078,0.386-0.078c0.154-0.616,0.154-0.848,0.54-1.157c0.232,0,0.465,0.308,0.54,0.308
	c0.078,0,0.078,0.154,0.078,0.154c0.308,0.308,0.308,0.773,0.308,0.773l-0.308,0.076c-0.078,0.078-0.078,0.078-0.154,0.078v0.386
	h0.076h0.851c1.003,0,1.467,0,1.697-0.54h0.154h0.232h0.232h0.386h0.154c0,0,0,0.076,0.23,0.076v0.078l-0.23,0.386h-0.154
	c0,0-0.078,0-0.078,0.232c0,0.616-0.154,0.694,0,0.924c0,0.078,0,0.078,0.078,0.232h0.384c0.54-0.232,0.927-0.462,1.467-0.462
	c1.313,0.23,2.78-0.078,3.937,0.308c0.311,0,0.311,0.154,0.311,0.154c0,0.078-0.311,0.078-0.311,0.308v0.078
	c-0.77,0.386-1.543,0.076-2.005,0.465c0,0-0.386,0-0.386,0.152v0.078c0.848,0.308,2.083,0,2.391,0.619h0.311v0.308v0.232v0.076h0.23
	h0.078c0,0.154,0,0.154,0.076,0.154l0.311,0.157v0.462v0.154c-0.232,0.154-0.386,0.308-0.465,0.462
	c-0.076,0.157-0.154,0.232-0.23,0.311h-0.619c-0.462,0.386-0.848,0.308-1.621,0.308c-0.694,0.619-1.697,0.308-2.548,0.308h-0.386
	c0,0.311-0.154,0.311-0.23,0.311c-0.311,0.154,0,0.384,0,0.54l0.076,0.154c0.54,0.23,1.081,0.23,1.391,0.308
	c0.23,0.54,0.616,0.54,0.616,0.927h-0.154H19.53v0.308c-1.081-0.386-2.083,0-3.01,0.154c-0.616,0.078-1.159,0.157-1.699-0.154
	c-0.384-0.308-0.54-0.308-0.54,0l-0.308,0.154v0.386c0,0.232,0.308,0.232,0.308,0.232c0.078,0,0.157,0.154,0.54,0.462l0.619,0.311
	c0,0.23,0.232,0.23,0.465,0.54h0.616l0.232-0.311c0.308-0.23,0.54-0.54,0.77-0.616c0-0.232,0.311-0.232,0.386-0.232
	c0.386,0.232,0.54,0.308,0.773,0.619h1.081c0.154-0.311,0.54-0.386,0.773-0.619v-0.154h0.848c0.386,0,0.386,0,0.54,0.154v0.308
	c0.232,0.311,0.232,0.311,0.232,0.54h0.462c0.308,0.311,0.619,0,0.619,0c0.076,0.078,0.154,0.154,0.23,0.154
	c0.232,0.157,0.465,0.232,0.465,0.311v0.154c-0.154,0-0.311,0-0.465,0.076c-0.154,0-0.23,0-0.23,0.157v0.54v0.23h0.23h0.078h0.773
	h0.154c0.232,0.078,0.386,0.157,0.616,0.232c0.311,0.154,0.465,0.386,0.465,0.773c0,0.154,0.232,0.154,0.232,0.154
	c0.154,0,0.23-0.386,0.384-0.386c0.232-0.232,0.311-0.232,0.619,0c0,0.154,0.076,0.232,0.076,0.232c0,0.076,0.078,0.154,0.078,0.154
	v0.232c0.232,0.154,0.232,0.462,0,0.462c0,0,0,0.078-0.078,0.078c-0.23,0.308-0.694,0.308-0.848,0.308l-0.23,0.078h-0.697
	c0,0-0.384-0.078-0.384-0.465h-0.232h-0.154v-0.308v-0.154h-0.851h-0.23v0.154c-0.311,0-0.311,0.23-0.311,0.308
	c0,0,0.311,0.386,0.311,0.465c-0.311,0-0.311,0.308-0.311,0.308v0.23h-0.308c-0.694,0-1.235,0-1.621,0.311
	c-0.076-0.311-0.462-0.311-0.462-0.311v-0.23V39.22c0,0-0.232,0-0.232-0.078v-0.386h-0.232c0-0.078,0-0.078-0.154-0.078H19.53
	c0,0,0,0.078-0.23,0.078h-0.157c0,0-0.154,0-0.462,0.386c-0.232,0-0.773,0.078-1.389,0.386V39.22h-0.154v-0.078
	c0-0.386,0.154-0.386,0.154-0.465v-0.384h-0.232V38.06c-0.154,0-0.386-0.078-0.54-0.078c-0.54,0-1.081,0.154-1.621,0.311v0.154v0.23
	v0.078h-0.078h-1.543c-0.076-0.078-0.154-0.078-0.232-0.154c-0.076-0.078-0.154-0.232-0.386-0.308c-0.154-0.232-0.77-0.232-1.081,0
	v0.154v0.23v0.078l0.078,0.386v0.078v0.308l-0.078,0.23c-0.77,0-1.697,0.697-2.702,0.773H8.8c-0.386-0.232-0.694-0.386-1.159-0.232
	L7.566,40.53c0,0.078-0.232,0.154-0.232,0.154c0,0.232-0.386,0.465,0,0.694h0.232c0.54,0,0.927,0.078,1.311,0.311
	c0.311,0.154,0.54,0.308,0.773,0.616h0.154c0.465-0.308,0.465-0.694,1.005-0.848h0.386c0.384,0.154,0.694,0.54,1.465,0.465h0.311
	c0.076-0.465-0.311-0.773,0.076-1.237h0.54h0.078l0.308,0.232v1.005h0.308l0.157,0.076v0.308h0.384c0,0.465-0.384,0.465-0.384,0.54
	v0.078c0,0.386,0,0.462,0.384,0.462c0.54,0,1.083-0.23,1.699-0.462c0.773-0.386,1.467-0.927,2.162-1.313l0.232-0.154
	c0.386-0.078,0.848,0.154,1.157,0.154h0.465v0.311v0.076c-0.232,0-0.232,0.308-0.232,0.308h-0.232v0.465
	c0.232,0.076,0.465,0.154,0.465,0.616v0.311h-0.465l-0.154,0.308c-0.616-0.308-1.467-0.308-2.083,0.154l-0.311,0.154v0.308h0.311
	c0.462,0.078,0.694,0.078,1.157,0.311H19.3c0.23,0.232,0.462,0.462,0.616,0.694c0.619,0.54,1.854,0.154,2.702-0.232
	c0.308,0,0.54,0,0.849-0.386c0,0,0-0.076,0.078-0.076h-0.078c-0.23,0,0-0.232-0.23-0.232v-0.078v-0.384c0-0.232,0-0.465,0.23-0.54
	h0.078c0.076-0.311,0.386-0.311,0.773-0.311c0,0.154,0.076,0.232,0.154,0.232c0.076,0.078,0.232,0.078,0.232,0.078
	c0.154,0.076,0.23,0.154,0.384,0.154c0.311,0,0.773-0.154,0.927-0.154l0.154-0.311c0-0.076,0.232-0.076,0.232-0.462v-0.078
	c0-0.076-0.232-0.076-0.232-0.076c-0.154,0-0.384,0-0.616-0.465v-0.308v-0.076c0-0.311,0.232-0.311,0.232-0.311h0.154
	c0.23,0,0.616,0,0.924,0.154c0.157,0.078,0.232,0.157,0.311,0.232c0.308,0.773,0.462,0.927,0.616,1.7
	c0.232,0.308,0.465,0.462,0.697,0.616c0.154,0.232,0.308,0.232,0.462,0.308h0.308c0.232,0.078,0.465,0.078,0.694,0.154
	c0.465,0.157,1.005,0.232,1.545,0.311c1.389,0.232,2.856,0.386,4.245,0.386c1.545,0.076,3.013,0.076,4.477,0.23
	c0.154,0,0.386,0,0.619,0.078c0.154,0.386,0.308,0.386,0.694,0.386v0.308c0.154,0.308,0,1.081,0,1.313
	c-0.154,3.242,0.078,6.485,0.694,9.649c0.386,1.545,0.773,3.013,1.235,4.477c0.465,1.237,0.927,2.394,1.391,3.553
	c0.308,0.54,0.54,1.081,0.848,1.543c0.462,0.927,1.003,1.854,1.543,2.702c0.54,0.773,1.081,1.545,1.7,2.24v0.076h-0.308
	c-0.157,0.308-0.157,0.308-0.54,0.308c-0.232,0-0.54,0-0.851,0.078c-0.54,0-1.081,0.154-1.543,0.308
	c-0.154,0.078-0.308,0.078-0.462,0.154c-0.157,0.078-0.232,0.078-0.386,0.157c-0.54,0.23-0.927,0.462-1.391,0.77
	c-0.386,0.232-0.77,0.386-1.235,0.619c-0.076,0-0.154,0.078-0.23,0.078c-0.619,0.308-1.237,0.538-1.778,0.77
	c-0.308,0.154-0.616,0.232-0.848,0.386c-0.616,0.386-0.616,0.462-1.159,0.848c-0.848,0.54-1.389,1.237-2.083,1.621
	c0,0.157-0.154,0.232-0.386,0.386c-0.076,0-0.154,0.078-0.232,0.154c-0.076,0.465-0.462,1.235-0.462,1.854
	c0,0.093,0.009,0.177,0.033,0.232h40.111c-0.078-0.078-0.308-0.232-0.54-0.386c-0.232-0.154-0.54-0.311-0.694-0.465
	c-1.159-0.462-2.086-1.235-3.088-2.005c-0.616-0.465-1.159-0.927-1.775-1.391c-1.003-0.77-2.086-1.543-3.321-2.005
	c-0.616-0.157-1.235-0.311-1.929-0.386c0-0.078-0.076-0.154-0.154-0.154c-1.081-0.927-2.702-1.467-4.245-1.237l-0.078-0.076
	c-0.078-0.154-0.308-0.386-0.694-0.619c-0.848-0.927-1.854-2.008-2.856-3.01c-0.232-0.308-0.465-0.54-0.773-0.773
	c-0.462-0.462-0.927-0.927-1.389-1.389h-0.078c-0.386-0.465-0.77-0.927-1.081-1.389c-1.235-1.778-2.008-3.553-2.778-5.096
	l-0.232-0.462v-1.005c0.154-3.318,0.927-6.717-0.154-9.419c-0.311-0.694-0.694-1.311-1.235-1.929
	c-0.311-0.386-0.54-0.694-0.851-1.081c-0.23-0.232-0.386-0.54-0.77-0.848c0.23-0.619,0.462-1.313,0.77-1.929
	c0.232-0.465,0.465-1.005,0.773-1.391c0.54-0.694,0.927-1.851,1.313-2.856c0.23-0.616,0.54-1.235,0.927-1.543
	c0.694-0.773,1.465-1.159,2.237-1.313c0.386-0.076,0.773-0.154,1.159-0.154h0.308v0.232h0.154c0,0.23,0.232,0.23,0.232,0.23v0.157
	c-0.232,0-0.232,0-0.232,0.23c-0.154,0.232-0.308,0.308-0.462,0.308c-0.311,0.078-0.773-0.076-1.159-0.076
	c-0.232,0.076-0.54,0.154-0.848,0.386c-0.078,0-0.078,0.154-0.078,0.154c-0.076,0-0.076,0-0.076,0.232v0.462
	c0,0-0.154,0-0.154,0.386v0.078h-0.386c-0.232,0-0.465,0-0.619,0.308c0,0.23-0.076,0.54,0,0.77c0.386,0.232,0.54,0.311,0.619,0.311
	c0,0.076,0.386,0.076,0.386,0.076v0.386c0.154,0.078,0.308,0.386,0.54,0.078c0.23,0,0.23-0.078,0.23-0.078
	c0-0.154,0-0.386,0.386-0.386c0.078-0.076,0.311-0.154,0.619-0.076h0.076c0,0.076,0.232,0.154,0.465,0.386
	c0.154,0.154,0.308,0.308,0.308,0.462c0,0.308-0.154,0.386-0.308,0.54c-0.154,0.078-0.232,0.154-0.386,0.308
	c0.308,0,0.308,0,0.308,0.465h0.078h0.076h0.232c0.308-0.232,0.694-0.465,1.081-0.619c0.308-0.076,0.54-0.154,0.773-0.154h0.23
	c0.311,0,0.311,0,0.386,0.308c0.54,0,0.773,0.54,1.159,0.619h0.232c0.308,0,0.384-0.078,0.538-0.078
	c0.232-0.076,0.232-0.076,0.232-0.54c0.232-0.308,0.54-0.694,0.773-0.694h0.078l0.23,0.311c0,0.076,0.311,0.384,0.311,0.384
	c0.076,0,0.384,0.465,0.54,0.54v0.54c0,0,0,0.311,0.076,0.311h0.308l0.078-0.311c0.076-0.076,0.076-1.081,0.619-1.081
	c0-0.308,0.154-0.384,0.384-0.694c0.311-0.154,0.773-0.232,1.159-0.154c0.078,0,0.308,0,0.54-0.078
	c0.54-0.076,1.235-0.384,1.543-0.694v-0.54c0.232-0.076,0.386-0.308,0.54-0.54l0.078-0.076c0.462,0,0.694,0,1.002,0.23
	c0.078,0,0.078,0,0.078,0.311c0.694,0,1.235-0.311,1.543-0.54l0.54-0.773h0.078c0.232,0,0.773,0,1.081-0.308
	c0-0.154,0.232-0.154,0.232-0.154v-0.386c0-0.54,0-0.773,0.462-0.848h0.078h0.23c0.619,0.23,1.313,0,1.545,0.23
	c0.232,0,0.232,0.386,0.232,0.619l-0.232,0.154c-0.232,0-0.232,0.232-0.619,0.232h-0.308c-0.232,0.154-0.232,0.154-0.232,0.384
	v0.078l1.159,0.465c0.773,0.23,1.467-0.157,1.929-0.543c0.232-0.154,0.386-0.308,0.54-0.384V38.06
	c-0.232-0.386-0.232-0.773-0.232-1.003l0.232-0.157h1.159c0.386,0,0.694,0.078,1.157,0.157h0.078c0.23,0,0.616-0.157,0.927-0.386
	v-0.232v-0.694h-0.078c-0.232,0-0.54,0-0.619-0.154l-0.23-0.311v-0.23h-0.078h-0.308c-0.386,0-0.386,0.23-0.54,0.23
	c0,0.311-0.078,0.311-0.078,0.311h-0.23c-0.154,0-0.311-0.078-0.311-0.311v-0.54c-0.308,0-0.308-0.076-0.462-0.076h-0.232
	c-0.154,0.076-0.462,0.386-0.616,0.386h-0.078h-0.386V34.74v-0.462h-0.308c-0.078,0-0.078-0.232-0.078-0.232
	c-1.157-0.386-1.775,0.232-2.702,0.232c0-0.232-0.23-0.232-0.23-0.232v-0.54h-0.078H70.56c-0.386,0-0.851,0-1.467,0.154v0.157
	c0,0.154,0,0.23-0.078,0.23v0.232h-0.54l-0.154-0.232c0-0.54,0.154-0.848,0.232-0.848c0,0,0.154-0.308,0-0.308l0.154-0.078h0.308
	c0-0.462,0.078-0.54,0.078-0.54v-0.078h0.308c0.54-0.384,1.005-0.308,1.467-0.23c0.386,0.154,0.773,0.308,1.235,0.23
	c0.386,0,0.619-0.23,0.851-0.384c0.384,0,0.462-0.157,0.462-0.386v-0.154v-0.311h0.462c0.386,0,0.386,0.311,0.386,0.465
	c0,0,0,0.308,0.386,0.54h0.078v0.23c0.384,0.386,1.003,0.311,1.621,0.311c0.386,0,0.77,0.076,1.157,0.308h0.078
	c0.076,0,0.23-0.078,0.23-0.54c0.078-0.078,0.078-0.078,0.386-0.078h0.232h0.078v0.078v0.54c0,0.078-0.078,0.386,0,0.386v0.308
	h0.308c0.462,0.154,0.773-0.308,1.003-0.308c0-0.308,0.078-0.386,0.465-0.386c0-0.54,0.308,0,0.308,0
	c0.308,0.078,0.308,0.386,0.308,0.694c0.232,0.54,0.927,0.773,1.545,0.927h0.154c0.232-0.154,0.462-0.462,0.694-0.773
	c0.619,0,1.235-0.154,1.467-0.462h0.308h0.232c0.154,0,0.386,0,0.462,0.308c0.232,0,0.232,0,0.54-0.308c0-0.308-0.308-0.927,0-1.005
	v-0.384v-0.157h0.465c0.616,0,1.929-0.23,2.316,1.159h0.076h0.386h0.078h0.386c0-0.848-0.386-1.389-0.386-1.854h0.386
	c0.386,0,0.386-0.23,0.848-0.23c0.308-0.078,0.308-0.386,0.694-0.386c0.232-0.311,0-0.465,0.078-0.927h0.154
	c0.462-0.462,0.849,0.154,1.235,0.154c0.232,0.308,0.232,0.308,0.773,0.308c0-0.308,0.23-0.308,0.308-0.462
	c0.154,0,0-0.619-0.078-0.619c0,0-0.23,0-0.23-0.154v-0.076l-0.54-0.232c0,0,0-0.308,0.54-0.308v-0.311c0.23,0,0.308-0.076,0.694,0
	c0.154,0,0.54-0.076,0.54-0.386v-0.152L94.492,27.098z M9.341,14.745l-0.154,0.078H8.876H8.8c-0.386-0.078-0.386-0.386-0.386-0.386
	V14.05c0,0,0.386,0,0.386-0.076l0.076,0.076h0.078c0.078,0.154,0.232,0.386,0.386,0.386V14.745z M13.972,14.745l-0.308,0.386
	c-0.078,0.308-0.308,0.154-0.619-0.076c-0.154-0.078-0.386-0.232-0.54-0.232c0,0,0-0.078-0.386-0.078v-0.154
	c0.386,0,0.386-0.154,0.386-0.154c0.154-0.232,0.154,0,0.465-0.232h0.076h0.232c0.232,0.232,0.386,0.232,0.694,0.386V14.745z
	 M17.293,13.434l-0.232,0.23c-0.232-0.076-0.386-0.154-0.54-0.23c-0.386-0.157-0.54-0.465-0.773-0.851v-0.23h0.157l0.23-0.311h0.154
	v-0.154c0.078,0,0.154,0.078,0.232,0.078c0.386,0.076,0.54,0.076,0.54,0.386c0.232,0.23,0.232,0.616,0.232,0.848V13.434z
	 M23.778,42.305h-0.232h-0.078h-0.54v-0.384c0-0.311,0-0.386,0.311-0.465h0.23c0.078,0,0.154,0.078,0.311,0.078
	c0,0.076,0.154,0.076,0.154,0.386L23.778,42.305z M53.962,28.641h0.154h0.927h0.308c0.232-0.308,0.386-0.308,0.465-0.308h0.154
	h0.076c0.311,0,0.386,0.308,0.386,0.308v0.154v0.157c0,0.23-0.076,0.23-0.076,0.23c-0.232,0.154-0.386,0.465-0.54,0.619
	c-0.157,0.154-0.232,0.23-0.465,0.23v-0.154c-0.076-0.076-0.23-0.154-0.308-0.23c-0.232-0.157-0.462-0.311-0.462-0.465
	c-0.232,0-0.311-0.23-0.465-0.23s-0.154,0-0.154-0.157H53.73L53.962,28.641z M55.97,30.957v0.078
	c-0.078,0.154-0.078,0.232-0.154,0.386c-0.232,0.23-0.465,0.386-0.465,0.77c-0.154,0.078-0.23,0.078-0.308,0.078h-0.078h-0.384
	v-0.078v-0.77c0.154-0.078,0.384-0.154,0.462-0.232c0.232-0.154,0.308-0.232,0.308-0.232h0.386h0.078H55.97z M53.576,30.03h0.078
	h0.616v0.311c-0.154,0.232-0.386,0.462-0.616,0.54c-0.154,0-0.311,0.076-0.465,0.076h-0.076h-0.157v-0.23v-0.078v-0.308
	c0-0.311,0.232-0.311,0.311-0.311H53.576z M51.879,28.025c0,0,0.23,0,0.23-0.078c0.232-0.154,0.386-0.232,0.386-0.308h0.078h0.232
	c0.152,0,0.152,0,0.308,0.076c0,0.619,0.076,0.927,0.076,1.467v0.232h-0.232h-0.384h-0.078c0-0.308-0.386-0.619-0.616-0.773V28.025z
	 M43.462,26.866c0.465,0.311,0.927,0.54,0.927,0.773v0.076c-0.386,0.232-0.773,0.157-0.927,0.078c-0.076,0-0.076-0.078-0.076-0.078
	h-0.154L43,27.406l-0.462-0.078c0-0.152,0-0.23,0.462-0.54c0-0.076,0.232,0,0.386-0.076v0.076L43.462,26.866z M44.621,29.414
	c-0.232,0.154-0.773,0.616-1.081,0.927h-0.078h-0.076h-0.154c-0.232,0-0.232,0-0.232-0.465v-0.308
	c0.076-0.078,0.308-0.154,0.462-0.154c0.311-0.078,0.619-0.232,0.927-0.462C44.389,29.182,44.389,29.182,44.621,29.414z
	 M41.533,6.639h0.154h0.54h0.232v0.386h0.386c0,0,0.154,0,0.154,0.078c0,0-0.154,0-0.154,0.308h-0.386l-0.232,0.232
	c0,0,0,0.078-0.076,0.078c-0.154,0-0.154,0-0.465-0.311c0-0.308-0.154-0.308-0.154-0.386V6.639z M40.992,28.333
	c0.154,0,0.154,0,0.54-0.308l0.154,0.308c0.154,0,0.386,0.078,0.54,0.232c0.154,0.076,0.232,0.23,0.232,0.23v0.386v0.232h-0.232
	h-0.54c-0.154-0.462-0.54-0.619-0.694-0.773V28.333z M39.525,24.318c0.154,0,0.465-0.23,0.694-0.386h0.078h0.076h0.232h0.154
	c0,0,0.078,0,0.078,0.386v0.078c-0.078,0.154-0.465,0.54-0.54,0.54H40.22h-0.462c0-0.386,0-0.386-0.232-0.54V24.318z M35.048,26.093
	h0.232h0.154c0.076,0,0.154,0,0.308,0.078c0.078,0.078,0.154,0.154,0.232,0.232h0.154c0.232,0,0.54,0,0.694,0.308v0.386
	c-0.386,0.23-0.77,0.23-1.081,0.154c-0.076,0-0.232,0-0.308-0.076c-0.154-0.078-0.308-0.078-0.386-0.078
	c-0.308,0-0.308,0-0.308-0.386h-0.078C34.662,26.404,34.74,26.172,35.048,26.093z M33.119,30.03h0.232
	c0.308-0.462,0.77-0.462,1.311-0.848v-0.54v-0.076c0.308,0,0.694,0.076,1.081,0.076c0.232,0.078,0.54,0.154,0.773,0.154h0.308v0.157
	l-0.308,0.23c-0.308,0.154-0.54,0.232-0.773,0.386c-0.076,0.078-0.154,0.154-0.232,0.308v0.154l-0.23,0.311l-0.154,0.386v0.23h0.154
	c0.154,0,0.154,0.078,0.23,0.078c0.078-0.078,0.157-0.078,0.232-0.078c0.465,0,0.927,0.078,1.467,0.078
	c0.154-0.078,0.154-0.078,0.462-0.078c0.54,0.078,1.083,0.465,1.083,0.078c0.616-0.078,0.77-0.694,1.389-0.694l0.076,0.076
	c0.154,0,0.232,0.386,0.54,0.54c0.773,0.232,1.159,0.694,1.467,1.235c0.232,0.311,0.465,0.619,0.773,1.005v0.308h-0.154
	c-0.232,0.078-0.386,0.078-0.619,0.154c-0.616,0.078-1.313,0.078-2.008,0c-1.543-0.23-3.088-0.77-4.477-1.157
	c-0.232-0.078-0.462-0.154-0.694-0.232c-1.157-0.308-2.394-0.462-3.551-0.619h-0.078c-0.308-0.23-0.308-0.616-0.308-0.694v-0.23
	c0,0,0.308,0,0.308-0.386h0.078C32.268,30.341,32.654,30.341,33.119,30.03z M31.111,27.947v-0.232h0.232h0.154
	c0.154,0.078,0.308,0.078,0.308,0.232c0,0.078,0.232,0.078,0.232,0.386c0,0.308-0.232,0.308-0.232,0.308v0.154h-0.308
	c-0.154,0-0.232,0-0.386-0.154c0-0.308-0.154-0.308-0.154-0.616C30.957,28.025,31.111,28.025,31.111,27.947z M30.879,29.414v0.154
	c0,0.308,0,0.308-0.462,0.462c-0.154,0-0.311,0.078-0.465,0.078c-0.23,0.154-0.462,0.232-0.694,0.232l-0.23-0.311
	c0,0,0.23-0.154,0.23-0.462c0-0.154,0.308-0.154,0.619-0.386h0.076h0.465v0.232H30.879z M29.258,31.808v0.154
	c0,0.23,0,0.23-0.23,0.23h-0.078c-0.308,0.078-0.462,0-0.773,0l-0.154-0.23v-0.311c0.154-0.23,0.232-0.23,0.465-0.384h0.23
	c0.154,0.076,0.232,0.076,0.232,0.154c0.078,0,0.078,0.076,0.078,0.23C29.258,31.651,29.258,31.808,29.258,31.808z M28.177,27.098
	v-0.386c0-0.078,0.311-0.308,0.311-0.308h0.462h0.078h0.154h0.076v0.773c0,0.152,0.308,0.152,0.386,0.152c0,0,0.232,0,0.232,0.078
	v0.232h0.076c0.232,0,0.232,0.308,0,0.386h-0.076c0,0-0.619,0.308-0.694,0h-0.154v-0.386h-0.078c-0.462-0.232-0.54,0-0.773-0.232
	H27.79v-0.078C27.79,27.177,28.177,27.177,28.177,27.098z M25.939,26.326v-0.154c0.076-0.308,0.23-0.308,0.462-0.308l0.078-0.078
	h0.384c0.386,0,0.697,0,0.927,0.078v0.23v0.078c0,0.232-0.616,0.154-0.848,0.462c0,0,0,0.078-0.078,0.078
	c-0.076,0-0.23,0.076-0.384,0.076c0,0-0.311,0-0.465-0.076l-0.076-0.078V26.326z M24.704,26.404h-0.157h-0.076
	c-0.154-0.078-0.154-0.232-0.311-0.232c-0.23,0-0.23-0.308-0.23-0.386h0.23v-0.308h0.157c0.076,0,0.154,0.076,0.154,0.076
	c0.232,0,0.232,0.232,0.232,0.311C25.088,26.093,25.088,26.172,24.704,26.404z M24.472,2.78c0,0-0.078-0.078-0.154-0.078V2.626
	V2.394h0.154h0.232h0.384h0.465c0,0.232,0.232,0.308,0.232,0.465v0.462v0.308h-0.697C24.78,3.321,24.704,2.934,24.472,2.78z
	 M25.088,29.414v-0.232v-0.23v-0.157c0.465-0.154,0.851-0.154,1.081-0.23h0.232c0.078,0,0.078,0.076,0.386,0.076v0.154
	c0,0.157,0.076,0.619,0,0.619c-0.308,0.154-0.619,0.616-0.619,0.616h-0.23h-0.154C25.785,29.568,25.553,29.414,25.088,29.414z
	 M26.864,34.74c-0.462,0.311-0.694,0.311-0.924,0h-0.154c0-0.462,0.154-0.462,0.23-0.694c0-0.386,0.154-0.386,0.154-0.54
	c0.232,0,0.465-0.154,0.694-0.232c0.078-0.076,0.232-0.076,0.311-0.076c0.616-0.232,1.157-0.308,1.775-0.308
	c0.308-0.078,0.694-0.078,1.003-0.078h0.465h1.081c1.235,0,2.548,0.154,3.783,0.694c0.23,0,0.23,0.154,0.23,0.154l-0.23,1.005
	c0,0.076-0.232,0.386-0.54,0.616h-0.078c0,0,0-0.23-0.386-0.23c-0.154-0.311-0.54-0.311-0.924-0.386
	c-0.232-0.386-0.697-0.386-1.083-0.386c-0.23,0-0.23,0-0.462,0.154c0,0,0,0.232-0.308,0.308h-0.078c0,0,0,0.311-0.076,0.311h-0.232
	h-0.154c0,0,0-0.311-0.078-0.311v-0.076c-0.23-0.232-0.23-0.232-0.462-0.232v-0.154v-0.619h-0.465h-0.076v-0.154
	c-0.311,0-0.619,0-0.694,0.154h-0.154v0.386v0.232h-0.078c-0.232,0-0.232,0.154-0.462,0.386h-1.005L26.864,34.74z M29.028,37.058
	v0.23v0.154c0,0,0,0.078-0.078,0.078c-0.308,0.386-0.694,0.54-1.159,0.54v-0.619v-0.154c0,0,0-0.23,0.386-0.23
	c0-0.078,0-0.078,0.078-0.157c0.154,0,0.232,0,0.462,0.078h0.232L29.028,37.058z M28.409,40.608c0,0,0,0.076-0.154,0.076h-0.078
	c-0.386-0.076-0.386-0.616-0.54-0.927c0-0.23,0.154-0.538,0.54-0.616h0.078c0,0,0-0.386,0.154-0.386l0.078,0.386v0.078
	c0.308,0,0.462,0,0.462,0.076c0.078,0,0.078,0.078,0.078,0.232c0,0.076,0,0.154-0.078,0.23
	C28.871,40.144,28.487,40.376,28.409,40.608z M43.848,36.901c0,0.773-0.154,1.545-0.386,2.318c-0.386,1.389-0.924,2.778-1.235,4.245
	c0,0.154,0,0.308-0.076,0.54h-0.154v0.154c-0.619,0-1.237,0.078-1.778,0.078c-1.543,0.076-3.01,0.154-4.477,0.154
	c-1.389-0.078-2.778-0.154-4.245-0.386h-0.154c-0.54,0-1.005-0.154-1.391-0.308c-0.308-0.232-0.54-0.465-0.77-0.851
	c-0.154-0.076-0.154-0.54-0.154-0.54v-0.308l0.23-0.076c0.308-0.311,0.308-0.465,0.619-0.465v-0.308v-0.078v-0.154h0.076
	c0.465-0.232,0.697,0,1.005,0c0,0,0.076,0,0.076-0.232c0-0.386-0.076-0.616-0.384-0.927h-0.232c0,0,0-0.23-0.465-0.23h-0.076V39.22
	v-0.465h0.076c0.154,0,0.54,0,0.697-0.078h0.848h0.308v0.078c0.232,0,0.462,0.465,0.848,0.465h0.386c0,0,0-0.078,0.078-0.465
	c0-0.078,0.232-0.078,0.232-0.308c0-0.386,0.54-0.386,0.77-0.54v-0.848c0,0,0-0.157-0.23-0.157v-0.23
	c0.616-0.311,1.311-0.54,1.851-0.927c0.386-0.311,0.694-0.619,0.773-1.081c0-0.232,0.308-0.232,0.308-0.386h0.078
	c0.694,0,1.467,0.386,2.316,0.462c0.308,0.078,0.616,0.154,1.003,0.232c0.694,0.154,1.391,0.154,2.008,0.232
	c0.465,0.076,0.849,0.154,1.235,0.308c0.154,0,0.232,0.078,0.386,0.078l0.54,0.154C44.389,35.899,43.848,36.439,43.848,36.901z
	 M44.389,31.268h-0.462v-0.232c0-0.078,0.462-0.078,0.462-0.308v-0.078c0.078-0.154,0.311-0.232,0.465-0.232
	c0.23-0.076,0.386-0.076,0.386-0.076h0.154h0.308c0,0,0.076,0.308,0.076,0.386c0,0.076-0.076,0.076-0.076,0.076
	c-0.308,0.154-0.462,0.232-0.462,0.465c0,0.076-0.157,0.076-0.386,0.076C44.699,31.422,44.467,31.343,44.389,31.268z M45.702,33.351
	c-0.308-0.232-0.462-0.54-0.54-1.081v-0.078c0.078,0,0.078-0.23,0.232-0.23h0.308h0.076c0.311,0,0.386,0.308,0.386,0.848v0.386
	c0,0.308,0,0.308-0.076,0.308h-0.232h-0.078C45.778,33.429,45.702,33.429,45.702,33.351z M47.245,49.717v0.154
	c1.235,1.391,0.773,3.321,0,4.788v0.076h-0.386v-0.076c-0.77-1.545-0.694-3.629-0.694-5.404v-0.232h0.078h0.232
	C46.783,49.255,47.169,49.485,47.245,49.717z M48.636,37.058c-0.386,1.078-0.851,2.005-1.391,2.856
	c-0.308,0.54-0.694,1.003-1.081,1.465l-0.076,0.078c0,0,0-0.078-0.232-0.078c0-1.311,0.773-2.624,1.003-3.937
	c0.078-0.23,0.232-0.384,0.386-0.462c0.078-0.078,0.157-0.078,0.311-0.078h0.076h0.386h0.078h0.54V37.058z M49.485,35.05
	c-0.078,0.076-0.154,0.154-0.154,0.154l-0.078,0.076h-0.154l-0.232-0.23h-0.23c0-0.311-0.54-0.773-0.54-1.005v-0.23v-0.157
	c0.616-0.154,0.848-0.308,1.235-0.462h0.386h0.154C49.717,33.816,49.717,34.664,49.485,35.05z M49.331,31.343
	c-0.311,0-0.54,0.078-0.694,0.308c-0.157,0.157-0.54,0.157-0.54,0.311v0.23h0.384l0.157,0.078h0.23c0.078,0,0.078,0.54,0,0.54
	c0,0.078-0.23,0.078-0.23,0.078c-0.54,0-0.619,0-1.235-0.078c-0.157,0-0.157,0-0.157-0.54v-0.848
	c0.157-0.465,0.773-1.081,1.235-1.081h0.157c0,0,0.23-0.311,0.23-0.773h0.078v-0.154c0.154,0,0.232,0,0.386,0.076
	c0.076,0.078,0.23,0.157,0.386,0.386h0.23c0.311-0.308,0.54-0.462,0.927-0.462h0.078h0.386v1.621v0.232
	C50.641,31.497,49.871,31.268,49.331,31.343z M53.654,35.512c-0.386,0.078-0.773,0.078-1.159,0.078h-1.157
	c0-0.851,0.154-1.545,0.23-2.394h0.311c0.23,0,0.23-0.308,0.616-0.308h0.078h0.232h0.152v0.308h0.619c0,0.076,0,0.154,0.078,0.232
	c0,0.154,0.154,0.23,0.308,0.23c0.386,0,0.619-0.154,1.003-0.154l0.078,0.154c0.308,0.157,0.308,0.386,0.308,0.386
	s0.232,0.154,0.465,0.311c0.076,0,0.076,0.076,0.154,0.076h0.076l0.311-0.154c0-0.232,0.076-0.462,0.616-0.619l0.232-0.154h0.386
	v0.154c0.154,0.157,0.232,0.386,0.232,0.619v0.154c-0.619,0.386-1.313,0.619-2.008,0.773c-0.232,0.076-0.465,0.154-0.773,0.154
	C54.581,35.434,54.116,35.512,53.654,35.512z M56.045,38.677c0,0.078-0.154,0.078-0.23,0.078h-0.078h-0.694h-0.078h-0.384v-0.078
	c0-0.308,0.23-0.616,0.462-0.694c0.078-0.076,0.232-0.076,0.308-0.076h0.232h0.154h0.078c0,0.154,0.076,0.386,0.23,0.386V38.677z
	 M59.598,36.901v0.157h-0.232v0.23c0,0.154,0,0.619-0.232,0.773c0,0,0,0.232-0.308,0.386c0,0-0.154,0.23-0.232,0.23h-0.232
	c0,0-0.154,0-0.154-0.23c-0.076-0.154-0.076-0.386-0.384-0.386v-0.154h-0.232c0,0,0-0.232-0.386-0.232v-0.386v-0.23
	c0,0-0.773,0.23-0.773,0c-0.308,0-0.462-0.078-0.616-0.157c-0.078-0.076-0.157-0.154-0.232-0.23c0-0.232,0.154-0.232,0.154-0.386
	h0.078c0.54-0.386,1.389-0.386,1.775-0.386h0.154h0.078v0.232c0.308,0,0.308,0.154,0.384,0.154c0.154,0,0.386,0,0.465-0.154h0.694
	h0.078C59.598,36.439,59.674,36.672,59.598,36.901z M60.525,27.715c-0.311,0-0.311,0-0.311,0.311h-0.848h-0.232
	c0,0.308-0.308,0.308-0.462,0.54l-0.078-0.232c-0.232-0.619-0.386-1.005-0.386-1.235c0.154,0,0.154-0.311,0.386-0.311
	c0-0.076,0.078-0.076,0.078-0.076c0.232,0.076,0.462,0.076,0.694,0.076h0.619h0.076c0.154,0.389,0.154,0.389,0.465,0.54V27.715z
	 M63.149,25.785v-0.308c0-0.308,0-0.308,0.154-0.54h0.386h0.154l0.386,0.232v0.308c0,0.232-0.308,0.462-0.54,0.54
	c-0.078,0.076-0.154,0.076-0.154,0.076h-0.386V25.785z M65.232,27.177v0.152v0.078c0,0.232,0,0.232-0.154,0.308h-0.386
	c-0.384,0-0.694,0.078-1.003,0.157c-0.54,0.076-0.927,0.23-1.389,0.462c-0.311,0-0.54,0-0.694-0.308h-0.311
	c-0.232-0.386,0-0.848,0.465-0.927c0-0.311,0.54-0.311,0.616-0.386l0.232,0.076l0.154,0.311c0.078,0.078,0.078,0.078,0.232,0.23
	h0.154h0.54h0.154h0.308c0.078-0.152,0.078-0.54,0.54-0.54h0.386h0.154V27.177z M66.083,12.74h-0.311h-0.54l-0.154-0.157v-0.154
	v-0.076c0.154-0.154,0.154-0.311,0.386-0.465c0.078,0,0.154-0.076,0.308-0.154h0.078h0.232h0.23c0,0.154,0,0.154,0.157,0.154
	C66.313,12.199,66.313,12.429,66.083,12.74z M68.553,35.591c0.154-0.311,0.386-0.54,0.54-0.54h0.232c0,0,0.384,0.23,0.384,0.54
	c0,0.154-0.384,0.308-0.616,0.694v0.386h-0.078v-0.386c-0.308,0-0.462-0.386-0.462-0.386C68.553,35.745,68.475,35.745,68.553,35.591
	z M71.563,30.727c-0.154,0.23-0.386,0.23-0.386,0.23h-0.308h-0.462h-0.232v-0.616c0.232-0.232,0.386-0.311,0.694-0.694l0.078-0.078
	c0,0,0.23,0,0.23-0.154c0,0,0,0.154,0.232,0.154c0.154,0.462,0.154,0.773,0.154,1.081V30.727z M75.192,15.596
	c-0.232,0.308-0.308,0.616-0.308,0.616h-0.232c-0.154-0.076-0.462-0.154-0.694-0.308v-0.308c0.232-0.232,0.308-0.386,0.694-0.386
	c0.078,0,0.078-0.078,0.078-0.078c0.154,0,0.154-0.308,0.154-0.308h0.076l0.232,0.308l0.154,0.078v0.154
	C75.346,15.596,75.192,15.596,75.192,15.596z M77.199,30.957v0.311h-0.232c-0.154-0.154-0.386-0.232-0.616-0.311
	c-0.232-0.076-0.54-0.076-0.773-0.23v-0.078c0-0.308-0.232-0.308-0.232-0.308h0.232V30.03h0.462h0.311h0.23
	c0.386,0,0.386,0.311,0.619,0.311C77.199,30.727,77.507,30.957,77.199,30.957z M78.434,16.831h-0.232v0.076l-0.308,0.311
	c-0.154,0-0.232-0.078-0.308-0.232c-0.154-0.078-0.232-0.154-0.386-0.154c-0.232-0.232-0.232-0.232-0.54-0.619v-0.308h0.154h0.154
	c0.232,0,0.386,0,0.619,0.154c0.23,0.078,0.386,0.308,0.616,0.54h0.232V16.831z M83.298,32.811c-0.154,0-0.462,0.154-0.694,0.232
	c-0.078,0.076-0.232,0.154-0.308,0.154h-0.154c-0.078-0.308-0.311-0.386-0.078-1.005c0.078-0.23,0.232-0.23,0.386-0.23h0.154
	c0.232,0,0.462,0.076,0.462,0.23c0.232,0,0.232,0,0.232,0.078V32.811z"/>
<g>
	<path fill="#FFFFFF" d="M108.313,22.118h8.131v0.611h-1.942l3.385,12.709h0.055l2.636-9.074l-0.944-3.635h-1.387v-0.611h8.325
		v0.611h-2.081l3.219,12.709h0.055l3.746-12.709h-2.303v-0.611h3.941v0.611h-0.944l-5.384,18.592h-2.22l-3.663-13.68h-0.055
		l-3.996,13.68h-2.192l-5.023-18.592h-1.36V22.118z"/>
	<path fill="#FFFFFF" d="M133.096,41.321V40.71h1.387l6.604-18.814h3.136l6.105,18.814h1.193v0.611h-8.603V40.71h2.303l-2.137-7.048
		h-5.355l-2.47,7.048h2.387v0.611H133.096z M137.951,33.052h4.94l-2.331-7.576h-0.055L137.951,33.052z"/>
	<path fill="#FFFFFF" d="M167.09,28.029h-0.944c-1.47-4.162-1.859-5.744-4.551-5.744c-2.692,0-4.273,1.054-4.273,2.886
		c0,4.44,11.044,2.72,11.044,9.601c0,4.273-2.775,6.993-7.603,6.993c-2.109,0-3.968-0.638-5.994-1.832v-5.827h0.944
		c1.831,5.827,2.164,7.048,5.689,7.048c1.97,0,4.19-1.221,4.19-3.385c0-4.606-11.044-2.886-11.044-9.99
		c0-3.496,2.636-6.105,6.993-6.105c1.915,0,3.857,0.388,5.55,1.082V28.029z"/>
	<path fill="#FFFFFF" d="M185.295,28.029h-0.944c-1.47-4.162-1.859-5.744-4.551-5.744c-2.692,0-4.273,1.054-4.273,2.886
		c0,4.44,11.044,2.72,11.044,9.601c0,4.273-2.775,6.993-7.603,6.993c-2.109,0-3.968-0.638-5.994-1.832v-5.827h0.944
		c1.831,5.827,2.164,7.048,5.689,7.048c1.97,0,4.19-1.221,4.19-3.385c0-4.606-11.044-2.886-11.044-9.99
		c0-3.496,2.636-6.105,6.993-6.105c1.915,0,3.857,0.388,5.55,1.082V28.029z"/>
	<path fill="#FFFFFF" d="M192.066,22.729h-1.304v-0.611h14.902v6.105h-0.944c-1.332-4.523-1.693-5.494-3.302-5.494h-4.301v8.269
		h1.554c1.388,0,1.749-0.333,2.581-3.829h0.611v8.269h-0.611c-0.832-3.496-1.193-3.829-2.581-3.829h-1.554v9.102h4.273
		c1.665,0,2.248-2.109,3.33-6.549h0.944v7.159h-15.041V40.71h1.443V22.729z"/>
	<path fill="#FFFFFF" d="M210.216,41.321V40.71h1.443V22.729h-1.443v-0.611h9.352c4.579,0,6.993,1.387,6.993,4.634
		c0,2.886-2.192,4.384-4.912,4.412l5.134,9.546h1.137v0.611h-6.327l-4.828-9.768h-0.055v9.157h1.803v0.611H210.216z M216.71,31.109
		h0.444c3.58,0,4.357-1.082,4.357-4.19c0-3.108-0.944-4.19-3.164-4.19h-1.637V31.109z"/>
	<path fill="#FFFFFF" d="M244.044,28.029H243.1c-1.47-4.162-1.859-5.744-4.551-5.744c-2.692,0-4.273,1.054-4.273,2.886
		c0,4.44,11.044,2.72,11.044,9.601c0,4.273-2.775,6.993-7.603,6.993c-2.109,0-3.968-0.638-5.994-1.832v-5.827h0.944
		c1.831,5.827,2.164,7.048,5.689,7.048c1.97,0,4.19-1.221,4.19-3.385c0-4.606-11.044-2.886-11.044-9.99
		c0-3.496,2.636-6.105,6.993-6.105c1.915,0,3.857,0.388,5.55,1.082V28.029z"/>
	<path fill="#FFFFFF" d="M252.481,41.321V40.71h1.443V22.729h-0.888c-2.248,0-2.692,3.663-3.219,5.578h-0.944v-6.188h15.151v6.188
		h-0.944c-0.527-1.915-0.971-5.578-3.246-5.578h-0.86V40.71h1.443v0.611H252.481z"/>
	<path fill="#FFFFFF" d="M269.021,22.729h-1.304v-0.611h14.902v6.105h-0.944c-1.332-4.523-1.693-5.494-3.302-5.494h-4.301v8.269
		h1.554c1.388,0,1.749-0.333,2.581-3.829h0.611v8.269h-0.611c-0.832-3.496-1.193-3.829-2.581-3.829h-1.554v9.102h4.273
		c1.665,0,2.248-2.109,3.33-6.549h0.944v7.159h-15.041V40.71h1.443V22.729z"/>
	<path fill="#FFFFFF" d="M295.551,41.321h-7.936V40.71h1.443V22.729h-1.443v-0.611h7.936v0.611h-1.443V40.71h1.443V41.321z"/>
	<path fill="#FFFFFF" d="M304.515,41.321h-4.773V40.71h1.443V22.729h-1.443v-0.611h7.187l7.021,13.153h0.055V22.729h-2.081v-0.611
		h4.496v0.611h-1.637v18.592h-3.163l-9.602-18.315h-0.055V40.71h2.553V41.321z"/>
	<path fill="#FFFFFF" d="M341.937,30.832v0.611h-1.859c-0.139,1.831-0.444,3.635-1.36,5.245l2.997,4.023h1.193v0.611h-6.105
		l-0.971-1.304c-1.526,1.138-3.469,1.748-5.411,1.748c-4.412,0-6.743-2.276-6.743-5.3c0-3.219,2.969-4.995,5.106-5.911
		c-0.721-1.054-1.609-2.72-1.609-4.107c0-3.108,2.775-4.773,5.605-4.773c2.081,0,4.828,1.054,4.828,3.524
		c0,2.303-2.331,3.469-4.218,4.246l4.884,6.632c0.722-1.443,0.971-3.025,1.027-4.634h-2.442v-0.611H341.937z M329.172,31.081
		c-1.388,0.722-1.609,1.609-1.609,2.969c0,2.886,2.081,6.549,4.828,6.549c1.11,0,2.192-0.472,3.025-1.138L329.172,31.081z
		 M330.56,24.227c0,1.554,1.471,3.219,2.442,4.69c1.026-0.499,1.498-1.276,1.498-3.247c0-1.36-0.306-3.385-2.026-3.385
		C331.281,22.285,330.56,23.062,330.56,24.227z"/>
	<path fill="#FFFFFF" d="M364.152,28.251h-0.944c-1.749-4.218-1.998-5.966-4.468-5.966c-2.803,0-3.635,1.887-3.635,9.435
		c0,7.548,0.832,9.435,3.635,9.435c3.219,0,3.358-2.137,4.856-6.715h0.944v5.994c-1.942,0.86-3.94,1.332-5.966,1.332
		c-5.883,0-9.185-4.551-9.185-10.045s3.302-10.045,9.185-10.045c1.831,0,3.663,0.416,5.578,0.943V28.251z"/>
	<path fill="#FFFFFF" d="M386.713,31.719c0,5.328-3.08,10.045-8.852,10.045c-5.772,0-8.852-4.718-8.852-10.045
		s3.08-10.045,8.852-10.045C383.633,21.674,386.713,26.392,386.713,31.719z M377.861,22.285c-2.526,0-3.136,2.192-3.136,9.435
		s0.61,9.435,3.136,9.435c2.525,0,3.135-2.192,3.135-9.435S380.386,22.285,377.861,22.285z"/>
	<path fill="#FFFFFF" d="M392.847,39.545c0,1.249-0.971,2.22-2.22,2.22c-1.221,0-2.22-0.971-2.22-2.22c0-1.249,0.999-2.22,2.22-2.22
		C391.876,37.325,392.847,38.296,392.847,39.545z"/>
</g>
<g>
	<path fill="#FFFFFF" d="M122.28,57.378l-3.02,8.356h-0.762l-2.023-5.6l-2.037,5.6h-0.763l-3.064-8.385l-0.865-0.176v-0.586h3.899
		v0.586l-1.173,0.176l2.052,5.805l1.495-4.251l-0.557-1.554l-0.865-0.176v-0.586h3.914v0.586l-1.173,0.176v0.058l1.994,5.717
		l2.038-5.747l-1.173-0.205v-0.586h2.947v0.586L122.28,57.378z"/>
	<path fill="#FFFFFF" d="M128.683,65.616V65.03l1.129-0.176l-0.763-1.964h-3.225l-0.733,1.935l1.099,0.205v0.586h-3.005V65.03
		l0.968-0.205l3.284-8.239h0.923l3.313,8.268l0.938,0.176v0.586H128.683z M127.437,58.697l-1.32,3.43h2.639L127.437,58.697z"/>
	<path fill="#FFFFFF" d="M137.668,65.851c-0.85,0-1.51-0.102-2.257-0.484l-0.176,0.484h-0.645l-0.088-3.166l0.645-0.044l0.308,1.407
		c0.469,0.601,1.202,1.011,1.994,1.011c0.997,0,1.774-0.586,1.774-1.525c0-0.85-0.542-1.173-2.213-1.964
		c-1.451-0.689-2.316-1.334-2.316-2.829c0-1.525,1.276-2.39,2.8-2.39c0.733,0,1.363,0.117,2.023,0.41l0.176-0.41h0.645l-0.073,2.829
		h-0.645l-0.249-1.29c-0.411-0.572-1.041-0.777-1.745-0.777c-0.791,0-1.466,0.454-1.466,1.246c0,0.791,0.381,1.07,2.14,1.906
		c1.466,0.704,2.463,1.305,2.463,2.829C140.761,64.795,139.368,65.851,137.668,65.851z"/>
	<path fill="#FFFFFF" d="M146.535,65.851c-0.85,0-1.51-0.102-2.257-0.484l-0.176,0.484h-0.645l-0.088-3.166l0.645-0.044l0.308,1.407
		c0.469,0.601,1.202,1.011,1.994,1.011c0.997,0,1.774-0.586,1.774-1.525c0-0.85-0.543-1.173-2.214-1.964
		c-1.451-0.689-2.316-1.334-2.316-2.829c0-1.525,1.276-2.39,2.8-2.39c0.733,0,1.363,0.117,2.023,0.41l0.176-0.41h0.645l-0.073,2.829
		h-0.645l-0.249-1.29c-0.411-0.572-1.041-0.777-1.745-0.777c-0.791,0-1.466,0.454-1.466,1.246c0,0.791,0.381,1.07,2.14,1.906
		c1.466,0.704,2.463,1.305,2.463,2.829C149.628,64.795,148.236,65.851,146.535,65.851z"/>
	<path fill="#FFFFFF" d="M152.06,65.616V65.03l1.144-0.176v-7.506l-1.144-0.176v-0.586h6.978v2.228h-0.733l-0.205-1.466h-3.166v3.21
		h2.155l0.146-1.011h0.645v2.785h-0.645l-0.146-1.011h-2.155v3.503h3.357l0.205-1.583h0.763v2.375H152.06z"/>
	<path fill="#FFFFFF" d="M167.95,65.616l-2.39-3.811l-0.997,0.088v2.962l1.173,0.176v0.586h-4.046V65.03l1.144-0.176v-7.506
		l-1.144-0.176v-0.586h4.031c1.671,0,3.254,0.645,3.254,2.316c0,1.173-0.704,2.096-1.818,2.492l2.316,3.416l1.011,0.22v0.586H167.95
		z M165.326,57.26c-0.264,0-0.513,0.014-0.763,0.058v3.812h0.542c1.349,0,2.111-0.718,2.111-2.067
		C167.216,57.891,166.498,57.26,165.326,57.26z"/>
	<path fill="#FFFFFF" d="M175.512,65.851c-0.85,0-1.51-0.102-2.257-0.484l-0.176,0.484h-0.645l-0.088-3.166l0.645-0.044l0.308,1.407
		c0.469,0.601,1.202,1.011,1.994,1.011c0.997,0,1.774-0.586,1.774-1.525c0-0.85-0.543-1.173-2.214-1.964
		c-1.451-0.689-2.316-1.334-2.316-2.829c0-1.525,1.276-2.39,2.8-2.39c0.733,0,1.363,0.117,2.023,0.41l0.176-0.41h0.645l-0.073,2.829
		h-0.645l-0.249-1.29c-0.411-0.572-1.041-0.777-1.745-0.777c-0.791,0-1.466,0.454-1.466,1.246c0,0.791,0.381,1.07,2.14,1.906
		c1.466,0.704,2.463,1.305,2.463,2.829C178.605,64.795,177.213,65.851,175.512,65.851z"/>
	<path fill="#FFFFFF" d="M188.835,59.107h-0.762l-0.205-1.759h-2.272v7.506l1.144,0.176v0.586h-4.017V65.03l1.143-0.176v-7.506
		h-2.272l-0.205,1.759h-0.763v-2.521h8.209V59.107z"/>
	<path fill="#FFFFFF" d="M190.901,65.616V65.03l1.143-0.176v-7.506l-1.143-0.176v-0.586h6.978v2.228h-0.733l-0.205-1.466h-3.166
		v3.21h2.155l0.146-1.011h0.645v2.785h-0.645l-0.146-1.011h-2.155v3.503h3.357l0.205-1.583h0.763v2.375H190.901z"/>
	<path fill="#FFFFFF" d="M200.545,65.616V65.03l1.144-0.176v-7.506l-1.144-0.176v-0.586h4.031v0.586l-1.143,0.176v7.506l1.143,0.176
		v0.586H200.545z"/>
	<path fill="#FFFFFF" d="M215.394,57.407v8.268h-0.88l-5.6-6.86v5.981l1.143,0.235v0.586h-3.166V65.03l1.144-0.235v-7.037
		l-0.367-0.454l-0.777-0.132v-0.586h2.419l5.204,6.377v-5.556l-1.143-0.235v-0.586h3.166v0.586L215.394,57.407z"/>
	<path fill="#FFFFFF" d="M227.602,65.616h-4.398V65.03l1.144-0.176v-7.506l-1.144-0.176v-0.586h4.324c2.873,0,4.97,1.525,4.97,4.398
		C232.499,63.916,230.534,65.616,227.602,65.616z M226.928,57.26c-0.293,0-0.543,0.014-0.851,0.058v7.506
		c0.235,0.073,0.557,0.117,0.792,0.117c2.463,0,3.724-1.363,3.724-3.826S229.391,57.26,226.928,57.26z"/>
	<path fill="#FFFFFF" d="M234.711,65.616V65.03l1.144-0.176v-7.506l-1.144-0.176v-0.586h6.978v2.228h-0.733l-0.205-1.466h-3.166
		v3.21h2.155l0.146-1.011h0.645v2.785h-0.645l-0.146-1.011h-2.155v3.503h3.357l0.205-1.583h0.763v2.375H234.711z"/>
	<path fill="#FFFFFF" d="M248.284,65.616h-3.943V65.03l1.144-0.176v-7.506l-1.144-0.176v-0.586h4.046
		c1.701,0,2.947,0.601,2.947,2.096c0,1.144-0.894,1.862-1.964,2.067v0.044c1.392,0.103,2.624,0.748,2.624,2.258
		C251.993,64.693,250.688,65.616,248.284,65.616z M247.873,57.26c-0.191,0-0.483,0.029-0.689,0.058v3.225h0.498
		c1.202,0,1.92-0.557,1.92-1.701C249.603,57.759,248.958,57.26,247.873,57.26z M247.961,61.248c-0.176,0-0.601,0.014-0.777,0.029
		v3.548c0.279,0.073,0.704,0.117,0.997,0.117c1.378,0,2.082-0.645,2.082-1.803C250.263,61.966,249.472,61.248,247.961,61.248z"/>
	<path fill="#FFFFFF" d="M262.003,59.107h-0.762l-0.205-1.759h-2.272v7.506l1.144,0.176v0.586h-4.017V65.03l1.143-0.176v-7.506
		h-2.272l-0.205,1.759h-0.763v-2.521h8.209V59.107z"/>
	<path fill="#FFFFFF" d="M273.097,65.851c-2.668,0-4.618-1.818-4.618-4.676c0-2.859,2.038-4.823,4.706-4.823
		c2.683,0,4.618,1.818,4.618,4.676S275.795,65.851,273.097,65.851z M273.097,57.114c-1.627,0-2.756,1.392-2.756,3.914
		c0,2.478,1.216,4.061,2.844,4.061c1.627,0,2.756-1.393,2.756-3.914C275.941,58.785,274.725,57.114,273.097,57.114z"/>
	<path fill="#FFFFFF" d="M283.592,62.113c-0.132,0-0.469-0.015-0.616-0.03v2.771l1.29,0.176v0.586h-4.163V65.03l1.143-0.176v-7.506
		l-1.143-0.176v-0.586h4.031c1.876,0,3.269,0.909,3.269,2.434C287.403,60.837,286.098,62.113,283.592,62.113z M283.738,57.26
		c-0.293,0-0.498,0.014-0.763,0.058v4.075c0.235,0.015,0.499,0.029,0.645,0.029c1.363,0,2.023-0.967,2.023-2.316
		C285.644,57.993,284.852,57.26,283.738,57.26z"/>
	<path fill="#FFFFFF" d="M292.957,62.113c-0.132,0-0.469-0.015-0.616-0.03v2.771l1.29,0.176v0.586h-4.163V65.03l1.143-0.176v-7.506
		l-1.143-0.176v-0.586h4.031c1.876,0,3.269,0.909,3.269,2.434C296.769,60.837,295.464,62.113,292.957,62.113z M293.104,57.26
		c-0.293,0-0.498,0.014-0.763,0.058v4.075c0.235,0.015,0.499,0.029,0.645,0.029c1.363,0,2.023-0.967,2.023-2.316
		C295.01,57.993,294.218,57.26,293.104,57.26z"/>
	<path fill="#FFFFFF" d="M303.393,65.851c-2.668,0-4.618-1.818-4.618-4.676c0-2.859,2.038-4.823,4.706-4.823
		c2.683,0,4.618,1.818,4.618,4.676S306.091,65.851,303.393,65.851z M303.393,57.114c-1.627,0-2.756,1.392-2.756,3.914
		c0,2.478,1.217,4.061,2.844,4.061s2.756-1.393,2.756-3.914C306.237,58.785,305.02,57.114,303.393,57.114z"/>
	<path fill="#FFFFFF" d="M316.659,65.616l-2.39-3.811l-0.997,0.088v2.962l1.173,0.176v0.586h-4.046V65.03l1.144-0.176v-7.506
		l-1.144-0.176v-0.586h4.031c1.671,0,3.254,0.645,3.254,2.316c0,1.173-0.704,2.096-1.818,2.492l2.316,3.416l1.011,0.22v0.586
		H316.659z M314.035,57.26c-0.264,0-0.513,0.014-0.763,0.058v3.812h0.542c1.349,0,2.111-0.718,2.111-2.067
		C315.925,57.891,315.207,57.26,314.035,57.26z"/>
	<path fill="#FFFFFF" d="M328.576,59.107h-0.762l-0.205-1.759h-2.272v7.506l1.144,0.176v0.586h-4.017V65.03l1.143-0.176v-7.506
		h-2.272l-0.205,1.759h-0.763v-2.521h8.209V59.107z"/>
	<path fill="#FFFFFF" d="M338.895,57.407v4.94c0,2.346-1.349,3.503-3.694,3.503c-2.316,0-3.709-1.188-3.709-3.503v-4.999
		l-1.144-0.176v-0.586h4.017v0.586l-1.144,0.176v4.486c0,1.906,0.44,3.108,2.346,3.108c1.876,0,2.448-1.187,2.448-3.078v-4.457
		l-1.144-0.235v-0.586h3.108v0.586L338.895,57.407z"/>
	<path fill="#FFFFFF" d="M350.43,57.407v8.268h-0.88l-5.6-6.86v5.981l1.143,0.235v0.586h-3.166V65.03l1.144-0.235v-7.037
		l-0.367-0.454l-0.777-0.132v-0.586h2.419l5.204,6.377v-5.556l-1.143-0.235v-0.586h3.166v0.586L350.43,57.407z"/>
	<path fill="#FFFFFF" d="M353.786,65.616V65.03l1.144-0.176v-7.506l-1.144-0.176v-0.586h4.031v0.586l-1.144,0.176v7.506l1.144,0.176
		v0.586H353.786z"/>
	<path fill="#FFFFFF" d="M368.107,59.107h-0.762l-0.205-1.759h-2.272v7.506l1.144,0.176v0.586h-4.017V65.03l1.143-0.176v-7.506
		h-2.272l-0.205,1.759h-0.763v-2.521h8.209V59.107z"/>
	<path fill="#FFFFFF" d="M370.187,65.616V65.03l1.144-0.176v-7.506l-1.144-0.176v-0.586h4.031v0.586l-1.144,0.176v7.506l1.144,0.176
		v0.586H370.187z"/>
	<path fill="#FFFFFF" d="M376.592,65.616V65.03l1.143-0.176v-7.506l-1.143-0.176v-0.586h6.978v2.228h-0.733l-0.205-1.466h-3.166
		v3.21h2.155l0.146-1.011h0.645v2.785h-0.645l-0.146-1.011h-2.155v3.503h3.357l0.205-1.583h0.763v2.375H376.592z"/>
	<path fill="#FFFFFF" d="M389.564,65.851c-0.85,0-1.51-0.102-2.257-0.484l-0.176,0.484h-0.645l-0.088-3.166l0.645-0.044l0.308,1.407
		c0.469,0.601,1.202,1.011,1.994,1.011c0.997,0,1.774-0.586,1.774-1.525c0-0.85-0.542-1.173-2.213-1.964
		c-1.451-0.689-2.316-1.334-2.316-2.829c0-1.525,1.276-2.39,2.8-2.39c0.733,0,1.363,0.117,2.023,0.41l0.176-0.41h0.645l-0.073,2.829
		h-0.645l-0.249-1.29c-0.411-0.572-1.041-0.777-1.745-0.777c-0.791,0-1.466,0.454-1.466,1.246c0,0.791,0.381,1.07,2.14,1.906
		c1.466,0.704,2.463,1.305,2.463,2.829C392.657,64.795,391.265,65.851,389.564,65.851z"/>
</g>
</svg>
