<?xml version="1.0" encoding="utf-8"?>
<!-- Generator: Adobe Illustrator 18.0.0, SVG Export Plug-In . SVG Version: 6.00 Build 0)  -->
<!DOCTYPE svg PUBLIC "-//W3C//DTD SVG 1.1//EN" "http://www.w3.org/Graphics/SVG/1.1/DTD/svg11.dtd">
<svg version="1.1" id="Layer_1" xmlns="http://www.w3.org/2000/svg" xmlns:xlink="http://www.w3.org/1999/xlink" x="0px" y="0px"
	 width="393.009px" height="80.785px" viewBox="0 0 393.009 80.785" enable-background="new 0 0 393.009 80.785"
	 xml:space="preserve">
<path fill="#FFFFFF" d="M94.531,27.11c-0.232-0.311-0.387-0.387-0.465-0.465c-0.771-0.771-1.622-0.541-2.392-0.771
	c-0.078,0-0.232-0.078-0.232-0.078h-0.232c0-0.616,0.232-0.616,0.232-0.849c-0.232-0.465-0.849-0.541-1.081-0.541h-1.081v-0.078
	v-0.387c0,0,0-0.23,0.308-0.23c0-0.078,0.078-0.078,0.465-0.232v-0.927h-0.465c-0.308-0.308-0.462-0.308-0.462-0.387
	c0-0.387-0.387-0.387-0.387-0.387v-0.076l0.387-0.154c0.154-0.311,0.927,0,1.314-0.311v-0.154V20.93
	c-0.078-0.232-0.387-0.232-0.387-0.616c-0.387-0.232-0.387-0.619,0-0.697v-0.308c0-0.23,0.387-0.308,0.308-0.695h-0.308
	c-0.465-0.387-0.773-0.387-0.927,0h-0.387h-0.541v-0.387v-1.003c0-0.311,0-0.387-0.462-0.387c0,0-0.387-0.154-0.695-0.154
	c-0.697,0.154-1.7,0-2.473,0.154c-0.23,0-0.616,0.076-0.616,0.076c-0.387,0-0.387-0.076-0.387-0.076H83.41v-0.154
	c-0.157-0.154-0.387-0.232-0.773-0.232c-0.462-0.078-1.081-0.078-1.468-0.541c-0.541-0.695-1.544,0-2.625-0.308V15.37
	c-0.078,0-0.078-0.154-0.078-0.154v-0.078c0.078-0.308,0.078-0.308,0.078-0.387c0.308,0,0.308,0,0.308-0.154v-0.154h-0.308
	c0-0.232-0.311-0.387-0.697-0.387h-0.23c-0.387,0.078-0.849,0.154-1.235,0.232c-0.465,0-0.851-0.078-1.16-0.232H74.99
	c0-0.076-0.076-0.076-0.076-0.308c0.076-0.078,0.308-0.308,0.308-0.308l0.387-0.232v-0.232v-0.387
	c-0.232-0.23-0.387-0.23-0.695-0.23H74.76v0.23h-0.078c-0.078,0.157-0.387,0.387-0.387,0.387h-0.387
	c-1.157-0.616-1.776,0-2.703,0.232l-0.23-0.232h-0.078c-0.462,0-0.695,0.232-1.003,0h-0.157v-0.23c0-0.157-0.308-0.157,0-0.157
	v-0.695c0-0.154-0.384-0.541-0.616-0.541v-0.076l-0.078,0.076c-0.462,0.387-1.081,0.387-1.389,0.387h-0.076l-0.387-0.387
	c-0.232-0.154-0.232-0.154-0.232-0.308v-0.927c0.232-0.154,0.619-0.387,0.619-0.387c0.384-0.154,0.925-0.154,1.157-0.462h0.308
	V8.961c-0.308-0.078-0.308-0.078-0.308-0.157c-0.154-0.23-0.154-0.23-0.232-0.23C67.578,8.109,66.727,8.42,65.8,8.728
	c-0.616,0.154-1.235,0.232-1.93,0.076c0,0,0-0.154-0.154-0.23h-0.078c-0.308-0.232-0.462-0.465-0.849-0.232v0.232l-0.387,0.616
	c0,0.078,0,0.078-0.076,0.078c-0.311,0.462-0.695,0.462-1.238,0.849h-0.076c-0.387-0.154-1.081,0-1.622-0.232
	c-0.078-0.076-0.154-0.076-0.232-0.154c-0.308,0-0.308-0.23-0.462-0.462c-0.078-0.078-0.465-0.078-0.541-0.308
	c-0.308-0.078-0.308-0.078-0.308-0.157v-0.23c0.308-0.232,0.771-0.232,0.771-0.465l0.078-0.154v-0.23h-0.078
	c-0.387-0.311-1.003-0.311-1.389-0.311l-0.232-0.308c-0.541,0-0.541-0.078-0.541-0.078V5.947c-0.076-0.308-0.387-0.308-0.387-0.462
	h-0.23h-0.465c0,0.076-0.154,0.154-0.308,0.308v0.154c-0.387,0-0.232,0.311,0,0.541c0.078,0.078,0.232,0.154,0.308,0.154v0.311
	c-0.154,0-0.23,0.076-0.308,0.076h-0.462h-0.619h-0.232c0,0-0.076,0-0.076,0.078c-0.154,0-0.387,0.076-0.387,0.308h-0.154
	c-0.232-0.232-0.387-0.232-0.619-0.308H52.13H51.9V7.028h-0.232C51.9,6.642,51.9,6.487,52.13,6.487
	c0.154-0.154,0.311-0.23,0.387-0.308c0.387-0.232,0.773-0.308,0.773-0.541V5.33l-0.078-0.232c-0.232-0.076-0.462-0.076-0.695-0.076
	c-0.849,0.076-1.468,0.925-2.779,0.616c-0.157,0.232-0.311,0.308-0.387,0.232c-0.154,0-0.232-0.078-0.387-0.232
	c0-0.154-0.465-0.308-0.849-0.308h-0.078c0,0,0,0.154-0.462,0.154V5.33c-0.078,0.076-0.232,0.154-0.311,0.23
	c-0.23,0.078-0.616,0.078-1.003,0.078l-0.078,0.308c-0.308,0-0.308,0-0.308,0.541h-0.078v0.154v0.311h-0.076h-0.308v0.076h-0.154
	v0.387c0,0,0,0.311-0.078,0.311h-0.308c0,0.076-0.078,0-0.154,0c-0.232,0-0.311,0-0.773-0.311c-0.078,0-0.078,0-0.078-0.308
	c0-0.078,0.078-0.078,0.541-0.465V6.487c-0.387-0.462-0.695-0.541-0.927-0.849c0,0-0.076-0.078-0.076-0.154V5.33V5.098h0.076h0.927
	c0,0,0.078-0.154,0.311-0.308V4.636c0.076-0.078,0.154-0.078,0.154-0.157c0.308-0.23,0.541-0.308,0.849-0.384h0.154h0.308V3.709
	V3.63V3.322c0,0-0.308,0-0.308-0.078c-0.078-0.076-0.078-0.076-0.154-0.076c-0.308-0.154-0.541-0.154-0.849-0.154
	c-0.311,0-0.619,0-0.927-0.311c0,0,0-0.076-0.078-0.076H43.48h-0.076c-0.311,0.308-0.695,0.308-1.16,0.308
	c-0.541,0-1.157-0.076-1.854,0.308c0,0-0.076,0.078-0.154,0.232C40.16,3.554,40.16,3.554,40.16,3.63v0.465l-0.387,0.154
	c-0.387-0.154-0.541-0.927-1.003-1.389c0-0.232-0.543-0.232-0.543-0.465h-0.849v0.232L36.917,2.86h-0.078
	c-0.308,0.462-0.695,0.538-1.081,0.462c-0.232,0-0.462-0.078-0.695-0.078c-0.387,0-0.387-0.384-0.387-0.384V2.703V2.395
	c0.387,0,0.387-0.387,0-0.541h-0.541c-0.387,0-0.462,0.154-0.771,0.541l-0.697,0.308c0,0,0,0.157-0.154,0.157
	c-0.154-0.157-0.154-0.157-0.232-0.157c0-0.076-0.23-0.076-0.23-0.076l-0.232-0.232V1.854V1.468H31.51h-1.546h-0.076V1.314
	c-0.311-0.232-0.311-0.232-0.619-0.462V0.387l-0.076-0.308L29.04,0h-0.078l-0.541,0.078c-0.619,0-0.927,0.773-1.546,1.003h-0.384
	c-0.387,0.154-0.927,0-1.392-0.076h-0.616c-0.078,0-0.078,0.076-0.154,0.076c-0.387,0-0.387,0-0.697,0.232l-0.076,0.154v0.927
	c0,0.078-0.078,0.154-0.078,0.154c-0.076,0.154-0.23,0.232-0.23,0.311h-0.311c-0.308,0-0.771,0-0.771,0.462
	c-0.232,0-0.232,0.387-0.387,0.773h-0.387h-0.078c-0.771-0.387-1.389-0.387-1.776-0.851c-0.541-0.384-0.849,0.078-1.081,0.078
	L18.303,3.63h-0.232c0,0.619,0.387,1.005,0.465,1.314l0.154,0.154c0.619,0,1.235,0.232,1.854,0.387
	c0.387,0.154,0.462,0.154,0.771,0.462v0.541c0,0-0.308,0-0.308,0.154c-0.462,0-0.695,0-1.081,0.311
	c-1.003,0.076-1.468-1.314-2.625-1.005c-0.154-0.23-0.465-0.387-0.773-0.462h-0.232c-0.154-0.154-0.616-0.154-0.849,0v0.462v0.541
	c0.232,0.154,0.465,0.154,0.695,0.465v0.076v0.078h-0.23h-1.005c-0.462,0.308-0.619,0.308-1.235,0.619v0.384l0.308,0.465v0.23v0.078
	c-0.308,0-0.308,0.078-0.308,0.078h-0.619c-0.387-0.078-0.849-0.157-1.468-0.078v0.078v0.23c-0.154,0.078-0.154,0.078-0.154,0.311
	c0,0,0,0.076,0.154,0.076v0.154c0,0,0.311,0,0.927,0.232c0.154,0.154,0.541,0.232,0.541,0.232c0.232,0.308,0.232,0.308,0.232,0.384
	c0,0.465-0.232,0.465-0.232,0.619c0.232,0,0.232,0,0.232,0.154c0.232,0,0.232,0,0.232,0.387h0.154
	c0.308,0.154,0.308,0.154,0.308,0.308c0.308,0,0.308,0,0.308,0.311c0,0-0.308,0-0.308,0.23h-0.927
	c-0.23,0.078-0.462,0.157-0.541,0.387h-0.616c0,0.232-0.232,0.232-0.232,0.232c-0.078,0.541-0.849,0.232-1.389,0.232
	c0,0-0.232,0-0.232-0.232c-0.387-0.232-0.695-0.232-1.081-0.462L8.88,12.667c-0.154-0.078-0.462-0.078-0.462,0.078v0.23
	c-0.308,0-0.308,0.232-0.308,0.232H7.645c-0.076,0.232-0.695,0-1.081,0.232c-0.23,0.23-0.23,0.541-0.23,0.771
	c-0.311,0-0.311,0.232-0.311,0.232c-0.308,0.387-1.622,0.308-2.084,0.695c0,0,0,0.078-0.154,0.078v0.154
	c0.154,0.232,0.541,0.541,0.541,0.541h1.698c0.541,0.308,0.927,0,1.546,0.308h0.076c-0.076,0-0.076,0.387-0.076,0.465l-1.005,0.154
	v0.387v0.23v0.465h2.241v0.308v0.387H8.418c-0.308,0-0.773,0-0.849,0.387c-0.232,0-0.619,0.078-0.619,0.078
	c-0.387,0-1.157,0-1.235,0.23v0.154v0.232l-0.541,0.387H5.098c0,0-0.311,0-0.311,0.232c-0.23,0-0.462-0.232-0.462-0.232
	c-0.387,0-0.695-0.387-0.773-0.465c-0.308-0.308-0.619-0.308-1.235,0c-0.078,0.078-0.078,0.465-0.232,0.697
	c-0.23,0.384-0.616,0-1.157,0c-0.232,0-0.851,0-0.927,0.616v0.154c0,0,0.076,0,0.076,0.154c0.465,0,0.851,0,1.392,0.311h0.23
	c0,0,0.387,0.154,0.619,0.154c0.078,0,0.078,0,0.462,0.076c0,0.387-0.384,0.387-0.384,0.387c-0.157,0.387-0.465,0.387-0.697,0.619
	v0.387v0.308h0.157c0.23,0,0.462,0,0.925-0.308c0.154-0.078,0.154-0.619,0.541-0.619h1.005l0.076,0.619v0.308h0.387
	c0,0.154,0.311,0.154,0.927,0c0,0,0.078,0,0.308,0.154v0.308h0.311v0.387c1.003-0.387,1.311-1.157,2.084-1.544h0.387v0.387
	c0,0.154,0.076,0.23,0.076,0.308h0.078h0.695v0.154v0.308c0,0.387-0.308,0.387-0.308,0.387H8.88c0,0.078-0.076,0.078-0.076,0.078
	v0.076v0.465H8.88h0.311c0.695-0.465,1.622,0,2.238-0.465h0.154l0.078-0.076h0.462c0.387,0,0.387-0.078,0.387-0.078
	c0.154-0.616,0.154-0.849,0.541-1.157c0.232,0,0.465,0.308,0.541,0.308c0.078,0,0.078,0.154,0.078,0.154
	c0.308,0.308,0.308,0.773,0.308,0.773l-0.308,0.076c-0.078,0.078-0.078,0.078-0.154,0.078v0.387h0.076h0.851
	c1.003,0,1.468,0,1.698-0.541h0.154h0.232h0.232h0.387H17.3c0,0,0,0.076,0.23,0.076v0.078l-0.23,0.387h-0.154
	c0,0-0.078,0-0.078,0.232c0,0.616-0.154,0.695,0,0.925c0,0.078,0,0.078,0.078,0.232h0.384c0.541-0.232,0.927-0.462,1.468-0.462
	c1.314,0.23,2.781-0.078,3.938,0.308c0.311,0,0.311,0.154,0.311,0.154c0,0.078-0.311,0.078-0.311,0.308v0.078
	c-0.771,0.387-1.544,0.076-2.006,0.465c0,0-0.387,0-0.387,0.152v0.078c0.849,0.308,2.084,0,2.392,0.619h0.311v0.308v0.232v0.076
	h0.23h0.078c0,0.154,0,0.154,0.076,0.154l0.311,0.157v0.462v0.154c-0.232,0.154-0.387,0.308-0.465,0.462
	c-0.076,0.157-0.154,0.232-0.23,0.311h-0.619c-0.462,0.387-0.849,0.308-1.622,0.308c-0.695,0.619-1.698,0.308-2.549,0.308h-0.387
	c0,0.311-0.154,0.311-0.23,0.311c-0.311,0.154,0,0.384,0,0.541l0.076,0.154c0.541,0.23,1.081,0.23,1.392,0.308
	c0.23,0.541,0.616,0.541,0.616,0.927h-0.154h-0.232v0.308c-1.081-0.387-2.084,0-3.011,0.154c-0.616,0.078-1.16,0.157-1.7-0.154
	c-0.384-0.308-0.541-0.308-0.541,0l-0.308,0.154v0.387c0,0.232,0.308,0.232,0.308,0.232c0.078,0,0.157,0.154,0.541,0.462
	l0.619,0.311c0,0.23,0.232,0.23,0.465,0.541h0.616l0.232-0.311c0.308-0.23,0.541-0.541,0.771-0.616c0-0.232,0.311-0.232,0.387-0.232
	c0.387,0.232,0.541,0.308,0.773,0.619h1.081c0.154-0.311,0.541-0.387,0.773-0.619v-0.154h0.849c0.387,0,0.387,0,0.541,0.154v0.308
	c0.232,0.311,0.232,0.311,0.232,0.541h0.462c0.308,0.311,0.619,0,0.619,0c0.076,0.078,0.154,0.154,0.23,0.154
	c0.232,0.157,0.465,0.232,0.465,0.311v0.154c-0.154,0-0.311,0-0.465,0.076c-0.154,0-0.23,0-0.23,0.157v0.541v0.23h0.23h0.078h0.773
	h0.154c0.232,0.078,0.387,0.157,0.616,0.232c0.311,0.154,0.465,0.387,0.465,0.773c0,0.154,0.232,0.154,0.232,0.154
	c0.154,0,0.23-0.387,0.384-0.387c0.232-0.232,0.311-0.232,0.619,0c0,0.154,0.076,0.232,0.076,0.232c0,0.076,0.078,0.154,0.078,0.154
	v0.232c0.232,0.154,0.232,0.462,0,0.462c0,0,0,0.078-0.078,0.078c-0.23,0.308-0.695,0.308-0.849,0.308l-0.23,0.078h-0.697
	c0,0-0.384-0.078-0.384-0.465h-0.232h-0.154v-0.308v-0.154h-0.851h-0.23v0.154c-0.311,0-0.311,0.23-0.311,0.308
	c0,0,0.311,0.387,0.311,0.465c-0.311,0-0.311,0.308-0.311,0.308v0.23h-0.308c-0.695,0-1.235,0-1.622,0.311
	c-0.076-0.311-0.462-0.311-0.462-0.311v-0.23v-0.308c0,0-0.232,0-0.232-0.078v-0.387h-0.232c0-0.078,0-0.078-0.154-0.078h-0.387
	c0,0,0,0.078-0.23,0.078h-0.157c0,0-0.154,0-0.462,0.387c-0.232,0-0.773,0.078-1.389,0.387v-0.308h-0.154v-0.078
	c0-0.387,0.154-0.387,0.154-0.465v-0.384h-0.232v-0.232c-0.154,0-0.387-0.078-0.541-0.078c-0.541,0-1.081,0.154-1.622,0.311v0.154
	v0.23v0.078h-0.078h-1.544c-0.076-0.078-0.154-0.078-0.232-0.154c-0.076-0.078-0.154-0.232-0.387-0.308
	c-0.154-0.232-0.771-0.232-1.081,0v0.154v0.23v0.078l0.078,0.387v0.078v0.308l-0.078,0.23c-0.771,0-1.698,0.697-2.703,0.773H8.804
	c-0.387-0.232-0.695-0.387-1.16-0.232l-0.076,0.232c0,0.078-0.232,0.154-0.232,0.154c0,0.232-0.387,0.465,0,0.695h0.232
	c0.541,0,0.927,0.078,1.311,0.311c0.311,0.154,0.541,0.308,0.773,0.616h0.154c0.465-0.308,0.465-0.695,1.005-0.849h0.387
	c0.384,0.154,0.695,0.541,1.465,0.465h0.311c0.076-0.465-0.311-0.773,0.076-1.238h0.541h0.078l0.308,0.232v1.005h0.308l0.157,0.076
	v0.308h0.384c0,0.465-0.384,0.465-0.384,0.541v0.078c0,0.387,0,0.462,0.384,0.462c0.541,0,1.084-0.23,1.7-0.462
	c0.773-0.387,1.468-0.927,2.162-1.314l0.232-0.154c0.387-0.078,0.849,0.154,1.157,0.154h0.465v0.311v0.076
	c-0.232,0-0.232,0.308-0.232,0.308h-0.232v0.465c0.232,0.076,0.465,0.154,0.465,0.616v0.311h-0.465l-0.154,0.308
	c-0.616-0.308-1.468-0.308-2.084,0.154l-0.311,0.154v0.308h0.311c0.462,0.078,0.695,0.078,1.157,0.311h0.311
	c0.23,0.232,0.462,0.462,0.616,0.695c0.619,0.541,1.854,0.154,2.703-0.232c0.308,0,0.541,0,0.849-0.387c0,0,0-0.076,0.078-0.076
	h-0.078c-0.23,0,0-0.232-0.23-0.232v-0.078v-0.384c0-0.232,0-0.465,0.23-0.541h0.078c0.076-0.311,0.387-0.311,0.773-0.311
	c0,0.154,0.076,0.232,0.154,0.232c0.076,0.078,0.232,0.078,0.232,0.078c0.154,0.076,0.23,0.154,0.384,0.154
	c0.311,0,0.773-0.154,0.927-0.154l0.154-0.311c0-0.076,0.232-0.076,0.232-0.462v-0.078c0-0.076-0.232-0.076-0.232-0.076
	c-0.154,0-0.384,0-0.616-0.465v-0.308v-0.076c0-0.311,0.232-0.311,0.232-0.311h0.154c0.23,0,0.616,0,0.925,0.154
	c0.157,0.078,0.232,0.157,0.311,0.232c0.308,0.773,0.462,0.927,0.616,1.7c0.232,0.308,0.465,0.462,0.697,0.616
	c0.154,0.232,0.308,0.232,0.462,0.308h0.308c0.232,0.078,0.465,0.078,0.695,0.154c0.465,0.157,1.005,0.232,1.546,0.311
	c1.389,0.232,2.857,0.387,4.247,0.387c1.546,0.076,3.014,0.076,4.479,0.23c0.154,0,0.387,0,0.619,0.078
	c0.154,0.387,0.308,0.387,0.695,0.387v0.308c0.154,0.308,0,1.081,0,1.314c-0.154,3.244,0.078,6.487,0.695,9.653
	c0.387,1.546,0.773,3.014,1.235,4.479c0.465,1.238,0.927,2.395,1.392,3.554c0.308,0.541,0.541,1.081,0.849,1.544
	c0.462,0.927,1.003,1.854,1.544,2.703c0.541,0.773,1.081,1.546,1.7,2.241v0.076h-0.308c-0.157,0.308-0.157,0.308-0.541,0.308
	c-0.232,0-0.541,0-0.851,0.078c-0.541,0-1.081,0.154-1.544,0.308c-0.154,0.078-0.308,0.078-0.462,0.154
	c-0.157,0.078-0.232,0.078-0.387,0.157c-0.541,0.23-0.927,0.462-1.392,0.771c-0.387,0.232-0.771,0.387-1.235,0.619
	c-0.076,0-0.154,0.078-0.23,0.078c-0.619,0.308-1.238,0.538-1.779,0.771c-0.308,0.154-0.616,0.232-0.849,0.387
	c-0.616,0.387-0.616,0.462-1.16,0.849c-0.849,0.541-1.389,1.238-2.084,1.622c0,0.157-0.154,0.232-0.387,0.387
	c-0.076,0-0.154,0.078-0.232,0.154c-0.076,0.465-0.462,1.235-0.462,1.854c0,0.093,0.009,0.177,0.033,0.232h40.128
	c-0.078-0.078-0.308-0.232-0.541-0.387s-0.541-0.311-0.695-0.465c-1.16-0.462-2.087-1.235-3.09-2.006
	c-0.616-0.465-1.16-0.927-1.776-1.392c-1.003-0.771-2.087-1.544-3.322-2.006c-0.616-0.157-1.235-0.311-1.93-0.387
	c0-0.078-0.076-0.154-0.154-0.154c-1.081-0.927-2.703-1.468-4.247-1.238l-0.078-0.076c-0.078-0.154-0.308-0.387-0.695-0.619
	c-0.849-0.927-1.854-2.008-2.857-3.011c-0.232-0.308-0.465-0.541-0.773-0.773c-0.462-0.462-0.927-0.927-1.389-1.389h-0.078
	c-0.387-0.465-0.771-0.927-1.081-1.389c-1.235-1.778-2.008-3.554-2.779-5.098l-0.232-0.462v-1.005
	c0.154-3.32,0.927-6.72-0.154-9.423c-0.311-0.695-0.695-1.311-1.235-1.93c-0.311-0.387-0.541-0.695-0.851-1.081
	c-0.23-0.232-0.387-0.541-0.771-0.849c0.23-0.619,0.462-1.314,0.771-1.93c0.232-0.465,0.465-1.005,0.773-1.392
	c0.541-0.695,0.927-1.852,1.314-2.857c0.23-0.616,0.541-1.235,0.927-1.544c0.695-0.773,1.465-1.16,2.238-1.314
	c0.387-0.076,0.773-0.154,1.16-0.154h0.308v0.232h0.154c0,0.23,0.232,0.23,0.232,0.23v0.157c-0.232,0-0.232,0-0.232,0.23
	c-0.154,0.232-0.308,0.308-0.462,0.308c-0.311,0.078-0.773-0.076-1.16-0.076c-0.232,0.076-0.541,0.154-0.849,0.387
	c-0.078,0-0.078,0.154-0.078,0.154c-0.076,0-0.076,0-0.076,0.232v0.462c0,0-0.154,0-0.154,0.387v0.078h-0.387
	c-0.232,0-0.465,0-0.619,0.308c0,0.23-0.076,0.541,0,0.771c0.387,0.232,0.541,0.311,0.619,0.311c0,0.076,0.387,0.076,0.387,0.076
	v0.387c0.154,0.078,0.308,0.387,0.541,0.078c0.23,0,0.23-0.078,0.23-0.078c0-0.154,0-0.387,0.387-0.387
	c0.078-0.076,0.311-0.154,0.619-0.076h0.076c0,0.076,0.232,0.154,0.465,0.387c0.154,0.154,0.308,0.308,0.308,0.462
	c0,0.308-0.154,0.387-0.308,0.541c-0.154,0.078-0.232,0.154-0.387,0.308c0.308,0,0.308,0,0.308,0.465h0.078h0.076h0.232
	c0.308-0.232,0.695-0.465,1.081-0.619c0.308-0.076,0.541-0.154,0.773-0.154h0.23c0.311,0,0.311,0,0.387,0.308
	c0.541,0,0.773,0.541,1.16,0.619h0.232c0.308,0,0.384-0.078,0.538-0.078c0.232-0.076,0.232-0.076,0.232-0.541
	c0.232-0.308,0.541-0.695,0.773-0.695h0.078l0.23,0.311c0,0.076,0.311,0.384,0.311,0.384c0.076,0,0.384,0.465,0.541,0.541v0.541
	c0,0,0,0.311,0.076,0.311h0.308l0.078-0.311c0.076-0.076,0.076-1.081,0.619-1.081c0-0.308,0.154-0.384,0.384-0.695
	c0.311-0.154,0.773-0.232,1.16-0.154c0.078,0,0.308,0,0.541-0.078c0.541-0.076,1.235-0.384,1.544-0.695V40.16
	c0.232-0.076,0.387-0.308,0.541-0.541l0.078-0.076c0.462,0,0.695,0,1.003,0.23c0.078,0,0.078,0,0.078,0.311
	c0.695,0,1.235-0.311,1.544-0.541l0.541-0.773h0.078c0.232,0,0.773,0,1.081-0.308c0-0.154,0.232-0.154,0.232-0.154v-0.387
	c0-0.541,0-0.773,0.462-0.849h0.078h0.23c0.619,0.23,1.314,0,1.546,0.23c0.232,0,0.232,0.387,0.232,0.619l-0.232,0.154
	c-0.232,0-0.232,0.232-0.619,0.232h-0.308c-0.232,0.154-0.232,0.154-0.232,0.384v0.078l1.16,0.465
	c0.773,0.23,1.468-0.157,1.93-0.543c0.232-0.154,0.387-0.308,0.541-0.384v-0.232c-0.232-0.387-0.232-0.773-0.232-1.003l0.232-0.157
	h1.16c0.387,0,0.695,0.078,1.157,0.157h0.078c0.23,0,0.616-0.157,0.927-0.387v-0.232V35.76h-0.078c-0.232,0-0.541,0-0.619-0.154
	l-0.23-0.311v-0.23h-0.078h-0.308c-0.387,0-0.387,0.23-0.541,0.23c0,0.311-0.078,0.311-0.078,0.311h-0.23
	c-0.154,0-0.311-0.078-0.311-0.311v-0.541c-0.308,0-0.308-0.076-0.462-0.076h-0.232c-0.154,0.076-0.462,0.387-0.616,0.387h-0.078
	h-0.387v-0.311v-0.462h-0.308c-0.078,0-0.078-0.232-0.078-0.232c-1.157-0.387-1.776,0.232-2.703,0.232
	c0-0.232-0.23-0.232-0.23-0.232v-0.541h-0.078h-0.308c-0.387,0-0.851,0-1.468,0.154v0.157c0,0.154,0,0.23-0.078,0.23v0.232h-0.541
	l-0.154-0.232c0-0.541,0.154-0.849,0.232-0.849c0,0,0.154-0.308,0-0.308l0.154-0.078h0.308c0-0.462,0.078-0.541,0.078-0.541v-0.078
	h0.308c0.541-0.384,1.005-0.308,1.468-0.23c0.387,0.154,0.773,0.308,1.235,0.23c0.387,0,0.619-0.23,0.851-0.384
	c0.384,0,0.462-0.157,0.462-0.387V31.28V30.97h0.462c0.387,0,0.387,0.311,0.387,0.465c0,0,0,0.308,0.387,0.541h0.078v0.23
	c0.384,0.387,1.003,0.311,1.622,0.311c0.387,0,0.771,0.076,1.157,0.308h0.078c0.076,0,0.23-0.078,0.23-0.541
	c0.078-0.078,0.078-0.078,0.387-0.078h0.232h0.078v0.078v0.541c0,0.078-0.078,0.387,0,0.387v0.308h0.308
	c0.462,0.154,0.773-0.308,1.003-0.308c0-0.308,0.078-0.387,0.465-0.387c0-0.541,0.308,0,0.308,0
	c0.308,0.078,0.308,0.387,0.308,0.695c0.232,0.541,0.927,0.773,1.546,0.927h0.154c0.232-0.154,0.462-0.462,0.695-0.773
	c0.619,0,1.235-0.154,1.468-0.462h0.308h0.232c0.154,0,0.387,0,0.462,0.308c0.232,0,0.232,0,0.541-0.308
	c0-0.308-0.308-0.927,0-1.005v-0.384v-0.157h0.465c0.616,0,1.93-0.23,2.317,1.16h0.076h0.387h0.078h0.387
	c0-0.849-0.387-1.389-0.387-1.854h0.387c0.387,0,0.387-0.23,0.849-0.23c0.308-0.078,0.308-0.387,0.695-0.387
	c0.232-0.311,0-0.465,0.078-0.927h0.154c0.462-0.462,0.849,0.154,1.235,0.154c0.232,0.308,0.232,0.308,0.773,0.308
	c0-0.308,0.23-0.308,0.308-0.462c0.154,0,0-0.619-0.078-0.619c0,0-0.23,0-0.23-0.154v-0.076l-0.541-0.232c0,0,0-0.308,0.541-0.308
	v-0.311c0.23,0,0.308-0.076,0.695,0c0.154,0,0.541-0.076,0.541-0.387v-0.152L94.531,27.11z M9.345,14.751l-0.154,0.078H8.88H8.804
	c-0.387-0.078-0.387-0.387-0.387-0.387v-0.387c0,0,0.387,0,0.387-0.076l0.076,0.076h0.078c0.078,0.154,0.232,0.387,0.387,0.387
	V14.751z M13.978,14.751l-0.308,0.387c-0.078,0.308-0.308,0.154-0.619-0.076c-0.154-0.078-0.387-0.232-0.541-0.232
	c0,0,0-0.078-0.387-0.078v-0.154c0.387,0,0.387-0.154,0.387-0.154c0.154-0.232,0.154,0,0.465-0.232h0.076h0.232
	c0.232,0.232,0.387,0.232,0.695,0.387V14.751z M17.3,13.44l-0.232,0.23c-0.232-0.076-0.387-0.154-0.541-0.23
	c-0.387-0.157-0.541-0.465-0.773-0.851v-0.23h0.157l0.23-0.311h0.154v-0.154c0.078,0,0.154,0.078,0.232,0.078
	c0.387,0.076,0.541,0.076,0.541,0.387c0.232,0.23,0.232,0.616,0.232,0.849V13.44z M23.787,42.323h-0.232h-0.078h-0.541v-0.384
	c0-0.311,0-0.387,0.311-0.465h0.23c0.078,0,0.154,0.078,0.311,0.078c0,0.076,0.154,0.076,0.154,0.387L23.787,42.323z M53.984,28.653
	h0.154h0.927h0.308c0.232-0.308,0.387-0.308,0.465-0.308h0.154h0.076c0.311,0,0.387,0.308,0.387,0.308v0.154v0.157
	c0,0.23-0.076,0.23-0.076,0.23c-0.232,0.154-0.387,0.465-0.541,0.619c-0.157,0.154-0.232,0.23-0.465,0.23v-0.154
	c-0.076-0.076-0.23-0.154-0.308-0.23c-0.232-0.157-0.462-0.311-0.462-0.465c-0.232,0-0.311-0.23-0.465-0.23s-0.154,0-0.154-0.157
	h-0.232L53.984,28.653z M55.993,30.97v0.078c-0.078,0.154-0.078,0.232-0.154,0.387c-0.232,0.23-0.465,0.387-0.465,0.771
	c-0.154,0.078-0.23,0.078-0.308,0.078h-0.078h-0.384v-0.078v-0.771c0.154-0.078,0.384-0.154,0.462-0.232
	c0.232-0.154,0.308-0.232,0.308-0.232h0.387h0.078H55.993z M53.598,30.043h0.078h0.616v0.311c-0.154,0.232-0.387,0.462-0.616,0.541
	c-0.154,0-0.311,0.076-0.465,0.076h-0.076h-0.157v-0.23v-0.078v-0.308c0-0.311,0.232-0.311,0.311-0.311H53.598z M51.9,28.037
	c0,0,0.23,0,0.23-0.078c0.232-0.154,0.387-0.232,0.387-0.308h0.078h0.232c0.152,0,0.152,0,0.308,0.076
	c0,0.619,0.076,0.927,0.076,1.468v0.232h-0.232h-0.384h-0.078c0-0.308-0.387-0.619-0.616-0.773V28.037z M43.48,26.877
	c0.465,0.311,0.927,0.541,0.927,0.773v0.076c-0.387,0.232-0.773,0.157-0.927,0.078c-0.076,0-0.076-0.078-0.076-0.078H43.25
	l-0.232-0.308l-0.462-0.078c0-0.152,0-0.23,0.462-0.541c0-0.076,0.232,0,0.387-0.076v0.076L43.48,26.877z M44.639,29.426
	c-0.232,0.154-0.773,0.616-1.081,0.927H43.48h-0.076H43.25c-0.232,0-0.232,0-0.232-0.465V29.58c0.076-0.078,0.308-0.154,0.462-0.154
	c0.311-0.078,0.619-0.232,0.927-0.462C44.407,29.194,44.407,29.194,44.639,29.426z M41.55,6.642h0.154h0.541h0.232v0.387h0.387
	c0,0,0.154,0,0.154,0.078c0,0-0.154,0-0.154,0.308h-0.387l-0.232,0.232c0,0,0,0.078-0.076,0.078c-0.154,0-0.154,0-0.465-0.311
	c0-0.308-0.154-0.308-0.154-0.387V6.642z M41.009,28.345c0.154,0,0.154,0,0.541-0.308l0.154,0.308c0.154,0,0.387,0.078,0.541,0.232
	c0.154,0.076,0.232,0.23,0.232,0.23v0.387v0.232h-0.232h-0.541c-0.154-0.462-0.541-0.619-0.695-0.773V28.345z M39.541,24.328
	c0.154,0,0.465-0.23,0.695-0.387h0.078h0.076h0.232h0.154c0,0,0.078,0,0.078,0.387v0.078c-0.078,0.154-0.465,0.541-0.541,0.541
	h-0.078h-0.462c0-0.387,0-0.387-0.232-0.541V24.328z M35.062,26.104h0.232h0.154c0.076,0,0.154,0,0.308,0.078
	c0.078,0.078,0.154,0.154,0.232,0.232h0.154c0.232,0,0.541,0,0.695,0.308v0.387c-0.387,0.23-0.771,0.23-1.081,0.154
	c-0.076,0-0.232,0-0.308-0.076c-0.154-0.078-0.308-0.078-0.387-0.078c-0.308,0-0.308,0-0.308-0.387h-0.078
	C34.676,26.415,34.754,26.182,35.062,26.104z M33.132,30.043h0.232c0.308-0.462,0.771-0.462,1.311-0.849v-0.541v-0.076
	c0.308,0,0.695,0.076,1.081,0.076c0.232,0.078,0.541,0.154,0.773,0.154h0.308v0.157l-0.308,0.23
	c-0.308,0.154-0.541,0.232-0.773,0.387c-0.076,0.078-0.154,0.154-0.232,0.308v0.154l-0.23,0.311l-0.154,0.387v0.23h0.154
	c0.154,0,0.154,0.078,0.23,0.078c0.078-0.078,0.157-0.078,0.232-0.078c0.465,0,0.927,0.078,1.468,0.078
	c0.154-0.078,0.154-0.078,0.462-0.078c0.541,0.078,1.084,0.465,1.084,0.078c0.616-0.078,0.771-0.695,1.389-0.695l0.076,0.076
	c0.154,0,0.232,0.387,0.541,0.541c0.773,0.232,1.16,0.695,1.468,1.235c0.232,0.311,0.465,0.619,0.773,1.005v0.308h-0.154
	c-0.232,0.078-0.387,0.078-0.619,0.154c-0.616,0.078-1.314,0.078-2.008,0c-1.544-0.23-3.09-0.77-4.479-1.157
	c-0.232-0.078-0.462-0.154-0.695-0.232c-1.157-0.308-2.395-0.462-3.552-0.619h-0.078c-0.308-0.23-0.308-0.616-0.308-0.695v-0.23
	c0,0,0.308,0,0.308-0.387h0.078C32.281,30.353,32.667,30.353,33.132,30.043z M31.124,27.958v-0.232h0.232h0.154
	c0.154,0.078,0.308,0.078,0.308,0.232c0,0.078,0.232,0.078,0.232,0.387s-0.232,0.308-0.232,0.308v0.154H31.51
	c-0.154,0-0.232,0-0.387-0.154c0-0.308-0.154-0.308-0.154-0.616C30.97,28.037,31.124,28.037,31.124,27.958z M30.891,29.426v0.154
	c0,0.308,0,0.308-0.462,0.462c-0.154,0-0.311,0.078-0.465,0.078c-0.23,0.154-0.462,0.232-0.695,0.232l-0.23-0.311
	c0,0,0.23-0.154,0.23-0.462c0-0.154,0.308-0.154,0.619-0.387h0.076h0.465v0.232H30.891z M29.27,31.821v0.154
	c0,0.23,0,0.23-0.23,0.23h-0.078c-0.308,0.078-0.462,0-0.773,0l-0.154-0.23v-0.311c0.154-0.23,0.232-0.23,0.465-0.384h0.23
	c0.154,0.076,0.232,0.076,0.232,0.154c0.078,0,0.078,0.076,0.078,0.23C29.27,31.664,29.27,31.821,29.27,31.821z M28.188,27.11
	v-0.387c0-0.078,0.311-0.308,0.311-0.308h0.462h0.078h0.154h0.076v0.773c0,0.152,0.308,0.152,0.387,0.152c0,0,0.232,0,0.232,0.078
	v0.232h0.076c0.232,0,0.232,0.308,0,0.387h-0.076c0,0-0.619,0.308-0.695,0H29.04V27.65h-0.078c-0.462-0.232-0.541,0-0.773-0.232
	h-0.387v-0.078C27.802,27.188,28.188,27.188,28.188,27.11z M25.95,26.336v-0.154c0.076-0.308,0.23-0.308,0.462-0.308l0.078-0.078
	h0.384c0.387,0,0.697,0,0.927,0.078v0.23v0.078c0,0.232-0.616,0.154-0.849,0.462c0,0,0,0.078-0.078,0.078
	c-0.076,0-0.23,0.076-0.384,0.076c0,0-0.311,0-0.465-0.076l-0.076-0.078V26.336z M24.715,26.415h-0.157h-0.076
	c-0.154-0.078-0.154-0.232-0.311-0.232c-0.23,0-0.23-0.308-0.23-0.387h0.23v-0.308h0.157c0.076,0,0.154,0.076,0.154,0.076
	c0.232,0,0.232,0.232,0.232,0.311C25.099,26.104,25.099,26.182,24.715,26.415z M24.482,2.781c0,0-0.078-0.078-0.154-0.078V2.627
	V2.395h0.154h0.232h0.384h0.465c0,0.232,0.232,0.308,0.232,0.465v0.462V3.63h-0.697C24.79,3.322,24.715,2.936,24.482,2.781z
	 M25.099,29.426v-0.232v-0.23v-0.157c0.465-0.154,0.851-0.154,1.081-0.23h0.232c0.078,0,0.078,0.076,0.387,0.076v0.154
	c0,0.157,0.076,0.619,0,0.619c-0.308,0.154-0.619,0.616-0.619,0.616h-0.23h-0.154C25.796,29.58,25.563,29.426,25.099,29.426z
	 M26.875,34.754c-0.462,0.311-0.695,0.311-0.925,0h-0.154c0-0.462,0.154-0.462,0.23-0.695c0-0.387,0.154-0.387,0.154-0.541
	c0.232,0,0.465-0.154,0.695-0.232c0.078-0.076,0.232-0.076,0.311-0.076c0.616-0.232,1.157-0.308,1.776-0.308
	c0.308-0.078,0.695-0.078,1.003-0.078h0.465h1.081c1.235,0,2.549,0.154,3.784,0.695c0.23,0,0.23,0.154,0.23,0.154l-0.23,1.005
	c0,0.076-0.232,0.387-0.541,0.616h-0.078c0,0,0-0.23-0.387-0.23c-0.154-0.311-0.541-0.311-0.925-0.387
	c-0.232-0.387-0.697-0.387-1.084-0.387c-0.23,0-0.23,0-0.462,0.154c0,0,0,0.232-0.308,0.308h-0.078c0,0,0,0.311-0.076,0.311h-0.232
	H30.97c0,0,0-0.311-0.078-0.311v-0.076c-0.23-0.232-0.23-0.232-0.462-0.232v-0.154v-0.619h-0.465h-0.076v-0.154
	c-0.311,0-0.619,0-0.695,0.154H29.04v0.387v0.232h-0.078c-0.232,0-0.232,0.154-0.462,0.387h-1.005L26.875,34.754z M29.04,37.073
	v0.23v0.154c0,0,0,0.078-0.078,0.078c-0.308,0.387-0.695,0.541-1.16,0.541v-0.619v-0.154c0,0,0-0.23,0.387-0.23
	c0-0.078,0-0.078,0.078-0.157c0.154,0,0.232,0,0.462,0.078h0.232L29.04,37.073z M28.421,40.625c0,0,0,0.076-0.154,0.076h-0.078
	c-0.387-0.076-0.387-0.616-0.541-0.927c0-0.23,0.154-0.538,0.541-0.616h0.078c0,0,0-0.387,0.154-0.387l0.078,0.387v0.078
	c0.308,0,0.462,0,0.462,0.076c0.078,0,0.078,0.078,0.078,0.232c0,0.076,0,0.154-0.078,0.23
	C28.883,40.16,28.499,40.393,28.421,40.625z M43.866,36.917c0,0.773-0.154,1.546-0.387,2.319c-0.387,1.389-0.925,2.779-1.235,4.247
	c0,0.154,0,0.308-0.076,0.541h-0.154v0.154c-0.619,0-1.238,0.078-1.779,0.078c-1.544,0.076-3.011,0.154-4.479,0.154
	c-1.389-0.078-2.779-0.154-4.247-0.387h-0.154c-0.541,0-1.005-0.154-1.392-0.308c-0.308-0.232-0.541-0.465-0.771-0.851
	c-0.154-0.076-0.154-0.541-0.154-0.541v-0.308l0.23-0.076c0.308-0.311,0.308-0.465,0.619-0.465v-0.308v-0.078v-0.154h0.076
	c0.465-0.232,0.697,0,1.005,0c0,0,0.076,0,0.076-0.232c0-0.387-0.076-0.616-0.384-0.927h-0.232c0,0,0-0.23-0.465-0.23h-0.076v-0.308
	v-0.465h0.076c0.154,0,0.541,0,0.697-0.078h0.849h0.308v0.078c0.232,0,0.462,0.465,0.849,0.465h0.387c0,0,0-0.078,0.078-0.465
	c0-0.078,0.232-0.078,0.232-0.308c0-0.387,0.541-0.387,0.771-0.541v-0.849c0,0,0-0.157-0.23-0.157v-0.23
	c0.616-0.311,1.311-0.541,1.852-0.927c0.387-0.311,0.695-0.619,0.773-1.081c0-0.232,0.308-0.232,0.308-0.387h0.078
	c0.695,0,1.468,0.387,2.317,0.462c0.308,0.078,0.616,0.154,1.003,0.232c0.695,0.154,1.392,0.154,2.008,0.232
	c0.465,0.076,0.849,0.154,1.235,0.308c0.154,0,0.232,0.078,0.387,0.078l0.541,0.154C44.407,35.914,43.866,36.454,43.866,36.917z
	 M44.407,31.28h-0.462v-0.232c0-0.078,0.462-0.078,0.462-0.308v-0.078c0.078-0.154,0.311-0.232,0.465-0.232
	c0.23-0.076,0.387-0.076,0.387-0.076h0.154h0.308c0,0,0.076,0.308,0.076,0.387c0,0.076-0.076,0.076-0.076,0.076
	c-0.308,0.154-0.462,0.232-0.462,0.465c0,0.076-0.157,0.076-0.387,0.076C44.718,31.435,44.485,31.356,44.407,31.28z M45.721,33.365
	c-0.308-0.232-0.462-0.541-0.541-1.081v-0.078c0.078,0,0.078-0.23,0.232-0.23h0.308h0.076c0.311,0,0.387,0.308,0.387,0.849v0.387
	c0,0.308,0,0.308-0.076,0.308h-0.232h-0.078C45.796,33.443,45.721,33.443,45.721,33.365z M47.264,49.737v0.154
	c1.235,1.392,0.773,3.322,0,4.79v0.076h-0.387v-0.076c-0.771-1.546-0.695-3.63-0.695-5.406v-0.232h0.078h0.232
	C46.802,49.275,47.188,49.505,47.264,49.737z M48.656,37.073c-0.387,1.079-0.851,2.006-1.392,2.857
	c-0.308,0.541-0.695,1.003-1.081,1.465l-0.076,0.078c0,0,0-0.078-0.232-0.078c0-1.311,0.773-2.625,1.003-3.938
	c0.078-0.23,0.232-0.384,0.387-0.462c0.078-0.078,0.157-0.078,0.311-0.078h0.076h0.387h0.078h0.541V37.073z M49.505,35.065
	c-0.078,0.076-0.154,0.154-0.154,0.154l-0.078,0.076h-0.154l-0.232-0.23h-0.23c0-0.311-0.541-0.773-0.541-1.005v-0.23v-0.157
	c0.616-0.154,0.849-0.308,1.235-0.462h0.387h0.154C49.737,33.829,49.737,34.678,49.505,35.065z M49.351,31.356
	c-0.311,0-0.541,0.078-0.695,0.308c-0.157,0.157-0.541,0.157-0.541,0.311v0.23H48.5l0.157,0.078h0.23c0.078,0,0.078,0.541,0,0.541
	c0,0.078-0.23,0.078-0.23,0.078c-0.541,0-0.619,0-1.235-0.078c-0.157,0-0.157,0-0.157-0.541v-0.849
	c0.157-0.465,0.773-1.081,1.235-1.081h0.157c0,0,0.23-0.311,0.23-0.773h0.078v-0.154c0.154,0,0.232,0,0.387,0.076
	c0.076,0.078,0.23,0.157,0.387,0.387h0.23c0.311-0.308,0.541-0.462,0.927-0.462h0.078h0.387v1.622v0.232
	C50.662,31.51,49.892,31.28,49.351,31.356z M53.676,35.527c-0.387,0.078-0.773,0.078-1.16,0.078h-1.157
	c0-0.851,0.154-1.546,0.23-2.395H51.9c0.23,0,0.23-0.308,0.616-0.308h0.078h0.232h0.152v0.308h0.619c0,0.076,0,0.154,0.078,0.232
	c0,0.154,0.154,0.23,0.308,0.23c0.387,0,0.619-0.154,1.003-0.154l0.078,0.154c0.308,0.157,0.308,0.387,0.308,0.387
	s0.232,0.154,0.465,0.311c0.076,0,0.076,0.076,0.154,0.076h0.076l0.311-0.154c0-0.232,0.076-0.462,0.616-0.619l0.232-0.154h0.387
	v0.154c0.154,0.157,0.232,0.387,0.232,0.619v0.154c-0.619,0.387-1.314,0.619-2.008,0.773c-0.232,0.076-0.465,0.154-0.773,0.154
	C54.603,35.449,54.138,35.527,53.676,35.527z M56.068,38.693c0,0.078-0.154,0.078-0.23,0.078H55.76h-0.695h-0.078h-0.384v-0.078
	c0-0.308,0.23-0.616,0.462-0.695c0.078-0.076,0.232-0.076,0.308-0.076h0.232h0.154h0.078c0,0.154,0.076,0.387,0.23,0.387V38.693z
	 M59.623,36.917v0.157H59.39v0.23c0,0.154,0,0.619-0.232,0.773c0,0,0,0.232-0.308,0.387c0,0-0.154,0.23-0.232,0.23h-0.232
	c0,0-0.154,0-0.154-0.23c-0.076-0.154-0.076-0.387-0.384-0.387v-0.154h-0.232c0,0,0-0.232-0.387-0.232v-0.387v-0.23
	c0,0-0.773,0.23-0.773,0c-0.308,0-0.462-0.078-0.616-0.157c-0.078-0.076-0.157-0.154-0.232-0.23c0-0.232,0.154-0.232,0.154-0.387
	h0.078c0.541-0.387,1.389-0.387,1.776-0.387h0.154h0.078v0.232c0.308,0,0.308,0.154,0.384,0.154c0.154,0,0.387,0,0.465-0.154h0.695
	h0.078C59.623,36.454,59.699,36.687,59.623,36.917z M60.55,27.726c-0.311,0-0.311,0-0.311,0.311H59.39h-0.232
	c0,0.308-0.308,0.308-0.462,0.541l-0.078-0.232c-0.232-0.619-0.387-1.005-0.387-1.235c0.154,0,0.154-0.311,0.387-0.311
	c0-0.076,0.078-0.076,0.078-0.076c0.232,0.076,0.462,0.076,0.695,0.076h0.619h0.076c0.154,0.389,0.154,0.389,0.465,0.541V27.726z
	 M63.175,25.796v-0.308c0-0.308,0-0.308,0.154-0.541h0.387h0.154l0.387,0.232v0.308c0,0.232-0.308,0.462-0.541,0.541
	c-0.078,0.076-0.154,0.076-0.154,0.076h-0.387V25.796z M65.259,27.188v0.152v0.078c0,0.232,0,0.232-0.154,0.308h-0.387
	c-0.384,0-0.695,0.078-1.003,0.157c-0.541,0.076-0.927,0.23-1.389,0.462c-0.311,0-0.541,0-0.695-0.308H61.32
	c-0.232-0.387,0-0.849,0.465-0.927c0-0.311,0.541-0.311,0.616-0.387l0.232,0.076l0.154,0.311c0.078,0.078,0.078,0.078,0.232,0.23
	h0.154h0.541h0.154h0.308c0.078-0.152,0.078-0.541,0.541-0.541h0.387h0.154V27.188z M66.11,12.745H65.8h-0.541l-0.154-0.157v-0.154
	v-0.076c0.154-0.154,0.154-0.311,0.387-0.465c0.078,0,0.154-0.076,0.308-0.154h0.078h0.232h0.23c0,0.154,0,0.154,0.157,0.154
	C66.34,12.204,66.34,12.434,66.11,12.745z M68.581,35.605c0.154-0.311,0.387-0.541,0.541-0.541h0.232c0,0,0.384,0.23,0.384,0.541
	c0,0.154-0.384,0.308-0.616,0.695v0.387h-0.078V36.3c-0.308,0-0.462-0.387-0.462-0.387C68.581,35.76,68.503,35.76,68.581,35.605z
	 M71.592,30.74c-0.154,0.23-0.387,0.23-0.387,0.23h-0.308h-0.462h-0.232v-0.616c0.232-0.232,0.387-0.311,0.695-0.695l0.078-0.078
	c0,0,0.23,0,0.23-0.154c0,0,0,0.154,0.232,0.154c0.154,0.462,0.154,0.773,0.154,1.081V30.74z M75.223,15.602
	c-0.232,0.308-0.308,0.616-0.308,0.616h-0.232c-0.154-0.076-0.462-0.154-0.695-0.308v-0.308c0.232-0.232,0.308-0.387,0.695-0.387
	c0.078,0,0.078-0.078,0.078-0.078c0.154,0,0.154-0.308,0.154-0.308h0.076l0.232,0.308l0.154,0.078v0.154
	C75.377,15.602,75.223,15.602,75.223,15.602z M77.231,30.97v0.311h-0.232c-0.154-0.154-0.387-0.232-0.616-0.311
	c-0.232-0.076-0.541-0.076-0.773-0.23v-0.078c0-0.308-0.232-0.308-0.232-0.308h0.232v-0.311h0.462h0.311h0.23
	c0.387,0,0.387,0.311,0.619,0.311C77.231,30.74,77.539,30.97,77.231,30.97z M78.466,16.838h-0.232v0.076l-0.308,0.311
	c-0.154,0-0.232-0.078-0.308-0.232c-0.154-0.078-0.232-0.154-0.387-0.154c-0.232-0.232-0.232-0.232-0.541-0.619v-0.308h0.154h0.154
	c0.232,0,0.387,0,0.619,0.154c0.23,0.078,0.387,0.308,0.616,0.541h0.232V16.838z M83.332,32.824c-0.154,0-0.462,0.154-0.695,0.232
	c-0.078,0.076-0.232,0.154-0.308,0.154h-0.154c-0.078-0.308-0.311-0.387-0.078-1.005c0.078-0.23,0.232-0.23,0.387-0.23h0.154
	c0.232,0,0.462,0.076,0.462,0.23c0.232,0,0.232,0,0.232,0.078V32.824z"/>
<g>
	<path fill="#FFFFFF" d="M108.358,35.553h8.134v0.611h-1.943l3.387,12.714h0.055l2.637-9.078l-0.944-3.637h-1.388v-0.611h8.328
		v0.611h-2.082l3.22,12.714h0.055l3.748-12.714h-2.304v-0.611h3.942v0.611h-0.944l-5.386,18.6h-2.221l-3.665-13.686h-0.055
		l-3.998,13.686h-2.193l-5.025-18.6h-1.36V35.553z"/>
	<path fill="#FFFFFF" d="M133.15,54.764v-0.611h1.388l6.607-18.822h3.137l6.107,18.822h1.194v0.611h-8.606v-0.611h2.304
		l-2.138-7.051h-5.358l-2.471,7.051h2.388v0.611H133.15z M138.008,46.491h4.942l-2.332-7.579h-0.055L138.008,46.491z"/>
	<path fill="#FFFFFF" d="M167.159,41.466h-0.944c-1.471-4.164-1.86-5.746-4.553-5.746c-2.693,0-4.275,1.055-4.275,2.887
		c0,4.442,11.049,2.721,11.049,9.605c0,4.275-2.776,6.996-7.606,6.996c-2.11,0-3.97-0.639-5.996-1.832v-5.83h0.944
		c1.832,5.83,2.165,7.051,5.691,7.051c1.971,0,4.192-1.221,4.192-3.387c0-4.608-11.049-2.887-11.049-9.994
		c0-3.498,2.637-6.107,6.996-6.107c1.915,0,3.859,0.388,5.552,1.083V41.466z"/>
	<path fill="#FFFFFF" d="M185.371,41.466h-0.944c-1.471-4.164-1.86-5.746-4.553-5.746s-4.275,1.055-4.275,2.887
		c0,4.442,11.049,2.721,11.049,9.605c0,4.275-2.776,6.996-7.606,6.996c-2.11,0-3.97-0.639-5.996-1.832v-5.83h0.944
		c1.832,5.83,2.165,7.051,5.691,7.051c1.971,0,4.192-1.221,4.192-3.387c0-4.608-11.049-2.887-11.049-9.994
		c0-3.498,2.637-6.107,6.996-6.107c1.915,0,3.859,0.388,5.552,1.083V41.466z"/>
	<path fill="#FFFFFF" d="M192.145,36.164h-1.305v-0.611h14.908v6.107h-0.944c-1.332-4.525-1.693-5.497-3.304-5.497h-4.303v8.273
		h1.554c1.388,0,1.749-0.333,2.582-3.831h0.611v8.273h-0.611c-0.833-3.498-1.194-3.831-2.582-3.831h-1.554v9.105h4.275
		c1.666,0,2.249-2.11,3.331-6.552h0.944v7.162h-15.047v-0.611h1.444V36.164z"/>
	<path fill="#FFFFFF" d="M210.303,54.764v-0.611h1.444V36.164h-1.444v-0.611h9.356c4.581,0,6.996,1.388,6.996,4.636
		c0,2.887-2.193,4.386-4.914,4.414l5.136,9.55h1.138v0.611h-6.329l-4.83-9.772h-0.055v9.161h1.804v0.611H210.303z M216.799,44.548
		h0.444c3.581,0,4.359-1.083,4.359-4.192c0-3.109-0.944-4.192-3.165-4.192h-1.638V44.548z"/>
	<path fill="#FFFFFF" d="M244.144,41.466H243.2c-1.471-4.164-1.86-5.746-4.553-5.746c-2.693,0-4.275,1.055-4.275,2.887
		c0,4.442,11.049,2.721,11.049,9.605c0,4.275-2.776,6.996-7.606,6.996c-2.11,0-3.97-0.639-5.996-1.832v-5.83h0.944
		c1.832,5.83,2.165,7.051,5.691,7.051c1.971,0,4.192-1.221,4.192-3.387c0-4.608-11.049-2.887-11.049-9.994
		c0-3.498,2.637-6.107,6.996-6.107c1.915,0,3.859,0.388,5.552,1.083V41.466z"/>
	<path fill="#FFFFFF" d="M252.585,54.764v-0.611h1.444V36.164h-0.889c-2.248,0-2.693,3.664-3.22,5.58h-0.944v-6.191h15.158v6.191
		h-0.944c-0.527-1.916-0.971-5.58-3.248-5.58h-0.861v17.989h1.444v0.611H252.585z"/>
	<path fill="#FFFFFF" d="M269.132,36.164h-1.305v-0.611h14.908v6.107h-0.944c-1.332-4.525-1.693-5.497-3.304-5.497h-4.303v8.273
		h1.554c1.388,0,1.749-0.333,2.582-3.831h0.611v8.273h-0.611c-0.833-3.498-1.194-3.831-2.582-3.831h-1.554v9.105h4.275
		c1.666,0,2.249-2.11,3.331-6.552h0.944v7.162h-15.047v-0.611h1.444V36.164z"/>
	<path fill="#FFFFFF" d="M295.672,54.764h-7.94v-0.611h1.444V36.164h-1.444v-0.611h7.94v0.611h-1.444v17.989h1.444V54.764z"/>
	<path fill="#FFFFFF" d="M304.64,54.764h-4.775v-0.611h1.444V36.164h-1.444v-0.611h7.19l7.024,13.159h0.055V36.164h-2.082v-0.611
		h4.497v0.611h-1.638v18.6h-3.164l-9.605-18.322h-0.055v17.711h2.554V54.764z"/>
	<path fill="#FFFFFF" d="M342.078,44.27v0.611h-1.86c-0.139,1.832-0.444,3.637-1.36,5.247l2.998,4.025h1.193v0.611h-6.107
		l-0.972-1.305c-1.527,1.138-3.47,1.749-5.413,1.749c-4.414,0-6.746-2.277-6.746-5.302c0-3.22,2.97-4.997,5.108-5.913
		c-0.722-1.055-1.61-2.721-1.61-4.109c0-3.109,2.776-4.775,5.607-4.775c2.082,0,4.83,1.055,4.83,3.525
		c0,2.304-2.332,3.47-4.22,4.248l4.886,6.635c0.722-1.444,0.972-3.026,1.027-4.636h-2.443V44.27H342.078z M329.308,44.52
		c-1.388,0.722-1.61,1.61-1.61,2.97c0,2.887,2.082,6.552,4.83,6.552c1.111,0,2.193-0.472,3.026-1.138L329.308,44.52z
		 M330.696,37.663c0,1.555,1.471,3.22,2.443,4.692c1.027-0.5,1.499-1.277,1.499-3.248c0-1.36-0.306-3.387-2.027-3.387
		C331.418,35.72,330.696,36.497,330.696,37.663z"/>
	<path fill="#FFFFFF" d="M364.302,41.688h-0.944c-1.749-4.22-1.999-5.969-4.469-5.969c-2.804,0-3.637,1.888-3.637,9.439
		c0,7.551,0.833,9.439,3.637,9.439c3.22,0,3.359-2.138,4.858-6.718h0.944v5.996c-1.943,0.861-3.942,1.333-5.968,1.333
		c-5.886,0-9.189-4.553-9.189-10.05s3.304-10.049,9.189-10.049c1.832,0,3.664,0.416,5.58,0.944V41.688z"/>
	<path fill="#FFFFFF" d="M386.872,45.158c0,5.33-3.082,10.05-8.856,10.05c-5.774,0-8.856-4.719-8.856-10.05
		s3.082-10.049,8.856-10.049C383.791,35.109,386.872,39.828,386.872,45.158z M378.017,35.72c-2.527,0-3.137,2.193-3.137,9.439
		s0.61,9.439,3.137,9.439c2.526,0,3.137-2.193,3.137-9.439S380.543,35.72,378.017,35.72z"/>
	<path fill="#FFFFFF" d="M393.009,52.987c0,1.249-0.972,2.221-2.221,2.221c-1.221,0-2.221-0.972-2.221-2.221s1-2.221,2.221-2.221
		C392.037,50.766,393.009,51.738,393.009,52.987z"/>
</g>
</svg>
