<?xml version="1.0" encoding="utf-8"?>
<!-- Generator: Adobe Illustrator 18.0.0, SVG Export Plug-In . SVG Version: 6.00 Build 0)  -->
<!DOCTYPE svg PUBLIC "-//W3C//DTD SVG 1.1//EN" "http://www.w3.org/Graphics/SVG/1.1/DTD/svg11.dtd">
<svg version="1.1" id="Layer_1" xmlns="http://www.w3.org/2000/svg" xmlns:xlink="http://www.w3.org/1999/xlink" x="0px" y="0px"
	 width="393.026px" height="80.789px" viewBox="0 0 393.026 80.789" enable-background="new 0 0 393.026 80.789"
	 xml:space="preserve">
<path fill="#838386" d="M94.535,27.111c-0.232-0.311-0.387-0.387-0.465-0.465c-0.771-0.771-1.622-0.541-2.393-0.771
	c-0.078,0-0.232-0.078-0.232-0.078h-0.232c0-0.616,0.232-0.616,0.232-0.849c-0.232-0.465-0.849-0.541-1.081-0.541h-1.081v-0.078
	v-0.387c0,0,0-0.23,0.308-0.23c0-0.078,0.078-0.078,0.465-0.232v-0.927h-0.465c-0.308-0.308-0.462-0.308-0.462-0.387
	c0-0.387-0.387-0.387-0.387-0.387v-0.076l0.387-0.154c0.154-0.311,0.927,0,1.314-0.311v-0.154v-0.154
	c-0.078-0.232-0.387-0.232-0.387-0.616c-0.387-0.232-0.387-0.619,0-0.697v-0.308c0-0.23,0.387-0.308,0.308-0.695h-0.308
	c-0.465-0.387-0.773-0.387-0.927,0h-0.387h-0.541v-0.387v-1.003c0-0.311,0-0.387-0.462-0.387c0,0-0.387-0.154-0.695-0.154
	c-0.697,0.154-1.7,0-2.473,0.154c-0.23,0-0.616,0.076-0.616,0.076c-0.387,0-0.387-0.076-0.387-0.076h-0.154v-0.154
	c-0.157-0.154-0.387-0.232-0.773-0.232c-0.462-0.078-1.081-0.078-1.468-0.541c-0.541-0.695-1.544,0-2.625-0.308v-0.232
	c-0.078,0-0.078-0.154-0.078-0.154v-0.078c0.078-0.308,0.078-0.308,0.078-0.387c0.308,0,0.308,0,0.308-0.154v-0.154h-0.308
	c0-0.232-0.311-0.387-0.697-0.387h-0.23c-0.387,0.078-0.849,0.154-1.235,0.232c-0.465,0-0.851-0.078-1.16-0.232h-0.232
	c0-0.076-0.076-0.076-0.076-0.308c0.076-0.078,0.308-0.308,0.308-0.308l0.387-0.232v-0.232v-0.387
	c-0.232-0.23-0.387-0.23-0.695-0.23h-0.154v0.23h-0.078c-0.078,0.157-0.387,0.387-0.387,0.387h-0.387
	c-1.157-0.616-1.776,0-2.703,0.232l-0.23-0.232h-0.078c-0.462,0-0.695,0.232-1.003,0h-0.157v-0.23c0-0.157-0.308-0.157,0-0.157
	v-0.695c0-0.154-0.384-0.541-0.616-0.541v-0.076l-0.078,0.076c-0.462,0.387-1.081,0.387-1.39,0.387h-0.076l-0.387-0.387
	c-0.232-0.154-0.232-0.154-0.232-0.308v-0.927c0.232-0.154,0.619-0.387,0.619-0.387c0.384-0.154,0.925-0.154,1.157-0.462h0.308
	V8.961c-0.308-0.078-0.308-0.078-0.308-0.157c-0.154-0.23-0.154-0.23-0.232-0.23C67.581,8.11,66.73,8.42,65.802,8.729
	c-0.616,0.154-1.235,0.232-1.93,0.076c0,0,0-0.154-0.154-0.23H63.64c-0.308-0.232-0.462-0.465-0.849-0.232v0.232l-0.387,0.616
	c0,0.078,0,0.078-0.076,0.078c-0.311,0.462-0.695,0.462-1.238,0.849h-0.076c-0.387-0.154-1.081,0-1.622-0.232
	c-0.078-0.076-0.154-0.076-0.232-0.154c-0.308,0-0.308-0.23-0.462-0.462c-0.078-0.078-0.465-0.078-0.541-0.308
	c-0.308-0.078-0.308-0.078-0.308-0.157v-0.23c0.308-0.232,0.771-0.232,0.771-0.465l0.078-0.154v-0.23H58.62
	c-0.387-0.311-1.003-0.311-1.39-0.311l-0.232-0.308c-0.541,0-0.541-0.078-0.541-0.078V5.947c-0.076-0.308-0.387-0.308-0.387-0.462
	h-0.23h-0.465c0,0.076-0.154,0.154-0.308,0.308v0.154c-0.387,0-0.232,0.311,0,0.541c0.078,0.078,0.232,0.154,0.308,0.154v0.311
	c-0.154,0-0.23,0.076-0.308,0.076h-0.462h-0.619h-0.232c0,0-0.076,0-0.076,0.078c-0.154,0-0.387,0.076-0.387,0.308h-0.154
	c-0.232-0.232-0.387-0.232-0.619-0.308h-0.387h-0.23V7.028H51.67c0.232-0.387,0.232-0.541,0.462-0.541
	c0.154-0.154,0.311-0.23,0.387-0.308c0.387-0.232,0.773-0.308,0.773-0.541V5.331l-0.078-0.232c-0.232-0.076-0.462-0.076-0.695-0.076
	c-0.849,0.076-1.468,0.925-2.779,0.616c-0.157,0.232-0.311,0.308-0.387,0.232c-0.154,0-0.232-0.078-0.387-0.232
	c0-0.154-0.465-0.308-0.849-0.308h-0.078c0,0,0,0.154-0.462,0.154V5.331c-0.078,0.076-0.232,0.154-0.311,0.23
	c-0.23,0.078-0.616,0.078-1.003,0.078l-0.078,0.308c-0.308,0-0.308,0-0.308,0.541h-0.078v0.154v0.311h-0.076h-0.308v0.076H45.26
	v0.387c0,0,0,0.311-0.078,0.311h-0.308c0,0.076-0.078,0-0.154,0c-0.232,0-0.311,0-0.773-0.311c-0.078,0-0.078,0-0.078-0.308
	c0-0.078,0.078-0.078,0.541-0.465V6.488c-0.387-0.462-0.695-0.541-0.927-0.849c0,0-0.076-0.078-0.076-0.154V5.331V5.098h0.076h0.927
	c0,0,0.078-0.154,0.311-0.308V4.636c0.076-0.078,0.154-0.078,0.154-0.157c0.308-0.23,0.541-0.308,0.849-0.384h0.154h0.308V3.709
	V3.63V3.322c0,0-0.308,0-0.308-0.078c-0.078-0.076-0.078-0.076-0.154-0.076c-0.308-0.154-0.541-0.154-0.849-0.154
	c-0.311,0-0.619,0-0.927-0.311c0,0,0-0.076-0.078-0.076h-0.387h-0.076c-0.311,0.308-0.695,0.308-1.16,0.308
	c-0.541,0-1.157-0.076-1.854,0.308c0,0-0.076,0.078-0.154,0.232c-0.076,0.078-0.076,0.078-0.076,0.154v0.465l-0.387,0.154
	c-0.387-0.154-0.541-0.927-1.003-1.39c0-0.232-0.543-0.232-0.543-0.465h-0.849v0.232L36.918,2.86H36.84
	c-0.308,0.462-0.695,0.538-1.081,0.462c-0.232,0-0.462-0.078-0.695-0.078c-0.387,0-0.387-0.384-0.387-0.384V2.703V2.395
	c0.387,0,0.387-0.387,0-0.541h-0.541c-0.387,0-0.462,0.154-0.771,0.541l-0.697,0.308c0,0,0,0.157-0.154,0.157
	c-0.154-0.157-0.154-0.157-0.232-0.157c0-0.076-0.23-0.076-0.23-0.076L31.82,2.395V1.854V1.468h-0.308h-1.546H29.89V1.314
	c-0.311-0.232-0.311-0.232-0.619-0.462V0.387l-0.076-0.308L29.041,0h-0.078l-0.541,0.078c-0.619,0-0.927,0.773-1.546,1.003h-0.384
	c-0.387,0.154-0.927,0-1.392-0.076h-0.616c-0.078,0-0.078,0.076-0.154,0.076c-0.387,0-0.387,0-0.697,0.232l-0.076,0.154v0.927
	c0,0.078-0.078,0.154-0.078,0.154c-0.076,0.154-0.23,0.232-0.23,0.311h-0.311c-0.308,0-0.771,0-0.771,0.462
	c-0.232,0-0.232,0.387-0.387,0.773h-0.387h-0.078c-0.771-0.387-1.39-0.387-1.776-0.851c-0.541-0.384-0.849,0.078-1.081,0.078
	L18.304,3.63h-0.232c0,0.619,0.387,1.005,0.465,1.314l0.154,0.154c0.619,0,1.235,0.232,1.854,0.387
	c0.387,0.154,0.462,0.154,0.771,0.462v0.541c0,0-0.308,0-0.308,0.154c-0.462,0-0.695,0-1.081,0.311
	c-1.003,0.076-1.468-1.314-2.625-1.006c-0.154-0.23-0.465-0.387-0.773-0.462h-0.232c-0.154-0.154-0.616-0.154-0.849,0v0.462v0.541
	c0.232,0.154,0.465,0.154,0.695,0.465v0.076v0.078h-0.23h-1.006c-0.462,0.308-0.619,0.308-1.235,0.619V8.11l0.308,0.465v0.23v0.078
	c-0.308,0-0.308,0.078-0.308,0.078h-0.619c-0.387-0.078-0.849-0.157-1.468-0.078v0.078v0.23c-0.154,0.078-0.154,0.078-0.154,0.311
	c0,0,0,0.076,0.154,0.076v0.154c0,0,0.311,0,0.927,0.232c0.154,0.154,0.541,0.232,0.541,0.232c0.232,0.308,0.232,0.308,0.232,0.384
	c0,0.465-0.232,0.465-0.232,0.619c0.232,0,0.232,0,0.232,0.154c0.232,0,0.232,0,0.232,0.387h0.154
	c0.308,0.154,0.308,0.154,0.308,0.308c0.308,0,0.308,0,0.308,0.311c0,0-0.308,0-0.308,0.23h-0.927
	c-0.23,0.078-0.462,0.157-0.541,0.387h-0.616c0,0.232-0.232,0.232-0.232,0.232c-0.078,0.541-0.849,0.232-1.39,0.232
	c0,0-0.232,0-0.232-0.232c-0.387-0.232-0.695-0.232-1.081-0.462L8.88,12.667c-0.154-0.078-0.462-0.078-0.462,0.078v0.23
	c-0.308,0-0.308,0.232-0.308,0.232H7.645c-0.076,0.232-0.695,0-1.081,0.232c-0.23,0.23-0.23,0.541-0.23,0.771
	c-0.311,0-0.311,0.232-0.311,0.232c-0.308,0.387-1.622,0.308-2.084,0.695c0,0,0,0.078-0.154,0.078v0.154
	c0.154,0.232,0.541,0.541,0.541,0.541h1.698c0.541,0.308,0.927,0,1.546,0.308h0.076c-0.076,0-0.076,0.387-0.076,0.465l-1.006,0.154
	v0.387v0.23v0.465h2.241v0.308v0.387H8.418c-0.308,0-0.773,0-0.849,0.387c-0.232,0-0.619,0.078-0.619,0.078
	c-0.387,0-1.157,0-1.235,0.23v0.154v0.232l-0.541,0.387H5.098c0,0-0.311,0-0.311,0.232c-0.23,0-0.462-0.232-0.462-0.232
	c-0.387,0-0.695-0.387-0.773-0.465c-0.308-0.308-0.619-0.308-1.235,0c-0.078,0.078-0.078,0.465-0.232,0.697
	c-0.23,0.384-0.616,0-1.157,0c-0.232,0-0.851,0-0.927,0.616v0.154c0,0,0.076,0,0.076,0.154c0.465,0,0.851,0,1.392,0.311h0.23
	c0,0,0.387,0.154,0.619,0.154c0.078,0,0.078,0,0.462,0.076c0,0.387-0.384,0.387-0.384,0.387c-0.157,0.387-0.465,0.387-0.697,0.619
	v0.387v0.308h0.157c0.23,0,0.462,0,0.925-0.308c0.154-0.078,0.154-0.619,0.541-0.619h1.006l0.076,0.619v0.308h0.387
	c0,0.154,0.311,0.154,0.927,0c0,0,0.078,0,0.308,0.154v0.308h0.311v0.387c1.003-0.387,1.311-1.157,2.084-1.544h0.387v0.387
	c0,0.154,0.076,0.23,0.076,0.308h0.078h0.695v0.154v0.308c0,0.387-0.308,0.387-0.308,0.387H8.88c0,0.078-0.076,0.078-0.076,0.078
	v0.076v0.465H8.88h0.311c0.695-0.465,1.622,0,2.238-0.465h0.154l0.078-0.076h0.462c0.387,0,0.387-0.078,0.387-0.078
	c0.154-0.616,0.154-0.849,0.541-1.157c0.232,0,0.465,0.308,0.541,0.308c0.078,0,0.078,0.154,0.078,0.154
	c0.308,0.308,0.308,0.773,0.308,0.773l-0.308,0.076c-0.078,0.078-0.078,0.078-0.154,0.078v0.387h0.076h0.851
	c1.003,0,1.468,0,1.698-0.541h0.154h0.232h0.232h0.387h0.154c0,0,0,0.076,0.23,0.076v0.078l-0.23,0.387h-0.154
	c0,0-0.078,0-0.078,0.232c0,0.616-0.154,0.695,0,0.925c0,0.078,0,0.078,0.078,0.232h0.384c0.541-0.232,0.927-0.462,1.468-0.462
	c1.314,0.23,2.782-0.078,3.939,0.308c0.311,0,0.311,0.154,0.311,0.154c0,0.078-0.311,0.078-0.311,0.308v0.078
	c-0.771,0.387-1.544,0.076-2.006,0.465c0,0-0.387,0-0.387,0.152v0.078c0.849,0.308,2.084,0,2.392,0.619h0.311v0.308v0.232v0.076
	h0.23h0.078c0,0.154,0,0.154,0.076,0.154l0.311,0.157v0.462v0.154c-0.232,0.154-0.387,0.308-0.465,0.462
	c-0.076,0.157-0.154,0.232-0.23,0.311h-0.619c-0.462,0.387-0.849,0.308-1.622,0.308c-0.695,0.619-1.698,0.308-2.549,0.308h-0.387
	c0,0.311-0.154,0.311-0.23,0.311c-0.311,0.154,0,0.384,0,0.541l0.076,0.154c0.541,0.23,1.081,0.23,1.392,0.308
	c0.23,0.541,0.616,0.541,0.616,0.927h-0.154h-0.232v0.308c-1.081-0.387-2.084,0-3.011,0.154c-0.616,0.078-1.16,0.157-1.7-0.154
	c-0.384-0.308-0.541-0.308-0.541,0l-0.308,0.154v0.387c0,0.232,0.308,0.232,0.308,0.232c0.078,0,0.157,0.154,0.541,0.462
	l0.619,0.311c0,0.23,0.232,0.23,0.465,0.541h0.616l0.232-0.311c0.308-0.23,0.541-0.541,0.771-0.616c0-0.232,0.311-0.232,0.387-0.232
	c0.387,0.232,0.541,0.308,0.773,0.619h1.081c0.154-0.311,0.541-0.387,0.773-0.619v-0.154h0.849c0.387,0,0.387,0,0.541,0.154v0.308
	c0.232,0.311,0.232,0.311,0.232,0.541h0.462c0.308,0.311,0.619,0,0.619,0c0.076,0.078,0.154,0.154,0.23,0.154
	c0.232,0.157,0.465,0.232,0.465,0.311v0.154c-0.154,0-0.311,0-0.465,0.076c-0.154,0-0.23,0-0.23,0.157v0.541v0.23h0.23h0.078h0.773
	h0.154c0.232,0.078,0.387,0.157,0.616,0.232c0.311,0.154,0.465,0.387,0.465,0.773c0,0.154,0.232,0.154,0.232,0.154
	c0.154,0,0.23-0.387,0.384-0.387c0.232-0.232,0.311-0.232,0.619,0c0,0.154,0.076,0.232,0.076,0.232c0,0.076,0.078,0.154,0.078,0.154
	v0.232c0.232,0.154,0.232,0.462,0,0.462c0,0,0,0.078-0.078,0.078c-0.23,0.308-0.695,0.308-0.849,0.308l-0.23,0.078H25.1
	c0,0-0.384-0.078-0.384-0.465h-0.232h-0.154v-0.308V38.31h-0.851h-0.23v0.154c-0.311,0-0.311,0.23-0.311,0.308
	c0,0,0.311,0.387,0.311,0.465c-0.311,0-0.311,0.308-0.311,0.308v0.23h-0.308c-0.695,0-1.235,0-1.622,0.311
	c-0.076-0.311-0.462-0.311-0.462-0.311v-0.23v-0.308c0,0-0.232,0-0.232-0.078v-0.387H20.08c0-0.078,0-0.078-0.154-0.078h-0.387
	c0,0,0,0.078-0.23,0.078h-0.157c0,0-0.154,0-0.462,0.387c-0.232,0-0.773,0.078-1.39,0.387v-0.308h-0.154v-0.078
	c0-0.387,0.154-0.387,0.154-0.465V38.31h-0.232v-0.232c-0.154,0-0.387-0.078-0.541-0.078c-0.541,0-1.081,0.154-1.622,0.311v0.154
	v0.23v0.078h-0.078h-1.544c-0.076-0.078-0.154-0.078-0.232-0.154c-0.076-0.078-0.154-0.232-0.387-0.308
	c-0.154-0.232-0.771-0.232-1.081,0v0.154v0.23v0.078l0.078,0.387v0.078v0.308l-0.078,0.23c-0.771,0-1.698,0.697-2.703,0.773H8.804
	c-0.387-0.232-0.695-0.387-1.16-0.232l-0.076,0.232c0,0.078-0.232,0.154-0.232,0.154c0,0.232-0.387,0.465,0,0.695h0.232
	c0.541,0,0.927,0.078,1.311,0.311c0.311,0.154,0.541,0.308,0.773,0.616h0.154c0.465-0.308,0.465-0.695,1.006-0.849H11.2
	c0.384,0.154,0.695,0.541,1.465,0.465h0.311c0.076-0.465-0.311-0.773,0.076-1.238h0.541h0.078l0.308,0.232v1.006h0.308l0.157,0.076
	v0.308h0.384c0,0.465-0.384,0.465-0.384,0.541v0.078c0,0.387,0,0.462,0.384,0.462c0.541,0,1.084-0.23,1.7-0.462
	c0.773-0.387,1.468-0.927,2.163-1.314l0.232-0.154c0.387-0.078,0.849,0.154,1.157,0.154h0.465v0.311v0.076
	c-0.232,0-0.232,0.308-0.232,0.308H20.08v0.465c0.232,0.076,0.465,0.154,0.465,0.616v0.311H20.08l-0.154,0.308
	c-0.616-0.308-1.468-0.308-2.084,0.154l-0.311,0.154v0.308h0.311c0.462,0.078,0.695,0.078,1.157,0.311h0.311
	c0.23,0.232,0.462,0.462,0.616,0.695c0.619,0.541,1.854,0.154,2.703-0.232c0.308,0,0.541,0,0.849-0.387c0,0,0-0.076,0.078-0.076
	h-0.078c-0.23,0,0-0.232-0.23-0.232v-0.078v-0.384c0-0.232,0-0.465,0.23-0.541h0.078c0.076-0.311,0.387-0.311,0.773-0.311
	c0,0.154,0.076,0.232,0.154,0.232c0.076,0.078,0.232,0.078,0.232,0.078c0.154,0.076,0.23,0.154,0.384,0.154
	c0.311,0,0.773-0.154,0.927-0.154l0.154-0.311c0-0.076,0.232-0.076,0.232-0.462v-0.078c0-0.076-0.232-0.076-0.232-0.076
	c-0.154,0-0.384,0-0.616-0.465v-0.308v-0.076c0-0.311,0.232-0.311,0.232-0.311h0.154c0.23,0,0.616,0,0.925,0.154
	c0.157,0.078,0.232,0.157,0.311,0.232c0.308,0.773,0.462,0.927,0.616,1.7c0.232,0.308,0.465,0.462,0.697,0.616
	c0.154,0.232,0.308,0.232,0.462,0.308h0.308c0.232,0.078,0.465,0.078,0.695,0.154c0.465,0.157,1.006,0.232,1.546,0.311
	c1.39,0.232,2.857,0.387,4.247,0.387c1.546,0.076,3.014,0.076,4.479,0.23c0.154,0,0.387,0,0.619,0.078
	c0.154,0.387,0.308,0.387,0.695,0.387v0.308c0.154,0.308,0,1.081,0,1.314c-0.154,3.244,0.078,6.488,0.695,9.653
	c0.387,1.546,0.773,3.014,1.235,4.479c0.465,1.238,0.927,2.395,1.392,3.555c0.308,0.541,0.541,1.081,0.849,1.544
	c0.462,0.927,1.003,1.854,1.544,2.703c0.541,0.773,1.081,1.546,1.7,2.241v0.076h-0.308c-0.157,0.308-0.157,0.308-0.541,0.308
	c-0.232,0-0.541,0-0.851,0.078c-0.541,0-1.081,0.154-1.544,0.308c-0.154,0.078-0.308,0.078-0.462,0.154
	c-0.157,0.078-0.232,0.078-0.387,0.157c-0.541,0.23-0.927,0.462-1.392,0.771c-0.387,0.232-0.771,0.387-1.235,0.619
	c-0.076,0-0.154,0.078-0.23,0.078c-0.619,0.308-1.238,0.538-1.779,0.771c-0.308,0.154-0.616,0.232-0.849,0.387
	c-0.616,0.387-0.616,0.462-1.16,0.849c-0.849,0.541-1.39,1.238-2.084,1.622c0,0.157-0.154,0.232-0.387,0.387
	c-0.076,0-0.154,0.078-0.232,0.154c-0.076,0.465-0.462,1.235-0.462,1.854c0,0.093,0.009,0.177,0.033,0.232h40.13
	c-0.078-0.078-0.308-0.232-0.541-0.387c-0.232-0.154-0.541-0.311-0.695-0.465c-1.16-0.462-2.087-1.235-3.09-2.006
	c-0.616-0.465-1.16-0.927-1.776-1.392c-1.003-0.771-2.087-1.544-3.322-2.006c-0.616-0.157-1.235-0.311-1.93-0.387
	c0-0.078-0.076-0.154-0.154-0.154c-1.081-0.927-2.703-1.468-4.247-1.238l-0.078-0.076c-0.078-0.154-0.308-0.387-0.695-0.619
	c-0.849-0.927-1.854-2.008-2.857-3.011c-0.232-0.308-0.465-0.541-0.773-0.773c-0.462-0.462-0.927-0.927-1.39-1.39H53.6
	c-0.387-0.465-0.771-0.927-1.081-1.39c-1.235-1.779-2.008-3.555-2.779-5.098l-0.232-0.462v-1.006c0.154-3.32,0.927-6.72-0.154-9.423
	c-0.311-0.695-0.695-1.311-1.235-1.93c-0.311-0.387-0.541-0.695-0.851-1.081c-0.23-0.232-0.387-0.541-0.771-0.849
	c0.23-0.619,0.462-1.314,0.771-1.93c0.232-0.465,0.465-1.006,0.773-1.392c0.541-0.695,0.927-1.852,1.314-2.857
	c0.23-0.616,0.541-1.235,0.927-1.544c0.695-0.773,1.465-1.16,2.238-1.314c0.387-0.076,0.773-0.154,1.16-0.154h0.308v0.232h0.154
	c0,0.23,0.232,0.23,0.232,0.23v0.157c-0.232,0-0.232,0-0.232,0.23c-0.154,0.232-0.308,0.308-0.462,0.308
	c-0.311,0.078-0.773-0.076-1.16-0.076c-0.232,0.076-0.541,0.154-0.849,0.387c-0.078,0-0.078,0.154-0.078,0.154
	c-0.076,0-0.076,0-0.076,0.232v0.462c0,0-0.154,0-0.154,0.387v0.078h-0.387c-0.232,0-0.465,0-0.619,0.308
	c0,0.23-0.076,0.541,0,0.771c0.387,0.232,0.541,0.311,0.619,0.311c0,0.076,0.387,0.076,0.387,0.076v0.387
	c0.154,0.078,0.308,0.387,0.541,0.078c0.23,0,0.23-0.078,0.23-0.078c0-0.154,0-0.387,0.387-0.387
	c0.078-0.076,0.311-0.154,0.619-0.076h0.076c0,0.076,0.232,0.154,0.465,0.387c0.154,0.154,0.308,0.308,0.308,0.462
	c0,0.308-0.154,0.387-0.308,0.541c-0.154,0.078-0.232,0.154-0.387,0.308c0.308,0,0.308,0,0.308,0.465h0.078h0.076h0.232
	c0.308-0.232,0.695-0.465,1.081-0.619c0.308-0.076,0.541-0.154,0.773-0.154h0.23c0.311,0,0.311,0,0.387,0.308
	c0.541,0,0.773,0.541,1.16,0.619h0.232c0.308,0,0.384-0.078,0.538-0.078c0.232-0.076,0.232-0.076,0.232-0.541
	c0.232-0.308,0.541-0.695,0.773-0.695h0.078l0.23,0.311c0,0.076,0.311,0.384,0.311,0.384c0.076,0,0.384,0.465,0.541,0.541v0.541
	c0,0,0,0.311,0.076,0.311h0.308l0.078-0.311c0.076-0.076,0.076-1.081,0.619-1.081c0-0.308,0.154-0.384,0.384-0.695
	c0.311-0.154,0.773-0.232,1.16-0.154c0.078,0,0.308,0,0.541-0.078c0.541-0.076,1.235-0.384,1.544-0.695v-0.541
	c0.232-0.076,0.387-0.308,0.541-0.541l0.078-0.076c0.462,0,0.695,0,1.003,0.23c0.078,0,0.078,0,0.078,0.311
	c0.695,0,1.235-0.311,1.544-0.541l0.541-0.773h0.078c0.232,0,0.773,0,1.081-0.308c0-0.154,0.232-0.154,0.232-0.154v-0.387
	c0-0.541,0-0.773,0.462-0.849h0.078h0.23c0.619,0.23,1.314,0,1.546,0.23c0.232,0,0.232,0.387,0.232,0.619l-0.232,0.154
	c-0.232,0-0.232,0.232-0.619,0.232h-0.308c-0.232,0.154-0.232,0.154-0.232,0.384v0.078l1.16,0.465
	c0.773,0.23,1.468-0.157,1.93-0.543c0.232-0.154,0.387-0.308,0.541-0.384v-0.232c-0.232-0.387-0.232-0.773-0.232-1.003l0.232-0.157
	h1.16c0.387,0,0.695,0.078,1.157,0.157h0.078c0.23,0,0.616-0.157,0.927-0.387v-0.232v-0.695H78.47c-0.232,0-0.541,0-0.619-0.154
	l-0.23-0.311v-0.23h-0.078h-0.308c-0.387,0-0.387,0.23-0.541,0.23c0,0.311-0.078,0.311-0.078,0.311h-0.23
	c-0.154,0-0.311-0.078-0.311-0.311v-0.541c-0.308,0-0.308-0.076-0.462-0.076H75.38c-0.154,0.076-0.462,0.387-0.616,0.387h-0.078
	h-0.387v-0.311v-0.462H73.99c-0.078,0-0.078-0.232-0.078-0.232c-1.157-0.387-1.776,0.232-2.703,0.232c0-0.232-0.23-0.232-0.23-0.232
	V33.52h-0.078h-0.308c-0.387,0-0.851,0-1.468,0.154v0.157c0,0.154,0,0.23-0.078,0.23v0.232h-0.541l-0.154-0.232
	c0-0.541,0.154-0.849,0.232-0.849c0,0,0.154-0.308,0-0.308l0.154-0.078h0.308c0-0.462,0.078-0.541,0.078-0.541v-0.078h0.308
	c0.541-0.384,1.006-0.308,1.468-0.23c0.387,0.154,0.773,0.308,1.235,0.23c0.387,0,0.619-0.23,0.851-0.384
	c0.384,0,0.462-0.157,0.462-0.387v-0.154v-0.311h0.462c0.387,0,0.387,0.311,0.387,0.465c0,0,0,0.308,0.387,0.541h0.078v0.23
	c0.384,0.387,1.003,0.311,1.622,0.311c0.387,0,0.771,0.076,1.157,0.308h0.078c0.076,0,0.23-0.078,0.23-0.541
	c0.078-0.078,0.078-0.078,0.387-0.078h0.232h0.078v0.078v0.541c0,0.078-0.078,0.387,0,0.387v0.308h0.308
	c0.462,0.154,0.773-0.308,1.003-0.308c0-0.308,0.078-0.387,0.465-0.387c0-0.541,0.308,0,0.308,0
	c0.308,0.078,0.308,0.387,0.308,0.695c0.232,0.541,0.927,0.773,1.546,0.927h0.154c0.232-0.154,0.462-0.462,0.695-0.773
	c0.619,0,1.235-0.154,1.468-0.462h0.308h0.232c0.154,0,0.387,0,0.462,0.308c0.232,0,0.232,0,0.541-0.308
	c0-0.308-0.308-0.927,0-1.006v-0.384v-0.157h0.465c0.616,0,1.93-0.23,2.317,1.16h0.076h0.387h0.078h0.387
	c0-0.849-0.387-1.39-0.387-1.854h0.387c0.387,0,0.387-0.23,0.849-0.23c0.308-0.078,0.308-0.387,0.695-0.387
	c0.232-0.311,0-0.465,0.078-0.927h0.154c0.462-0.462,0.849,0.154,1.235,0.154C93.3,29.89,93.3,29.89,93.84,29.89
	c0-0.308,0.23-0.308,0.308-0.462c0.154,0,0-0.619-0.078-0.619c0,0-0.23,0-0.23-0.154v-0.076L93.3,28.346c0,0,0-0.308,0.541-0.308
	v-0.311c0.23,0,0.308-0.076,0.695,0c0.154,0,0.541-0.076,0.541-0.387v-0.152L94.535,27.111z M9.345,14.752L9.191,14.83H8.88H8.804
	c-0.387-0.078-0.387-0.387-0.387-0.387v-0.387c0,0,0.387,0,0.387-0.076l0.076,0.076h0.078c0.078,0.154,0.232,0.387,0.387,0.387
	V14.752z M13.979,14.752l-0.308,0.387c-0.078,0.308-0.308,0.154-0.619-0.076c-0.154-0.078-0.387-0.232-0.541-0.232
	c0,0,0-0.078-0.387-0.078v-0.154c0.387,0,0.387-0.154,0.387-0.154c0.154-0.232,0.154,0,0.465-0.232h0.076h0.232
	c0.232,0.232,0.387,0.232,0.695,0.387V14.752z M17.301,13.44l-0.232,0.23c-0.232-0.076-0.387-0.154-0.541-0.23
	c-0.387-0.157-0.541-0.465-0.773-0.851v-0.23h0.157l0.23-0.311h0.154v-0.154c0.078,0,0.154,0.078,0.232,0.078
	c0.387,0.076,0.541,0.076,0.541,0.387c0.232,0.23,0.232,0.616,0.232,0.849V13.44z M23.789,42.325h-0.232h-0.078h-0.541v-0.384
	c0-0.311,0-0.387,0.311-0.465h0.23c0.078,0,0.154,0.078,0.311,0.078c0,0.076,0.154,0.076,0.154,0.387L23.789,42.325z M53.987,28.654
	h0.154h0.927h0.308c0.232-0.308,0.387-0.308,0.465-0.308h0.154h0.076c0.311,0,0.387,0.308,0.387,0.308v0.154v0.157
	c0,0.23-0.076,0.23-0.076,0.23c-0.232,0.154-0.387,0.465-0.541,0.619c-0.157,0.154-0.232,0.23-0.465,0.23V29.89
	c-0.076-0.076-0.23-0.154-0.308-0.23c-0.232-0.157-0.462-0.311-0.462-0.465c-0.232,0-0.311-0.23-0.465-0.23
	c-0.154,0-0.154,0-0.154-0.157h-0.232L53.987,28.654z M55.995,30.971v0.078c-0.078,0.154-0.078,0.232-0.154,0.387
	c-0.232,0.23-0.465,0.387-0.465,0.771c-0.154,0.078-0.23,0.078-0.308,0.078h-0.078h-0.384v-0.078v-0.771
	c0.154-0.078,0.384-0.154,0.462-0.232c0.232-0.154,0.308-0.232,0.308-0.232h0.387h0.078H55.995z M53.6,30.044h0.078h0.616v0.311
	c-0.154,0.232-0.387,0.462-0.616,0.541c-0.154,0-0.311,0.076-0.465,0.076h-0.076h-0.157v-0.23v-0.078v-0.308
	c0-0.311,0.232-0.311,0.311-0.311H53.6z M51.902,28.038c0,0,0.23,0,0.23-0.078c0.232-0.154,0.387-0.232,0.387-0.308h0.078h0.232
	c0.152,0,0.152,0,0.308,0.076c0,0.619,0.076,0.927,0.076,1.468v0.232h-0.232h-0.384h-0.078c0-0.308-0.387-0.619-0.616-0.773V28.038z
	 M43.482,26.878c0.465,0.311,0.927,0.541,0.927,0.773v0.076c-0.387,0.232-0.773,0.157-0.927,0.078c-0.076,0-0.076-0.078-0.076-0.078
	h-0.154l-0.232-0.308l-0.462-0.078c0-0.152,0-0.23,0.462-0.541c0-0.076,0.232,0,0.387-0.076V26.8L43.482,26.878z M44.641,29.427
	c-0.232,0.154-0.773,0.616-1.081,0.927h-0.078h-0.076h-0.154c-0.232,0-0.232,0-0.232-0.465v-0.308
	c0.076-0.078,0.308-0.154,0.462-0.154c0.311-0.078,0.619-0.232,0.927-0.462C44.409,29.195,44.409,29.195,44.641,29.427z
	 M41.552,6.642h0.154h0.541h0.232v0.387h0.387c0,0,0.154,0,0.154,0.078c0,0-0.154,0-0.154,0.308h-0.387l-0.232,0.232
	c0,0,0,0.078-0.076,0.078c-0.154,0-0.154,0-0.465-0.311c0-0.308-0.154-0.308-0.154-0.387V6.642z M41.011,28.346
	c0.154,0,0.154,0,0.541-0.308l0.154,0.308c0.154,0,0.387,0.078,0.541,0.232c0.154,0.076,0.232,0.23,0.232,0.23v0.387v0.232h-0.232
	h-0.541c-0.154-0.462-0.541-0.619-0.695-0.773V28.346z M39.543,24.329c0.154,0,0.465-0.23,0.695-0.387h0.078h0.076h0.232h0.154
	c0,0,0.078,0,0.078,0.387v0.078c-0.078,0.154-0.465,0.541-0.541,0.541h-0.078h-0.462c0-0.387,0-0.387-0.232-0.541V24.329z
	 M35.064,26.105h0.232h0.154c0.076,0,0.154,0,0.308,0.078c0.078,0.078,0.154,0.154,0.232,0.232h0.154c0.232,0,0.541,0,0.695,0.308
	v0.387c-0.387,0.23-0.771,0.23-1.081,0.154c-0.076,0-0.232,0-0.308-0.076c-0.154-0.078-0.308-0.078-0.387-0.078
	c-0.308,0-0.308,0-0.308-0.387h-0.078C34.677,26.416,34.756,26.184,35.064,26.105z M33.134,30.044h0.232
	c0.308-0.462,0.771-0.462,1.311-0.849v-0.541v-0.076c0.308,0,0.695,0.076,1.081,0.076c0.232,0.078,0.541,0.154,0.773,0.154h0.308
	v0.157l-0.308,0.23c-0.308,0.154-0.541,0.232-0.773,0.387c-0.076,0.078-0.154,0.154-0.232,0.308v0.154l-0.23,0.311l-0.154,0.387
	v0.23h0.154c0.154,0,0.154,0.078,0.23,0.078c0.078-0.078,0.157-0.078,0.232-0.078c0.465,0,0.927,0.078,1.468,0.078
	c0.154-0.078,0.154-0.078,0.462-0.078c0.541,0.078,1.084,0.465,1.084,0.078c0.616-0.078,0.771-0.695,1.39-0.695l0.076,0.076
	c0.154,0,0.232,0.387,0.541,0.541c0.773,0.232,1.16,0.695,1.468,1.235c0.232,0.311,0.465,0.619,0.773,1.006v0.308h-0.154
	c-0.232,0.078-0.387,0.078-0.619,0.154c-0.616,0.078-1.314,0.078-2.008,0c-1.544-0.23-3.09-0.771-4.479-1.157
	c-0.232-0.078-0.462-0.154-0.695-0.232c-1.157-0.308-2.395-0.462-3.552-0.619h-0.078c-0.308-0.23-0.308-0.616-0.308-0.695v-0.23
	c0,0,0.308,0,0.308-0.387h0.078C32.282,30.355,32.669,30.355,33.134,30.044z M31.125,27.96v-0.232h0.232h0.154
	c0.154,0.078,0.308,0.078,0.308,0.232c0,0.078,0.232,0.078,0.232,0.387s-0.232,0.308-0.232,0.308v0.154h-0.308
	c-0.154,0-0.232,0-0.387-0.154c0-0.308-0.154-0.308-0.154-0.616C30.971,28.038,31.125,28.038,31.125,27.96z M30.893,29.427v0.154
	c0,0.308,0,0.308-0.462,0.462c-0.154,0-0.311,0.078-0.465,0.078c-0.23,0.154-0.462,0.232-0.695,0.232l-0.23-0.311
	c0,0,0.23-0.154,0.23-0.462c0-0.154,0.308-0.154,0.619-0.387h0.076h0.465v0.232H30.893z M29.271,31.822v0.154
	c0,0.23,0,0.23-0.23,0.23h-0.078c-0.308,0.078-0.462,0-0.773,0l-0.154-0.23v-0.311c0.154-0.23,0.232-0.23,0.465-0.384h0.23
	c0.154,0.076,0.232,0.076,0.232,0.154c0.078,0,0.078,0.076,0.078,0.23C29.271,31.666,29.271,31.822,29.271,31.822z M28.189,27.111
	v-0.387c0-0.078,0.311-0.308,0.311-0.308h0.462h0.078h0.154h0.076v0.773c0,0.152,0.308,0.152,0.387,0.152c0,0,0.232,0,0.232,0.078
	v0.232h0.076c0.232,0,0.232,0.308,0,0.387H29.89c0,0-0.619,0.308-0.695,0h-0.154v-0.387h-0.078c-0.462-0.232-0.541,0-0.773-0.232
	h-0.387v-0.078C27.803,27.189,28.189,27.189,28.189,27.111z M25.951,26.338v-0.154c0.076-0.308,0.23-0.308,0.462-0.308l0.078-0.078
	h0.384c0.387,0,0.697,0,0.927,0.078v0.23v0.078c0,0.232-0.616,0.154-0.849,0.462c0,0,0,0.078-0.078,0.078
	c-0.076,0-0.23,0.076-0.384,0.076c0,0-0.311,0-0.465-0.076l-0.076-0.078V26.338z M24.716,26.416h-0.157h-0.076
	c-0.154-0.078-0.154-0.232-0.311-0.232c-0.23,0-0.23-0.308-0.23-0.387h0.23v-0.308h0.157c0.076,0,0.154,0.076,0.154,0.076
	c0.232,0,0.232,0.232,0.232,0.311C25.1,26.105,25.1,26.184,24.716,26.416z M24.483,2.782c0,0-0.078-0.078-0.154-0.078V2.627V2.395
	h0.154h0.232H25.1h0.465c0,0.232,0.232,0.308,0.232,0.465v0.462V3.63H25.1C24.792,3.322,24.716,2.936,24.483,2.782z M25.1,29.427
	v-0.232v-0.23v-0.157c0.465-0.154,0.851-0.154,1.081-0.23h0.232c0.078,0,0.078,0.076,0.387,0.076v0.154c0,0.157,0.076,0.619,0,0.619
	c-0.308,0.154-0.619,0.616-0.619,0.616h-0.23h-0.154C25.797,29.582,25.565,29.427,25.1,29.427z M26.876,34.756
	c-0.462,0.311-0.695,0.311-0.925,0h-0.154c0-0.462,0.154-0.462,0.23-0.695c0-0.387,0.154-0.387,0.154-0.541
	c0.232,0,0.465-0.154,0.695-0.232c0.078-0.076,0.232-0.076,0.311-0.076c0.616-0.232,1.157-0.308,1.776-0.308
	c0.308-0.078,0.695-0.078,1.003-0.078h0.465h1.081c1.235,0,2.549,0.154,3.785,0.695c0.23,0,0.23,0.154,0.23,0.154l-0.23,1.006
	c0,0.076-0.232,0.387-0.541,0.616h-0.078c0,0,0-0.23-0.387-0.23c-0.154-0.311-0.541-0.311-0.925-0.387
	c-0.232-0.387-0.697-0.387-1.084-0.387c-0.23,0-0.23,0-0.462,0.154c0,0,0,0.232-0.308,0.308h-0.078c0,0,0,0.311-0.076,0.311h-0.232
	h-0.154c0,0,0-0.311-0.078-0.311V34.68c-0.23-0.232-0.23-0.232-0.462-0.232v-0.154v-0.619h-0.465H29.89V33.52
	c-0.311,0-0.619,0-0.695,0.154h-0.154v0.387v0.232h-0.078c-0.232,0-0.232,0.154-0.462,0.387h-1.006L26.876,34.756z M29.041,37.075
	v0.23v0.154c0,0,0,0.078-0.078,0.078c-0.308,0.387-0.695,0.541-1.16,0.541v-0.619v-0.154c0,0,0-0.23,0.387-0.23
	c0-0.078,0-0.078,0.078-0.157c0.154,0,0.232,0,0.462,0.078h0.232L29.041,37.075z M28.422,40.627c0,0,0,0.076-0.154,0.076h-0.078
	c-0.387-0.076-0.387-0.616-0.541-0.927c0-0.23,0.154-0.538,0.541-0.616h0.078c0,0,0-0.387,0.154-0.387l0.078,0.387v0.078
	c0.308,0,0.462,0,0.462,0.076c0.078,0,0.078,0.078,0.078,0.232c0,0.076,0,0.154-0.078,0.23C28.884,40.162,28.5,40.395,28.422,40.627
	z M43.868,36.918c0,0.773-0.154,1.546-0.387,2.319c-0.387,1.39-0.925,2.779-1.235,4.247c0,0.154,0,0.308-0.076,0.541h-0.154v0.154
	c-0.619,0-1.238,0.078-1.779,0.078c-1.544,0.076-3.011,0.154-4.479,0.154c-1.39-0.078-2.779-0.154-4.247-0.387h-0.154
	c-0.541,0-1.006-0.154-1.392-0.308c-0.308-0.232-0.541-0.465-0.771-0.851c-0.154-0.076-0.154-0.541-0.154-0.541v-0.308l0.23-0.076
	c0.308-0.311,0.308-0.465,0.619-0.465v-0.308v-0.078v-0.154h0.076c0.465-0.232,0.697,0,1.006,0c0,0,0.076,0,0.076-0.232
	c0-0.387-0.076-0.616-0.384-0.927H30.43c0,0,0-0.23-0.465-0.23H29.89v-0.308v-0.465h0.076c0.154,0,0.541,0,0.697-0.078h0.849h0.308
	v0.078c0.232,0,0.462,0.465,0.849,0.465h0.387c0,0,0-0.078,0.078-0.465c0-0.078,0.232-0.078,0.232-0.308
	c0-0.387,0.541-0.387,0.771-0.541v-0.849c0,0,0-0.157-0.23-0.157v-0.23c0.616-0.311,1.311-0.541,1.852-0.927
	c0.387-0.311,0.695-0.619,0.773-1.081c0-0.232,0.308-0.232,0.308-0.387h0.078c0.695,0,1.468,0.387,2.317,0.462
	c0.308,0.078,0.616,0.154,1.003,0.232c0.695,0.154,1.392,0.154,2.008,0.232c0.465,0.076,0.849,0.154,1.235,0.308
	c0.154,0,0.232,0.078,0.387,0.078l0.541,0.154C44.409,35.915,43.868,36.456,43.868,36.918z M44.409,31.282h-0.462v-0.232
	c0-0.078,0.462-0.078,0.462-0.308v-0.078c0.078-0.154,0.311-0.232,0.465-0.232c0.23-0.076,0.387-0.076,0.387-0.076h0.154h0.308
	c0,0,0.076,0.308,0.076,0.387c0,0.076-0.076,0.076-0.076,0.076c-0.308,0.154-0.462,0.232-0.462,0.465
	c0,0.076-0.157,0.076-0.387,0.076C44.72,31.436,44.487,31.358,44.409,31.282z M45.723,33.366c-0.308-0.232-0.462-0.541-0.541-1.081
	v-0.078c0.078,0,0.078-0.23,0.232-0.23h0.308h0.076c0.311,0,0.387,0.308,0.387,0.849v0.387c0,0.308,0,0.308-0.076,0.308h-0.232
	h-0.078C45.798,33.444,45.723,33.444,45.723,33.366z M47.266,49.74v0.154c1.235,1.392,0.773,3.322,0,4.79v0.076H46.88v-0.076
	c-0.771-1.546-0.695-3.63-0.695-5.406v-0.232h0.078h0.232C46.804,49.277,47.19,49.507,47.266,49.74z M48.658,37.075
	c-0.387,1.079-0.851,2.006-1.392,2.857c-0.308,0.541-0.695,1.003-1.081,1.465l-0.076,0.078c0,0,0-0.078-0.232-0.078
	c0-1.311,0.773-2.625,1.003-3.939c0.078-0.23,0.232-0.384,0.387-0.462c0.078-0.078,0.157-0.078,0.311-0.078h0.076h0.387h0.078h0.541
	V37.075z M49.507,35.066c-0.078,0.076-0.154,0.154-0.154,0.154l-0.078,0.076h-0.154l-0.232-0.23h-0.23
	c0-0.311-0.541-0.773-0.541-1.006v-0.23v-0.157c0.616-0.154,0.849-0.308,1.235-0.462h0.387h0.154
	C49.74,33.831,49.74,34.68,49.507,35.066z M49.353,31.358c-0.311,0-0.541,0.078-0.695,0.308c-0.157,0.157-0.541,0.157-0.541,0.311
	v0.23h0.384l0.157,0.078h0.23c0.078,0,0.078,0.541,0,0.541c0,0.078-0.23,0.078-0.23,0.078c-0.541,0-0.619,0-1.235-0.078
	c-0.157,0-0.157,0-0.157-0.541v-0.849c0.157-0.465,0.773-1.081,1.235-1.081h0.157c0,0,0.23-0.311,0.23-0.773h0.078v-0.154
	c0.154,0,0.232,0,0.387,0.076c0.076,0.078,0.23,0.157,0.387,0.387h0.23c0.311-0.308,0.541-0.462,0.927-0.462h0.078h0.387v1.622
	v0.232C50.664,31.512,49.894,31.282,49.353,31.358z M53.678,35.529c-0.387,0.078-0.773,0.078-1.16,0.078h-1.157
	c0-0.851,0.154-1.546,0.23-2.395h0.311c0.23,0,0.23-0.308,0.616-0.308h0.078h0.232h0.152v0.308H53.6c0,0.076,0,0.154,0.078,0.232
	c0,0.154,0.154,0.23,0.308,0.23c0.387,0,0.619-0.154,1.003-0.154l0.078,0.154c0.308,0.157,0.308,0.387,0.308,0.387
	s0.232,0.154,0.465,0.311c0.076,0,0.076,0.076,0.154,0.076h0.076l0.311-0.154c0-0.232,0.076-0.462,0.616-0.619l0.232-0.154h0.387
	v0.154c0.154,0.157,0.232,0.387,0.232,0.619v0.154c-0.619,0.387-1.314,0.619-2.008,0.773c-0.232,0.076-0.465,0.154-0.773,0.154
	C54.605,35.45,54.141,35.529,53.678,35.529z M56.071,38.694c0,0.078-0.154,0.078-0.23,0.078h-0.078h-0.695h-0.078h-0.384v-0.078
	c0-0.308,0.23-0.616,0.462-0.695c0.078-0.076,0.232-0.076,0.308-0.076h0.232h0.154h0.078c0,0.154,0.076,0.387,0.23,0.387V38.694z
	 M59.625,36.918v0.157h-0.232v0.23c0,0.154,0,0.619-0.232,0.773c0,0,0,0.232-0.308,0.387c0,0-0.154,0.23-0.232,0.23h-0.232
	c0,0-0.154,0-0.154-0.23c-0.076-0.154-0.076-0.387-0.384-0.387v-0.154h-0.232c0,0,0-0.232-0.387-0.232v-0.387v-0.23
	c0,0-0.773,0.23-0.773,0c-0.308,0-0.462-0.078-0.616-0.157c-0.078-0.076-0.157-0.154-0.232-0.23c0-0.232,0.154-0.232,0.154-0.387
	h0.078c0.541-0.387,1.389-0.387,1.776-0.387h0.154h0.078v0.232c0.308,0,0.308,0.154,0.384,0.154c0.154,0,0.387,0,0.465-0.154h0.695
	h0.078C59.625,36.456,59.701,36.688,59.625,36.918z M60.553,27.727c-0.311,0-0.311,0-0.311,0.311h-0.849h-0.232
	c0,0.308-0.308,0.308-0.462,0.541l-0.078-0.232c-0.232-0.619-0.387-1.006-0.387-1.235c0.154,0,0.154-0.311,0.387-0.311
	c0-0.076,0.078-0.076,0.078-0.076c0.232,0.076,0.462,0.076,0.695,0.076h0.619h0.076c0.154,0.389,0.154,0.389,0.465,0.541V27.727z
	 M63.178,25.797v-0.308c0-0.308,0-0.308,0.154-0.541h0.387h0.154l0.387,0.232v0.308c0,0.232-0.308,0.462-0.541,0.541
	c-0.078,0.076-0.154,0.076-0.154,0.076h-0.387V25.797z M65.262,27.189v0.152v0.078c0,0.232,0,0.232-0.154,0.308h-0.387
	c-0.384,0-0.695,0.078-1.003,0.157c-0.541,0.076-0.927,0.23-1.39,0.462c-0.311,0-0.541,0-0.695-0.308h-0.311
	c-0.232-0.387,0-0.849,0.465-0.927c0-0.311,0.541-0.311,0.616-0.387l0.232,0.076l0.154,0.311c0.078,0.078,0.078,0.078,0.232,0.23
	h0.154h0.541h0.154h0.308c0.078-0.152,0.078-0.541,0.541-0.541h0.387h0.154V27.189z M66.113,12.746h-0.311h-0.541l-0.154-0.157
	v-0.154v-0.076c0.154-0.154,0.154-0.311,0.387-0.465c0.078,0,0.154-0.076,0.308-0.154h0.078h0.232h0.23c0,0.154,0,0.154,0.157,0.154
	C66.343,12.205,66.343,12.435,66.113,12.746z M68.584,35.607c0.154-0.311,0.387-0.541,0.541-0.541h0.232c0,0,0.384,0.23,0.384,0.541
	c0,0.154-0.384,0.308-0.616,0.695v0.387h-0.078v-0.387c-0.308,0-0.462-0.387-0.462-0.387C68.584,35.761,68.506,35.761,68.584,35.607
	z M71.595,30.741c-0.154,0.23-0.387,0.23-0.387,0.23h-0.308h-0.462h-0.232v-0.616c0.232-0.232,0.387-0.311,0.695-0.695l0.078-0.078
	c0,0,0.23,0,0.23-0.154c0,0,0,0.154,0.232,0.154c0.154,0.462,0.154,0.773,0.154,1.081V30.741z M75.226,15.603
	c-0.232,0.308-0.308,0.616-0.308,0.616h-0.232c-0.154-0.076-0.462-0.154-0.695-0.308v-0.308c0.232-0.232,0.308-0.387,0.695-0.387
	c0.078,0,0.078-0.078,0.078-0.078c0.154,0,0.154-0.308,0.154-0.308h0.076l0.232,0.308l0.154,0.078v0.154
	C75.38,15.603,75.226,15.603,75.226,15.603z M77.234,30.971v0.311h-0.232c-0.154-0.154-0.387-0.232-0.616-0.311
	c-0.232-0.076-0.541-0.076-0.773-0.23v-0.078c0-0.308-0.232-0.308-0.232-0.308h0.232v-0.311h0.462h0.311h0.23
	c0.387,0,0.387,0.311,0.619,0.311C77.234,30.741,77.543,30.971,77.234,30.971z M78.47,16.838h-0.232v0.076l-0.308,0.311
	c-0.154,0-0.232-0.078-0.308-0.232c-0.154-0.078-0.232-0.154-0.387-0.154c-0.232-0.232-0.232-0.232-0.541-0.619v-0.308h0.154h0.154
	c0.232,0,0.387,0,0.619,0.154c0.23,0.078,0.387,0.308,0.616,0.541h0.232V16.838z M83.336,32.825c-0.154,0-0.462,0.154-0.695,0.232
	c-0.078,0.076-0.232,0.154-0.308,0.154h-0.154c-0.078-0.308-0.311-0.387-0.078-1.006c0.078-0.23,0.232-0.23,0.387-0.23h0.154
	c0.232,0,0.462,0.076,0.462,0.23c0.232,0,0.232,0,0.232,0.078V32.825z"/>
<g>
	<path fill="#A02842" d="M108.362,35.555h8.134v0.611h-1.943l3.387,12.715h0.055l2.637-9.078l-0.944-3.637h-1.388v-0.611h8.328
		v0.611h-2.082l3.22,12.715h0.055l3.748-12.715h-2.304v-0.611h3.942v0.611h-0.944l-5.386,18.601h-2.221l-3.665-13.687h-0.055
		l-3.998,13.687h-2.193l-5.025-18.601h-1.36V35.555z"/>
	<path fill="#A02842" d="M133.156,54.766v-0.611h1.388l6.607-18.823h3.137l6.108,18.823h1.194v0.611h-8.607v-0.611h2.304
		l-2.138-7.052h-5.358l-2.471,7.052h2.388v0.611H133.156z M138.014,46.493h4.942l-2.332-7.579h-0.055L138.014,46.493z"/>
	<path fill="#A02842" d="M167.166,41.468h-0.944c-1.471-4.164-1.86-5.747-4.553-5.747c-2.693,0-4.275,1.055-4.275,2.887
		c0,4.442,11.049,2.721,11.049,9.606c0,4.275-2.776,6.996-7.607,6.996c-2.11,0-3.97-0.639-5.997-1.832v-5.83h0.944
		c1.832,5.83,2.165,7.052,5.691,7.052c1.971,0,4.192-1.222,4.192-3.387c0-4.608-11.049-2.887-11.049-9.994
		c0-3.498,2.637-6.108,6.996-6.108c1.915,0,3.859,0.388,5.552,1.083V41.468z"/>
	<path fill="#A02842" d="M185.379,41.468h-0.944c-1.471-4.164-1.86-5.747-4.553-5.747s-4.275,1.055-4.275,2.887
		c0,4.442,11.049,2.721,11.049,9.606c0,4.275-2.776,6.996-7.607,6.996c-2.11,0-3.97-0.639-5.997-1.832v-5.83h0.944
		c1.832,5.83,2.165,7.052,5.691,7.052c1.971,0,4.192-1.222,4.192-3.387c0-4.608-11.049-2.887-11.049-9.994
		c0-3.498,2.637-6.108,6.996-6.108c1.915,0,3.859,0.388,5.552,1.083V41.468z"/>
	<path fill="#A02842" d="M192.154,36.165h-1.305v-0.611h14.908v6.108h-0.944c-1.332-4.525-1.693-5.497-3.304-5.497h-4.303v8.273
		h1.554c1.388,0,1.749-0.333,2.582-3.831h0.611v8.273h-0.611c-0.833-3.498-1.194-3.831-2.582-3.831h-1.554v9.106h4.275
		c1.666,0,2.249-2.11,3.332-6.552h0.944v7.163H190.71v-0.611h1.444V36.165z"/>
	<path fill="#A02842" d="M210.312,54.766v-0.611h1.444v-17.99h-1.444v-0.611h9.356c4.581,0,6.996,1.388,6.996,4.636
		c0,2.887-2.193,4.386-4.914,4.414l5.136,9.55h1.138v0.611h-6.33l-4.831-9.772h-0.055v9.161h1.804v0.611H210.312z M216.808,44.55
		h0.444c3.581,0,4.359-1.083,4.359-4.192c0-3.109-0.944-4.192-3.165-4.192h-1.638V44.55z"/>
	<path fill="#A02842" d="M244.155,41.468h-0.944c-1.471-4.164-1.86-5.747-4.553-5.747s-4.275,1.055-4.275,2.887
		c0,4.442,11.049,2.721,11.049,9.606c0,4.275-2.776,6.996-7.607,6.996c-2.11,0-3.97-0.639-5.997-1.832v-5.83h0.944
		c1.832,5.83,2.165,7.052,5.691,7.052c1.971,0,4.192-1.222,4.192-3.387c0-4.608-11.049-2.887-11.049-9.994
		c0-3.498,2.637-6.108,6.996-6.108c1.915,0,3.859,0.388,5.552,1.083V41.468z"/>
	<path fill="#A02842" d="M252.596,54.766v-0.611h1.444v-17.99h-0.889c-2.249,0-2.693,3.665-3.22,5.58h-0.944v-6.191h15.158v6.191
		h-0.944c-0.527-1.916-0.971-5.58-3.248-5.58h-0.861v17.99h1.444v0.611H252.596z"/>
	<path fill="#A02842" d="M269.143,36.165h-1.305v-0.611h14.908v6.108h-0.944c-1.332-4.525-1.694-5.497-3.304-5.497h-4.303v8.273
		h1.554c1.388,0,1.749-0.333,2.582-3.831h0.611v8.273h-0.611c-0.833-3.498-1.194-3.831-2.582-3.831h-1.554v9.106h4.275
		c1.666,0,2.249-2.11,3.332-6.552h0.944v7.163H267.7v-0.611h1.444V36.165z"/>
	<path fill="#A02842" d="M295.685,54.766h-7.94v-0.611h1.444v-17.99h-1.444v-0.611h7.94v0.611h-1.444v17.99h1.444V54.766z"/>
	<path fill="#A02842" d="M304.653,54.766h-4.775v-0.611h1.444v-17.99h-1.444v-0.611h7.19l7.024,13.159h0.055V36.165h-2.082v-0.611
		h4.498v0.611h-1.638v18.601h-3.165l-9.606-18.323h-0.055v17.712h2.554V54.766z"/>
	<path fill="#A02842" d="M342.093,44.272v0.611h-1.86c-0.139,1.832-0.444,3.637-1.36,5.247l2.999,4.025h1.193v0.611h-6.107
		l-0.972-1.305c-1.527,1.138-3.47,1.749-5.414,1.749c-4.414,0-6.746-2.277-6.746-5.303c0-3.22,2.971-4.997,5.108-5.913
		c-0.722-1.055-1.61-2.721-1.61-4.109c0-3.109,2.776-4.775,5.608-4.775c2.082,0,4.831,1.055,4.831,3.526
		c0,2.304-2.332,3.47-4.22,4.248l4.886,6.635c0.722-1.444,0.972-3.026,1.027-4.636h-2.443v-0.611H342.093z M329.322,44.522
		c-1.388,0.722-1.61,1.61-1.61,2.971c0,2.887,2.082,6.552,4.831,6.552c1.111,0,2.193-0.472,3.026-1.138L329.322,44.522z
		 M330.71,37.665c0,1.555,1.472,3.22,2.443,4.692c1.027-0.5,1.499-1.277,1.499-3.248c0-1.36-0.306-3.387-2.027-3.387
		C331.432,35.721,330.71,36.499,330.71,37.665z"/>
	<path fill="#A02842" d="M364.317,41.69h-0.944c-1.749-4.22-1.999-5.969-4.47-5.969c-2.804,0-3.637,1.888-3.637,9.439
		c0,7.551,0.833,9.439,3.637,9.439c3.22,0,3.359-2.138,4.858-6.718h0.944v5.997c-1.943,0.861-3.942,1.333-5.969,1.333
		c-5.886,0-9.19-4.553-9.19-10.05s3.304-10.05,9.19-10.05c1.832,0,3.664,0.416,5.58,0.944V41.69z"/>
	<path fill="#A02842" d="M386.889,45.16c0,5.33-3.082,10.05-8.856,10.05c-5.775,0-8.856-4.72-8.856-10.05s3.082-10.05,8.856-10.05
		C383.807,35.111,386.889,39.83,386.889,45.16z M378.033,35.721c-2.527,0-3.137,2.193-3.137,9.439s0.61,9.439,3.137,9.439
		c2.526,0,3.137-2.193,3.137-9.439S380.559,35.721,378.033,35.721z"/>
	<path fill="#A02842" d="M393.026,52.989c0,1.249-0.972,2.221-2.221,2.221c-1.221,0-2.221-0.972-2.221-2.221
		c0-1.249,1-2.221,2.221-2.221C392.054,50.768,393.026,51.74,393.026,52.989z"/>
</g>
</svg>
