<?xml version="1.0" encoding="utf-8"?>
<!-- Generator: Adobe Illustrator 18.0.0, SVG Export Plug-In . SVG Version: 6.00 Build 0)  -->
<!DOCTYPE svg PUBLIC "-//W3C//DTD SVG 1.1//EN" "http://www.w3.org/Graphics/SVG/1.1/DTD/svg11.dtd">
<svg version="1.1" id="Layer_1" xmlns="http://www.w3.org/2000/svg" xmlns:xlink="http://www.w3.org/1999/xlink" x="0px" y="0px"
	 width="393.009px" height="80.785px" viewBox="0 0 393.009 80.785" enable-background="new 0 0 393.009 80.785"
	 xml:space="preserve">
<g>
	<rect x="109.805" y="47.813" fill="#FFFFFF" width="282.829" height="2.258"/>
	<path fill="#FFFFFF" d="M94.653,27.098c-0.232-0.311-0.386-0.386-0.465-0.465c-0.77-0.77-1.621-0.54-2.391-0.77
		c-0.078,0-0.232-0.078-0.232-0.078h-0.232c0-0.616,0.232-0.616,0.232-0.848c-0.232-0.465-0.848-0.54-1.081-0.54h-1.081v-0.078
		v-0.386c0,0,0-0.23,0.308-0.23c0-0.078,0.078-0.078,0.465-0.232v-0.927h-0.465c-0.308-0.308-0.462-0.308-0.462-0.386
		c0-0.386-0.386-0.386-0.386-0.386v-0.076l0.386-0.154c0.154-0.311,0.927,0,1.313-0.311v-0.154v-0.154
		c-0.078-0.232-0.386-0.232-0.386-0.616c-0.386-0.232-0.386-0.619,0-0.697V19.3c0-0.23,0.386-0.308,0.308-0.694h-0.308
		c-0.465-0.386-0.773-0.386-0.927,0h-0.386h-0.54V18.22v-1.003c0-0.311,0-0.386-0.462-0.386c0,0-0.386-0.154-0.694-0.154
		c-0.697,0.154-1.699,0-2.472,0.154c-0.23,0-0.616,0.076-0.616,0.076c-0.386,0-0.386-0.076-0.386-0.076h-0.154v-0.154
		c-0.157-0.154-0.386-0.232-0.773-0.232c-0.462-0.078-1.081-0.078-1.467-0.54c-0.54-0.694-1.543,0-2.624-0.308v-0.232
		c-0.078,0-0.078-0.154-0.078-0.154v-0.078c0.078-0.308,0.078-0.308,0.078-0.386c0.308,0,0.308,0,0.308-0.154v-0.154h-0.308
		c0-0.232-0.311-0.386-0.697-0.386h-0.23c-0.386,0.078-0.848,0.154-1.235,0.232c-0.465,0-0.851-0.078-1.159-0.232h-0.232
		c0-0.076-0.076-0.076-0.076-0.308c0.076-0.078,0.308-0.308,0.308-0.308l0.386-0.232V12.97v-0.386
		c-0.232-0.23-0.386-0.23-0.694-0.23h-0.154v0.23h-0.078c-0.078,0.157-0.386,0.386-0.386,0.386H74.04
		c-1.157-0.616-1.775,0-2.702,0.232l-0.23-0.232H71.03c-0.462,0-0.694,0.232-1.003,0h-0.157v-0.23c0-0.157-0.308-0.157,0-0.157
		v-0.694c0-0.154-0.384-0.54-0.616-0.54v-0.076l-0.078,0.076c-0.462,0.386-1.081,0.386-1.389,0.386h-0.076l-0.386-0.386
		c-0.232-0.154-0.232-0.154-0.232-0.308v-0.927c0.232-0.154,0.619-0.386,0.619-0.386c0.384-0.154,0.924-0.154,1.157-0.462h0.308
		V8.957c-0.308-0.078-0.308-0.078-0.308-0.157c-0.154-0.23-0.154-0.23-0.232-0.23c-0.924-0.465-1.775-0.154-2.702,0.154
		c-0.616,0.154-1.235,0.232-1.929,0.076c0,0,0-0.154-0.154-0.23h-0.078c-0.308-0.232-0.462-0.465-0.848-0.232v0.232l-0.386,0.616
		c0,0.078,0,0.078-0.076,0.078c-0.311,0.462-0.694,0.462-1.237,0.848h-0.076c-0.386-0.154-1.081,0-1.621-0.232
		c-0.078-0.076-0.154-0.076-0.232-0.154c-0.308,0-0.308-0.23-0.462-0.462c-0.078-0.078-0.465-0.078-0.54-0.308
		c-0.308-0.078-0.308-0.078-0.308-0.157v-0.23c0.308-0.232,0.77-0.232,0.77-0.465l0.078-0.154v-0.23h-0.078
		c-0.386-0.311-1.003-0.311-1.389-0.311l-0.232-0.308c-0.54,0-0.54-0.078-0.54-0.078V5.944c-0.076-0.308-0.386-0.308-0.386-0.462
		h-0.23h-0.465c0,0.076-0.154,0.154-0.308,0.308v0.154c-0.386,0-0.232,0.311,0,0.54c0.078,0.078,0.232,0.154,0.308,0.154V6.95
		c-0.154,0-0.23,0.076-0.308,0.076h-0.462h-0.619h-0.232c0,0-0.076,0-0.076,0.078c-0.154,0-0.386,0.076-0.386,0.308h-0.154
		c-0.232-0.232-0.386-0.232-0.619-0.308H52.27h-0.23V7.025h-0.232c0.232-0.386,0.232-0.54,0.462-0.54
		c0.154-0.154,0.311-0.23,0.386-0.308c0.386-0.232,0.773-0.308,0.773-0.54V5.328L53.35,5.096C53.118,5.02,52.888,5.02,52.656,5.02
		c-0.848,0.076-1.467,0.924-2.778,0.616c-0.157,0.232-0.311,0.308-0.386,0.232c-0.154,0-0.232-0.078-0.386-0.232
		c0-0.154-0.465-0.308-0.848-0.308h-0.078c0,0,0,0.154-0.462,0.154V5.328c-0.078,0.076-0.232,0.154-0.311,0.23
		c-0.23,0.078-0.616,0.078-1.002,0.078l-0.078,0.308c-0.308,0-0.308,0-0.308,0.54h-0.078v0.154V6.95h-0.076h-0.308v0.076h-0.154
		v0.386c0,0,0,0.311-0.078,0.311h-0.308c0,0.076-0.078,0-0.154,0c-0.232,0-0.311,0-0.773-0.311c-0.078,0-0.078,0-0.078-0.308
		c0-0.078,0.078-0.078,0.54-0.465V6.485c-0.386-0.462-0.694-0.54-0.927-0.848c0,0-0.076-0.078-0.076-0.154V5.328V5.096h0.076h0.927
		c0,0,0.078-0.154,0.311-0.308V4.634c0.076-0.078,0.154-0.078,0.154-0.157c0.308-0.23,0.54-0.308,0.848-0.384h0.154h0.308V3.707
		V3.629V3.321c0,0-0.308,0-0.308-0.078c-0.078-0.076-0.078-0.076-0.154-0.076c-0.308-0.154-0.54-0.154-0.848-0.154
		c-0.311,0-0.619,0-0.927-0.311c0,0,0-0.076-0.078-0.076h-0.386h-0.076c-0.311,0.308-0.694,0.308-1.159,0.308
		c-0.54,0-1.157-0.076-1.854,0.308c0,0-0.076,0.078-0.154,0.232c-0.076,0.078-0.076,0.078-0.076,0.154v0.465l-0.386,0.154
		c-0.386-0.154-0.54-0.927-1.003-1.389c0-0.232-0.543-0.232-0.543-0.465h-0.848v0.232l-0.462,0.232h-0.078
		c-0.308,0.462-0.694,0.538-1.081,0.462c-0.232,0-0.462-0.078-0.694-0.078c-0.386,0-0.386-0.384-0.386-0.384V2.702V2.394
		c0.386,0,0.386-0.386,0-0.54h-0.54c-0.386,0-0.462,0.154-0.77,0.54l-0.697,0.308c0,0,0,0.157-0.154,0.157
		c-0.154-0.157-0.154-0.157-0.232-0.157c0-0.076-0.23-0.076-0.23-0.076l-0.232-0.232v-0.54V1.467h-0.308h-1.545h-0.076V1.313
		c-0.311-0.232-0.311-0.232-0.619-0.462V0.386l-0.076-0.308L29.189,0H29.11l-0.54,0.078c-0.619,0-0.927,0.773-1.545,1.003h-0.384
		c-0.386,0.154-0.927,0-1.391-0.076h-0.616c-0.078,0-0.078,0.076-0.154,0.076c-0.386,0-0.386,0-0.697,0.232l-0.076,0.154v0.927
		c0,0.078-0.078,0.154-0.078,0.154c-0.076,0.154-0.23,0.232-0.23,0.311h-0.311c-0.308,0-0.77,0-0.77,0.462
		c-0.232,0-0.232,0.386-0.386,0.773h-0.386h-0.078c-0.77-0.386-1.389-0.386-1.775-0.851c-0.54-0.384-0.848,0.078-1.081,0.078
		l-0.154,0.308h-0.232c0,0.619,0.386,1.005,0.465,1.313l0.154,0.154c0.619,0,1.235,0.232,1.854,0.386
		c0.386,0.154,0.462,0.154,0.77,0.462v0.54c0,0-0.308,0-0.308,0.154c-0.462,0-0.694,0-1.081,0.311
		c-1.003,0.076-1.467-1.313-2.624-1.005c-0.154-0.23-0.465-0.386-0.773-0.462h-0.232c-0.154-0.154-0.616-0.154-0.848,0v0.462v0.54
		c0.232,0.154,0.465,0.154,0.694,0.465v0.076v0.078h-0.23H15.06c-0.462,0.308-0.619,0.308-1.235,0.619v0.384l0.308,0.465v0.23v0.078
		c-0.308,0-0.308,0.078-0.308,0.078h-0.619c-0.386-0.078-0.848-0.157-1.467-0.078v0.078v0.23c-0.154,0.078-0.154,0.078-0.154,0.311
		c0,0,0,0.076,0.154,0.076v0.154c0,0,0.311,0,0.927,0.232c0.154,0.154,0.54,0.232,0.54,0.232c0.232,0.308,0.232,0.308,0.232,0.384
		c0,0.465-0.232,0.465-0.232,0.619c0.232,0,0.232,0,0.232,0.154c0.232,0,0.232,0,0.232,0.386h0.154
		c0.308,0.154,0.308,0.154,0.308,0.308c0.308,0,0.308,0,0.308,0.311c0,0-0.308,0-0.308,0.23h-0.927
		c-0.23,0.078-0.462,0.157-0.54,0.386H12.05c0,0.232-0.232,0.232-0.232,0.232c-0.078,0.54-0.848,0.232-1.389,0.232
		c0,0-0.232,0-0.232-0.232C9.81,12.97,9.502,12.97,9.116,12.74l-0.078-0.078c-0.154-0.078-0.462-0.078-0.462,0.078v0.23
		c-0.308,0-0.308,0.232-0.308,0.232H7.802c-0.076,0.232-0.694,0-1.081,0.232c-0.23,0.23-0.23,0.54-0.23,0.77
		c-0.311,0-0.311,0.232-0.311,0.232c-0.308,0.386-1.621,0.308-2.083,0.694c0,0,0,0.078-0.154,0.078v0.154
		c0.154,0.232,0.54,0.54,0.54,0.54h1.697c0.54,0.308,0.927,0,1.545,0.308h0.076c-0.076,0-0.076,0.386-0.076,0.465l-1.005,0.154
		v0.386v0.23v0.465h2.24v0.308v0.386H8.575c-0.308,0-0.773,0-0.848,0.386c-0.232,0-0.619,0.078-0.619,0.078
		c-0.386,0-1.157,0-1.235,0.23v0.154v0.232l-0.54,0.386H5.257c0,0-0.311,0-0.311,0.232c-0.23,0-0.462-0.232-0.462-0.232
		c-0.386,0-0.694-0.386-0.773-0.465c-0.308-0.308-0.619-0.308-1.235,0c-0.078,0.078-0.078,0.465-0.232,0.697
		c-0.23,0.384-0.616,0-1.157,0c-0.232,0-0.851,0-0.927,0.616v0.154c0,0,0.076,0,0.076,0.154c0.465,0,0.851,0,1.391,0.311h0.23
		c0,0,0.386,0.154,0.619,0.154c0.078,0,0.078,0,0.462,0.076c0,0.386-0.384,0.386-0.384,0.386c-0.157,0.386-0.465,0.386-0.697,0.619
		v0.386v0.308h0.157c0.23,0,0.462,0,0.924-0.308c0.154-0.078,0.154-0.619,0.54-0.619h1.005l0.076,0.619v0.308h0.386
		c0,0.154,0.311,0.154,0.927,0c0,0,0.078,0,0.308,0.154v0.308h0.311v0.386c1.003-0.386,1.311-1.157,2.083-1.543h0.386v0.386
		c0,0.154,0.076,0.23,0.076,0.308h0.078H9.81v0.154v0.308c0,0.386-0.308,0.386-0.308,0.386H9.037c0,0.078-0.076,0.078-0.076,0.078
		v0.076v0.465h0.076h0.311c0.694-0.465,1.621,0,2.237-0.465h0.154l0.078-0.076h0.462c0.386,0,0.386-0.078,0.386-0.078
		c0.154-0.616,0.154-0.848,0.54-1.157c0.232,0,0.465,0.308,0.54,0.308c0.078,0,0.078,0.154,0.078,0.154
		c0.308,0.308,0.308,0.773,0.308,0.773l-0.308,0.076c-0.078,0.078-0.078,0.078-0.154,0.078v0.386h0.076h0.851
		c1.003,0,1.467,0,1.697-0.54h0.154h0.232h0.232H17.3h0.154c0,0,0,0.076,0.23,0.076v0.078l-0.23,0.386H17.3c0,0-0.078,0-0.078,0.232
		c0,0.616-0.154,0.694,0,0.924c0,0.078,0,0.078,0.078,0.232h0.384c0.54-0.232,0.927-0.462,1.467-0.462
		c1.313,0.23,2.78-0.078,3.937,0.308c0.311,0,0.311,0.154,0.311,0.154c0,0.078-0.311,0.078-0.311,0.308v0.078
		c-0.77,0.386-1.543,0.076-2.005,0.465c0,0-0.386,0-0.386,0.151v0.078c0.848,0.308,2.083,0,2.391,0.619h0.311v0.308v0.232v0.076
		h0.23h0.078c0,0.154,0,0.154,0.076,0.154l0.311,0.157v0.462v0.154c-0.232,0.154-0.386,0.308-0.465,0.462
		c-0.076,0.157-0.154,0.232-0.23,0.311H22.78c-0.462,0.386-0.848,0.308-1.621,0.308c-0.694,0.619-1.697,0.308-2.548,0.308h-0.386
		c0,0.311-0.154,0.311-0.23,0.311c-0.311,0.154,0,0.384,0,0.54l0.076,0.154c0.54,0.23,1.081,0.23,1.391,0.308
		c0.23,0.54,0.616,0.54,0.616,0.927h-0.154h-0.232v0.308c-1.081-0.386-2.083,0-3.01,0.154c-0.616,0.078-1.159,0.157-1.7-0.154
		c-0.384-0.308-0.54-0.308-0.54,0l-0.308,0.154v0.386c0,0.232,0.308,0.232,0.308,0.232c0.078,0,0.157,0.154,0.54,0.462L15.6,35.05
		c0,0.23,0.232,0.23,0.465,0.54h0.616l0.232-0.311c0.308-0.23,0.54-0.54,0.77-0.616c0-0.232,0.311-0.232,0.386-0.232
		c0.386,0.232,0.54,0.308,0.773,0.619h1.081c0.154-0.311,0.54-0.386,0.773-0.619v-0.154h0.848c0.386,0,0.386,0,0.54,0.154v0.308
		c0.232,0.311,0.232,0.311,0.232,0.54h0.462c0.308,0.311,0.619,0,0.619,0c0.076,0.078,0.154,0.154,0.23,0.154
		c0.232,0.157,0.465,0.232,0.465,0.311v0.154c-0.154,0-0.311,0-0.465,0.076c-0.154,0-0.23,0-0.23,0.157v0.54v0.23h0.23h0.078h0.773
		h0.154c0.232,0.078,0.386,0.157,0.616,0.232c0.311,0.154,0.465,0.386,0.465,0.773c0,0.154,0.232,0.154,0.232,0.154
		c0.154,0,0.23-0.386,0.384-0.386c0.232-0.232,0.311-0.232,0.619,0c0,0.154,0.076,0.232,0.076,0.232
		c0,0.076,0.078,0.154,0.078,0.154v0.232c0.232,0.154,0.232,0.462,0,0.462c0,0,0,0.078-0.078,0.078
		c-0.23,0.308-0.694,0.308-0.848,0.308l-0.23,0.078h-0.697c0,0-0.384-0.078-0.384-0.465h-0.232h-0.154v-0.308v-0.154h-0.851h-0.23
		v0.154c-0.311,0-0.311,0.23-0.311,0.308c0,0,0.311,0.386,0.311,0.465c-0.311,0-0.311,0.308-0.311,0.308v0.23H22.78
		c-0.694,0-1.235,0-1.621,0.311c-0.076-0.311-0.462-0.311-0.462-0.311v-0.23V39.22c0,0-0.232,0-0.232-0.078v-0.386h-0.232
		c0-0.078,0-0.078-0.154-0.078h-0.386c0,0,0,0.078-0.23,0.078h-0.157c0,0-0.154,0-0.462,0.386c-0.232,0-0.773,0.078-1.389,0.386
		V39.22H17.3v-0.078c0-0.386,0.154-0.386,0.154-0.465v-0.384h-0.232v-0.232c-0.154,0-0.386-0.078-0.54-0.078
		c-0.54,0-1.081,0.154-1.621,0.311v0.154v0.23v0.078h-0.078h-1.543c-0.076-0.078-0.154-0.078-0.232-0.154
		c-0.076-0.078-0.154-0.232-0.386-0.308c-0.154-0.232-0.77-0.232-1.081,0v0.154v0.23v0.078l0.078,0.386v0.078v0.308l-0.078,0.23
		c-0.77,0-1.697,0.697-2.702,0.773H8.961c-0.386-0.232-0.694-0.386-1.159-0.232L7.727,40.53c0,0.078-0.232,0.154-0.232,0.154
		c0,0.232-0.386,0.465,0,0.694h0.232c0.54,0,0.927,0.078,1.311,0.311c0.311,0.154,0.54,0.308,0.773,0.616h0.154
		c0.465-0.308,0.465-0.694,1.005-0.848h0.386c0.384,0.154,0.694,0.54,1.465,0.465h0.311c0.076-0.465-0.311-0.773,0.076-1.237h0.54
		h0.078l0.308,0.232v1.005h0.308l0.157,0.076v0.308h0.384c0,0.465-0.384,0.465-0.384,0.54v0.078c0,0.386,0,0.462,0.384,0.462
		c0.54,0,1.083-0.23,1.7-0.462c0.773-0.386,1.467-0.927,2.162-1.313l0.232-0.154c0.386-0.078,0.848,0.154,1.157,0.154h0.465v0.311
		v0.076c-0.232,0-0.232,0.308-0.232,0.308h-0.232v0.465c0.232,0.076,0.465,0.154,0.465,0.616v0.311h-0.465l-0.154,0.308
		c-0.616-0.308-1.467-0.308-2.083,0.154l-0.311,0.154v0.308h0.311c0.462,0.078,0.694,0.078,1.157,0.311h0.311
		c0.23,0.232,0.462,0.462,0.616,0.694c0.619,0.54,1.854,0.154,2.702-0.232c0.308,0,0.54,0,0.849-0.386c0,0,0-0.076,0.078-0.076
		h-0.078c-0.23,0,0-0.232-0.23-0.232v-0.078v-0.384c0-0.232,0-0.465,0.23-0.54h0.078c0.076-0.311,0.386-0.311,0.773-0.311
		c0,0.154,0.076,0.232,0.154,0.232c0.076,0.078,0.232,0.078,0.232,0.078c0.154,0.076,0.23,0.154,0.384,0.154
		c0.311,0,0.773-0.154,0.927-0.154l0.154-0.311c0-0.076,0.232-0.076,0.232-0.462v-0.078c0-0.076-0.232-0.076-0.232-0.076
		c-0.154,0-0.384,0-0.616-0.465v-0.308v-0.076c0-0.311,0.232-0.311,0.232-0.311H26.1c0.23,0,0.616,0,0.924,0.154
		c0.157,0.078,0.232,0.157,0.311,0.232c0.308,0.773,0.462,0.927,0.616,1.7c0.232,0.308,0.465,0.462,0.697,0.616
		c0.154,0.232,0.308,0.232,0.462,0.308h0.308c0.232,0.078,0.465,0.078,0.694,0.154c0.465,0.157,1.005,0.232,1.545,0.311
		c1.389,0.232,2.856,0.386,4.245,0.386c1.545,0.076,3.013,0.076,4.477,0.23c0.154,0,0.386,0,0.619,0.078
		c0.154,0.386,0.308,0.386,0.694,0.386v0.308c0.154,0.308,0,1.081,0,1.313c-0.154,3.242,0.078,6.485,0.694,9.649
		c0.386,1.545,0.773,3.013,1.235,4.477c0.465,1.237,0.927,2.394,1.391,3.553c0.308,0.54,0.54,1.081,0.848,1.543
		c0.462,0.927,1.003,1.854,1.543,2.702c0.54,0.773,1.081,1.545,1.7,2.24v0.076h-0.308c-0.157,0.308-0.157,0.308-0.54,0.308
		c-0.232,0-0.54,0-0.851,0.078c-0.54,0-1.081,0.154-1.543,0.308c-0.154,0.078-0.308,0.078-0.462,0.154
		c-0.157,0.078-0.232,0.078-0.386,0.157c-0.54,0.23-0.927,0.462-1.391,0.77c-0.386,0.232-0.77,0.386-1.235,0.619
		c-0.076,0-0.154,0.078-0.23,0.078c-0.619,0.308-1.237,0.538-1.778,0.77c-0.308,0.154-0.616,0.232-0.848,0.386
		c-0.616,0.386-0.616,0.462-1.159,0.848c-0.848,0.54-1.389,1.237-2.083,1.621c0,0.157-0.154,0.232-0.386,0.386
		c-0.076,0-0.154,0.078-0.232,0.154c-0.076,0.465-0.462,1.235-0.462,1.854c0,0.093,0.009,0.177,0.033,0.232h40.111
		c-0.078-0.078-0.308-0.232-0.54-0.386c-0.232-0.154-0.54-0.311-0.694-0.465c-1.159-0.462-2.086-1.235-3.088-2.005
		c-0.616-0.465-1.159-0.927-1.775-1.391c-1.003-0.77-2.086-1.543-3.321-2.005c-0.616-0.157-1.235-0.311-1.929-0.386
		c0-0.078-0.076-0.154-0.154-0.154c-1.081-0.927-2.702-1.467-4.245-1.237l-0.078-0.076c-0.078-0.154-0.308-0.386-0.694-0.619
		c-0.848-0.927-1.854-2.008-2.856-3.01c-0.232-0.308-0.465-0.54-0.773-0.773c-0.462-0.462-0.927-0.927-1.389-1.389h-0.078
		c-0.386-0.465-0.77-0.927-1.081-1.389c-1.235-1.778-2.008-3.553-2.778-5.096l-0.232-0.462v-1.005
		c0.154-3.318,0.927-6.717-0.154-9.419c-0.311-0.694-0.694-1.311-1.235-1.929c-0.311-0.386-0.54-0.694-0.851-1.081
		c-0.23-0.232-0.386-0.54-0.77-0.848c0.23-0.619,0.462-1.313,0.77-1.929c0.232-0.465,0.465-1.005,0.773-1.391
		c0.54-0.694,0.927-1.851,1.313-2.856c0.23-0.616,0.54-1.235,0.927-1.543c0.694-0.773,1.465-1.159,2.237-1.313
		c0.386-0.076,0.773-0.154,1.159-0.154h0.308v0.232h0.154c0,0.23,0.232,0.23,0.232,0.23v0.157c-0.232,0-0.232,0-0.232,0.23
		c-0.154,0.232-0.308,0.308-0.462,0.308c-0.311,0.078-0.773-0.076-1.159-0.076c-0.232,0.076-0.54,0.154-0.848,0.386
		c-0.078,0-0.078,0.154-0.078,0.154c-0.076,0-0.076,0-0.076,0.232v0.462c0,0-0.154,0-0.154,0.386v0.078h-0.386
		c-0.232,0-0.465,0-0.619,0.308c0,0.23-0.076,0.54,0,0.77c0.386,0.232,0.54,0.311,0.619,0.311c0,0.076,0.386,0.076,0.386,0.076
		v0.386c0.154,0.078,0.308,0.386,0.54,0.078c0.23,0,0.23-0.078,0.23-0.078c0-0.154,0-0.386,0.386-0.386
		c0.078-0.076,0.311-0.154,0.619-0.076h0.076c0,0.076,0.232,0.154,0.465,0.386c0.154,0.154,0.308,0.308,0.308,0.462
		c0,0.308-0.154,0.386-0.308,0.54c-0.154,0.078-0.232,0.154-0.386,0.308c0.308,0,0.308,0,0.308,0.465h0.078h0.076h0.232
		c0.308-0.232,0.694-0.465,1.081-0.619c0.308-0.076,0.54-0.154,0.773-0.154h0.23c0.311,0,0.311,0,0.386,0.308
		c0.54,0,0.773,0.54,1.159,0.619h0.232c0.308,0,0.384-0.078,0.538-0.078c0.232-0.076,0.232-0.076,0.232-0.54
		c0.232-0.308,0.54-0.694,0.773-0.694h0.078l0.23,0.311c0,0.076,0.311,0.384,0.311,0.384c0.076,0,0.384,0.465,0.54,0.54v0.54
		c0,0,0,0.311,0.076,0.311h0.308l0.078-0.311c0.076-0.076,0.076-1.081,0.619-1.081c0-0.308,0.154-0.384,0.384-0.694
		c0.311-0.154,0.773-0.232,1.159-0.154c0.078,0,0.308,0,0.54-0.078c0.54-0.076,1.235-0.384,1.543-0.694v-0.54
		c0.232-0.076,0.386-0.308,0.54-0.54l0.078-0.076c0.462,0,0.694,0,1.002,0.23c0.078,0,0.078,0,0.078,0.311
		c0.694,0,1.235-0.311,1.543-0.54l0.54-0.773h0.078c0.232,0,0.773,0,1.081-0.308c0-0.154,0.232-0.154,0.232-0.154v-0.386
		c0-0.54,0-0.773,0.462-0.848h0.078h0.23c0.619,0.23,1.313,0,1.545,0.23c0.232,0,0.232,0.386,0.232,0.619l-0.232,0.154
		c-0.232,0-0.232,0.232-0.619,0.232h-0.308c-0.232,0.154-0.232,0.154-0.232,0.384v0.078l1.159,0.465
		c0.773,0.23,1.467-0.157,1.929-0.543c0.232-0.154,0.386-0.308,0.54-0.384v-0.232c-0.232-0.386-0.232-0.773-0.232-1.003l0.232-0.157
		h1.159c0.386,0,0.694,0.078,1.157,0.157h0.078c0.23,0,0.616-0.157,0.927-0.386v-0.232v-0.694h-0.078c-0.232,0-0.54,0-0.619-0.154
		l-0.23-0.311v-0.23h-0.078H77.36c-0.386,0-0.386,0.23-0.54,0.23c0,0.311-0.078,0.311-0.078,0.311h-0.23
		c-0.154,0-0.311-0.078-0.311-0.311v-0.54c-0.308,0-0.308-0.076-0.462-0.076h-0.232c-0.154,0.076-0.462,0.386-0.616,0.386h-0.078
		h-0.386V34.74v-0.462h-0.308c-0.078,0-0.078-0.232-0.078-0.232c-1.157-0.386-1.775,0.232-2.702,0.232
		c0-0.232-0.23-0.232-0.23-0.232v-0.54H71.03h-0.308c-0.386,0-0.851,0-1.467,0.154v0.157c0,0.154,0,0.23-0.078,0.23v0.232h-0.54
		l-0.154-0.232c0-0.54,0.154-0.848,0.232-0.848c0,0,0.154-0.308,0-0.308l0.154-0.078h0.308c0-0.462,0.078-0.54,0.078-0.54v-0.078
		h0.308c0.54-0.384,1.005-0.308,1.467-0.23c0.386,0.154,0.773,0.308,1.235,0.23c0.386,0,0.619-0.23,0.851-0.384
		c0.384,0,0.462-0.157,0.462-0.386v-0.154v-0.311h0.462c0.386,0,0.386,0.311,0.386,0.465c0,0,0,0.308,0.386,0.54h0.078v0.23
		c0.384,0.386,1.003,0.311,1.621,0.311c0.386,0,0.77,0.076,1.157,0.308h0.078c0.076,0,0.23-0.078,0.23-0.54
		c0.078-0.078,0.078-0.078,0.386-0.078h0.232h0.078v0.078v0.54c0,0.078-0.078,0.386,0,0.386v0.308h0.308
		c0.462,0.154,0.773-0.308,1.003-0.308c0-0.308,0.078-0.386,0.465-0.386c0-0.54,0.308,0,0.308,0
		c0.308,0.078,0.308,0.386,0.308,0.694c0.232,0.54,0.927,0.773,1.545,0.927h0.154c0.232-0.154,0.462-0.462,0.694-0.773
		c0.619,0,1.235-0.154,1.467-0.462h0.308h0.232c0.154,0,0.386,0,0.462,0.308c0.232,0,0.232,0,0.54-0.308
		c0-0.308-0.308-0.927,0-1.005v-0.384v-0.157h0.465c0.616,0,1.929-0.23,2.316,1.159h0.076h0.386h0.078h0.386
		c0-0.848-0.386-1.389-0.386-1.854h0.386c0.386,0,0.386-0.23,0.848-0.23c0.308-0.078,0.308-0.386,0.694-0.386
		c0.232-0.311,0-0.465,0.078-0.927h0.154c0.462-0.462,0.849,0.154,1.235,0.154c0.232,0.308,0.232,0.308,0.773,0.308
		c0-0.308,0.23-0.308,0.308-0.462c0.154,0,0-0.619-0.078-0.619c0,0-0.23,0-0.23-0.154v-0.076l-0.54-0.232c0,0,0-0.308,0.54-0.308
		v-0.311c0.23,0,0.308-0.076,0.694,0c0.154,0,0.54-0.076,0.54-0.386v-0.151L94.653,27.098z M9.502,14.745l-0.154,0.078H9.037H8.961
		c-0.386-0.078-0.386-0.386-0.386-0.386V14.05c0,0,0.386,0,0.386-0.076l0.076,0.076h0.078c0.078,0.154,0.232,0.386,0.386,0.386
		V14.745z M14.133,14.745l-0.308,0.386c-0.078,0.308-0.308,0.154-0.619-0.076c-0.154-0.078-0.386-0.232-0.54-0.232
		c0,0,0-0.078-0.386-0.078v-0.154c0.386,0,0.386-0.154,0.386-0.154c0.154-0.232,0.154,0,0.465-0.232h0.076h0.232
		c0.232,0.232,0.386,0.232,0.694,0.386V14.745z M17.454,13.434l-0.232,0.23c-0.232-0.076-0.386-0.154-0.54-0.23
		c-0.386-0.157-0.54-0.465-0.773-0.851v-0.23h0.157l0.23-0.311h0.154v-0.154c0.078,0,0.154,0.078,0.232,0.078
		c0.386,0.076,0.54,0.076,0.54,0.386c0.232,0.23,0.232,0.616,0.232,0.848V13.434z M23.939,42.306h-0.232h-0.078h-0.54v-0.384
		c0-0.311,0-0.386,0.311-0.465h0.23c0.078,0,0.154,0.078,0.311,0.078c0,0.076,0.154,0.076,0.154,0.386L23.939,42.306z
		 M54.123,28.641h0.154h0.927h0.308c0.232-0.308,0.386-0.308,0.465-0.308h0.154h0.076c0.311,0,0.386,0.308,0.386,0.308v0.154v0.157
		c0,0.23-0.076,0.23-0.076,0.23c-0.232,0.154-0.386,0.465-0.54,0.619c-0.157,0.154-0.232,0.23-0.465,0.23v-0.154
		c-0.076-0.076-0.23-0.154-0.308-0.23c-0.232-0.157-0.462-0.311-0.462-0.465c-0.232,0-0.311-0.23-0.465-0.23s-0.154,0-0.154-0.157
		h-0.232L54.123,28.641z M56.131,30.957v0.078c-0.078,0.154-0.078,0.232-0.154,0.386c-0.232,0.23-0.465,0.386-0.465,0.77
		c-0.154,0.078-0.23,0.078-0.308,0.078h-0.078h-0.384v-0.078v-0.77c0.154-0.078,0.384-0.154,0.462-0.232
		c0.232-0.154,0.308-0.232,0.308-0.232h0.386h0.078H56.131z M53.737,30.03h0.078h0.616v0.311c-0.154,0.232-0.386,0.462-0.616,0.54
		c-0.154,0-0.311,0.076-0.465,0.076h-0.076h-0.157v-0.23v-0.078v-0.308c0-0.311,0.232-0.311,0.311-0.311H53.737z M52.04,28.025
		c0,0,0.23,0,0.23-0.078c0.232-0.154,0.386-0.232,0.386-0.308h0.078h0.232c0.152,0,0.152,0,0.308,0.076
		c0,0.619,0.076,0.927,0.076,1.467v0.232h-0.232h-0.384h-0.078c0-0.308-0.386-0.619-0.616-0.773V28.025z M43.623,26.866
		c0.465,0.311,0.927,0.54,0.927,0.773v0.076c-0.386,0.232-0.773,0.157-0.927,0.078c-0.076,0-0.076-0.078-0.076-0.078h-0.154
		l-0.232-0.308l-0.462-0.078c0-0.151,0-0.23,0.462-0.54c0-0.076,0.232,0,0.386-0.076v0.076L43.623,26.866z M44.782,29.414
		c-0.232,0.154-0.773,0.616-1.081,0.927h-0.078h-0.076h-0.154c-0.232,0-0.232,0-0.232-0.465v-0.308
		c0.076-0.078,0.308-0.154,0.462-0.154c0.311-0.078,0.619-0.232,0.927-0.462C44.55,29.182,44.55,29.182,44.782,29.414z
		 M41.694,6.639h0.154h0.54h0.232v0.386h0.386c0,0,0.154,0,0.154,0.078c0,0-0.154,0-0.154,0.308h-0.386l-0.232,0.232
		c0,0,0,0.078-0.076,0.078c-0.154,0-0.154,0-0.465-0.311c0-0.308-0.154-0.308-0.154-0.386V6.639z M41.153,28.333
		c0.154,0,0.154,0,0.54-0.308l0.154,0.308c0.154,0,0.386,0.078,0.54,0.232c0.154,0.076,0.232,0.23,0.232,0.23v0.386v0.232h-0.232
		h-0.54c-0.154-0.462-0.54-0.619-0.694-0.773V28.333z M39.686,24.318c0.154,0,0.465-0.23,0.694-0.386h0.078h0.076h0.232h0.154
		c0,0,0.078,0,0.078,0.386v0.078c-0.078,0.154-0.465,0.54-0.54,0.54h-0.078h-0.462c0-0.386,0-0.386-0.232-0.54V24.318z
		 M35.209,26.093h0.232h0.154c0.076,0,0.154,0,0.308,0.078c0.078,0.078,0.154,0.154,0.232,0.232h0.154c0.232,0,0.54,0,0.694,0.308
		v0.386c-0.386,0.23-0.77,0.23-1.081,0.154c-0.076,0-0.232,0-0.308-0.076c-0.154-0.078-0.308-0.078-0.386-0.078
		c-0.308,0-0.308,0-0.308-0.386h-0.078C34.823,26.404,34.901,26.172,35.209,26.093z M33.28,30.03h0.232
		c0.308-0.462,0.77-0.462,1.311-0.848v-0.54v-0.076c0.308,0,0.694,0.076,1.081,0.076c0.232,0.078,0.54,0.154,0.773,0.154h0.308
		v0.157l-0.308,0.23c-0.308,0.154-0.54,0.232-0.773,0.386c-0.076,0.078-0.154,0.154-0.232,0.308v0.154l-0.23,0.311l-0.154,0.386
		v0.23h0.154c0.154,0,0.154,0.078,0.23,0.078c0.078-0.078,0.157-0.078,0.232-0.078c0.465,0,0.927,0.078,1.467,0.078
		c0.154-0.078,0.154-0.078,0.462-0.078c0.54,0.078,1.083,0.465,1.083,0.078c0.616-0.078,0.77-0.694,1.389-0.694l0.076,0.076
		c0.154,0,0.232,0.386,0.54,0.54c0.773,0.232,1.159,0.694,1.467,1.235c0.232,0.311,0.465,0.619,0.773,1.005v0.308h-0.154
		c-0.232,0.078-0.386,0.078-0.619,0.154c-0.616,0.078-1.313,0.078-2.008,0c-1.543-0.23-3.088-0.77-4.477-1.157
		c-0.232-0.078-0.462-0.154-0.694-0.232c-1.157-0.308-2.394-0.462-3.551-0.619H31.58c-0.308-0.23-0.308-0.616-0.308-0.694v-0.23
		c0,0,0.308,0,0.308-0.386h0.078C32.429,30.341,32.815,30.341,33.28,30.03z M31.272,27.947v-0.232h0.232h0.154
		c0.154,0.078,0.308,0.078,0.308,0.232c0,0.078,0.232,0.078,0.232,0.386s-0.232,0.308-0.232,0.308v0.154h-0.308
		c-0.154,0-0.232,0-0.386-0.154c0-0.308-0.154-0.308-0.154-0.616C31.118,28.025,31.272,28.025,31.272,27.947z M31.04,29.414v0.154
		c0,0.308,0,0.308-0.462,0.462c-0.154,0-0.311,0.078-0.465,0.078c-0.23,0.154-0.462,0.232-0.694,0.232l-0.23-0.311
		c0,0,0.23-0.154,0.23-0.462c0-0.154,0.308-0.154,0.619-0.386h0.076h0.465v0.232H31.04z M29.419,31.808v0.154
		c0,0.23,0,0.23-0.23,0.23H29.11c-0.308,0.078-0.462,0-0.773,0l-0.154-0.23v-0.311c0.154-0.23,0.232-0.23,0.465-0.384h0.23
		c0.154,0.076,0.232,0.076,0.232,0.154c0.078,0,0.078,0.076,0.078,0.23C29.419,31.651,29.419,31.808,29.419,31.808z M28.338,27.098
		v-0.386c0-0.078,0.311-0.308,0.311-0.308h0.462h0.078h0.154h0.076v0.773c0,0.151,0.308,0.151,0.386,0.151c0,0,0.232,0,0.232,0.078
		v0.232h0.076c0.232,0,0.232,0.308,0,0.386h-0.076c0,0-0.619,0.308-0.694,0h-0.154v-0.386H29.11c-0.462-0.232-0.54,0-0.773-0.232
		h-0.386v-0.078C27.951,27.177,28.338,27.177,28.338,27.098z M26.1,26.326v-0.154c0.076-0.308,0.23-0.308,0.462-0.308l0.078-0.078
		h0.384c0.386,0,0.697,0,0.927,0.078v0.23v0.078c0,0.232-0.616,0.154-0.848,0.462c0,0,0,0.078-0.078,0.078
		c-0.076,0-0.23,0.076-0.384,0.076c0,0-0.311,0-0.465-0.076L26.1,26.634V26.326z M24.866,26.404h-0.157h-0.076
		c-0.154-0.078-0.154-0.232-0.311-0.232c-0.23,0-0.23-0.308-0.23-0.386h0.23v-0.308h0.157c0.076,0,0.154,0.076,0.154,0.076
		c0.232,0,0.232,0.232,0.232,0.311C25.249,26.093,25.249,26.172,24.866,26.404z M24.633,2.78c0,0-0.078-0.078-0.154-0.078V2.626
		V2.394h0.154h0.232h0.384h0.465c0,0.232,0.232,0.308,0.232,0.465v0.462v0.308h-0.697C24.941,3.321,24.866,2.934,24.633,2.78z
		 M25.249,29.414v-0.232v-0.23v-0.157c0.465-0.154,0.851-0.154,1.081-0.23h0.232c0.078,0,0.078,0.076,0.386,0.076v0.154
		c0,0.157,0.076,0.619,0,0.619c-0.308,0.154-0.619,0.616-0.619,0.616H26.1h-0.154C25.946,29.568,25.714,29.414,25.249,29.414z
		 M27.025,34.74c-0.462,0.311-0.694,0.311-0.924,0h-0.154c0-0.462,0.154-0.462,0.23-0.694c0-0.386,0.154-0.386,0.154-0.54
		c0.232,0,0.465-0.154,0.694-0.232c0.078-0.076,0.232-0.076,0.311-0.076c0.616-0.232,1.157-0.308,1.775-0.308
		c0.308-0.078,0.694-0.078,1.003-0.078h0.465h1.081c1.235,0,2.548,0.154,3.783,0.694c0.23,0,0.23,0.154,0.23,0.154l-0.23,1.005
		c0,0.076-0.232,0.386-0.54,0.616h-0.078c0,0,0-0.23-0.386-0.23c-0.154-0.311-0.54-0.311-0.924-0.386
		c-0.232-0.386-0.697-0.386-1.083-0.386c-0.23,0-0.23,0-0.462,0.154c0,0,0,0.232-0.308,0.308H31.58c0,0,0,0.311-0.076,0.311h-0.232
		h-0.154c0,0,0-0.311-0.078-0.311v-0.076c-0.23-0.232-0.23-0.232-0.462-0.232v-0.154v-0.619h-0.465h-0.076v-0.154
		c-0.311,0-0.619,0-0.694,0.154h-0.154v0.386v0.232H29.11c-0.232,0-0.232,0.154-0.462,0.386h-1.005L27.025,34.74z M29.189,37.058
		v0.23v0.154c0,0,0,0.078-0.078,0.078c-0.308,0.386-0.694,0.54-1.159,0.54v-0.619v-0.154c0,0,0-0.23,0.386-0.23
		c0-0.078,0-0.078,0.078-0.157c0.154,0,0.232,0,0.462,0.078h0.232L29.189,37.058z M28.57,40.609c0,0,0,0.076-0.154,0.076h-0.078
		c-0.386-0.076-0.386-0.616-0.54-0.927c0-0.23,0.154-0.538,0.54-0.616h0.078c0,0,0-0.386,0.154-0.386l0.078,0.386v0.078
		c0.308,0,0.462,0,0.462,0.076c0.078,0,0.078,0.078,0.078,0.232c0,0.076,0,0.154-0.078,0.23
		C29.032,40.144,28.648,40.376,28.57,40.609z M44.009,36.901c0,0.773-0.154,1.545-0.386,2.318c-0.386,1.389-0.924,2.778-1.235,4.245
		c0,0.154,0,0.308-0.076,0.54h-0.154v0.154c-0.619,0-1.237,0.078-1.778,0.078c-1.543,0.076-3.01,0.154-4.477,0.154
		c-1.389-0.078-2.778-0.154-4.245-0.386h-0.154c-0.54,0-1.005-0.154-1.391-0.308c-0.308-0.232-0.54-0.465-0.77-0.851
		c-0.154-0.076-0.154-0.54-0.154-0.54v-0.308l0.23-0.076c0.308-0.311,0.308-0.465,0.619-0.465v-0.308v-0.078v-0.154h0.076
		c0.465-0.232,0.697,0,1.005,0c0,0,0.076,0,0.076-0.232c0-0.386-0.076-0.616-0.384-0.927h-0.232c0,0,0-0.23-0.465-0.23h-0.076V39.22
		v-0.465h0.076c0.154,0,0.54,0,0.697-0.078h0.848h0.308v0.078c0.232,0,0.462,0.465,0.848,0.465h0.386c0,0,0-0.078,0.078-0.465
		c0-0.078,0.232-0.078,0.232-0.308c0-0.386,0.54-0.386,0.77-0.54v-0.848c0,0,0-0.157-0.23-0.157v-0.23
		c0.616-0.311,1.311-0.54,1.851-0.927c0.386-0.311,0.694-0.619,0.773-1.081c0-0.232,0.308-0.232,0.308-0.386h0.078
		c0.694,0,1.467,0.386,2.316,0.462c0.308,0.078,0.616,0.154,1.003,0.232c0.694,0.154,1.391,0.154,2.008,0.232
		c0.465,0.076,0.849,0.154,1.235,0.308c0.154,0,0.232,0.078,0.386,0.078l0.54,0.154C44.55,35.899,44.009,36.439,44.009,36.901z
		 M44.55,31.268h-0.462v-0.232c0-0.078,0.462-0.078,0.462-0.308v-0.078c0.078-0.154,0.311-0.232,0.465-0.232
		c0.23-0.076,0.386-0.076,0.386-0.076h0.154h0.308c0,0,0.076,0.308,0.076,0.386c0,0.076-0.076,0.076-0.076,0.076
		c-0.308,0.154-0.462,0.232-0.462,0.465c0,0.076-0.157,0.076-0.386,0.076C44.86,31.422,44.628,31.343,44.55,31.268z M45.863,33.351
		c-0.308-0.232-0.462-0.54-0.54-1.081v-0.078c0.078,0,0.078-0.23,0.232-0.23h0.308h0.076c0.311,0,0.386,0.308,0.386,0.848v0.386
		c0,0.308,0,0.308-0.076,0.308h-0.232h-0.078C45.939,33.429,45.863,33.429,45.863,33.351z M47.406,49.717v0.154
		c1.235,1.391,0.773,3.321,0,4.788v0.076H47.02v-0.076c-0.77-1.545-0.694-3.629-0.694-5.404v-0.232h0.078h0.232
		C46.944,49.255,47.33,49.485,47.406,49.717z M48.797,37.058c-0.386,1.078-0.851,2.005-1.391,2.856
		c-0.308,0.54-0.694,1.003-1.081,1.465l-0.076,0.078c0,0,0-0.078-0.232-0.078c0-1.311,0.773-2.624,1.003-3.937
		c0.078-0.23,0.232-0.384,0.386-0.462c0.078-0.078,0.157-0.078,0.311-0.078h0.076h0.386h0.078h0.54V37.058z M49.646,35.05
		c-0.078,0.076-0.154,0.154-0.154,0.154l-0.078,0.076h-0.154l-0.232-0.23h-0.23c0-0.311-0.54-0.773-0.54-1.005v-0.23v-0.157
		c0.616-0.154,0.848-0.308,1.235-0.462h0.386h0.154C49.878,33.816,49.878,34.664,49.646,35.05z M49.492,31.343
		c-0.311,0-0.54,0.078-0.694,0.308c-0.157,0.157-0.54,0.157-0.54,0.311v0.23h0.384l0.157,0.078h0.23c0.078,0,0.078,0.54,0,0.54
		c0,0.078-0.23,0.078-0.23,0.078c-0.54,0-0.619,0-1.235-0.078c-0.157,0-0.157,0-0.157-0.54v-0.848
		c0.157-0.465,0.773-1.081,1.235-1.081h0.157c0,0,0.23-0.311,0.23-0.773h0.078v-0.154c0.154,0,0.232,0,0.386,0.076
		c0.076,0.078,0.23,0.157,0.386,0.386h0.23c0.311-0.308,0.54-0.462,0.927-0.462h0.078h0.386v1.621v0.232
		C50.802,31.497,50.032,31.268,49.492,31.343z M53.815,35.513c-0.386,0.078-0.773,0.078-1.159,0.078h-1.157
		c0-0.851,0.154-1.545,0.23-2.394h0.311c0.23,0,0.23-0.308,0.616-0.308h0.078h0.232h0.152v0.308h0.619c0,0.076,0,0.154,0.078,0.232
		c0,0.154,0.154,0.23,0.308,0.23c0.386,0,0.619-0.154,1.003-0.154l0.078,0.154c0.308,0.157,0.308,0.386,0.308,0.386
		s0.232,0.154,0.465,0.311c0.076,0,0.076,0.076,0.154,0.076h0.076l0.311-0.154c0-0.232,0.076-0.462,0.616-0.619l0.232-0.154h0.386
		v0.154c0.154,0.157,0.232,0.386,0.232,0.619v0.154c-0.619,0.386-1.313,0.619-2.008,0.773c-0.232,0.076-0.465,0.154-0.773,0.154
		C54.742,35.434,54.277,35.513,53.815,35.513z M56.206,38.677c0,0.078-0.154,0.078-0.23,0.078h-0.078h-0.694h-0.078h-0.384v-0.078
		c0-0.308,0.23-0.616,0.462-0.694c0.078-0.076,0.232-0.076,0.308-0.076h0.232h0.154h0.078c0,0.154,0.076,0.386,0.23,0.386V38.677z
		 M59.759,36.901v0.157h-0.232v0.23c0,0.154,0,0.619-0.232,0.773c0,0,0,0.232-0.308,0.386c0,0-0.154,0.23-0.232,0.23h-0.232
		c0,0-0.154,0-0.154-0.23c-0.076-0.154-0.076-0.386-0.384-0.386v-0.154h-0.232c0,0,0-0.232-0.386-0.232v-0.386v-0.23
		c0,0-0.773,0.23-0.773,0c-0.308,0-0.462-0.078-0.616-0.157c-0.078-0.076-0.157-0.154-0.232-0.23c0-0.232,0.154-0.232,0.154-0.386
		h0.078c0.54-0.386,1.389-0.386,1.775-0.386h0.154h0.078v0.232c0.308,0,0.308,0.154,0.384,0.154c0.154,0,0.386,0,0.465-0.154h0.694
		h0.078C59.759,36.439,59.835,36.672,59.759,36.901z M60.686,27.715c-0.311,0-0.311,0-0.311,0.311h-0.848h-0.232
		c0,0.308-0.308,0.308-0.462,0.54l-0.078-0.232c-0.232-0.619-0.386-1.005-0.386-1.235c0.154,0,0.154-0.311,0.386-0.311
		c0-0.076,0.078-0.076,0.078-0.076c0.232,0.076,0.462,0.076,0.694,0.076h0.619h0.076c0.154,0.389,0.154,0.389,0.465,0.54V27.715z
		 M63.31,25.785v-0.308c0-0.308,0-0.308,0.154-0.54h0.386h0.154l0.386,0.232v0.308c0,0.232-0.308,0.462-0.54,0.54
		c-0.078,0.076-0.154,0.076-0.154,0.076H63.31V25.785z M65.393,27.177v0.151v0.078c0,0.232,0,0.232-0.154,0.308h-0.386
		c-0.384,0-0.694,0.078-1.003,0.157c-0.54,0.076-0.927,0.23-1.389,0.462c-0.311,0-0.54,0-0.694-0.308h-0.311
		c-0.232-0.386,0-0.848,0.465-0.927c0-0.311,0.54-0.311,0.616-0.386l0.232,0.076l0.154,0.311c0.078,0.078,0.078,0.078,0.232,0.23
		h0.154h0.54h0.154h0.308c0.078-0.151,0.078-0.54,0.54-0.54h0.386h0.154V27.177z M66.244,12.74h-0.311h-0.54l-0.154-0.157v-0.154
		v-0.076c0.154-0.154,0.154-0.311,0.386-0.465c0.078,0,0.154-0.076,0.308-0.154h0.078h0.232h0.23c0,0.154,0,0.154,0.157,0.154
		C66.474,12.199,66.474,12.429,66.244,12.74z M68.714,35.591c0.154-0.311,0.386-0.54,0.54-0.54h0.232c0,0,0.384,0.23,0.384,0.54
		c0,0.154-0.384,0.308-0.616,0.694v0.386h-0.078v-0.386c-0.308,0-0.462-0.386-0.462-0.386
		C68.714,35.745,68.636,35.745,68.714,35.591z M71.724,30.727c-0.154,0.23-0.386,0.23-0.386,0.23H71.03h-0.462h-0.232v-0.616
		c0.232-0.232,0.386-0.311,0.694-0.694l0.078-0.078c0,0,0.23,0,0.23-0.154c0,0,0,0.154,0.232,0.154
		c0.154,0.462,0.154,0.773,0.154,1.081V30.727z M75.353,15.596c-0.232,0.308-0.308,0.616-0.308,0.616h-0.232
		c-0.154-0.076-0.462-0.154-0.694-0.308v-0.308c0.232-0.232,0.308-0.386,0.694-0.386c0.078,0,0.078-0.078,0.078-0.078
		c0.154,0,0.154-0.308,0.154-0.308h0.076l0.232,0.308l0.154,0.078v0.154C75.507,15.596,75.353,15.596,75.353,15.596z M77.36,30.957
		v0.311h-0.232c-0.154-0.154-0.386-0.232-0.616-0.311c-0.232-0.076-0.54-0.076-0.773-0.23v-0.078c0-0.308-0.232-0.308-0.232-0.308
		h0.232V30.03h0.462h0.311h0.23c0.386,0,0.386,0.311,0.619,0.311C77.36,30.727,77.669,30.957,77.36,30.957z M78.595,16.831h-0.232
		v0.076l-0.308,0.311c-0.154,0-0.232-0.078-0.308-0.232c-0.154-0.078-0.232-0.154-0.386-0.154c-0.232-0.232-0.232-0.232-0.54-0.619
		v-0.308h0.154h0.154c0.232,0,0.386,0,0.619,0.154c0.23,0.078,0.386,0.308,0.616,0.54h0.232V16.831z M83.459,32.811
		c-0.154,0-0.462,0.154-0.694,0.232c-0.078,0.076-0.232,0.154-0.308,0.154h-0.154c-0.078-0.308-0.311-0.386-0.078-1.005
		c0.078-0.23,0.232-0.23,0.386-0.23h0.154c0.232,0,0.462,0.076,0.462,0.23c0.232,0,0.232,0,0.232,0.078V32.811z"/>
	<g>
		<path fill="#FFFFFF" d="M108.474,22.118h8.131v0.611h-1.942l3.385,12.709h0.055l2.636-9.074l-0.944-3.635h-1.387v-0.611h8.325
			v0.611h-2.081l3.219,12.709h0.055l3.746-12.709h-2.303v-0.611h3.941v0.611h-0.944l-5.384,18.592h-2.22l-3.663-13.68h-0.055
			l-3.996,13.68h-2.192l-5.023-18.592h-1.36V22.118z"/>
		<path fill="#FFFFFF" d="M133.257,41.321V40.71h1.387l6.604-18.814h3.136l6.105,18.814h1.193v0.611h-8.603V40.71h2.303
			l-2.137-7.048h-5.355l-2.47,7.048h2.387v0.611H133.257z M138.113,33.052h4.94l-2.331-7.576h-0.055L138.113,33.052z"/>
		<path fill="#FFFFFF" d="M167.251,28.029h-0.944c-1.47-4.162-1.859-5.744-4.551-5.744s-4.273,1.054-4.273,2.886
			c0,4.44,11.044,2.72,11.044,9.601c0,4.273-2.775,6.993-7.603,6.993c-2.109,0-3.968-0.638-5.994-1.832v-5.827h0.944
			c1.831,5.827,2.164,7.048,5.689,7.048c1.97,0,4.19-1.221,4.19-3.385c0-4.606-11.044-2.886-11.044-9.99
			c0-3.496,2.636-6.105,6.993-6.105c1.915,0,3.857,0.388,5.55,1.082V28.029z"/>
		<path fill="#FFFFFF" d="M185.456,28.029h-0.944c-1.47-4.162-1.859-5.744-4.551-5.744c-2.692,0-4.273,1.054-4.273,2.886
			c0,4.44,11.044,2.72,11.044,9.601c0,4.273-2.775,6.993-7.603,6.993c-2.109,0-3.968-0.638-5.994-1.832v-5.827h0.944
			c1.831,5.827,2.164,7.048,5.689,7.048c1.97,0,4.19-1.221,4.19-3.385c0-4.606-11.044-2.886-11.044-9.99
			c0-3.496,2.636-6.105,6.993-6.105c1.915,0,3.857,0.388,5.55,1.082V28.029z"/>
		<path fill="#FFFFFF" d="M192.228,22.729h-1.304v-0.611h14.902v6.105h-0.944c-1.332-4.523-1.693-5.494-3.302-5.494h-4.301v8.269
			h1.554c1.388,0,1.749-0.333,2.581-3.829h0.611v8.269h-0.611c-0.832-3.496-1.193-3.829-2.581-3.829h-1.554v9.102h4.273
			c1.665,0,2.248-2.109,3.33-6.549h0.944v7.159h-15.041V40.71h1.443V22.729z"/>
		<path fill="#FFFFFF" d="M210.378,41.321V40.71h1.443V22.729h-1.443v-0.611h9.352c4.579,0,6.993,1.387,6.993,4.634
			c0,2.886-2.192,4.384-4.912,4.412l5.134,9.546h1.137v0.611h-6.327l-4.828-9.768h-0.055v9.157h1.803v0.611H210.378z
			 M216.871,31.109h0.444c3.58,0,4.357-1.082,4.357-4.19c0-3.108-0.944-4.19-3.164-4.19h-1.637V31.109z"/>
		<path fill="#FFFFFF" d="M244.206,28.029h-0.944c-1.47-4.162-1.859-5.744-4.551-5.744s-4.273,1.054-4.273,2.886
			c0,4.44,11.044,2.72,11.044,9.601c0,4.273-2.775,6.993-7.603,6.993c-2.109,0-3.968-0.638-5.994-1.832v-5.827h0.944
			c1.831,5.827,2.164,7.048,5.689,7.048c1.97,0,4.19-1.221,4.19-3.385c0-4.606-11.044-2.886-11.044-9.99
			c0-3.496,2.636-6.105,6.993-6.105c1.915,0,3.857,0.388,5.55,1.082V28.029z"/>
		<path fill="#FFFFFF" d="M252.643,41.321V40.71h1.443V22.729h-0.888c-2.248,0-2.692,3.663-3.219,5.578h-0.944v-6.188h15.151v6.188
			h-0.944c-0.527-1.915-0.971-5.578-3.246-5.578h-0.86V40.71h1.443v0.611H252.643z"/>
		<path fill="#FFFFFF" d="M269.183,22.729h-1.304v-0.611h14.902v6.105h-0.944c-1.332-4.523-1.693-5.494-3.302-5.494h-4.301v8.269
			h1.554c1.388,0,1.749-0.333,2.581-3.829h0.611v8.269h-0.611c-0.832-3.496-1.193-3.829-2.581-3.829h-1.554v9.102h4.273
			c1.665,0,2.248-2.109,3.33-6.549h0.944v7.159H267.74V40.71h1.443V22.729z"/>
		<path fill="#FFFFFF" d="M295.712,41.321h-7.936V40.71h1.443V22.729h-1.443v-0.611h7.936v0.611h-1.443V40.71h1.443V41.321z"/>
		<path fill="#FFFFFF" d="M304.677,41.321h-4.773V40.71h1.443V22.729h-1.443v-0.611h7.187l7.021,13.153h0.055V22.729h-2.081v-0.611
			h4.496v0.611h-1.637v18.592h-3.163l-9.602-18.315h-0.055V40.71h2.553V41.321z"/>
		<path fill="#FFFFFF" d="M342.099,30.832v0.611h-1.859c-0.139,1.831-0.444,3.635-1.36,5.245l2.997,4.024h1.193v0.611h-6.105
			l-0.971-1.304c-1.526,1.138-3.469,1.748-5.411,1.748c-4.412,0-6.743-2.276-6.743-5.3c0-3.219,2.969-4.995,5.106-5.911
			c-0.721-1.054-1.609-2.72-1.609-4.107c0-3.108,2.775-4.773,5.605-4.773c2.081,0,4.828,1.054,4.828,3.524
			c0,2.303-2.331,3.469-4.218,4.246l4.884,6.632c0.722-1.443,0.971-3.025,1.027-4.634h-2.442v-0.611H342.099z M329.334,31.081
			c-1.388,0.722-1.609,1.609-1.609,2.969c0,2.886,2.081,6.549,4.828,6.549c1.11,0,2.192-0.472,3.025-1.138L329.334,31.081z
			 M330.721,24.227c0,1.554,1.471,3.219,2.442,4.69c1.026-0.499,1.498-1.276,1.498-3.247c0-1.36-0.306-3.385-2.026-3.385
			C331.443,22.285,330.721,23.062,330.721,24.227z"/>
		<path fill="#FFFFFF" d="M364.314,28.251h-0.944c-1.749-4.218-1.998-5.966-4.468-5.966c-2.803,0-3.635,1.887-3.635,9.435
			c0,7.548,0.832,9.435,3.635,9.435c3.219,0,3.358-2.137,4.856-6.715h0.944v5.994c-1.942,0.86-3.94,1.332-5.966,1.332
			c-5.883,0-9.185-4.551-9.185-10.045s3.302-10.045,9.185-10.045c1.831,0,3.663,0.416,5.578,0.943V28.251z"/>
		<path fill="#FFFFFF" d="M386.875,31.72c0,5.328-3.08,10.045-8.852,10.045c-5.772,0-8.852-4.718-8.852-10.045
			s3.08-10.045,8.852-10.045C383.795,21.674,386.875,26.392,386.875,31.72z M378.023,22.285c-2.526,0-3.136,2.192-3.136,9.435
			s0.61,9.435,3.136,9.435c2.525,0,3.135-2.192,3.135-9.435S380.548,22.285,378.023,22.285z"/>
		<path fill="#FFFFFF" d="M393.009,39.545c0,1.249-0.971,2.22-2.22,2.22c-1.221,0-2.22-0.971-2.22-2.22s0.999-2.22,2.22-2.22
			C392.038,37.325,393.009,38.296,393.009,39.545z"/>
	</g>
	<g>
		<path fill="#FFFFFF" d="M125.237,57.467l-3.694,10.22h-0.932l-2.474-6.849l-2.492,6.849h-0.932l-3.747-10.255l-1.058-0.215v-0.717
			h4.769v0.717l-1.434,0.215l2.51,7.1l1.829-5.199l-0.681-1.9l-1.058-0.215v-0.717h4.787v0.717l-1.434,0.215v0.071l2.438,6.993
			l2.492-7.028l-1.434-0.251v-0.717h3.604v0.717L125.237,57.467z"/>
		<path fill="#FFFFFF" d="M133.699,67.543v-0.717l1.38-0.215l-0.932-2.403h-3.945l-0.896,2.366l1.345,0.251v0.717h-3.675v-0.717
			l1.183-0.251l4.016-10.076h1.13l4.052,10.112l1.147,0.215v0.717H133.699z M132.175,59.081l-1.614,4.195h3.227L132.175,59.081z"/>
		<path fill="#FFFFFF" d="M145.318,67.83c-1.04,0-1.847-0.126-2.761-0.592l-0.215,0.592h-0.789l-0.107-3.873l0.789-0.054
			l0.377,1.721c0.574,0.735,1.47,1.237,2.438,1.237c1.219,0,2.169-0.717,2.169-1.865c0-1.04-0.663-1.434-2.707-2.402
			c-1.775-0.843-2.833-1.632-2.833-3.461c0-1.865,1.56-2.922,3.424-2.922c0.897,0,1.668,0.143,2.474,0.502l0.215-0.502h0.789
			l-0.09,3.46h-0.789l-0.305-1.578c-0.502-0.699-1.273-0.95-2.133-0.95c-0.968,0-1.793,0.555-1.793,1.524s0.466,1.309,2.618,2.331
			c1.793,0.861,3.012,1.596,3.012,3.46C149.101,66.539,147.398,67.83,145.318,67.83z"/>
		<path fill="#FFFFFF" d="M156.793,67.83c-1.04,0-1.847-0.126-2.761-0.592l-0.215,0.592h-0.789l-0.108-3.873l0.789-0.054
			l0.376,1.721c0.574,0.735,1.47,1.237,2.438,1.237c1.219,0,2.169-0.717,2.169-1.865c0-1.04-0.663-1.434-2.707-2.402
			c-1.775-0.843-2.833-1.632-2.833-3.461c0-1.865,1.56-2.922,3.425-2.922c0.896,0,1.667,0.143,2.474,0.502l0.215-0.502h0.789
			l-0.09,3.46h-0.789l-0.305-1.578c-0.502-0.699-1.273-0.95-2.134-0.95c-0.968,0-1.793,0.555-1.793,1.524s0.466,1.309,2.618,2.331
			c1.793,0.861,3.012,1.596,3.012,3.46C160.576,66.539,158.873,67.83,156.793,67.83z"/>
		<path fill="#FFFFFF" d="M164.18,67.543v-0.717l1.399-0.215v-9.18l-1.399-0.215v-0.717h8.535v2.725h-0.897l-0.251-1.793h-3.873
			v3.926h2.635l0.179-1.237h0.789v3.407h-0.789l-0.179-1.237h-2.635v4.285h4.106l0.251-1.936h0.932v2.904H164.18z"/>
		<path fill="#FFFFFF" d="M184.243,67.543l-2.923-4.661l-1.219,0.107v3.622l1.434,0.215v0.717h-4.949v-0.717l1.399-0.215v-9.18
			l-1.399-0.215v-0.717h4.931c2.044,0,3.98,0.789,3.98,2.833c0,1.434-0.861,2.564-2.223,3.048l2.833,4.177l1.237,0.269v0.717
			H184.243z M181.034,57.324c-0.323,0-0.627,0.018-0.932,0.071v4.662h0.663c1.65,0,2.582-0.878,2.582-2.528
			C183.347,58.094,182.468,57.324,181.034,57.324z"/>
		<path fill="#FFFFFF" d="M194.123,67.83c-1.04,0-1.847-0.126-2.761-0.592l-0.215,0.592h-0.789l-0.108-3.873l0.789-0.054
			l0.376,1.721c0.574,0.735,1.47,1.237,2.438,1.237c1.219,0,2.169-0.717,2.169-1.865c0-1.04-0.663-1.434-2.707-2.402
			c-1.775-0.843-2.833-1.632-2.833-3.461c0-1.865,1.56-2.922,3.425-2.922c0.896,0,1.667,0.143,2.474,0.502l0.215-0.502h0.789
			l-0.09,3.46h-0.789l-0.305-1.578c-0.502-0.699-1.273-0.95-2.134-0.95c-0.968,0-1.793,0.555-1.793,1.524s0.466,1.309,2.618,2.331
			c1.793,0.861,3.012,1.596,3.012,3.46C197.906,66.539,196.203,67.83,194.123,67.83z"/>
		<path fill="#FFFFFF" d="M211.047,59.582h-0.932l-0.251-2.151h-2.779v9.18l1.398,0.215v0.717h-4.913v-0.717l1.399-0.215v-9.18
			h-2.779l-0.251,2.151h-0.933v-3.084h10.04V59.582z"/>
		<path fill="#FFFFFF" d="M214.203,67.543v-0.717l1.399-0.215v-9.18l-1.399-0.215v-0.717h8.534v2.725h-0.896l-0.251-1.793h-3.873
			v3.926h2.636l0.179-1.237h0.789v3.407h-0.789l-0.179-1.237h-2.636v4.285h4.106l0.251-1.936h0.932v2.904H214.203z"/>
		<path fill="#FFFFFF" d="M226.628,67.543v-0.717l1.399-0.215v-9.18l-1.399-0.215v-0.717h4.93v0.717l-1.398,0.215v9.18l1.398,0.215
			v0.717H226.628z"/>
		<path fill="#FFFFFF" d="M245.419,57.503v10.112h-1.076l-6.849-8.391v7.315l1.399,0.287v0.717h-3.873v-0.717l1.399-0.287v-8.606
			l-0.448-0.556l-0.95-0.161v-0.717h2.959l6.365,7.799v-6.795l-1.399-0.287v-0.717h3.873v0.717L245.419,57.503z"/>
		<path fill="#FFFFFF" d="M260.497,63.258c-0.161,0-0.574-0.018-0.753-0.036v3.389l1.578,0.215v0.717h-5.092v-0.717l1.398-0.215
			v-9.18l-1.398-0.215v-0.717h4.93c2.295,0,3.998,1.112,3.998,2.976C265.159,61.698,263.563,63.258,260.497,63.258z M260.677,57.324
			c-0.359,0-0.609,0.018-0.933,0.071v4.984c0.287,0.018,0.61,0.036,0.789,0.036c1.667,0,2.474-1.183,2.474-2.833
			C263.008,58.22,262.039,57.324,260.677,57.324z"/>
		<path fill="#FFFFFF" d="M273.531,67.543v-0.717l1.381-0.215l-0.933-2.403h-3.944l-0.896,2.366l1.345,0.251v0.717h-3.676v-0.717
			l1.184-0.251l4.016-10.076h1.129l4.052,10.112l1.147,0.215v0.717H273.531z M272.008,59.081l-1.614,4.195h3.228L272.008,59.081z"/>
		<path fill="#FFFFFF" d="M288.718,67.543l-2.922-4.661l-1.219,0.107v3.622l1.434,0.215v0.717h-4.948v-0.717l1.398-0.215v-9.18
			l-1.398-0.215v-0.717h4.93c2.044,0,3.98,0.789,3.98,2.833c0,1.434-0.861,2.564-2.223,3.048l2.833,4.177l1.237,0.269v0.717H288.718
			z M285.509,57.324c-0.323,0-0.628,0.018-0.933,0.071v4.662h0.664c1.649,0,2.582-0.878,2.582-2.528
			C287.822,58.094,286.943,57.324,285.509,57.324z"/>
		<path fill="#FFFFFF" d="M303.924,59.582h-0.932l-0.251-2.151h-2.779v9.18l1.398,0.215v0.717h-4.913v-0.717l1.399-0.215v-9.18
			h-2.779l-0.251,2.151h-0.933v-3.084h10.04V59.582z"/>
		<path fill="#FFFFFF" d="M317.408,57.503v10.112h-1.076l-6.849-8.391v7.315l1.398,0.287v0.717h-3.873v-0.717l1.399-0.287v-8.606
			l-0.448-0.556l-0.95-0.161v-0.717h2.958l6.365,7.799v-6.795l-1.398-0.287v-0.717h3.872v0.717L317.408,57.503z"/>
		<path fill="#FFFFFF" d="M322.124,67.543v-0.717l1.399-0.215v-9.18l-1.399-0.215v-0.717h8.534v2.725h-0.896l-0.251-1.793h-3.873
			v3.926h2.636l0.179-1.237h0.789v3.407h-0.789l-0.179-1.237h-2.636v4.285h4.106l0.251-1.936h0.932v2.904H322.124z"/>
		<path fill="#FFFFFF" d="M342.187,67.543l-2.922-4.661l-1.219,0.107v3.622l1.434,0.215v0.717h-4.948v-0.717l1.398-0.215v-9.18
			l-1.398-0.215v-0.717h4.93c2.044,0,3.98,0.789,3.98,2.833c0,1.434-0.861,2.564-2.223,3.048l2.833,4.177l1.237,0.269v0.717H342.187
			z M338.978,57.324c-0.323,0-0.628,0.018-0.933,0.071v4.662h0.664c1.649,0,2.582-0.878,2.582-2.528
			C341.29,58.094,340.412,57.324,338.978,57.324z"/>
		<path fill="#FFFFFF" d="M352.066,67.83c-1.04,0-1.847-0.126-2.761-0.592l-0.215,0.592h-0.789l-0.108-3.873l0.789-0.054
			l0.376,1.721c0.574,0.735,1.471,1.237,2.438,1.237c1.219,0,2.17-0.717,2.17-1.865c0-1.04-0.664-1.434-2.707-2.402
			c-1.775-0.843-2.833-1.632-2.833-3.461c0-1.865,1.56-2.922,3.425-2.922c0.896,0,1.667,0.143,2.474,0.502l0.215-0.502h0.789
			l-0.09,3.46h-0.789l-0.305-1.578c-0.502-0.699-1.273-0.95-2.134-0.95c-0.968,0-1.793,0.555-1.793,1.524s0.466,1.309,2.618,2.331
			c1.793,0.861,3.012,1.596,3.012,3.46C355.85,66.539,354.146,67.83,352.066,67.83z"/>
	</g>
</g>
</svg>
