<?xml version="1.0" encoding="utf-8"?>
<!-- Generator: Adobe Illustrator 18.1.0, SVG Export Plug-In . SVG Version: 6.00 Build 0)  -->
<!DOCTYPE svg PUBLIC "-//W3C//DTD SVG 1.1//EN" "http://www.w3.org/Graphics/SVG/1.1/DTD/svg11.dtd">
<svg version="1.1" id="Layer_1" xmlns="http://www.w3.org/2000/svg" xmlns:xlink="http://www.w3.org/1999/xlink" x="0px" y="0px"
	 width="393px" height="80.8px" viewBox="-414 356.2 393 80.8" enable-background="new -414 356.2 393 80.8" xml:space="preserve">
<g>
	<rect x="-304.2" y="404" fill="#FFFFFF" width="282.8" height="2.3"/>
	<path fill="#FFFFFF" d="M-319.3,383.3c-0.2-0.3-0.4-0.4-0.5-0.5c-0.8-0.8-1.6-0.5-2.4-0.8c-0.1,0-0.2-0.1-0.2-0.1h-0.2
		c0-0.6,0.2-0.6,0.2-0.8c-0.2-0.5-0.8-0.5-1.1-0.5h-1.1v-0.1v-0.4c0,0,0-0.2,0.3-0.2c0-0.1,0.1-0.1,0.5-0.2v-0.9h-0.5
		c-0.3-0.3-0.5-0.3-0.5-0.4c0-0.4-0.4-0.4-0.4-0.4v-0.1l0.4-0.2c0.2-0.3,0.9,0,1.3-0.3v-0.2v-0.2c-0.1-0.2-0.4-0.2-0.4-0.6
		c-0.4-0.2-0.4-0.6,0-0.7v-0.3c0-0.2,0.4-0.3,0.3-0.7h-0.3c-0.5-0.4-0.8-0.4-0.9,0h-0.4h-0.5v-0.4v-1c0-0.3,0-0.4-0.5-0.4
		c0,0-0.4-0.2-0.7-0.2c-0.7,0.2-1.7,0-2.5,0.2c-0.2,0-0.6,0.1-0.6,0.1c-0.4,0-0.4-0.1-0.4-0.1h-0.2v-0.2c-0.2-0.2-0.4-0.2-0.8-0.2
		c-0.5-0.1-1.1-0.1-1.5-0.5c-0.5-0.7-1.5,0-2.6-0.3v-0.2c-0.1,0-0.1-0.2-0.1-0.2v-0.1c0.1-0.3,0.1-0.3,0.1-0.4c0.3,0,0.3,0,0.3-0.2
		v-0.2h-0.3c0-0.2-0.3-0.4-0.7-0.4h-0.2c-0.4,0.1-0.8,0.2-1.2,0.2c-0.5,0-0.9-0.1-1.2-0.2h-0.2c0-0.1-0.1-0.1-0.1-0.3
		c0.1-0.1,0.3-0.3,0.3-0.3l0.4-0.2v-0.2v-0.4c-0.2-0.2-0.4-0.2-0.7-0.2h-0.2v0.2h-0.1c-0.1,0.2-0.4,0.4-0.4,0.4h-0.4
		c-1.2-0.6-1.8,0-2.7,0.2l-0.2-0.2h-0.1c-0.5,0-0.7,0.2-1,0h-0.2V369c0-0.2-0.3-0.2,0-0.2v-0.7c0-0.2-0.4-0.5-0.6-0.5v-0.1l-0.1,0.1
		c-0.5,0.4-1.1,0.4-1.4,0.4h-0.1l-0.4-0.4c-0.2-0.2-0.2-0.2-0.2-0.3v-0.9c0.2-0.2,0.6-0.4,0.6-0.4c0.4-0.2,0.9-0.2,1.2-0.5h0.3v-0.3
		c-0.3-0.1-0.3-0.1-0.3-0.2c-0.2-0.2-0.2-0.2-0.2-0.2c-0.9-0.5-1.8-0.2-2.7,0.2c-0.6,0.2-1.2,0.2-1.9,0.1c0,0,0-0.2-0.2-0.2h-0.1
		c-0.3-0.2-0.5-0.5-0.8-0.2v0.2l-0.4,0.6c0,0.1,0,0.1-0.1,0.1c-0.3,0.5-0.7,0.5-1.2,0.8h-0.1c-0.4-0.2-1.1,0-1.6-0.2
		c-0.1-0.1-0.2-0.1-0.2-0.2c-0.3,0-0.3-0.2-0.5-0.5c-0.1-0.1-0.5-0.1-0.5-0.3c-0.3-0.1-0.3-0.1-0.3-0.2v-0.2
		c0.3-0.2,0.8-0.2,0.8-0.5l0.1-0.2v-0.2h-0.1c-0.4-0.3-1-0.3-1.4-0.3l-0.2-0.3c-0.5,0-0.5-0.1-0.5-0.1v-1.1
		c-0.1-0.3-0.4-0.3-0.4-0.5h-0.2h-0.5c0,0.1-0.2,0.2-0.3,0.3v0.2c-0.4,0-0.2,0.3,0,0.5c0.1,0.1,0.2,0.2,0.3,0.2v0.3
		c-0.2,0-0.2,0.1-0.3,0.1h-0.5h-0.6h-0.2c0,0-0.1,0-0.1,0.1c-0.2,0-0.4,0.1-0.4,0.3h-0.2c-0.2-0.2-0.4-0.2-0.6-0.3h-0.4h-0.2v-0.1
		h-0.2c0.2-0.4,0.2-0.5,0.5-0.5c0.2-0.2,0.3-0.2,0.4-0.3c0.4-0.2,0.8-0.3,0.8-0.5v-0.3l-0.1-0.2c-0.2-0.1-0.5-0.1-0.7-0.1
		c-0.8,0.1-1.5,0.9-2.8,0.6c-0.2,0.2-0.3,0.3-0.4,0.2c-0.2,0-0.2-0.1-0.4-0.2c0-0.2-0.5-0.3-0.8-0.3h-0.1c0,0,0,0.2-0.5,0.2v-0.2
		c-0.1,0.1-0.2,0.2-0.3,0.2c-0.2,0.1-0.6,0.1-1,0.1l-0.1,0.3c-0.3,0-0.3,0-0.3,0.5h-0.1v0.2v0.3h-0.1h-0.3v0.1h-0.2v0.4
		c0,0,0,0.3-0.1,0.3h-0.3c0,0.1-0.1,0-0.2,0c-0.2,0-0.3,0-0.8-0.3c-0.1,0-0.1,0-0.1-0.3c0-0.1,0.1-0.1,0.5-0.5v-0.2
		c-0.4-0.5-0.7-0.5-0.9-0.8c0,0-0.1-0.1-0.1-0.2v-0.2v-0.2h0.1h0.9c0,0,0.1-0.2,0.3-0.3v-0.2c0.1-0.1,0.2-0.1,0.2-0.2
		c0.3-0.2,0.5-0.3,0.8-0.4h0.2h0.3v-0.4v-0.1v-0.3c0,0-0.3,0-0.3-0.1c-0.1-0.1-0.1-0.1-0.2-0.1c-0.3-0.2-0.5-0.2-0.8-0.2
		c-0.3,0-0.6,0-0.9-0.3c0,0,0-0.1-0.1-0.1h-0.4h-0.1c-0.3,0.3-0.7,0.3-1.2,0.3c-0.5,0-1.2-0.1-1.9,0.3c0,0-0.1,0.1-0.2,0.2
		c-0.1,0.1-0.1,0.1-0.1,0.2v0.5l-0.4,0.2c-0.4-0.2-0.5-0.9-1-1.4c0-0.2-0.5-0.2-0.5-0.5h-0.8v0.2l-0.5,0.2h-0.1
		c-0.3,0.5-0.7,0.5-1.1,0.5c-0.2,0-0.5-0.1-0.7-0.1c-0.4,0-0.4-0.4-0.4-0.4v-0.2v-0.3c0.4,0,0.4-0.4,0-0.5h-0.5
		c-0.4,0-0.5,0.2-0.8,0.5l-0.7,0.3c0,0,0,0.2-0.2,0.2c-0.2-0.2-0.2-0.2-0.2-0.2c0-0.1-0.2-0.1-0.2-0.1l-0.2-0.2v-0.5v-0.4h-0.3h-1.5
		h-0.1v-0.2c-0.3-0.2-0.3-0.2-0.6-0.5v-0.5l-0.1-0.3l-0.2-0.1h-0.1l-0.5,0.1c-0.6,0-0.9,0.8-1.5,1h-0.4c-0.4,0.2-0.9,0-1.4-0.1h-0.6
		c-0.1,0-0.1,0.1-0.2,0.1c-0.4,0-0.4,0-0.7,0.2l-0.1,0.2v0.9c0,0.1-0.1,0.2-0.1,0.2c-0.1,0.2-0.2,0.2-0.2,0.3h-0.3
		c-0.3,0-0.8,0-0.8,0.5c-0.2,0-0.2,0.4-0.4,0.8h-0.4h-0.1c-0.8-0.4-1.4-0.4-1.8-0.9c-0.5-0.4-0.8,0.1-1.1,0.1l-0.2,0.3h-0.2
		c0,0.6,0.4,1,0.5,1.3l0.2,0.2c0.6,0,1.2,0.2,1.9,0.4c0.4,0.2,0.5,0.2,0.8,0.5v0.5c0,0-0.3,0-0.3,0.2c-0.5,0-0.7,0-1.1,0.3
		c-1,0.1-1.5-1.3-2.6-1c-0.2-0.2-0.5-0.4-0.8-0.5h-0.2c-0.2-0.2-0.6-0.2-0.8,0v0.5v0.5c0.2,0.2,0.5,0.2,0.7,0.5v0.1v0.1h-0.2h-1
		c-0.5,0.3-0.6,0.3-1.2,0.6v0.4l0.3,0.5v0.2v0.1c-0.3,0-0.3,0.1-0.3,0.1h-0.6c-0.4-0.1-0.8-0.2-1.5-0.1v0.1v0.2
		c-0.2,0.1-0.2,0.1-0.2,0.3c0,0,0,0.1,0.2,0.1v0.2c0,0,0.3,0,0.9,0.2c0.2,0.2,0.5,0.2,0.5,0.2c0.2,0.3,0.2,0.3,0.2,0.4
		c0,0.5-0.2,0.5-0.2,0.6c0.2,0,0.2,0,0.2,0.2c0.2,0,0.2,0,0.2,0.4h0.2c0.3,0.2,0.3,0.2,0.3,0.3c0.3,0,0.3,0,0.3,0.3
		c0,0-0.3,0-0.3,0.2h-0.9c-0.2,0.1-0.5,0.2-0.5,0.4h-0.6c0,0.2-0.2,0.2-0.2,0.2c-0.1,0.5-0.8,0.2-1.4,0.2c0,0-0.2,0-0.2-0.2
		c-0.4-0.2-0.7-0.2-1.1-0.5l-0.1-0.1c-0.2-0.1-0.5-0.1-0.5,0.1v0.2c-0.3,0-0.3,0.2-0.3,0.2h-0.5c-0.1,0.2-0.7,0-1.1,0.2
		c-0.2,0.2-0.2,0.5-0.2,0.8c-0.3,0-0.3,0.2-0.3,0.2c-0.3,0.4-1.6,0.3-2.1,0.7c0,0,0,0.1-0.2,0.1v0.2c0.2,0.2,0.5,0.5,0.5,0.5h1.7
		c0.5,0.3,0.9,0,1.5,0.3h0.1c-0.1,0-0.1,0.4-0.1,0.5l-1,0.2v0.4v0.2v0.5h2.2v0.3v0.4h-0.4c-0.3,0-0.8,0-0.8,0.4
		c-0.2,0-0.6,0.1-0.6,0.1c-0.4,0-1.2,0-1.2,0.2v0.2v0.2l-0.5,0.4h-0.1c0,0-0.3,0-0.3,0.2c-0.2,0-0.5-0.2-0.5-0.2
		c-0.4,0-0.7-0.4-0.8-0.5c-0.3-0.3-0.6-0.3-1.2,0c-0.1,0.1-0.1,0.5-0.2,0.7c-0.2,0.4-0.6,0-1.2,0c-0.2,0-0.9,0-0.9,0.6v0.2
		c0,0,0.1,0,0.1,0.2c0.5,0,0.9,0,1.4,0.3h0.2c0,0,0.4,0.2,0.6,0.2c0.1,0,0.1,0,0.5,0.1c0,0.4-0.4,0.4-0.4,0.4
		c-0.2,0.4-0.5,0.4-0.7,0.6v0.4v0.3h0.2c0.2,0,0.5,0,0.9-0.3c0.2-0.1,0.2-0.6,0.5-0.6h1l0.1,0.6v0.3h0.4c0,0.2,0.3,0.2,0.9,0
		c0,0,0.1,0,0.3,0.2v0.3h0.3v0.4c1-0.4,1.3-1.2,2.1-1.5h0.4v0.4c0,0.2,0.1,0.2,0.1,0.3h0.1h0.7v0.2v0.3c0,0.4-0.3,0.4-0.3,0.4h-0.5
		c0,0.1-0.1,0.1-0.1,0.1v0.1v0.5h0.1h0.3c0.7-0.5,1.6,0,2.2-0.5h0.2l0.1-0.1h0.5c0.4,0,0.4-0.1,0.4-0.1c0.2-0.6,0.2-0.8,0.5-1.2
		c0.2,0,0.5,0.3,0.5,0.3c0.1,0,0.1,0.2,0.1,0.2c0.3,0.3,0.3,0.8,0.3,0.8l-0.3,0.1c-0.1,0.1-0.1,0.1-0.2,0.1v0.4h0.1h0.9
		c1,0,1.5,0,1.7-0.5h0.2h0.2h0.2h0.4h0.2c0,0,0,0.1,0.2,0.1v0.1l-0.2,0.4h-0.2c0,0-0.1,0-0.1,0.2c0,0.6-0.2,0.7,0,0.9
		c0,0.1,0,0.1,0.1,0.2h0.4c0.5-0.2,0.9-0.5,1.5-0.5c1.3,0.2,2.8-0.1,3.9,0.3c0.3,0,0.3,0.2,0.3,0.2c0,0.1-0.3,0.1-0.3,0.3v0.1
		c-0.8,0.4-1.5,0.1-2,0.5c0,0-0.4,0-0.4,0.2v0.1c0.8,0.3,2.1,0,2.4,0.6h0.3v0.3v0.2v0.1h0.2h0.1c0,0.2,0,0.2,0.1,0.2l0.3,0.2v0.5
		v0.2c-0.2,0.2-0.4,0.3-0.5,0.5c-0.1,0.2-0.2,0.2-0.2,0.3h-0.6c-0.5,0.4-0.8,0.3-1.6,0.3c-0.7,0.6-1.7,0.3-2.5,0.3h-0.4
		c0,0.3-0.2,0.3-0.2,0.3c-0.3,0.2,0,0.4,0,0.5l0.1,0.2c0.5,0.2,1.1,0.2,1.4,0.3c0.2,0.5,0.6,0.5,0.6,0.9h-0.2h-0.2v0.3
		c-1.1-0.4-2.1,0-3,0.2c-0.6,0.1-1.2,0.2-1.7-0.2c-0.4-0.3-0.5-0.3-0.5,0l-0.3,0.2v0.4c0,0.2,0.3,0.2,0.3,0.2c0.1,0,0.2,0.2,0.5,0.5
		l0.6,0.3c0,0.2,0.2,0.2,0.5,0.5h0.6l0.2-0.3c0.3-0.2,0.5-0.5,0.8-0.6c0-0.2,0.3-0.2,0.4-0.2c0.4,0.2,0.5,0.3,0.8,0.6h1.1
		c0.2-0.3,0.5-0.4,0.8-0.6v-0.2h0.8c0.4,0,0.4,0,0.5,0.2v0.3c0.2,0.3,0.2,0.3,0.2,0.5h0.5c0.3,0.3,0.6,0,0.6,0
		c0.1,0.1,0.2,0.2,0.2,0.2c0.2,0.2,0.5,0.2,0.5,0.3v0.2c-0.2,0-0.3,0-0.5,0.1c-0.2,0-0.2,0-0.2,0.2v0.5v0.2h0.2h0.1h0.8h0.2
		c0.2,0.1,0.4,0.2,0.6,0.2c0.3,0.2,0.5,0.4,0.5,0.8c0,0.2,0.2,0.2,0.2,0.2c0.2,0,0.2-0.4,0.4-0.4c0.2-0.2,0.3-0.2,0.6,0
		c0,0.2,0.1,0.2,0.1,0.2c0,0.1,0.1,0.2,0.1,0.2v0.2c0.2,0.2,0.2,0.5,0,0.5c0,0,0,0.1-0.1,0.1c-0.2,0.3-0.7,0.3-0.8,0.3l-0.2,0.1
		h-0.7c0,0-0.4-0.1-0.4-0.5h-0.2h-0.2v-0.3v-0.2h-0.9h-0.2v0.2c-0.3,0-0.3,0.2-0.3,0.3c0,0,0.3,0.4,0.3,0.5c-0.3,0-0.3,0.3-0.3,0.3
		v0.2h-0.3c-0.7,0-1.2,0-1.6,0.3c-0.1-0.3-0.5-0.3-0.5-0.3v-0.2v-0.3c0,0-0.2,0-0.2-0.1V395h-0.2c0-0.1,0-0.1-0.2-0.1h-0.4
		c0,0,0,0.1-0.2,0.1h-0.2c0,0-0.2,0-0.5,0.4c-0.2,0-0.8,0.1-1.4,0.4v-0.3h-0.2v-0.1c0-0.4,0.2-0.4,0.2-0.5v-0.4h-0.2v-0.2
		c-0.2,0-0.4-0.1-0.5-0.1c-0.5,0-1.1,0.2-1.6,0.3v0.2v0.2v0.1h-0.1h-1.5c-0.1-0.1-0.2-0.1-0.2-0.2c-0.1-0.1-0.2-0.2-0.4-0.3
		c-0.2-0.2-0.8-0.2-1.1,0v0.2v0.2v0.1l0.1,0.4v0.1v0.3l-0.1,0.2c-0.8,0-1.7,0.7-2.7,0.8h-0.1c-0.4-0.2-0.7-0.4-1.2-0.2l-0.1,0.2
		c0,0.1-0.2,0.2-0.2,0.2c0,0.2-0.4,0.5,0,0.7h0.2c0.5,0,0.9,0.1,1.3,0.3c0.3,0.2,0.5,0.3,0.8,0.6h0.2c0.5-0.3,0.5-0.7,1-0.8h0.4
		c0.4,0.2,0.7,0.5,1.5,0.5h0.3c0.1-0.5-0.3-0.8,0.1-1.2h0.5h0.1l0.3,0.2v1h0.3l0.2,0.1v0.3h0.4c0,0.5-0.4,0.5-0.4,0.5v0.1
		c0,0.4,0,0.5,0.4,0.5c0.5,0,1.1-0.2,1.7-0.5c0.8-0.4,1.5-0.9,2.2-1.3l0.2-0.2c0.4-0.1,0.8,0.2,1.2,0.2h0.5v0.3v0.1
		c-0.2,0-0.2,0.3-0.2,0.3h-0.2v0.5c0.2,0.1,0.5,0.2,0.5,0.6v0.3h-0.5l-0.2,0.3c-0.6-0.3-1.5-0.3-2.1,0.2l-0.3,0.2v0.3h0.3
		c0.5,0.1,0.7,0.1,1.2,0.3h0.3c0.2,0.2,0.5,0.5,0.6,0.7c0.6,0.5,1.9,0.2,2.7-0.2c0.3,0,0.5,0,0.8-0.4c0,0,0-0.1,0.1-0.1h-0.1
		c-0.2,0,0-0.2-0.2-0.2v-0.1v-0.4c0-0.2,0-0.5,0.2-0.5h0.1c0.1-0.3,0.4-0.3,0.8-0.3c0,0.2,0.1,0.2,0.2,0.2c0.1,0.1,0.2,0.1,0.2,0.1
		c0.2,0.1,0.2,0.2,0.4,0.2c0.3,0,0.8-0.2,0.9-0.2l0.2-0.3c0-0.1,0.2-0.1,0.2-0.5v-0.1c0-0.1-0.2-0.1-0.2-0.1c-0.2,0-0.4,0-0.6-0.5
		v-0.3v-0.1c0-0.3,0.2-0.3,0.2-0.3h0.2c0.2,0,0.6,0,0.9,0.2c0.2,0.1,0.2,0.2,0.3,0.2c0.3,0.8,0.5,0.9,0.6,1.7
		c0.2,0.3,0.5,0.5,0.7,0.6c0.2,0.2,0.3,0.2,0.5,0.3h0.3c0.2,0.1,0.5,0.1,0.7,0.2c0.5,0.2,1,0.2,1.5,0.3c1.4,0.2,2.9,0.4,4.2,0.4
		c1.5,0.1,3,0.1,4.5,0.2c0.2,0,0.4,0,0.6,0.1c0.2,0.4,0.3,0.4,0.7,0.4v0.3c0.2,0.3,0,1.1,0,1.3c-0.2,3.2,0.1,6.5,0.7,9.6
		c0.4,1.5,0.8,3,1.2,4.5c0.5,1.2,0.9,2.4,1.4,3.6c0.3,0.5,0.5,1.1,0.8,1.5c0.5,0.9,1,1.9,1.5,2.7c0.5,0.8,1.1,1.5,1.7,2.2v0.1h-0.3
		c-0.2,0.3-0.2,0.3-0.5,0.3c-0.2,0-0.5,0-0.9,0.1c-0.5,0-1.1,0.2-1.5,0.3c-0.2,0.1-0.3,0.1-0.5,0.2c-0.2,0.1-0.2,0.1-0.4,0.2
		c-0.5,0.2-0.9,0.5-1.4,0.8c-0.4,0.2-0.8,0.4-1.2,0.6c-0.1,0-0.2,0.1-0.2,0.1c-0.6,0.3-1.2,0.5-1.8,0.8c-0.3,0.2-0.6,0.2-0.8,0.4
		c-0.6,0.4-0.6,0.5-1.2,0.8c-0.8,0.5-1.4,1.2-2.1,1.6c0,0.2-0.2,0.2-0.4,0.4c-0.1,0-0.2,0.1-0.2,0.2c-0.1,0.5-0.5,1.2-0.5,1.9
		c0,0.1,0,0.2,0,0.2h40.1c-0.1-0.1-0.3-0.2-0.5-0.4c-0.2-0.2-0.5-0.3-0.7-0.5c-1.2-0.5-2.1-1.2-3.1-2c-0.6-0.5-1.2-0.9-1.8-1.4
		c-1-0.8-2.1-1.5-3.3-2c-0.6-0.2-1.2-0.3-1.9-0.4c0-0.1-0.1-0.2-0.2-0.2c-1.1-0.9-2.7-1.5-4.2-1.2l-0.1-0.1
		c-0.1-0.2-0.3-0.4-0.7-0.6c-0.8-0.9-1.9-2-2.9-3c-0.2-0.3-0.5-0.5-0.8-0.8c-0.5-0.5-0.9-0.9-1.4-1.4h-0.1c-0.4-0.5-0.8-0.9-1.1-1.4
		c-1.2-1.8-2-3.6-2.8-5.1l-0.2-0.5v-1c0.2-3.3,0.9-6.7-0.2-9.4c-0.3-0.7-0.7-1.3-1.2-1.9c-0.3-0.4-0.5-0.7-0.9-1.1
		c-0.2-0.2-0.4-0.5-0.8-0.8c0.2-0.6,0.5-1.3,0.8-1.9c0.2-0.5,0.5-1,0.8-1.4c0.5-0.7,0.9-1.9,1.3-2.9c0.2-0.6,0.5-1.2,0.9-1.5
		c0.7-0.8,1.5-1.2,2.2-1.3c0.4-0.1,0.8-0.2,1.2-0.2h0.3v0.2h0.2c0,0.2,0.2,0.2,0.2,0.2v0.2c-0.2,0-0.2,0-0.2,0.2
		c-0.2,0.2-0.3,0.3-0.5,0.3c-0.3,0.1-0.8-0.1-1.2-0.1c-0.2,0.1-0.5,0.2-0.8,0.4c-0.1,0-0.1,0.2-0.1,0.2c-0.1,0-0.1,0-0.1,0.2v0.5
		c0,0-0.2,0-0.2,0.4v0.1h-0.4c-0.2,0-0.5,0-0.6,0.3c0,0.2-0.1,0.5,0,0.8c0.4,0.2,0.5,0.3,0.6,0.3c0,0.1,0.4,0.1,0.4,0.1v0.4
		c0.2,0.1,0.3,0.4,0.5,0.1c0.2,0,0.2-0.1,0.2-0.1c0-0.2,0-0.4,0.4-0.4c0.1-0.1,0.3-0.2,0.6-0.1h0.1c0,0.1,0.2,0.2,0.5,0.4
		c0.2,0.2,0.3,0.3,0.3,0.5c0,0.3-0.2,0.4-0.3,0.5c-0.2,0.1-0.2,0.2-0.4,0.3c0.3,0,0.3,0,0.3,0.5h0.1h0.1h0.2
		c0.3-0.2,0.7-0.5,1.1-0.6c0.3-0.1,0.5-0.2,0.8-0.2h0.2c0.3,0,0.3,0,0.4,0.3c0.5,0,0.8,0.5,1.2,0.6h0.2c0.3,0,0.4-0.1,0.5-0.1
		c0.2-0.1,0.2-0.1,0.2-0.5c0.2-0.3,0.5-0.7,0.8-0.7h0.1l0.2,0.3c0,0.1,0.3,0.4,0.3,0.4c0.1,0,0.4,0.5,0.5,0.5v0.5c0,0,0,0.3,0.1,0.3
		h0.3l0.1-0.3c0.1-0.1,0.1-1.1,0.6-1.1c0-0.3,0.2-0.4,0.4-0.7c0.3-0.2,0.8-0.2,1.2-0.2c0.1,0,0.3,0,0.5-0.1c0.5-0.1,1.2-0.4,1.5-0.7
		v-0.5c0.2-0.1,0.4-0.3,0.5-0.5l0.1-0.1c0.5,0,0.7,0,1,0.2c0.1,0,0.1,0,0.1,0.3c0.7,0,1.2-0.3,1.5-0.5l0.5-0.8h0.1
		c0.2,0,0.8,0,1.1-0.3c0-0.2,0.2-0.2,0.2-0.2v-0.4c0-0.5,0-0.8,0.5-0.8h0.1h0.2c0.6,0.2,1.3,0,1.5,0.2c0.2,0,0.2,0.4,0.2,0.6
		l-0.2,0.2c-0.2,0-0.2,0.2-0.6,0.2h-0.3c-0.2,0.2-0.2,0.2-0.2,0.4v0.1l1.2,0.5c0.8,0.2,1.5-0.2,1.9-0.5c0.2-0.2,0.4-0.3,0.5-0.4
		v-0.2c-0.2-0.4-0.2-0.8-0.2-1l0.2-0.2h1.2c0.4,0,0.7,0.1,1.2,0.2h0.1c0.2,0,0.6-0.2,0.9-0.4v-0.2V392h-0.1c-0.2,0-0.5,0-0.6-0.2
		l-0.2-0.3v-0.2h-0.1h-0.3c-0.4,0-0.4,0.2-0.5,0.2c0,0.3-0.1,0.3-0.1,0.3h-0.2c-0.2,0-0.3-0.1-0.3-0.3V391c-0.3,0-0.3-0.1-0.5-0.1
		h-0.2c-0.2,0.1-0.5,0.4-0.6,0.4h-0.1h-0.4V391v-0.5h-0.3c-0.1,0-0.1-0.2-0.1-0.2c-1.2-0.4-1.8,0.2-2.7,0.2c0-0.2-0.2-0.2-0.2-0.2
		v-0.5h-0.1h-0.3c-0.4,0-0.9,0-1.5,0.2v0.2c0,0.2,0,0.2-0.1,0.2v0.2h-0.5l-0.2-0.2c0-0.5,0.2-0.8,0.2-0.8c0,0,0.2-0.3,0-0.3l0.2-0.1
		h0.3c0-0.5,0.1-0.5,0.1-0.5v-0.1h0.3c0.5-0.4,1-0.3,1.5-0.2c0.4,0.2,0.8,0.3,1.2,0.2c0.4,0,0.6-0.2,0.9-0.4c0.4,0,0.5-0.2,0.5-0.4
		v-0.2v-0.3h0.5c0.4,0,0.4,0.3,0.4,0.5c0,0,0,0.3,0.4,0.5h0.1v0.2c0.4,0.4,1,0.3,1.6,0.3c0.4,0,0.8,0.1,1.2,0.3h0.1
		c0.1,0,0.2-0.1,0.2-0.5c0.1-0.1,0.1-0.1,0.4-0.1h0.2h0.1v0.1v0.5c0,0.1-0.1,0.4,0,0.4v0.3h0.3c0.5,0.2,0.8-0.3,1-0.3
		c0-0.3,0.1-0.4,0.5-0.4c0-0.5,0.3,0,0.3,0c0.3,0.1,0.3,0.4,0.3,0.7c0.2,0.5,0.9,0.8,1.5,0.9h0.2c0.2-0.2,0.5-0.5,0.7-0.8
		c0.6,0,1.2-0.2,1.5-0.5h0.3h0.2c0.2,0,0.4,0,0.5,0.3c0.2,0,0.2,0,0.5-0.3c0-0.3-0.3-0.9,0-1V388v-0.2h0.5c0.6,0,1.9-0.2,2.3,1.2
		h0.1h0.4h0.1h0.4c0-0.8-0.4-1.4-0.4-1.9h0.4c0.4,0,0.4-0.2,0.8-0.2c0.3-0.1,0.3-0.4,0.7-0.4c0.2-0.3,0-0.5,0.1-0.9h0.2
		c0.5-0.5,0.8,0.2,1.2,0.2c0.2,0.3,0.2,0.3,0.8,0.3c0-0.3,0.2-0.3,0.3-0.5c0.2,0,0-0.6-0.1-0.6c0,0-0.2,0-0.2-0.2v-0.1l-0.5-0.2
		c0,0,0-0.3,0.5-0.3v-0.3c0.2,0,0.3-0.1,0.7,0c0.2,0,0.5-0.1,0.5-0.4v-0.2L-319.3,383.3z M-404.5,371l-0.2,0.1h-0.3h-0.1
		c-0.4-0.1-0.4-0.4-0.4-0.4v-0.4c0,0,0.4,0,0.4-0.1l0.1,0.1h0.1c0.1,0.2,0.2,0.4,0.4,0.4V371z M-399.9,371l-0.3,0.4
		c-0.1,0.3-0.3,0.2-0.6-0.1c-0.2-0.1-0.4-0.2-0.5-0.2c0,0,0-0.1-0.4-0.1v-0.2c0.4,0,0.4-0.2,0.4-0.2c0.2-0.2,0.2,0,0.5-0.2h0.1h0.2
		c0.2,0.2,0.4,0.2,0.7,0.4V371z M-396.5,369.6l-0.2,0.2c-0.2-0.1-0.4-0.2-0.5-0.2c-0.4-0.2-0.5-0.5-0.8-0.9v-0.2h0.2l0.2-0.3h0.2
		v-0.2c0.1,0,0.2,0.1,0.2,0.1c0.4,0.1,0.5,0.1,0.5,0.4c0.2,0.2,0.2,0.6,0.2,0.8V369.6z M-390.1,398.5h-0.2h-0.1h-0.5v-0.4
		c0-0.3,0-0.4,0.3-0.5h0.2c0.1,0,0.2,0.1,0.3,0.1c0,0.1,0.2,0.1,0.2,0.4L-390.1,398.5z M-359.9,384.9h0.2h0.9h0.3
		c0.2-0.3,0.4-0.3,0.5-0.3h0.2h0.1c0.3,0,0.4,0.3,0.4,0.3v0.2v0.2c0,0.2-0.1,0.2-0.1,0.2c-0.2,0.2-0.4,0.5-0.5,0.6
		c-0.2,0.2-0.2,0.2-0.5,0.2v-0.2c-0.1-0.1-0.2-0.2-0.3-0.2c-0.2-0.2-0.5-0.3-0.5-0.5c-0.2,0-0.3-0.2-0.5-0.2s-0.2,0-0.2-0.2h-0.2
		L-359.9,384.9z M-357.9,387.2L-357.9,387.2c-0.1,0.2-0.1,0.3-0.2,0.5c-0.2,0.2-0.5,0.4-0.5,0.8c-0.2,0.1-0.2,0.1-0.3,0.1h-0.1h-0.4
		v-0.1v-0.8c0.2-0.1,0.4-0.2,0.5-0.2c0.2-0.2,0.3-0.2,0.3-0.2h0.4h0.1H-357.9z M-360.3,386.2L-360.3,386.2h0.7v0.3
		c-0.2,0.2-0.4,0.5-0.6,0.5c-0.2,0-0.3,0.1-0.5,0.1h-0.1h-0.2v-0.2v-0.1v-0.3c0-0.3,0.2-0.3,0.3-0.3H-360.3z M-362,384.2
		c0,0,0.2,0,0.2-0.1c0.2-0.2,0.4-0.2,0.4-0.3h0.1h0.2c0.2,0,0.2,0,0.3,0.1c0,0.6,0.1,0.9,0.1,1.5v0.2h-0.2h-0.4h-0.1
		c0-0.3-0.4-0.6-0.6-0.8V384.2z M-370.4,383.1c0.5,0.3,0.9,0.5,0.9,0.8v0.1c-0.4,0.2-0.8,0.2-0.9,0.1c-0.1,0-0.1-0.1-0.1-0.1h-0.2
		l-0.2-0.3l-0.5-0.1c0-0.2,0-0.2,0.5-0.5c0-0.1,0.2,0,0.4-0.1L-370.4,383.1L-370.4,383.1z M-369.2,385.6c-0.2,0.2-0.8,0.6-1.1,0.9
		h-0.1h-0.1h-0.2c-0.2,0-0.2,0-0.2-0.5v-0.3c0.1-0.1,0.3-0.2,0.5-0.2c0.3-0.1,0.6-0.2,0.9-0.5C-369.5,385.4-369.5,385.4-369.2,385.6
		z M-372.3,362.9h0.2h0.5h0.2v0.4h0.4c0,0,0.2,0,0.2,0.1c0,0-0.2,0-0.2,0.3h-0.4l-0.2,0.2c0,0,0,0.1-0.1,0.1c-0.2,0-0.2,0-0.5-0.3
		c0-0.3-0.2-0.3-0.2-0.4V362.9z M-372.8,384.5c0.2,0,0.2,0,0.5-0.3l0.2,0.3c0.2,0,0.4,0.1,0.5,0.2c0.2,0.1,0.2,0.2,0.2,0.2v0.4v0.2
		h-0.2h-0.5c-0.2-0.5-0.5-0.6-0.7-0.8V384.5z M-374.3,380.5c0.2,0,0.5-0.2,0.7-0.4h0.1h0.1h0.2h0.2c0,0,0.1,0,0.1,0.4v0.1
		c-0.1,0.2-0.5,0.5-0.5,0.5h-0.1h-0.5C-374.1,380.8-374.1,380.8-374.3,380.5L-374.3,380.5z M-378.8,382.3h0.2h0.2
		c0.1,0,0.2,0,0.3,0.1c0.1,0.1,0.2,0.2,0.2,0.2h0.2c0.2,0,0.5,0,0.7,0.3v0.4c-0.4,0.2-0.8,0.2-1.1,0.2c-0.1,0-0.2,0-0.3-0.1
		c-0.2-0.1-0.3-0.1-0.4-0.1c-0.3,0-0.3,0-0.3-0.4h-0.1C-379.2,382.6-379.1,382.4-378.8,382.3z M-380.7,386.2h0.2
		c0.3-0.5,0.8-0.5,1.3-0.8v-0.5v-0.1c0.3,0,0.7,0.1,1.1,0.1c0.2,0.1,0.5,0.2,0.8,0.2h0.3v0.2l-0.3,0.2c-0.3,0.2-0.5,0.2-0.8,0.4
		c-0.1,0.1-0.2,0.2-0.2,0.3v0.2l-0.2,0.3l-0.2,0.4v0.2h0.2c0.2,0,0.2,0.1,0.2,0.1c0.1-0.1,0.2-0.1,0.2-0.1c0.5,0,0.9,0.1,1.5,0.1
		c0.2-0.1,0.2-0.1,0.5-0.1c0.5,0.1,1.1,0.5,1.1,0.1c0.6-0.1,0.8-0.7,1.4-0.7l0.1,0.1c0.2,0,0.2,0.4,0.5,0.5c0.8,0.2,1.2,0.7,1.5,1.2
		c0.2,0.3,0.5,0.6,0.8,1v0.3h-0.2c-0.2,0.1-0.4,0.1-0.6,0.2c-0.6,0.1-1.3,0.1-2,0c-1.5-0.2-3.1-0.8-4.5-1.2
		c-0.2-0.1-0.5-0.2-0.7-0.2c-1.2-0.3-2.4-0.5-3.6-0.6h-0.1c-0.3-0.2-0.3-0.6-0.3-0.7v-0.2c0,0,0.3,0,0.3-0.4h0.1
		C-381.6,386.6-381.2,386.6-380.7,386.2z M-382.7,384.2v-0.2h0.2h0.2c0.2,0.1,0.3,0.1,0.3,0.2c0,0.1,0.2,0.1,0.2,0.4
		c0,0.3-0.2,0.3-0.2,0.3v0.2h-0.3c-0.2,0-0.2,0-0.4-0.2c0-0.3-0.2-0.3-0.2-0.6C-382.9,384.2-382.7,384.2-382.7,384.2z M-383,385.6
		v0.2c0,0.3,0,0.3-0.5,0.5c-0.2,0-0.3,0.1-0.5,0.1c-0.2,0.2-0.5,0.2-0.7,0.2l-0.2-0.3c0,0,0.2-0.2,0.2-0.5c0-0.2,0.3-0.2,0.6-0.4
		h0.1h0.5v0.2H-383z M-384.6,388v0.2c0,0.2,0,0.2-0.2,0.2h-0.1c-0.3,0.1-0.5,0-0.8,0l-0.2-0.2v-0.3c0.2-0.2,0.2-0.2,0.5-0.4h0.2
		c0.2,0.1,0.2,0.1,0.2,0.2c0.1,0,0.1,0.1,0.1,0.2C-384.6,387.9-384.6,388-384.6,388z M-385.7,383.3v-0.4c0-0.1,0.3-0.3,0.3-0.3h0.5
		h0.1h0.2h0.1v0.8c0,0.2,0.3,0.2,0.4,0.2c0,0,0.2,0,0.2,0.1v0.2h0.1c0.2,0,0.2,0.3,0,0.4h-0.1c0,0-0.6,0.3-0.7,0h-0.2v-0.4h-0.1
		c-0.5-0.2-0.5,0-0.8-0.2h-0.4v-0.1C-386,383.4-385.7,383.4-385.7,383.3z M-387.9,382.5v-0.2c0.1-0.3,0.2-0.3,0.5-0.3l0.1-0.1h0.4
		c0.4,0,0.7,0,0.9,0.1v0.2v0.1c0,0.2-0.6,0.2-0.8,0.5c0,0,0,0.1-0.1,0.1c-0.1,0-0.2,0.1-0.4,0.1c0,0-0.3,0-0.5-0.1l-0.1-0.1V382.5z
		 M-389.1,382.6h-0.2h-0.1c-0.2-0.1-0.2-0.2-0.3-0.2c-0.2,0-0.2-0.3-0.2-0.4h0.2v-0.3h0.2c0.1,0,0.2,0.1,0.2,0.1
		c0.2,0,0.2,0.2,0.2,0.3C-388.8,382.3-388.8,382.4-389.1,382.6z M-389.4,359c0,0-0.1-0.1-0.2-0.1v-0.1v-0.2h0.2h0.2h0.4h0.5
		c0,0.2,0.2,0.3,0.2,0.5v0.5v0.3h-0.7C-389.1,359.5-389.1,359.1-389.4,359z M-388.8,385.6v-0.2v-0.2V385c0.5-0.2,0.9-0.2,1.1-0.2
		h0.2c0.1,0,0.1,0.1,0.4,0.1v0.2c0,0.2,0.1,0.6,0,0.6c-0.3,0.2-0.6,0.6-0.6,0.6h-0.2h-0.2C-388.1,385.8-388.3,385.6-388.8,385.6z
		 M-387,391c-0.5,0.3-0.7,0.3-0.9,0h-0.2c0-0.5,0.2-0.5,0.2-0.7c0-0.4,0.2-0.4,0.2-0.5c0.2,0,0.5-0.2,0.7-0.2
		c0.1-0.1,0.2-0.1,0.3-0.1c0.6-0.2,1.2-0.3,1.8-0.3c0.3-0.1,0.7-0.1,1-0.1h0.5h1.1c1.2,0,2.5,0.2,3.8,0.7c0.2,0,0.2,0.2,0.2,0.2
		l-0.2,1c0,0.1-0.2,0.4-0.5,0.6h-0.1c0,0,0-0.2-0.4-0.2c-0.2-0.3-0.5-0.3-0.9-0.4c-0.2-0.4-0.7-0.4-1.1-0.4c-0.2,0-0.2,0-0.5,0.2
		c0,0,0,0.2-0.3,0.3h-0.1c0,0,0,0.3-0.1,0.3h-0.2h-0.2c0,0,0-0.3-0.1-0.3v-0.1c-0.2-0.2-0.2-0.2-0.5-0.2v-0.2v-0.6h-0.5h-0.1v-0.2
		c-0.3,0-0.6,0-0.7,0.2h-0.2v0.4v0.2h-0.1c-0.2,0-0.2,0.2-0.5,0.4h-1L-387,391z M-384.8,393.3v0.2v0.2c0,0,0,0.1-0.1,0.1
		c-0.3,0.4-0.7,0.5-1.2,0.5v-0.6v-0.2c0,0,0-0.2,0.4-0.2c0-0.1,0-0.1,0.1-0.2c0.2,0,0.2,0,0.5,0.1L-384.8,393.3L-384.8,393.3z
		 M-385.4,396.8c0,0,0,0.1-0.2,0.1h-0.1c-0.4-0.1-0.4-0.6-0.5-0.9c0-0.2,0.2-0.5,0.5-0.6h0.1c0,0,0-0.4,0.2-0.4l0.1,0.4v0.1
		c0.3,0,0.5,0,0.5,0.1c0.1,0,0.1,0.1,0.1,0.2c0,0.1,0,0.2-0.1,0.2C-385,396.4-385.4,396.6-385.4,396.8z M-370,393.1
		c0,0.8-0.2,1.5-0.4,2.3c-0.4,1.4-0.9,2.8-1.2,4.2c0,0.2,0,0.3-0.1,0.5h-0.2v0.2c-0.6,0-1.2,0.1-1.8,0.1c-1.5,0.1-3,0.2-4.5,0.2
		c-1.4-0.1-2.8-0.2-4.2-0.4h-0.2c-0.5,0-1-0.2-1.4-0.3c-0.3-0.2-0.5-0.5-0.8-0.9c-0.2-0.1-0.2-0.5-0.2-0.5v-0.3l0.2-0.1
		c0.3-0.3,0.3-0.5,0.6-0.5v-0.3v-0.1v-0.2h0.1c0.5-0.2,0.7,0,1,0c0,0,0.1,0,0.1-0.2c0-0.4-0.1-0.6-0.4-0.9h-0.2c0,0,0-0.2-0.5-0.2
		h-0.1v-0.3V395h0.1c0.2,0,0.5,0,0.7-0.1h0.8h0.3v0.1c0.2,0,0.5,0.5,0.8,0.5h0.4c0,0,0-0.1,0.1-0.5c0-0.1,0.2-0.1,0.2-0.3
		c0-0.4,0.5-0.4,0.8-0.5v-0.8c0,0,0-0.2-0.2-0.2v-0.2c0.6-0.3,1.3-0.5,1.9-0.9c0.4-0.3,0.7-0.6,0.8-1.1c0-0.2,0.3-0.2,0.3-0.4h0.1
		c0.7,0,1.5,0.4,2.3,0.5c0.3,0.1,0.6,0.2,1,0.2c0.7,0.2,1.4,0.2,2,0.2c0.5,0.1,0.8,0.2,1.2,0.3c0.2,0,0.2,0.1,0.4,0.1l0.5,0.2
		C-369.5,392.1-370,392.7-370,393.1z M-369.5,387.5h-0.5v-0.2c0-0.1,0.5-0.1,0.5-0.3v-0.1c0.1-0.2,0.3-0.2,0.5-0.2
		c0.2-0.1,0.4-0.1,0.4-0.1h0.2h0.3c0,0,0.1,0.3,0.1,0.4c0,0.1-0.1,0.1-0.1,0.1c-0.3,0.2-0.5,0.2-0.5,0.5c0,0.1-0.2,0.1-0.4,0.1
		C-369.1,387.6-369.4,387.6-369.5,387.5z M-368.1,389.6c-0.3-0.2-0.5-0.5-0.5-1.1v-0.1c0.1,0,0.1-0.2,0.2-0.2h0.3h0.1
		c0.3,0,0.4,0.3,0.4,0.8v0.4c0,0.3,0,0.3-0.1,0.3h-0.2h-0.1C-368.1,389.6-368.1,389.6-368.1,389.6z M-366.6,405.9v0.2
		c1.2,1.4,0.8,3.3,0,4.8v0.1h-0.4v-0.1c-0.8-1.5-0.7-3.6-0.7-5.4v-0.2h0.1h0.2C-367.1,405.5-366.7,405.7-366.6,405.9z M-365.2,393.3
		c-0.4,1.1-0.9,2-1.4,2.9c-0.3,0.5-0.7,1-1.1,1.5l-0.1,0.1c0,0,0-0.1-0.2-0.1c0-1.3,0.8-2.6,1-3.9c0.1-0.2,0.2-0.4,0.4-0.5
		c0.1-0.1,0.2-0.1,0.3-0.1h0.1h0.4h0.1h0.5V393.3z M-364.4,391.3c-0.1,0.1-0.2,0.2-0.2,0.2l-0.1,0.1h-0.2l-0.2-0.2h-0.2
		c0-0.3-0.5-0.8-0.5-1V390v-0.2c0.6-0.2,0.8-0.3,1.2-0.5h0.4h0.2C-364.1,390-364.1,390.9-364.4,391.3z M-364.5,387.6
		c-0.3,0-0.5,0.1-0.7,0.3c-0.2,0.2-0.5,0.2-0.5,0.3v0.2h0.4l0.2,0.1h0.2c0.1,0,0.1,0.5,0,0.5c0,0.1-0.2,0.1-0.2,0.1
		c-0.5,0-0.6,0-1.2-0.1c-0.2,0-0.2,0-0.2-0.5v-0.8c0.2-0.5,0.8-1.1,1.2-1.1h0.2c0,0,0.2-0.3,0.2-0.8h0.1v-0.2c0.2,0,0.2,0,0.4,0.1
		c0.1,0.1,0.2,0.2,0.4,0.4h0.2c0.3-0.3,0.5-0.5,0.9-0.5h0.1h0.4v1.6v0.2C-363.2,387.7-364,387.5-364.5,387.6z M-360.2,391.7
		c-0.4,0.1-0.8,0.1-1.2,0.1h-1.2c0-0.9,0.2-1.5,0.2-2.4h0.3c0.2,0,0.2-0.3,0.6-0.3h0.1h0.2h0.2v0.3h0.6c0,0.1,0,0.2,0.1,0.2
		c0,0.2,0.2,0.2,0.3,0.2c0.4,0,0.6-0.2,1-0.2l0.1,0.2c0.3,0.2,0.3,0.4,0.3,0.4s0.2,0.2,0.5,0.3c0.1,0,0.1,0.1,0.2,0.1h0.1l0.3-0.2
		c0-0.2,0.1-0.5,0.6-0.6l0.2-0.2h0.4v0.2c0.2,0.2,0.2,0.4,0.2,0.6v0.2c-0.6,0.4-1.3,0.6-2,0.8c-0.2,0.1-0.5,0.2-0.8,0.2
		C-359.3,391.6-359.7,391.7-360.2,391.7z M-357.8,394.9c0,0.1-0.2,0.1-0.2,0.1h-0.1h-0.7h-0.1h-0.4v-0.1c0-0.3,0.2-0.6,0.5-0.7
		c0.1-0.1,0.2-0.1,0.3-0.1h0.2h0.2h0.1c0,0.2,0.1,0.4,0.2,0.4V394.9z M-354.2,393.1v0.2h-0.2v0.2c0,0.2,0,0.6-0.2,0.8
		c0,0,0,0.2-0.3,0.4c0,0-0.2,0.2-0.2,0.2h-0.2c0,0-0.2,0-0.2-0.2c-0.1-0.2-0.1-0.4-0.4-0.4v-0.2h-0.2c0,0,0-0.2-0.4-0.2v-0.4v-0.2
		c0,0-0.8,0.2-0.8,0c-0.3,0-0.5-0.1-0.6-0.2c-0.1-0.1-0.2-0.2-0.2-0.2c0-0.2,0.2-0.2,0.2-0.4h0.1c0.5-0.4,1.4-0.4,1.8-0.4h0.2h0.1
		v0.2c0.3,0,0.3,0.2,0.4,0.2c0.2,0,0.4,0,0.5-0.2h0.7h0.1C-354.2,392.7-354.2,392.9-354.2,393.1z M-353.3,383.9
		c-0.3,0-0.3,0-0.3,0.3h-0.8h-0.2c0,0.3-0.3,0.3-0.5,0.5l-0.1-0.2c-0.2-0.6-0.4-1-0.4-1.2c0.2,0,0.2-0.3,0.4-0.3
		c0-0.1,0.1-0.1,0.1-0.1c0.2,0.1,0.5,0.1,0.7,0.1h0.6h0.1c0.2,0.4,0.2,0.4,0.5,0.5V383.9z M-350.7,382v-0.3c0-0.3,0-0.3,0.2-0.5h0.4
		h0.2l0.4,0.2v0.3c0,0.2-0.3,0.5-0.5,0.5c-0.1,0.1-0.2,0.1-0.2,0.1h-0.4V382z M-348.6,383.4v0.2v0.1c0,0.2,0,0.2-0.2,0.3h-0.4
		c-0.4,0-0.7,0.1-1,0.2c-0.5,0.1-0.9,0.2-1.4,0.5c-0.3,0-0.5,0-0.7-0.3h-0.3c-0.2-0.4,0-0.8,0.5-0.9c0-0.3,0.5-0.3,0.6-0.4l0.2,0.1
		l0.2,0.3c0.1,0.1,0.1,0.1,0.2,0.2h0.2h0.5h0.2h0.3c0.1-0.2,0.1-0.5,0.5-0.5h0.4h0.2V383.4z M-347.8,369h-0.3h-0.5l-0.2-0.2v-0.2
		v-0.1c0.2-0.2,0.2-0.3,0.4-0.5c0.1,0,0.2-0.1,0.3-0.2h0.1h0.2h0.2c0,0.2,0,0.2,0.2,0.2C-347.5,368.4-347.5,368.6-347.8,369z
		 M-345.3,391.8c0.2-0.3,0.4-0.5,0.5-0.5h0.2c0,0,0.4,0.2,0.4,0.5c0,0.2-0.4,0.3-0.6,0.7v0.4h-0.1v-0.4c-0.3,0-0.5-0.4-0.5-0.4
		C-345.3,392-345.4,392-345.3,391.8z M-342.3,386.9c-0.2,0.2-0.4,0.2-0.4,0.2h-0.3h-0.5h-0.2v-0.6c0.2-0.2,0.4-0.3,0.7-0.7l0.1-0.1
		c0,0,0.2,0,0.2-0.2c0,0,0,0.2,0.2,0.2C-342.3,386.2-342.3,386.6-342.3,386.9L-342.3,386.9z M-338.6,371.8c-0.2,0.3-0.3,0.6-0.3,0.6
		h-0.2c-0.2-0.1-0.5-0.2-0.7-0.3v-0.3c0.2-0.2,0.3-0.4,0.7-0.4c0.1,0,0.1-0.1,0.1-0.1c0.2,0,0.2-0.3,0.2-0.3h0.1l0.2,0.3l0.2,0.1
		v0.2C-338.5,371.8-338.6,371.8-338.6,371.8z M-336.6,387.2v0.3h-0.2c-0.2-0.2-0.4-0.2-0.6-0.3c-0.2-0.1-0.5-0.1-0.8-0.2v-0.1
		c0-0.3-0.2-0.3-0.2-0.3h0.2v-0.3h0.5h0.3h0.2c0.4,0,0.4,0.3,0.6,0.3C-336.6,386.9-336.3,387.2-336.6,387.2z M-335.4,373h-0.2v0.1
		l-0.3,0.3c-0.2,0-0.2-0.1-0.3-0.2c-0.2-0.1-0.2-0.2-0.4-0.2c-0.2-0.2-0.2-0.2-0.5-0.6v-0.3h0.2h0.2c0.2,0,0.4,0,0.6,0.2
		c0.2,0.1,0.4,0.3,0.6,0.5h0.2V373z M-330.5,389c-0.2,0-0.5,0.2-0.7,0.2c-0.1,0.1-0.2,0.2-0.3,0.2h-0.2c-0.1-0.3-0.3-0.4-0.1-1
		c0.1-0.2,0.2-0.2,0.4-0.2h0.2c0.2,0,0.5,0.1,0.5,0.2c0.2,0,0.2,0,0.2,0.1V389z"/>
	<g>
		<path fill="#FFFFFF" d="M-305.5,378.3h8.1v0.6h-1.9l3.4,12.7h0.1l2.6-9.1l-0.9-3.6h-1.4v-0.6h8.3v0.6h-2.1l3.2,12.7h0.1l3.7-12.7
			h-2.3v-0.6h3.9v0.6h-0.9l-5.4,18.6h-2.2l-3.7-13.7h-0.1l-4,13.7h-2.2l-5-18.6h-1.4V378.3z"/>
		<path fill="#FFFFFF" d="M-280.7,397.5v-0.6h1.4l6.6-18.8h3.1l6.1,18.8h1.2v0.6h-8.6v-0.6h2.3l-2.1-7h-5.4l-2.5,7h2.4v0.6H-280.7z
			 M-275.9,389.3h4.9l-2.3-7.6h-0.1L-275.9,389.3z"/>
		<path fill="#FFFFFF" d="M-246.7,384.2h-0.9c-1.5-4.2-1.9-5.7-4.6-5.7s-4.3,1.1-4.3,2.9c0,4.4,11,2.7,11,9.6c0,4.3-2.8,7-7.6,7
			c-2.1,0-4-0.6-6-1.8v-5.8h0.9c1.8,5.8,2.2,7,5.7,7c2,0,4.2-1.2,4.2-3.4c0-4.6-11-2.9-11-10c0-3.5,2.6-6.1,7-6.1
			c1.9,0,3.9,0.4,5.5,1.1V384.2z"/>
		<path fill="#FFFFFF" d="M-228.5,384.2h-0.9c-1.5-4.2-1.9-5.7-4.6-5.7c-2.7,0-4.3,1.1-4.3,2.9c0,4.4,11,2.7,11,9.6
			c0,4.3-2.8,7-7.6,7c-2.1,0-4-0.6-6-1.8v-5.8h0.9c1.8,5.8,2.2,7,5.7,7c2,0,4.2-1.2,4.2-3.4c0-4.6-11-2.9-11-10c0-3.5,2.6-6.1,7-6.1
			c1.9,0,3.9,0.4,5.5,1.1V384.2z"/>
		<path fill="#FFFFFF" d="M-221.8,378.9h-1.3v-0.6h14.9v6.1h-0.9c-1.3-4.5-1.7-5.5-3.3-5.5h-4.3v8.3h1.6c1.4,0,1.7-0.3,2.6-3.8h0.6
			v8.3h-0.6c-0.8-3.5-1.2-3.8-2.6-3.8h-1.6v9.1h4.3c1.7,0,2.2-2.1,3.3-6.5h0.9v7.2h-15v-0.6h1.4V378.9z"/>
		<path fill="#FFFFFF" d="M-203.6,397.5v-0.6h1.4v-18h-1.4v-0.6h9.4c4.6,0,7,1.4,7,4.6c0,2.9-2.2,4.4-4.9,4.4l5.1,9.5h1.1v0.6h-6.3
			l-4.8-9.8h-0.1v9.2h1.8v0.6H-203.6z M-197.1,387.3h0.4c3.6,0,4.4-1.1,4.4-4.2c0-3.1-0.9-4.2-3.2-4.2h-1.6V387.3z"/>
		<path fill="#FFFFFF" d="M-169.8,384.2h-0.9c-1.5-4.2-1.9-5.7-4.6-5.7c-2.7,0-4.3,1.1-4.3,2.9c0,4.4,11,2.7,11,9.6
			c0,4.3-2.8,7-7.6,7c-2.1,0-4-0.6-6-1.8v-5.8h0.9c1.8,5.8,2.2,7,5.7,7c2,0,4.2-1.2,4.2-3.4c0-4.6-11-2.9-11-10c0-3.5,2.6-6.1,7-6.1
			c1.9,0,3.9,0.4,5.5,1.1V384.2z"/>
		<path fill="#FFFFFF" d="M-161.4,397.5v-0.6h1.4v-18h-0.9c-2.2,0-2.7,3.7-3.2,5.6h-0.9v-6.2h15.2v6.2h-0.9c-0.5-1.9-1-5.6-3.2-5.6
			h-0.9v18h1.4v0.6H-161.4z"/>
		<path fill="#FFFFFF" d="M-144.8,378.9h-1.3v-0.6h14.9v6.1h-0.9c-1.3-4.5-1.7-5.5-3.3-5.5h-4.3v8.3h1.6c1.4,0,1.7-0.3,2.6-3.8h0.6
			v8.3h-0.6c-0.8-3.5-1.2-3.8-2.6-3.8h-1.6v9.1h4.3c1.7,0,2.2-2.1,3.3-6.5h0.9v7.2h-15v-0.6h1.4V378.9z"/>
		<path fill="#FFFFFF" d="M-118.3,397.5h-7.9v-0.6h1.4v-18h-1.4v-0.6h7.9v0.6h-1.4v18h1.4V397.5z"/>
		<path fill="#FFFFFF" d="M-109.3,397.5h-4.8v-0.6h1.4v-18h-1.4v-0.6h7.2l7,13.2h0.1v-12.5h-2.1v-0.6h4.5v0.6h-1.6v18.6h-3.2
			l-9.6-18.3h-0.1v17.7h2.6V397.5z"/>
		<path fill="#FFFFFF" d="M-71.9,387v0.6h-1.9c-0.1,1.8-0.4,3.6-1.4,5.2l3,4h1.2v0.6H-77l-1-1.3c-1.5,1.1-3.5,1.7-5.4,1.7
			c-4.4,0-6.7-2.3-6.7-5.3c0-3.2,3-5,5.1-5.9c-0.7-1.1-1.6-2.7-1.6-4.1c0-3.1,2.8-4.8,5.6-4.8c2.1,0,4.8,1.1,4.8,3.5
			c0,2.3-2.3,3.5-4.2,4.2l4.9,6.6c0.7-1.4,1-3,1-4.6H-77V387H-71.9z M-84.7,387.3c-1.4,0.7-1.6,1.6-1.6,3c0,2.9,2.1,6.5,4.8,6.5
			c1.1,0,2.2-0.5,3-1.1L-84.7,387.3z M-83.3,380.4c0,1.6,1.5,3.2,2.4,4.7c1-0.5,1.5-1.3,1.5-3.2c0-1.4-0.3-3.4-2-3.4
			C-82.6,378.5-83.3,379.3-83.3,380.4z"/>
		<path fill="#FFFFFF" d="M-49.7,384.5h-0.9c-1.7-4.2-2-6-4.5-6c-2.8,0-3.6,1.9-3.6,9.4c0,7.5,0.8,9.4,3.6,9.4
			c3.2,0,3.4-2.1,4.9-6.7h0.9v6c-1.9,0.9-3.9,1.3-6,1.3c-5.9,0-9.2-4.6-9.2-10c0-5.5,3.3-10,9.2-10c1.8,0,3.7,0.4,5.6,0.9V384.5z"/>
		<path fill="#FFFFFF" d="M-27.1,387.9c0,5.3-3.1,10-8.9,10c-5.8,0-8.9-4.7-8.9-10c0-5.3,3.1-10,8.9-10
			C-30.2,377.9-27.1,382.6-27.1,387.9z M-36,378.5c-2.5,0-3.1,2.2-3.1,9.4c0,7.2,0.6,9.4,3.1,9.4c2.5,0,3.1-2.2,3.1-9.4
			C-32.8,380.7-33.5,378.5-36,378.5z"/>
		<path fill="#FFFFFF" d="M-21,395.8c0,1.2-1,2.2-2.2,2.2c-1.2,0-2.2-1-2.2-2.2c0-1.2,1-2.2,2.2-2.2C-22,393.5-21,394.5-21,395.8z"
			/>
	</g>
	<g>
		<path fill="#FFFFFF" d="M-288.8,413.7l-3.7,10.2h-0.9l-2.5-6.8l-2.5,6.8h-0.9l-3.7-10.3l-1.1-0.2v-0.7h4.8v0.7l-1.4,0.2l2.5,7.1
			l1.8-5.2l-0.7-1.9l-1.1-0.2v-0.7h4.8v0.7l-1.4,0.2v0.1l2.4,7l2.5-7l-1.4-0.3v-0.7h3.6v0.7L-288.8,413.7z"/>
		<path fill="#FFFFFF" d="M-280.3,423.8V423l1.4-0.2l-0.9-2.4h-3.9l-0.9,2.4l1.3,0.3v0.7h-3.7V423l1.2-0.3l4-10.1h1.1l4.1,10.1
			l1.1,0.2v0.7H-280.3z M-281.8,415.3l-1.6,4.2h3.2L-281.8,415.3z"/>
		<path fill="#FFFFFF" d="M-268.7,424c-1,0-1.8-0.1-2.8-0.6l-0.2,0.6h-0.8l-0.1-3.9l0.8-0.1l0.4,1.7c0.6,0.7,1.5,1.2,2.4,1.2
			c1.2,0,2.2-0.7,2.2-1.9c0-1-0.7-1.4-2.7-2.4c-1.8-0.8-2.8-1.6-2.8-3.5c0-1.9,1.6-2.9,3.4-2.9c0.9,0,1.7,0.1,2.5,0.5l0.2-0.5h0.8
			l-0.1,3.5h-0.8l-0.3-1.6c-0.5-0.7-1.3-0.9-2.1-0.9c-1,0-1.8,0.6-1.8,1.5c0,1,0.5,1.3,2.6,2.3c1.8,0.9,3,1.6,3,3.5
			C-264.9,422.8-266.6,424-268.7,424z"/>
		<path fill="#FFFFFF" d="M-257.2,424c-1,0-1.8-0.1-2.8-0.6l-0.2,0.6h-0.8l-0.1-3.9l0.8-0.1l0.4,1.7c0.6,0.7,1.5,1.2,2.4,1.2
			c1.2,0,2.2-0.7,2.2-1.9c0-1-0.7-1.4-2.7-2.4c-1.8-0.8-2.8-1.6-2.8-3.5c0-1.9,1.6-2.9,3.4-2.9c0.9,0,1.7,0.1,2.5,0.5l0.2-0.5h0.8
			l-0.1,3.5h-0.8l-0.3-1.6c-0.5-0.7-1.3-0.9-2.1-0.9c-1,0-1.8,0.6-1.8,1.5c0,1,0.5,1.3,2.6,2.3c1.8,0.9,3,1.6,3,3.5
			C-253.4,422.8-255.1,424-257.2,424z"/>
		<path fill="#FFFFFF" d="M-249.8,423.8V423l1.4-0.2v-9.2l-1.4-0.2v-0.7h8.5v2.7h-0.9l-0.3-1.8h-3.9v3.9h2.6l0.2-1.2h0.8v3.4h-0.8
			l-0.2-1.2h-2.6v4.3h4.1l0.3-1.9h0.9v2.9H-249.8z"/>
		<path fill="#FFFFFF" d="M-229.8,423.8l-2.9-4.7l-1.2,0.1v3.6l1.4,0.2v0.7h-4.9V423l1.4-0.2v-9.2l-1.4-0.2v-0.7h4.9
			c2,0,4,0.8,4,2.8c0,1.4-0.9,2.6-2.2,3l2.8,4.2l1.2,0.3v0.7H-229.8z M-233,413.5c-0.3,0-0.6,0-0.9,0.1v4.7h0.7
			c1.6,0,2.6-0.9,2.6-2.5C-230.7,414.3-231.5,413.5-233,413.5z"/>
		<path fill="#FFFFFF" d="M-219.9,424c-1,0-1.8-0.1-2.8-0.6l-0.2,0.6h-0.8l-0.1-3.9l0.8-0.1l0.4,1.7c0.6,0.7,1.5,1.2,2.4,1.2
			c1.2,0,2.2-0.7,2.2-1.9c0-1-0.7-1.4-2.7-2.4c-1.8-0.8-2.8-1.6-2.8-3.5c0-1.9,1.6-2.9,3.4-2.9c0.9,0,1.7,0.1,2.5,0.5l0.2-0.5h0.8
			l-0.1,3.5h-0.8l-0.3-1.6c-0.5-0.7-1.3-0.9-2.1-0.9c-1,0-1.8,0.6-1.8,1.5c0,1,0.5,1.3,2.6,2.3c1.8,0.9,3,1.6,3,3.5
			C-216.1,422.8-217.8,424-219.9,424z"/>
		<path fill="#FFFFFF" d="M-203,415.8h-0.9l-0.3-2.2h-2.8v9.2l1.4,0.2v0.7h-4.9V423l1.4-0.2v-9.2h-2.8l-0.3,2.2h-0.9v-3.1h10V415.8z
			"/>
		<path fill="#FFFFFF" d="M-199.8,423.8V423l1.4-0.2v-9.2l-1.4-0.2v-0.7h8.5v2.7h-0.9l-0.3-1.8h-3.9v3.9h2.6l0.2-1.2h0.8v3.4h-0.8
			l-0.2-1.2h-2.6v4.3h4.1l0.3-1.9h0.9v2.9H-199.8z"/>
		<path fill="#FFFFFF" d="M-187.4,423.8V423l1.4-0.2v-9.2l-1.4-0.2v-0.7h4.9v0.7l-1.4,0.2v9.2l1.4,0.2v0.7H-187.4z"/>
		<path fill="#FFFFFF" d="M-168.6,413.7v10.1h-1.1l-6.8-8.4v7.3l1.4,0.3v0.7h-3.9V423l1.4-0.3v-8.6l-0.4-0.6l-1-0.2v-0.7h3l6.4,7.8
			v-6.8l-1.4-0.3v-0.7h3.9v0.7L-168.6,413.7z"/>
		<path fill="#FFFFFF" d="M-153.5,419.5c-0.2,0-0.6,0-0.8,0v3.4l1.6,0.2v0.7h-5.1V423l1.4-0.2v-9.2l-1.4-0.2v-0.7h4.9
			c2.3,0,4,1.1,4,3C-148.8,417.9-150.4,419.5-153.5,419.5z M-153.3,413.5c-0.4,0-0.6,0-0.9,0.1v5c0.3,0,0.6,0,0.8,0
			c1.7,0,2.5-1.2,2.5-2.8C-151,414.4-152,413.5-153.3,413.5z"/>
		<path fill="#FFFFFF" d="M-140.5,423.8V423l1.4-0.2l-0.9-2.4h-3.9l-0.9,2.4l1.3,0.3v0.7h-3.7V423l1.2-0.3l4-10.1h1.1l4.1,10.1
			l1.1,0.2v0.7H-140.5z M-142,415.3l-1.6,4.2h3.2L-142,415.3z"/>
		<path fill="#FFFFFF" d="M-125.3,423.8l-2.9-4.7l-1.2,0.1v3.6l1.4,0.2v0.7h-4.9V423l1.4-0.2v-9.2l-1.4-0.2v-0.7h4.9
			c2,0,4,0.8,4,2.8c0,1.4-0.9,2.6-2.2,3l2.8,4.2l1.2,0.3v0.7H-125.3z M-128.5,413.5c-0.3,0-0.6,0-0.9,0.1v4.7h0.7
			c1.6,0,2.6-0.9,2.6-2.5C-126.2,414.3-127.1,413.5-128.5,413.5z"/>
		<path fill="#FFFFFF" d="M-110.1,415.8h-0.9l-0.3-2.2h-2.8v9.2l1.4,0.2v0.7h-4.9V423l1.4-0.2v-9.2h-2.8l-0.3,2.2h-0.9v-3.1h10
			V415.8z"/>
		<path fill="#FFFFFF" d="M-96.6,413.7v10.1h-1.1l-6.8-8.4v7.3l1.4,0.3v0.7h-3.9V423l1.4-0.3v-8.6l-0.4-0.6l-1-0.2v-0.7h3l6.4,7.8
			v-6.8l-1.4-0.3v-0.7h3.9v0.7L-96.6,413.7z"/>
		<path fill="#FFFFFF" d="M-91.9,423.8V423l1.4-0.2v-9.2l-1.4-0.2v-0.7h8.5v2.7h-0.9l-0.3-1.8h-3.9v3.9h2.6l0.2-1.2h0.8v3.4h-0.8
			l-0.2-1.2h-2.6v4.3h4.1l0.3-1.9h0.9v2.9H-91.9z"/>
		<path fill="#FFFFFF" d="M-71.8,423.8l-2.9-4.7l-1.2,0.1v3.6l1.4,0.2v0.7h-4.9V423l1.4-0.2v-9.2l-1.4-0.2v-0.7h4.9c2,0,4,0.8,4,2.8
			c0,1.4-0.9,2.6-2.2,3l2.8,4.2l1.2,0.3v0.7H-71.8z M-75,413.5c-0.3,0-0.6,0-0.9,0.1v4.7h0.7c1.6,0,2.6-0.9,2.6-2.5
			C-72.7,414.3-73.6,413.5-75,413.5z"/>
		<path fill="#FFFFFF" d="M-61.9,424c-1,0-1.8-0.1-2.8-0.6l-0.2,0.6h-0.8l-0.1-3.9l0.8-0.1l0.4,1.7c0.6,0.7,1.5,1.2,2.4,1.2
			c1.2,0,2.2-0.7,2.2-1.9c0-1-0.7-1.4-2.7-2.4c-1.8-0.8-2.8-1.6-2.8-3.5c0-1.9,1.6-2.9,3.4-2.9c0.9,0,1.7,0.1,2.5,0.5l0.2-0.5h0.8
			l-0.1,3.5h-0.8l-0.3-1.6c-0.5-0.7-1.3-0.9-2.1-0.9c-1,0-1.8,0.6-1.8,1.5c0,1,0.5,1.3,2.6,2.3c1.8,0.9,3,1.6,3,3.5
			C-58.2,422.8-59.9,424-61.9,424z"/>
		<path fill="#FFFFFF" d="M-54.3,426.4l-0.4-0.7c1-0.3,1.8-0.7,1.8-1.7l-1.8-0.6c-0.1-0.1-0.2-0.4-0.2-0.7c0-0.5,0.4-1.1,1.2-1.1
			c1,0,1.8,0.9,1.8,2C-52,425.1-52.8,425.9-54.3,426.4z"/>
		<path fill="#FFFFFF" d="M-42.2,423.8V423l1.4-0.2v-9.2l-1.4-0.2v-0.7h5.1v0.7l-1.6,0.2v9.1h3.9l0.3-2h0.9v3H-42.2z"/>
		<path fill="#FFFFFF" d="M-26.1,419.5c-0.2,0-0.6,0-0.8,0v3.4l1.6,0.2v0.7h-5.1V423l1.4-0.2v-9.2l-1.4-0.2v-0.7h4.9
			c2.3,0,4,1.1,4,3C-21.4,417.9-23,419.5-26.1,419.5z M-25.9,413.5c-0.4,0-0.6,0-0.9,0.1v5c0.3,0,0.6,0,0.8,0c1.7,0,2.5-1.2,2.5-2.8
			C-23.5,414.4-24.5,413.5-25.9,413.5z"/>
	</g>
</g>
</svg>
