<?xml version="1.0" encoding="utf-8"?>
<!-- Generator: Adobe Illustrator 18.0.0, SVG Export Plug-In . SVG Version: 6.00 Build 0)  -->
<!DOCTYPE svg PUBLIC "-//W3C//DTD SVG 1.1//EN" "http://www.w3.org/Graphics/SVG/1.1/DTD/svg11.dtd">
<svg version="1.1" id="Layer_1" xmlns="http://www.w3.org/2000/svg" xmlns:xlink="http://www.w3.org/1999/xlink" x="0px" y="0px"
	 width="130px" height="110.465px" viewBox="0 0 130 110.465" enable-background="new 0 0 130 110.465" xml:space="preserve">
<path fill="#FFFFFF" d="M129.261,37.069c-0.318-0.425-0.529-0.529-0.636-0.636c-1.054-1.054-2.218-0.739-3.271-1.054
	c-0.107,0-0.318-0.107-0.318-0.107h-0.318c0-0.843,0.318-0.843,0.318-1.161c-0.318-0.636-1.161-0.739-1.478-0.739h-1.478v-0.107
	v-0.529c0,0,0-0.314,0.421-0.314c0-0.107,0.107-0.107,0.636-0.318v-1.268H122.5c-0.421-0.421-0.632-0.421-0.632-0.529
	c0-0.529-0.529-0.529-0.529-0.529v-0.104l0.529-0.211c0.211-0.425,1.268,0,1.796-0.425v-0.211V28.62
	c-0.107-0.318-0.529-0.318-0.529-0.843c-0.529-0.318-0.529-0.846,0-0.953v-0.421c0-0.314,0.529-0.421,0.421-0.95h-0.421
	c-0.636-0.529-1.057-0.529-1.268,0h-0.529h-0.739v-0.529v-1.371c0-0.425,0-0.529-0.632-0.529c0,0-0.529-0.211-0.95-0.211
	c-0.953,0.211-2.325,0-3.382,0.211c-0.314,0-0.843,0.104-0.843,0.104c-0.529,0-0.529-0.104-0.529-0.104h-0.211v-0.211
	c-0.214-0.211-0.529-0.318-1.057-0.318c-0.632-0.107-1.478-0.107-2.007-0.739c-0.739-0.95-2.111,0-3.589-0.421v-0.318
	c-0.107,0-0.107-0.211-0.107-0.211v-0.107c0.107-0.421,0.107-0.421,0.107-0.529c0.421,0,0.421,0,0.421-0.211v-0.211h-0.421
	c0-0.318-0.425-0.529-0.953-0.529h-0.314c-0.529,0.107-1.161,0.211-1.689,0.318c-0.636,0-1.164-0.107-1.586-0.318h-0.318
	c0-0.104-0.104-0.104-0.104-0.421c0.104-0.107,0.421-0.421,0.421-0.421l0.529-0.318v-0.318v-0.529
	c-0.318-0.314-0.529-0.314-0.95-0.314h-0.211v0.314h-0.107c-0.107,0.214-0.529,0.529-0.529,0.529h-0.529
	c-1.582-0.843-2.428,0-3.696,0.318l-0.314-0.318h-0.107c-0.632,0-0.95,0.318-1.371,0h-0.214v-0.314c0-0.214-0.421-0.214,0-0.214
	v-0.95c0-0.211-0.525-0.739-0.843-0.739V15.42l-0.107,0.104c-0.632,0.529-1.478,0.529-1.9,0.529h-0.104l-0.529-0.529
	c-0.318-0.211-0.318-0.211-0.318-0.421v-1.268c0.318-0.211,0.846-0.529,0.846-0.529c0.525-0.211,1.264-0.211,1.582-0.632h0.421
	v-0.421c-0.421-0.107-0.421-0.107-0.421-0.214c-0.211-0.314-0.211-0.314-0.318-0.314c-1.264-0.636-2.428-0.211-3.696,0.211
	c-0.843,0.211-1.689,0.318-2.639,0.104c0,0,0-0.211-0.211-0.314h-0.107c-0.421-0.318-0.632-0.636-1.161-0.318v0.318l-0.529,0.843
	c0,0.107,0,0.107-0.104,0.107c-0.425,0.632-0.95,0.632-1.693,1.161h-0.104c-0.529-0.211-1.478,0-2.218-0.318
	c-0.107-0.104-0.211-0.104-0.318-0.211c-0.421,0-0.421-0.314-0.632-0.632c-0.107-0.107-0.636-0.107-0.739-0.421
	c-0.421-0.107-0.421-0.107-0.421-0.214v-0.314c0.421-0.318,1.054-0.318,1.054-0.636l0.107-0.211v-0.314h-0.107
	c-0.529-0.425-1.371-0.425-1.9-0.425l-0.318-0.421c-0.739,0-0.739-0.107-0.739-0.107V8.132C77.092,7.71,76.667,7.71,76.667,7.5
	h-0.314h-0.636c0,0.104-0.211,0.211-0.421,0.421v0.211c-0.529,0-0.318,0.425,0,0.739c0.107,0.107,0.318,0.211,0.421,0.211v0.425
	c-0.211,0-0.314,0.104-0.421,0.104h-0.632h-0.846H73.5c0,0-0.104,0-0.104,0.107c-0.211,0-0.529,0.104-0.529,0.421h-0.211
	c-0.318-0.318-0.529-0.318-0.846-0.421h-0.529h-0.314V9.61H70.65c0.318-0.529,0.318-0.739,0.632-0.739
	c0.211-0.211,0.425-0.314,0.529-0.421c0.529-0.318,1.057-0.421,1.057-0.739V7.289L72.76,6.971c-0.318-0.104-0.632-0.104-0.95-0.104
	c-1.161,0.104-2.007,1.264-3.8,0.843c-0.214,0.318-0.425,0.421-0.529,0.318c-0.211,0-0.318-0.107-0.529-0.318
	c0-0.211-0.636-0.421-1.161-0.421h-0.107c0,0,0,0.211-0.632,0.211V7.289c-0.107,0.104-0.318,0.211-0.425,0.314
	C64.314,7.71,63.786,7.71,63.257,7.71L63.15,8.132c-0.421,0-0.421,0-0.421,0.739h-0.107v0.211v0.425h-0.104h-0.421V9.61h-0.211
	v0.529c0,0,0,0.425-0.107,0.425h-0.421c0,0.104-0.107,0-0.211,0c-0.318,0-0.425,0-1.057-0.425c-0.107,0-0.107,0-0.107-0.421
	c0-0.107,0.107-0.107,0.739-0.636V8.871c-0.529-0.632-0.95-0.739-1.268-1.161c0,0-0.104-0.107-0.104-0.211V7.289V6.971h0.104h1.268
	c0,0,0.107-0.211,0.425-0.421V6.339c0.104-0.107,0.211-0.107,0.211-0.214c0.421-0.314,0.739-0.421,1.161-0.525h0.211h0.421V5.071
	V4.964V4.543c0,0-0.421,0-0.421-0.107c-0.107-0.104-0.107-0.104-0.211-0.104c-0.421-0.211-0.739-0.211-1.161-0.211
	c-0.425,0-0.846,0-1.268-0.425c0,0,0-0.104-0.107-0.104h-0.529H59.35c-0.425,0.421-0.95,0.421-1.586,0.421
	c-0.739,0-1.582-0.104-2.536,0.421c0,0-0.104,0.107-0.211,0.318c-0.104,0.107-0.104,0.107-0.104,0.211V5.6L54.386,5.81
	c-0.529-0.211-0.739-1.268-1.371-1.9c0-0.318-0.743-0.318-0.743-0.636h-1.161v0.318L50.479,3.91h-0.107
	c-0.421,0.632-0.95,0.736-1.478,0.632c-0.318,0-0.632-0.107-0.95-0.107c-0.529,0-0.529-0.525-0.529-0.525V3.696V3.275
	c0.529,0,0.529-0.529,0-0.739h-0.739c-0.529,0-0.632,0.211-1.054,0.739l-0.953,0.421c0,0,0,0.214-0.211,0.214
	c-0.211-0.214-0.211-0.214-0.318-0.214c0-0.104-0.314-0.104-0.314-0.104l-0.318-0.318V2.536V2.007h-0.421h-2.114h-0.104V1.796
	c-0.425-0.318-0.425-0.318-0.846-0.632V0.529l-0.104-0.421L39.708,0h-0.107l-0.739,0.107c-0.846,0-1.268,1.057-2.114,1.371h-0.525
	c-0.529,0.211-1.268,0-1.903-0.104h-0.843c-0.107,0-0.107,0.104-0.211,0.104c-0.529,0-0.529,0-0.953,0.318l-0.104,0.211v1.268
	c0,0.107-0.107,0.211-0.107,0.211c-0.104,0.211-0.314,0.318-0.314,0.425h-0.425c-0.421,0-1.054,0-1.054,0.632
	c-0.318,0-0.318,0.529-0.529,1.057h-0.529h-0.107c-1.054-0.529-1.9-0.529-2.428-1.164c-0.739-0.525-1.161,0.107-1.478,0.107
	l-0.211,0.421h-0.318c0,0.846,0.529,1.375,0.636,1.796l0.211,0.211c0.846,0,1.689,0.318,2.536,0.529
	c0.529,0.211,0.632,0.211,1.054,0.632v0.739c0,0-0.421,0-0.421,0.211c-0.632,0-0.95,0-1.478,0.425
	c-1.371,0.104-2.007-1.796-3.589-1.375C23.445,7.817,23.02,7.603,22.599,7.5h-0.318c-0.211-0.211-0.843-0.211-1.161,0v0.632v0.739
	c0.318,0.211,0.636,0.211,0.95,0.636V9.61v0.107h-0.314h-1.375c-0.632,0.421-0.846,0.421-1.689,0.846v0.525l0.421,0.636v0.314v0.107
	c-0.421,0-0.421,0.107-0.421,0.107h-0.846c-0.529-0.107-1.161-0.214-2.007-0.107v0.107v0.314c-0.211,0.107-0.211,0.107-0.211,0.425
	c0,0,0,0.104,0.211,0.104v0.211c0,0,0.425,0,1.268,0.318c0.211,0.211,0.739,0.318,0.739,0.318c0.318,0.421,0.318,0.421,0.318,0.525
	c0,0.636-0.318,0.636-0.318,0.846c0.318,0,0.318,0,0.318,0.211c0.318,0,0.318,0,0.318,0.529h0.211
	c0.421,0.211,0.421,0.211,0.421,0.421c0.421,0,0.421,0,0.421,0.425c0,0-0.421,0-0.421,0.314h-1.268
	c-0.314,0.107-0.632,0.214-0.739,0.529h-0.843c0,0.318-0.318,0.318-0.318,0.318c-0.107,0.739-1.161,0.318-1.9,0.318
	c0,0-0.318,0-0.318-0.318c-0.529-0.318-0.95-0.318-1.478-0.632l-0.107-0.107c-0.211-0.107-0.632-0.107-0.632,0.107v0.314
	c-0.421,0-0.421,0.318-0.421,0.318h-0.636c-0.104,0.318-0.95,0-1.478,0.318C8.66,18.692,8.66,19.117,8.66,19.431
	c-0.425,0-0.425,0.318-0.425,0.318c-0.421,0.529-2.218,0.421-2.85,0.95c0,0,0,0.107-0.211,0.107v0.211
	c0.211,0.318,0.739,0.739,0.739,0.739h2.321c0.739,0.421,1.268,0,2.114,0.421h0.104c-0.104,0-0.104,0.529-0.104,0.636l-1.375,0.211
	v0.529v0.314v0.636h3.064v0.421v0.529H11.51c-0.421,0-1.057,0-1.161,0.529c-0.318,0-0.846,0.107-0.846,0.107
	c-0.529,0-1.582,0-1.689,0.314v0.211v0.318l-0.739,0.529H6.971c0,0-0.425,0-0.425,0.318c-0.314,0-0.632-0.318-0.632-0.318
	c-0.529,0-0.95-0.529-1.057-0.636c-0.421-0.421-0.846-0.421-1.689,0c-0.107,0.107-0.107,0.636-0.318,0.953
	c-0.314,0.525-0.843,0-1.582,0c-0.318,0-1.164,0-1.268,0.843v0.211c0,0,0.104,0,0.104,0.211c0.636,0,1.164,0,1.903,0.425h0.314
	c0,0,0.529,0.211,0.846,0.211c0.107,0,0.107,0,0.632,0.104c0,0.529-0.525,0.529-0.525,0.529c-0.214,0.529-0.636,0.529-0.953,0.846
	v0.529v0.421h0.214c0.314,0,0.632,0,1.264-0.421c0.211-0.107,0.211-0.846,0.739-0.846h1.375l0.104,0.846v0.421h0.529
	c0,0.211,0.425,0.211,1.268,0c0,0,0.107,0,0.421,0.211v0.421H8.66v0.529c1.371-0.529,1.793-1.582,2.85-2.111h0.529v0.529
	c0,0.211,0.104,0.314,0.104,0.421h0.107h0.95v0.211v0.421c0,0.529-0.421,0.529-0.421,0.529h-0.636c0,0.107-0.104,0.107-0.104,0.107
	v0.104v0.636h0.104h0.425c0.95-0.636,2.218,0,3.061-0.636h0.211l0.107-0.104h0.632c0.529,0,0.529-0.107,0.529-0.107
	c0.211-0.843,0.211-1.161,0.739-1.582c0.318,0,0.636,0.421,0.739,0.421c0.107,0,0.107,0.211,0.107,0.211
	c0.421,0.421,0.421,1.057,0.421,1.057l-0.421,0.104c-0.107,0.107-0.107,0.107-0.211,0.107v0.529h0.104h1.164
	c1.371,0,2.007,0,2.321-0.739h0.211h0.318h0.318h0.529h0.211c0,0,0,0.104,0.314,0.104v0.107l-0.314,0.529h-0.211
	c0,0-0.107,0-0.107,0.318c0,0.843-0.211,0.95,0,1.264c0,0.107,0,0.107,0.107,0.318h0.525c0.739-0.318,1.268-0.632,2.007-0.632
	c1.796,0.314,3.803-0.107,5.385,0.421c0.425,0,0.425,0.211,0.425,0.211c0,0.107-0.425,0.107-0.425,0.421v0.107
	c-1.054,0.529-2.111,0.104-2.743,0.636c0,0-0.529,0-0.529,0.207v0.107c1.161,0.421,2.85,0,3.271,0.846h0.425v0.421v0.318v0.104
	h0.314h0.107c0,0.211,0,0.211,0.104,0.211l0.425,0.214v0.632v0.211c-0.318,0.211-0.529,0.421-0.636,0.632
	c-0.104,0.214-0.211,0.318-0.314,0.425h-0.846c-0.632,0.529-1.161,0.421-2.218,0.421c-0.95,0.846-2.321,0.421-3.486,0.421h-0.529
	c0,0.425-0.211,0.425-0.314,0.425c-0.425,0.211,0,0.525,0,0.739l0.104,0.211c0.739,0.314,1.478,0.314,1.903,0.421
	c0.314,0.739,0.843,0.739,0.843,1.268h-0.211h-0.318v0.421c-1.478-0.529-2.85,0-4.118,0.211c-0.843,0.107-1.586,0.214-2.325-0.211
	c-0.525-0.421-0.739-0.421-0.739,0l-0.421,0.211v0.529c0,0.318,0.421,0.318,0.421,0.318c0.107,0,0.214,0.211,0.739,0.632
	l0.846,0.425c0,0.314,0.318,0.314,0.636,0.739h0.843l0.318-0.425c0.421-0.314,0.739-0.739,1.054-0.843
	c0-0.318,0.425-0.318,0.529-0.318c0.529,0.318,0.739,0.421,1.057,0.846h1.478c0.211-0.425,0.739-0.529,1.057-0.846V46.89h1.161
	c0.529,0,0.529,0,0.739,0.211v0.421c0.318,0.425,0.318,0.425,0.318,0.739h0.632c0.421,0.425,0.846,0,0.846,0
	c0.104,0.107,0.211,0.211,0.314,0.211c0.318,0.214,0.636,0.318,0.636,0.425v0.211c-0.211,0-0.425,0-0.636,0.104
	c-0.211,0-0.314,0-0.314,0.214v0.739v0.314h0.314h0.107h1.057h0.211c0.318,0.107,0.529,0.214,0.843,0.318
	c0.425,0.211,0.636,0.529,0.636,1.057c0,0.211,0.318,0.211,0.318,0.211c0.211,0,0.314-0.529,0.525-0.529
	c0.318-0.318,0.425-0.318,0.846,0c0,0.211,0.104,0.318,0.104,0.318c0,0.104,0.107,0.211,0.107,0.211v0.318
	c0.318,0.211,0.318,0.632,0,0.632c0,0,0,0.107-0.107,0.107c-0.314,0.421-0.95,0.421-1.161,0.421l-0.314,0.107H34.32
	c0,0-0.525-0.107-0.525-0.636h-0.318h-0.211v-0.421v-0.211h-1.164h-0.314v0.211c-0.425,0-0.425,0.314-0.425,0.421
	c0,0,0.425,0.529,0.425,0.636c-0.425,0-0.425,0.421-0.425,0.421v0.314h-0.421c-0.95,0-1.689,0-2.218,0.425
	c-0.104-0.425-0.632-0.425-0.632-0.425v-0.314V53.65c0,0-0.318,0-0.318-0.107v-0.529h-0.318c0-0.107,0-0.107-0.211-0.107h-0.529
	c0,0,0,0.107-0.314,0.107h-0.214c0,0-0.211,0-0.632,0.529c-0.318,0-1.057,0.107-1.9,0.529V53.65h-0.211v-0.107
	c0-0.529,0.211-0.529,0.211-0.636v-0.525h-0.318v-0.318c-0.211,0-0.529-0.107-0.739-0.107c-0.739,0-1.478,0.211-2.218,0.425v0.211
	v0.314v0.107h-0.107h-2.111c-0.104-0.107-0.211-0.107-0.318-0.211c-0.104-0.107-0.211-0.318-0.529-0.421
	c-0.211-0.318-1.054-0.318-1.478,0v0.211v0.314v0.107l0.107,0.529v0.107v0.421l-0.107,0.314c-1.054,0-2.321,0.953-3.696,1.057
	h-0.104c-0.529-0.318-0.95-0.529-1.586-0.318l-0.104,0.318c0,0.107-0.318,0.211-0.318,0.211c0,0.318-0.529,0.636,0,0.95h0.318
	c0.739,0,1.268,0.107,1.793,0.425c0.425,0.211,0.739,0.421,1.057,0.843h0.211c0.636-0.421,0.636-0.95,1.375-1.161h0.529
	c0.525,0.211,0.95,0.739,2.004,0.636h0.425c0.104-0.636-0.425-1.057,0.104-1.693h0.739h0.107l0.421,0.318v1.375h0.421l0.214,0.104
	v0.421h0.525c0,0.636-0.525,0.636-0.525,0.739v0.107c0,0.529,0,0.632,0.525,0.632c0.739,0,1.482-0.314,2.325-0.632
	c1.057-0.529,2.007-1.268,2.957-1.796l0.318-0.211c0.529-0.107,1.161,0.211,1.582,0.211h0.636v0.425v0.104
	c-0.318,0-0.318,0.421-0.318,0.421h-0.318v0.636c0.318,0.104,0.636,0.211,0.636,0.843v0.425h-0.636l-0.211,0.421
	c-0.843-0.421-2.007-0.421-2.85,0.211l-0.425,0.211v0.421h0.425c0.632,0.107,0.95,0.107,1.582,0.425h0.425
	c0.314,0.318,0.632,0.632,0.843,0.95c0.846,0.739,2.536,0.211,3.696-0.318c0.421,0,0.739,0,1.161-0.529c0,0,0-0.104,0.107-0.104
	h-0.107c-0.314,0,0-0.318-0.314-0.318V61.04v-0.525c0-0.318,0-0.636,0.314-0.739h0.107c0.104-0.425,0.529-0.425,1.057-0.425
	c0,0.211,0.104,0.318,0.211,0.318c0.104,0.107,0.318,0.107,0.318,0.107c0.211,0.104,0.314,0.211,0.525,0.211
	c0.425,0,1.057-0.211,1.268-0.211l0.211-0.425c0-0.104,0.318-0.104,0.318-0.632v-0.107c0-0.104-0.318-0.104-0.318-0.104
	c-0.211,0-0.525,0-0.843-0.636V57.45v-0.104c0-0.425,0.318-0.425,0.318-0.425h0.211c0.314,0,0.843,0,1.264,0.211
	c0.214,0.107,0.318,0.214,0.425,0.318c0.421,1.057,0.632,1.268,0.843,2.325c0.318,0.421,0.636,0.632,0.953,0.843
	c0.211,0.318,0.421,0.318,0.632,0.421h0.421c0.318,0.107,0.636,0.107,0.95,0.211c0.636,0.214,1.375,0.318,2.114,0.425
	c1.9,0.318,3.907,0.529,5.807,0.529c2.114,0.104,4.121,0.104,6.125,0.314c0.211,0,0.529,0,0.846,0.107
	c0.211,0.529,0.421,0.529,0.95,0.529v0.421c0.211,0.421,0,1.478,0,1.796c-0.211,4.435,0.107,8.871,0.95,13.199
	c0.529,2.114,1.057,4.121,1.689,6.125c0.636,1.693,1.268,3.275,1.903,4.86c0.421,0.739,0.739,1.479,1.161,2.111
	c0.632,1.268,1.371,2.536,2.111,3.696c0.739,1.057,1.479,2.114,2.325,3.064v0.104h-0.421c-0.214,0.421-0.214,0.421-0.739,0.421
	c-0.318,0-0.739,0-1.164,0.107c-0.739,0-1.478,0.211-2.111,0.421c-0.211,0.107-0.421,0.107-0.632,0.211
	c-0.214,0.107-0.318,0.107-0.529,0.214c-0.739,0.314-1.268,0.632-1.903,1.054c-0.529,0.318-1.054,0.529-1.689,0.846
	c-0.104,0-0.211,0.107-0.314,0.107c-0.846,0.421-1.693,0.736-2.432,1.054c-0.421,0.211-0.843,0.318-1.161,0.529
	c-0.843,0.529-0.843,0.632-1.586,1.161c-1.161,0.739-1.9,1.693-2.85,2.218c0,0.214-0.211,0.318-0.529,0.529
	c-0.104,0-0.211,0.107-0.318,0.211c-0.104,0.636-0.632,1.689-0.632,2.536c0,0.127,0.013,0.242,0.045,0.318h54.87
	c-0.107-0.107-0.421-0.318-0.739-0.529c-0.318-0.211-0.739-0.425-0.95-0.636c-1.586-0.632-2.853-1.689-4.225-2.743
	c-0.843-0.636-1.586-1.268-2.428-1.903c-1.371-1.054-2.853-2.111-4.543-2.743c-0.843-0.214-1.689-0.425-2.639-0.529
	c0-0.107-0.104-0.211-0.211-0.211c-1.478-1.268-3.696-2.007-5.807-1.693l-0.107-0.104c-0.107-0.211-0.421-0.529-0.95-0.846
	c-1.161-1.268-2.536-2.746-3.907-4.118c-0.318-0.421-0.636-0.739-1.057-1.057c-0.632-0.632-1.268-1.268-1.9-1.9h-0.107
	c-0.529-0.636-1.054-1.268-1.479-1.9c-1.689-2.432-2.746-4.86-3.8-6.971l-0.318-0.632v-1.375c0.211-4.539,1.268-9.189-0.211-12.885
	c-0.425-0.95-0.95-1.793-1.689-2.639c-0.425-0.529-0.739-0.95-1.164-1.478c-0.314-0.318-0.529-0.739-1.054-1.161
	c0.314-0.846,0.632-1.796,1.054-2.639c0.318-0.636,0.636-1.375,1.057-1.903c0.739-0.95,1.268-2.532,1.796-3.907
	c0.314-0.843,0.739-1.689,1.268-2.111c0.95-1.057,2.004-1.586,3.061-1.796c0.529-0.104,1.057-0.211,1.586-0.211h0.421v0.318h0.211
	c0,0.314,0.318,0.314,0.318,0.314v0.214c-0.318,0-0.318,0-0.318,0.314c-0.211,0.318-0.421,0.421-0.632,0.421
	c-0.425,0.107-1.057-0.104-1.586-0.104c-0.318,0.104-0.739,0.211-1.161,0.529c-0.107,0-0.107,0.211-0.107,0.211
	c-0.104,0-0.104,0-0.104,0.318v0.632c0,0-0.211,0-0.211,0.529v0.107H69.7c-0.318,0-0.636,0-0.846,0.421c0,0.314-0.104,0.739,0,1.054
	c0.529,0.318,0.739,0.425,0.846,0.425c0,0.104,0.529,0.104,0.529,0.104v0.529c0.211,0.107,0.421,0.529,0.739,0.107
	c0.314,0,0.314-0.107,0.314-0.107c0-0.211,0-0.529,0.529-0.529c0.107-0.104,0.425-0.211,0.846-0.104h0.104
	c0,0.104,0.318,0.211,0.636,0.529c0.211,0.211,0.421,0.421,0.421,0.632c0,0.421-0.211,0.529-0.421,0.739
	c-0.211,0.107-0.318,0.211-0.529,0.421c0.421,0,0.421,0,0.421,0.636h0.107H73.5h0.318c0.421-0.318,0.95-0.636,1.478-0.846
	c0.421-0.104,0.739-0.211,1.057-0.211h0.314c0.425,0,0.425,0,0.529,0.421c0.739,0,1.057,0.739,1.586,0.846h0.318
	c0.421,0,0.525-0.107,0.736-0.107c0.318-0.104,0.318-0.104,0.318-0.739c0.318-0.421,0.739-0.95,1.057-0.95h0.107l0.314,0.425
	c0,0.104,0.425,0.525,0.425,0.525c0.104,0,0.525,0.636,0.739,0.739v0.739c0,0,0,0.425,0.104,0.425h0.421l0.107-0.425
	c0.104-0.104,0.104-1.478,0.846-1.478c0-0.421,0.211-0.525,0.525-0.95c0.425-0.211,1.057-0.318,1.586-0.211
	c0.107,0,0.421,0,0.739-0.107c0.739-0.104,1.689-0.525,2.111-0.95v-0.739c0.318-0.104,0.529-0.421,0.739-0.739l0.107-0.104
	c0.632,0,0.95,0,1.371,0.314c0.107,0,0.107,0,0.107,0.425c0.95,0,1.689-0.425,2.111-0.739l0.739-1.057h0.107
	c0.318,0,1.057,0,1.478-0.421c0-0.211,0.318-0.211,0.318-0.211v-0.529c0-0.739,0-1.057,0.632-1.161h0.107h0.314
	c0.846,0.314,1.796,0,2.114,0.314c0.318,0,0.318,0.529,0.318,0.846l-0.318,0.211c-0.318,0-0.318,0.318-0.846,0.318h-0.421
	c-0.318,0.211-0.318,0.211-0.318,0.525v0.107l1.586,0.636c1.057,0.314,2.007-0.214,2.639-0.743c0.318-0.211,0.529-0.421,0.739-0.525
	v-0.318c-0.318-0.529-0.318-1.057-0.318-1.371l0.318-0.214h1.586c0.529,0,0.95,0.107,1.582,0.214h0.107
	c0.314,0,0.843-0.214,1.268-0.529v-0.318v-0.95h-0.107c-0.318,0-0.739,0-0.846-0.211l-0.314-0.425v-0.314h-0.107h-0.421
	c-0.529,0-0.529,0.314-0.739,0.314c0,0.425-0.107,0.425-0.107,0.425h-0.314c-0.211,0-0.425-0.107-0.425-0.425v-0.739
	c-0.421,0-0.421-0.104-0.632-0.104h-0.318c-0.211,0.104-0.632,0.529-0.843,0.529h-0.107h-0.529v-0.425V46.89h-0.421
	c-0.107,0-0.107-0.318-0.107-0.318c-1.582-0.529-2.428,0.318-3.696,0.318c0-0.318-0.314-0.318-0.314-0.318v-0.739h-0.107h-0.421
	c-0.529,0-1.164,0-2.007,0.211v0.214c0,0.211,0,0.314-0.107,0.314v0.318H93.67l-0.211-0.318c0-0.739,0.211-1.161,0.318-1.161
	c0,0,0.211-0.421,0-0.421l0.211-0.107h0.421c0-0.632,0.107-0.739,0.107-0.739v-0.107h0.421c0.739-0.525,1.375-0.421,2.007-0.314
	c0.529,0.211,1.057,0.421,1.689,0.314c0.529,0,0.846-0.314,1.164-0.525c0.525,0,0.632-0.214,0.632-0.529v-0.211v-0.425h0.632
	c0.529,0,0.529,0.425,0.529,0.636c0,0,0,0.421,0.529,0.739h0.107v0.314c0.525,0.529,1.371,0.425,2.218,0.425
	c0.529,0,1.054,0.104,1.582,0.421h0.107c0.104,0,0.314-0.107,0.314-0.739c0.107-0.107,0.107-0.107,0.529-0.107h0.318h0.107v0.107
	v0.739c0,0.107-0.107,0.529,0,0.529v0.421h0.421c0.632,0.211,1.057-0.421,1.371-0.421c0-0.421,0.107-0.529,0.636-0.529
	c0-0.739,0.421,0,0.421,0c0.421,0.107,0.421,0.529,0.421,0.95c0.318,0.739,1.268,1.057,2.114,1.268h0.211
	c0.318-0.211,0.632-0.632,0.95-1.057c0.846,0,1.689-0.211,2.007-0.632h0.421h0.318c0.211,0,0.529,0,0.632,0.421
	c0.318,0,0.318,0,0.739-0.421c0-0.421-0.421-1.268,0-1.375v-0.525v-0.214h0.636c0.843,0,2.639-0.314,3.168,1.586h0.104h0.529h0.107
	h0.529c0-1.161-0.529-1.9-0.529-2.536h0.529c0.529,0,0.529-0.314,1.161-0.314c0.421-0.107,0.421-0.529,0.95-0.529
	c0.318-0.425,0-0.636,0.107-1.268h0.211c0.632-0.632,1.161,0.211,1.689,0.211c0.318,0.421,0.318,0.421,1.057,0.421
	c0-0.421,0.314-0.421,0.421-0.632c0.211,0,0-0.846-0.107-0.846c0,0-0.314,0-0.314-0.211v-0.104l-0.739-0.318
	c0,0,0-0.421,0.739-0.421v-0.425c0.314,0,0.421-0.104,0.95,0c0.211,0,0.739-0.104,0.739-0.529v-0.207L129.261,37.069z M12.778,20.17
	l-0.211,0.107h-0.425h-0.104c-0.529-0.107-0.529-0.529-0.529-0.529V19.22c0,0,0.529,0,0.529-0.104l0.104,0.104h0.107
	c0.107,0.211,0.318,0.529,0.529,0.529V20.17z M19.113,20.17l-0.421,0.529c-0.107,0.421-0.421,0.211-0.846-0.104
	c-0.211-0.107-0.529-0.318-0.739-0.318c0,0,0-0.107-0.529-0.107V19.96c0.529,0,0.529-0.211,0.529-0.211
	c0.211-0.318,0.211,0,0.636-0.318h0.104h0.318c0.318,0.318,0.529,0.318,0.95,0.529V20.17z M23.656,18.377l-0.318,0.314
	c-0.318-0.104-0.529-0.211-0.739-0.314c-0.529-0.214-0.739-0.636-1.057-1.164v-0.314h0.214l0.314-0.425h0.211v-0.211
	c0.107,0,0.211,0.107,0.318,0.107c0.529,0.104,0.739,0.104,0.739,0.529c0.318,0.314,0.318,0.843,0.318,1.161V18.377z M32.527,57.872
	h-0.318h-0.107h-0.739v-0.525c0-0.425,0-0.529,0.425-0.636h0.314c0.107,0,0.211,0.107,0.425,0.107c0,0.104,0.211,0.104,0.211,0.529
	L32.527,57.872z M73.817,39.18h0.211h1.268h0.421c0.318-0.421,0.529-0.421,0.636-0.421h0.211h0.104c0.425,0,0.529,0.421,0.529,0.421
	v0.211v0.214c0,0.314-0.104,0.314-0.104,0.314c-0.318,0.211-0.529,0.636-0.739,0.846c-0.214,0.211-0.318,0.314-0.636,0.314v-0.211
	c-0.104-0.104-0.314-0.211-0.421-0.314c-0.318-0.214-0.632-0.425-0.632-0.636c-0.318,0-0.425-0.314-0.636-0.314
	s-0.211,0-0.211-0.214H73.5L73.817,39.18z M76.564,42.348v0.107c-0.107,0.211-0.107,0.318-0.211,0.529
	c-0.318,0.314-0.636,0.529-0.636,1.054c-0.211,0.107-0.314,0.107-0.421,0.107h-0.107h-0.525v-0.107v-1.054
	c0.211-0.107,0.525-0.211,0.632-0.318c0.318-0.211,0.421-0.318,0.421-0.318h0.529h0.107H76.564z M73.289,41.08h0.107h0.843v0.425
	c-0.211,0.318-0.529,0.632-0.843,0.739c-0.211,0-0.425,0.104-0.636,0.104h-0.104h-0.214v-0.314v-0.107v-0.421
	c0-0.425,0.318-0.425,0.425-0.425H73.289z M70.968,38.337c0,0,0.314,0,0.314-0.107c0.318-0.211,0.529-0.318,0.529-0.421h0.107h0.318
	c0.207,0,0.207,0,0.421,0.104c0,0.846,0.104,1.268,0.104,2.007v0.318h-0.318h-0.525H71.81c0-0.421-0.529-0.846-0.843-1.057V38.337z
	 M59.454,36.751c0.636,0.425,1.268,0.739,1.268,1.057v0.104c-0.529,0.318-1.057,0.214-1.268,0.107c-0.104,0-0.104-0.107-0.104-0.107
	H59.14l-0.318-0.421l-0.632-0.107c0-0.207,0-0.314,0.632-0.739c0-0.104,0.318,0,0.529-0.104v0.104L59.454,36.751z M61.04,40.237
	c-0.318,0.211-1.057,0.843-1.478,1.268h-0.107H59.35H59.14c-0.318,0-0.318,0-0.318-0.636v-0.421
	c0.104-0.107,0.421-0.211,0.632-0.211c0.425-0.107,0.846-0.318,1.268-0.632C60.722,39.919,60.722,39.919,61.04,40.237z
	 M56.815,9.082h0.211h0.739h0.318V9.61h0.529c0,0,0.211,0,0.211,0.107c0,0-0.211,0-0.211,0.421h-0.529l-0.318,0.318
	c0,0,0,0.107-0.104,0.107c-0.211,0-0.211,0-0.636-0.425c0-0.421-0.211-0.421-0.211-0.529V9.082z M56.076,38.759
	c0.211,0,0.211,0,0.739-0.421l0.211,0.421c0.211,0,0.529,0.107,0.739,0.318c0.211,0.104,0.318,0.314,0.318,0.314v0.529v0.318h-0.318
	h-0.739c-0.211-0.632-0.739-0.846-0.95-1.057V38.759z M54.068,33.266c0.211,0,0.636-0.314,0.95-0.529h0.107h0.104h0.318h0.211
	c0,0,0.107,0,0.107,0.529v0.107c-0.107,0.211-0.636,0.739-0.739,0.739h-0.107h-0.632c0-0.529,0-0.529-0.318-0.739V33.266z
	 M47.944,35.694h0.318h0.211c0.104,0,0.211,0,0.421,0.107c0.107,0.107,0.211,0.211,0.318,0.318h0.211c0.318,0,0.739,0,0.95,0.421
	v0.529c-0.529,0.314-1.054,0.314-1.478,0.211c-0.104,0-0.318,0-0.421-0.104c-0.211-0.107-0.421-0.107-0.529-0.107
	c-0.421,0-0.421,0-0.421-0.529h-0.107C47.415,36.119,47.522,35.802,47.944,35.694z M45.305,41.08h0.318
	c0.421-0.632,1.054-0.632,1.793-1.161V39.18v-0.104c0.421,0,0.95,0.104,1.479,0.104c0.318,0.107,0.739,0.211,1.057,0.211h0.421
	v0.214l-0.421,0.314c-0.421,0.211-0.739,0.318-1.057,0.529c-0.104,0.107-0.211,0.211-0.318,0.421v0.211l-0.314,0.425l-0.211,0.529
	v0.314h0.211c0.211,0,0.211,0.107,0.314,0.107c0.107-0.107,0.214-0.107,0.318-0.107c0.636,0,1.268,0.107,2.007,0.107
	c0.211-0.107,0.211-0.107,0.632-0.107c0.739,0.107,1.482,0.636,1.482,0.107c0.843-0.107,1.054-0.95,1.9-0.95l0.104,0.104
	c0.211,0,0.318,0.529,0.739,0.739c1.057,0.318,1.586,0.95,2.007,1.689c0.318,0.425,0.636,0.846,1.057,1.375v0.421h-0.211
	c-0.318,0.107-0.529,0.107-0.846,0.211c-0.843,0.107-1.796,0.107-2.746,0c-2.111-0.314-4.225-1.054-6.125-1.582
	c-0.318-0.107-0.632-0.211-0.95-0.318c-1.582-0.421-3.275-0.632-4.857-0.846H42.98c-0.421-0.314-0.421-0.843-0.421-0.95v-0.314
	c0,0,0.421,0,0.421-0.529h0.107C44.14,41.505,44.669,41.505,45.305,41.08z M42.558,38.23v-0.318h0.318h0.211
	c0.211,0.107,0.421,0.107,0.421,0.318c0,0.107,0.318,0.107,0.318,0.529c0,0.421-0.318,0.421-0.318,0.421v0.211h-0.421
	c-0.211,0-0.318,0-0.529-0.211c0-0.421-0.211-0.421-0.211-0.843C42.348,38.337,42.558,38.337,42.558,38.23z M42.241,40.237v0.211
	c0,0.421,0,0.421-0.632,0.632c-0.211,0-0.425,0.107-0.636,0.107c-0.314,0.211-0.632,0.318-0.95,0.318l-0.314-0.425
	c0,0,0.314-0.211,0.314-0.632c0-0.211,0.421-0.211,0.846-0.529h0.104h0.636v0.318H42.241z M40.023,43.512v0.211
	c0,0.314,0,0.314-0.314,0.314h-0.107c-0.421,0.107-0.632,0-1.057,0l-0.211-0.314v-0.425c0.211-0.314,0.318-0.314,0.636-0.525h0.314
	c0.211,0.104,0.318,0.104,0.318,0.211c0.107,0,0.107,0.104,0.107,0.314C40.023,43.298,40.023,43.512,40.023,43.512z M38.544,37.069
	v-0.529c0-0.107,0.425-0.421,0.425-0.421h0.632h0.107h0.211h0.104v1.057c0,0.207,0.421,0.207,0.529,0.207c0,0,0.318,0,0.318,0.107
	v0.318h0.104c0.318,0,0.318,0.421,0,0.529h-0.104c0,0-0.846,0.421-0.95,0h-0.211v-0.529h-0.107c-0.632-0.318-0.739,0-1.057-0.318
	h-0.529v-0.107C38.016,37.176,38.544,37.176,38.544,37.069z M35.484,36.012v-0.211c0.104-0.421,0.314-0.421,0.632-0.421l0.107-0.107
	h0.525c0.529,0,0.953,0,1.268,0.107v0.314v0.107c0,0.318-0.843,0.211-1.161,0.632c0,0,0,0.107-0.107,0.107
	c-0.104,0-0.314,0.104-0.525,0.104c0,0-0.425,0-0.636-0.104l-0.104-0.107V36.012z M33.795,36.119H33.58h-0.104
	c-0.211-0.107-0.211-0.318-0.425-0.318c-0.314,0-0.314-0.421-0.314-0.529h0.314v-0.421h0.214c0.104,0,0.211,0.104,0.211,0.104
	c0.318,0,0.318,0.318,0.318,0.425C34.32,35.694,34.32,35.802,33.795,36.119z M33.477,3.803c0,0-0.107-0.107-0.211-0.107V3.593V3.275
	h0.211h0.318h0.525h0.636c0,0.318,0.318,0.421,0.318,0.636v0.632v0.421H34.32C33.898,4.543,33.795,4.014,33.477,3.803z
	 M34.32,40.237v-0.318v-0.314v-0.214c0.636-0.211,1.164-0.211,1.478-0.314h0.318c0.107,0,0.107,0.104,0.529,0.104v0.211
	c0,0.214,0.104,0.846,0,0.846c-0.421,0.211-0.846,0.843-0.846,0.843h-0.314h-0.211C35.273,40.448,34.955,40.237,34.32,40.237z
	 M36.748,47.522c-0.632,0.425-0.95,0.425-1.264,0h-0.211c0-0.632,0.211-0.632,0.314-0.95c0-0.529,0.211-0.529,0.211-0.739
	c0.318,0,0.636-0.211,0.95-0.318c0.107-0.104,0.318-0.104,0.425-0.104c0.843-0.318,1.582-0.421,2.428-0.421
	c0.421-0.107,0.95-0.107,1.371-0.107h0.636h1.478c1.689,0,3.486,0.211,5.175,0.95c0.314,0,0.314,0.211,0.314,0.211l-0.314,1.375
	c0,0.104-0.318,0.529-0.739,0.843h-0.107c0,0,0-0.314-0.529-0.314c-0.211-0.425-0.739-0.425-1.264-0.529
	c-0.318-0.529-0.953-0.529-1.482-0.529c-0.314,0-0.314,0-0.632,0.211c0,0,0,0.318-0.421,0.421H42.98c0,0,0,0.425-0.104,0.425h-0.318
	h-0.211c0,0,0-0.425-0.107-0.425v-0.104c-0.314-0.318-0.314-0.318-0.632-0.318V46.89v-0.846h-0.636h-0.104v-0.211
	c-0.425,0-0.846,0-0.95,0.211h-0.211v0.529v0.318h-0.107c-0.318,0-0.318,0.211-0.632,0.529h-1.375L36.748,47.522z M39.708,50.694
	v0.314v0.211c0,0,0,0.107-0.107,0.107c-0.421,0.529-0.95,0.739-1.586,0.739v-0.846v-0.211c0,0,0-0.314,0.529-0.314
	c0-0.107,0-0.107,0.107-0.214c0.211,0,0.318,0,0.632,0.107h0.318L39.708,50.694z M38.862,55.55c0,0,0,0.104-0.211,0.104h-0.107
	c-0.529-0.104-0.529-0.843-0.739-1.268c0-0.314,0.211-0.736,0.739-0.843h0.107c0,0,0-0.529,0.211-0.529l0.107,0.529v0.107
	c0.421,0,0.632,0,0.632,0.104c0.107,0,0.107,0.107,0.107,0.318c0,0.104,0,0.211-0.107,0.314
	C39.494,54.915,38.969,55.233,38.862,55.55z M59.982,50.479c0,1.057-0.211,2.114-0.529,3.171c-0.529,1.9-1.264,3.8-1.689,5.807
	c0,0.211,0,0.421-0.104,0.739H57.45v0.211c-0.846,0-1.693,0.107-2.432,0.107c-2.111,0.104-4.118,0.211-6.125,0.211
	c-1.9-0.107-3.8-0.211-5.807-0.529h-0.211c-0.739,0-1.375-0.211-1.903-0.421c-0.421-0.318-0.739-0.636-1.054-1.164
	c-0.211-0.104-0.211-0.739-0.211-0.739V57.45l0.314-0.104c0.421-0.425,0.421-0.636,0.846-0.636V56.29v-0.107v-0.211h0.104
	c0.636-0.318,0.953,0,1.375,0c0,0,0.104,0,0.104-0.318c0-0.529-0.104-0.843-0.525-1.268h-0.318c0,0,0-0.314-0.636-0.314h-0.104
	V53.65v-0.636h0.104c0.211,0,0.739,0,0.953-0.107h1.161h0.421v0.107c0.318,0,0.632,0.636,1.161,0.636h0.529c0,0,0-0.107,0.107-0.636
	c0-0.107,0.318-0.107,0.318-0.421c0-0.529,0.739-0.529,1.054-0.739v-1.161c0,0,0-0.214-0.314-0.214v-0.314
	c0.843-0.425,1.793-0.739,2.532-1.268c0.529-0.425,0.95-0.846,1.057-1.478c0-0.318,0.421-0.318,0.421-0.529h0.107
	c0.95,0,2.007,0.529,3.168,0.632c0.421,0.107,0.843,0.211,1.371,0.318c0.95,0.211,1.903,0.211,2.746,0.318
	c0.636,0.104,1.161,0.211,1.689,0.421c0.211,0,0.318,0.107,0.529,0.107l0.739,0.211C60.722,49.108,59.982,49.847,59.982,50.479z
	 M60.722,42.773H60.09v-0.318c0-0.107,0.632-0.107,0.632-0.421v-0.107c0.107-0.211,0.425-0.318,0.636-0.318
	c0.314-0.104,0.529-0.104,0.529-0.104h0.211h0.421c0,0,0.104,0.421,0.104,0.529c0,0.104-0.104,0.104-0.104,0.104
	c-0.421,0.211-0.632,0.318-0.632,0.636c0,0.104-0.214,0.104-0.529,0.104C61.147,42.983,60.829,42.876,60.722,42.773z M62.518,45.622
	c-0.421-0.318-0.632-0.739-0.739-1.479v-0.107c0.107,0,0.107-0.314,0.318-0.314h0.421h0.104c0.425,0,0.529,0.421,0.529,1.161v0.529
	c0,0.421,0,0.421-0.104,0.421h-0.318h-0.107C62.622,45.73,62.518,45.73,62.518,45.622z M64.629,68.011v0.211
	c1.689,1.903,1.057,4.543,0,6.55v0.104H64.1v-0.104c-1.054-2.114-0.95-4.964-0.95-7.392v-0.318h0.107h0.318
	C63.996,67.378,64.525,67.693,64.629,68.011z M66.532,50.694c-0.529,1.475-1.164,2.743-1.903,3.907
	c-0.421,0.739-0.95,1.371-1.478,2.004l-0.104,0.107c0,0,0-0.107-0.318-0.107c0-1.793,1.057-3.589,1.371-5.385
	c0.107-0.314,0.318-0.525,0.529-0.632c0.107-0.107,0.214-0.107,0.425-0.107h0.104h0.529h0.107h0.739V50.694z M67.693,47.947
	c-0.107,0.104-0.211,0.211-0.211,0.211l-0.107,0.104h-0.211l-0.318-0.314h-0.314c0-0.425-0.739-1.057-0.739-1.375v-0.314v-0.214
	c0.843-0.211,1.161-0.421,1.689-0.632h0.529h0.211C68.011,46.258,68.011,47.419,67.693,47.947z M67.482,42.876
	c-0.425,0-0.739,0.107-0.95,0.421c-0.214,0.214-0.739,0.214-0.739,0.425v0.314h0.525l0.214,0.107h0.314c0.107,0,0.107,0.739,0,0.739
	c0,0.107-0.314,0.107-0.314,0.107c-0.739,0-0.846,0-1.689-0.107c-0.214,0-0.214,0-0.214-0.739v-1.161
	c0.214-0.636,1.057-1.478,1.689-1.478h0.214c0,0,0.314-0.425,0.314-1.057h0.107v-0.211c0.211,0,0.318,0,0.529,0.104
	c0.104,0.107,0.314,0.214,0.529,0.529h0.314c0.425-0.421,0.739-0.632,1.268-0.632H69.7h0.529v2.218v0.318
	C69.275,43.087,68.221,42.773,67.482,42.876z M73.396,48.579c-0.529,0.107-1.057,0.107-1.586,0.107h-1.582
	c0-1.164,0.211-2.114,0.314-3.275h0.425c0.314,0,0.314-0.421,0.843-0.421h0.107h0.318h0.207v0.421h0.846
	c0,0.104,0,0.211,0.107,0.318c0,0.211,0.211,0.314,0.421,0.314c0.529,0,0.846-0.211,1.371-0.211l0.107,0.211
	c0.421,0.214,0.421,0.529,0.421,0.529s0.318,0.211,0.636,0.425c0.104,0,0.104,0.104,0.211,0.104h0.104l0.425-0.211
	c0-0.318,0.104-0.632,0.843-0.846l0.318-0.211h0.529v0.211c0.211,0.214,0.318,0.529,0.318,0.846v0.211
	c-0.846,0.529-1.796,0.846-2.746,1.057c-0.318,0.104-0.636,0.211-1.057,0.211C74.664,48.472,74.028,48.579,73.396,48.579z
	 M76.667,52.908c0,0.107-0.211,0.107-0.314,0.107h-0.107h-0.95h-0.107h-0.525v-0.107c0-0.421,0.314-0.843,0.632-0.95
	c0.107-0.104,0.318-0.104,0.421-0.104h0.318h0.211h0.107c0,0.211,0.104,0.529,0.314,0.529V52.908z M81.528,50.479v0.214H81.21v0.314
	c0,0.211,0,0.846-0.318,1.057c0,0,0,0.318-0.421,0.529c0,0-0.211,0.314-0.318,0.314h-0.318c0,0-0.211,0-0.211-0.314
	c-0.104-0.211-0.104-0.529-0.525-0.529v-0.211h-0.318c0,0,0-0.318-0.529-0.318v-0.529v-0.314c0,0-1.057,0.314-1.057,0
	c-0.421,0-0.632-0.107-0.843-0.214c-0.107-0.104-0.214-0.211-0.318-0.314c0-0.318,0.211-0.318,0.211-0.529h0.107
	c0.739-0.529,1.9-0.529,2.428-0.529h0.211h0.107v0.318c0.421,0,0.421,0.211,0.525,0.211c0.211,0,0.529,0,0.636-0.211h0.95h0.107
	C81.528,49.847,81.631,50.165,81.528,50.479z M82.795,37.912c-0.425,0-0.425,0-0.425,0.425H81.21h-0.318
	c0,0.421-0.421,0.421-0.632,0.739l-0.107-0.318c-0.318-0.846-0.529-1.375-0.529-1.689c0.211,0,0.211-0.425,0.529-0.425
	c0-0.104,0.107-0.104,0.107-0.104c0.318,0.104,0.632,0.104,0.95,0.104h0.846h0.104c0.211,0.532,0.211,0.532,0.636,0.739V37.912z
	 M86.385,35.273v-0.421c0-0.421,0-0.421,0.211-0.739h0.529h0.211l0.529,0.318v0.421c0,0.318-0.421,0.632-0.739,0.739
	c-0.107,0.104-0.211,0.104-0.211,0.104h-0.529V35.273z M89.234,37.176v0.207v0.107c0,0.318,0,0.318-0.211,0.421h-0.529
	c-0.525,0-0.95,0.107-1.371,0.214c-0.739,0.104-1.268,0.314-1.9,0.632c-0.425,0-0.739,0-0.95-0.421h-0.425
	c-0.318-0.529,0-1.161,0.636-1.268c0-0.425,0.739-0.425,0.843-0.529l0.318,0.104l0.211,0.425c0.107,0.107,0.107,0.107,0.318,0.314
	h0.211h0.739h0.211h0.421c0.107-0.207,0.107-0.739,0.739-0.739h0.529h0.211V37.176z M90.399,17.428h-0.425h-0.739l-0.211-0.214
	v-0.211v-0.104c0.211-0.211,0.211-0.425,0.529-0.636c0.107,0,0.211-0.104,0.421-0.211h0.107h0.318h0.314
	c0,0.211,0,0.211,0.214,0.211C90.713,16.688,90.713,17.003,90.399,17.428z M93.777,48.687c0.211-0.425,0.529-0.739,0.739-0.739
	h0.318c0,0,0.525,0.314,0.525,0.739c0,0.211-0.525,0.421-0.843,0.95v0.529h-0.107v-0.529c-0.421,0-0.632-0.529-0.632-0.529
	C93.777,48.897,93.67,48.897,93.777,48.687z M97.895,42.033c-0.211,0.314-0.529,0.314-0.529,0.314h-0.421h-0.632h-0.318v-0.843
	c0.318-0.318,0.529-0.425,0.95-0.95l0.107-0.107c0,0,0.314,0,0.314-0.211c0,0,0,0.211,0.318,0.211
	c0.211,0.632,0.211,1.057,0.211,1.479V42.033z M102.859,21.334c-0.318,0.421-0.421,0.843-0.421,0.843h-0.318
	c-0.211-0.104-0.632-0.211-0.95-0.421v-0.421c0.318-0.318,0.421-0.529,0.95-0.529c0.107,0,0.107-0.107,0.107-0.107
	c0.211,0,0.211-0.421,0.211-0.421h0.104l0.318,0.421l0.211,0.107v0.211C103.069,21.334,102.859,21.334,102.859,21.334z
	 M105.605,42.348v0.425h-0.318c-0.211-0.211-0.529-0.318-0.843-0.425c-0.318-0.104-0.739-0.104-1.057-0.314v-0.107
	c0-0.421-0.318-0.421-0.318-0.421h0.318V41.08h0.632h0.425h0.314c0.529,0,0.529,0.425,0.846,0.425
	C105.605,42.033,106.026,42.348,105.605,42.348z M107.294,23.024h-0.318v0.104l-0.421,0.425c-0.211,0-0.318-0.107-0.421-0.318
	c-0.211-0.107-0.318-0.211-0.529-0.211c-0.318-0.318-0.318-0.318-0.739-0.846v-0.421h0.211h0.211c0.318,0,0.529,0,0.846,0.211
	c0.314,0.107,0.529,0.421,0.843,0.739h0.318V23.024z M113.947,44.883c-0.211,0-0.632,0.211-0.95,0.318
	c-0.107,0.104-0.318,0.211-0.421,0.211h-0.211c-0.107-0.421-0.425-0.529-0.107-1.375c0.107-0.314,0.318-0.314,0.529-0.314h0.211
	c0.318,0,0.632,0.104,0.632,0.314c0.318,0,0.318,0,0.318,0.107V44.883z"/>
</svg>
